<svg id="Слой_1" data-name="Слой 1" xmlns="http://www.w3.org/2000/svg" viewBox="0 0 400 400"><defs><style>.cls-1,.cls-5{fill:#1a1d24;}.cls-2{fill:#fff;}.cls-3,.cls-4{fill:#c69c6c;}.cls-4,.cls-5{fill-rule:evenodd;}.cls-6{fill:#d36c1e;}.cls-11,.cls-7{fill:#e5817d;}.cls-8{opacity:0.4;}.cls-11,.cls-9{opacity:0.5;}.cls-10{fill:#b3957d;}</style></defs><path class="cls-1" d="M384.48,200c0,101.88-82.59,184.48-184.48,184.48S15.52,301.88,15.52,200,98.12,15.52,200,15.52,384.48,98.12,384.48,200Z"/><path class="cls-2" d="M352.47,200A152.47,152.47,0,1,1,200,47.53,152.47,152.47,0,0,1,352.47,200Z"/><path class="cls-3" d="M200,378A178,178,0,0,1,74.16,74.16,178,178,0,1,1,325.84,325.84,176.76,176.76,0,0,1,200,378Zm0-350.84C104.68,27.13,27.13,104.68,27.13,200S104.68,372.87,200,372.87,372.88,295.33,372.88,200,295.33,27.13,200,27.13Z"/><path class="cls-1" d="M314.49,197.28a1.86,1.86,0,0,0,1.29-.39,2.59,2.59,0,0,0,.52-.93h1.11v10.49h-1.65v-8h-1.27Z"/><path class="cls-1" d="M328.28,203.84c0,1.82-.83,2.73-2.51,2.73s-2.46-.88-2.46-2.64v-.27h1.56V204c0,.7.28,1,.86,1s.91-.43.91-1.29v-1.92a1.57,1.57,0,0,1-1.53.93c-1.22,0-1.83-.8-1.83-2.39v-1.93c0-1.75.84-2.63,2.5-2.63s2.5.88,2.5,2.63Zm-1.64-3.58v-1.89c0-.68-.29-1-.86-1s-.85.34-.85,1v1.89c0,.69.28,1,.85,1S326.64,201,326.64,200.26Z"/><path class="cls-1" d="M338.27,203.84q0,2.73-2.52,2.73t-2.46-2.64v-.27h1.56V204c0,.7.28,1,.86,1s.91-.43.91-1.29v-1.92a1.57,1.57,0,0,1-1.53.93c-1.22,0-1.83-.8-1.83-2.39v-1.93c0-1.75.84-2.63,2.5-2.63s2.51.88,2.51,2.63Zm-1.65-3.58v-1.89c0-.68-.29-1-.86-1s-.85.34-.85,1v1.89c0,.69.28,1,.85,1S336.62,201,336.62,200.26Z"/><path class="cls-1" d="M343,203.05l3-7.09h1.79v7.09h.79v1.5h-.79v1.9h-1.64v-1.9H343Zm3.15,0v-3.88l-1.64,3.88Z"/><path class="cls-1" d="M52.18,200.38h2.27v1.5H52.18V205H55v1.5H50.53V196H55v1.5H52.18Z"/><path class="cls-1" d="M62.31,195.84c1.62,0,2.43.88,2.43,2.63V199H63.18v-.66c0-.69-.27-1-.83-1s-.82.34-.82,1a2.22,2.22,0,0,0,.5,1.36,6.16,6.16,0,0,0,.52.56l.44.41.16.14a7.85,7.85,0,0,1,.58.58,4.93,4.93,0,0,1,.52.68,3.4,3.4,0,0,1,.5,1.83c0,1.76-.81,2.64-2.45,2.64s-2.46-.88-2.46-2.64v-1H61.4V204c0,.69.28,1,.85,1s.85-.34.85-1a2.18,2.18,0,0,0-.49-1.35,6.44,6.44,0,0,0-.53-.56l-.59-.55c-.24-.23-.44-.42-.59-.58a4.63,4.63,0,0,1-.51-.68,3.42,3.42,0,0,1-.51-1.84C59.88,196.72,60.69,195.84,62.31,195.84Z"/><path class="cls-1" d="M69.28,196h5.09v1.5H72.65v9H71v-9H69.28Z"/><path class="cls-4" d="M283,222.22h0c-1.47-.19-1.47,1.65-.37,1.65h.18c.74,0,1.11-1.47.19-1.65"/><path class="cls-4" d="M146.93,271.31a.18.18,0,0,0-.18-.18l-.92-.19h-.18L142,275.72v.19a2.32,2.32,0,0,1-.18,1.09v.19c.18.18.18.37.18.73,0,.19,0,.19.18.19h0a.19.19,0,0,0,.19-.19l4.59-5.69v-.56c.19-.18.19-.18,0-.36l.19.18h.18a.18.18,0,0,0,.18-.18v-.18l-.55.18h0"/><path class="cls-4" d="M134.62,162.28h0a.18.18,0,0,0-.19.18v.37l-.55.55v.19a.18.18,0,0,0,.18.18l6.07,3.86a4.94,4.94,0,0,1,1.29-1.47l-6.8-3.86h0"/><path class="cls-4" d="M156.13,272.59,152.26,279c-.18.37-.18.92.19,1.1.18,0,.18.19.36.19a1.4,1.4,0,0,0,.74-.37l.92-1.29c0-.18.18-.18.18-.36l3.32-5.16Z"/><path class="cls-4" d="M133.7,180.11h0l-.19.19v.36c.19.37.19.93.37,1.29h0c.18-.55.18-1.29.37-1.84h-.55"/><path class="cls-4" d="M140.31,277.92h0c-.18,0-.18,0-.18.19l-4.78,6.07a.87.87,0,0,0,.19,1.1.66.66,0,0,0,.54.18c.19,0,.37-.18.56-.36l1.83-2.21v-.73l.19.18h.18s.19,0,.19-.18l1.47-1.84v-.92a.68.68,0,0,1,.18-.55c0-.19.19-.37.19-.74v-.37c-.56.37-.56.18-.56.18"/><path class="cls-4" d="M183.89,276.82h0a2.84,2.84,0,0,0-1.47.37l-.18.18-2.4,11.22a.19.19,0,0,0,.19.19h.37c.18.18,0,.36-.19.73l-.18.18h-.37c-.18,0-.18,0-.18.19l-.37,1.29v.18h.18c.19,0,.37-.18.55-.18.19-.19.56-.19.92-.37a.19.19,0,0,0,.19-.19l3.31-13.42V277a.66.66,0,0,0-.37-.19"/><path class="cls-4" d="M157.41,290.61V291c.19.19.37.37.37.55s-.18.19-.18.37a.94.94,0,0,0-.37.74v.18a.69.69,0,0,0,.18.55v.18a.19.19,0,0,0,.19.19h0c.18,0,.18,0,.18-.19l5-10.11v-.18s0-.19-.18-.19a1.45,1.45,0,0,1-.74-.36,2.73,2.73,0,0,1,.37-1.29c.19-.36.37-.74.55-1.1h0l.56-.55a2.75,2.75,0,0,0,.73-.55l.19-.19v-.18a8.18,8.18,0,0,0-.19-.93c0-.18-.18-.18-.18-.36.18-.19.18-.19.18-.37.19-.18.19-.37.37-.37a3.2,3.2,0,0,0,.18,1.29.19.19,0,0,0,.19.19h0c.18,0,.18,0,.18-.19l1.84-3.68-2-.36Z"/><path class="cls-4" d="M119.17,267.63c-.37.19-.37.74-.18,1.11.18.18.37.36.55.36a.69.69,0,0,0,.55-.18l12.5-9.75-.92-1.65Z"/><path class="cls-4" d="M186.28,139.29h-.55a3,3,0,0,0-1.29-.73h-.18v.18l2.2,9.93c.74-.18,1.66-.37,2.39-.55l-2-8.83c-.37.19-.55,0-.55,0"/><path class="cls-4" d="M172.86,145.36h0a.19.19,0,0,0-.19.19c-.18.55.19.92.37,1.28V147a1.51,1.51,0,0,1-.37,1.1h-.36s-.19,0-.19.18v.19l2.57,5.7a17,17,0,0,1,1.66.55l.92-.92-4.05-8.27a.54.54,0,0,0-.36-.19"/><path class="cls-4" d="M170.28,287.12v.19h.19c.37,0,.55-.19.55-.38h0l.18.19h.19a.18.18,0,0,0,.18-.19l2.39-6.42v-.38a.63.63,0,0,0-.18-.36h-.19c-.18,0-.18-.37-.18-.74a2.36,2.36,0,0,1,1.1-.18c.19,0,.19,0,.19-.19l1.1-3.31H174Z"/><path class="cls-4" d="M162.56,143.16h0c-.18,0-.18,0-.18.18a2.62,2.62,0,0,1-.74.55h-.18a.18.18,0,0,0-.18.18v.37l5.69,9.38h2.58l-6.62-10.3c-.19-.36-.37-.36-.37-.36"/><path class="cls-4" d="M190.87,289.88H190l-.18-.19a.19.19,0,0,0-.19.19l-.19,2.39a.93.93,0,0,0,.74.91h0a.78.78,0,0,0,.73-.73l.37-2.39-.37-.18h0"/><path class="cls-4" d="M126,146.28h.19v.19a.18.18,0,0,0,.18.18l3.31,2.58H130a.19.19,0,0,0,.19-.19.85.85,0,0,0,0-.92v-.18h.18a.18.18,0,0,0,.18-.19l.18-.18a.18.18,0,0,0-.18-.18l-10.3-8.1a.67.67,0,0,0-.55-.18c-.18,0-.36.18-.55.37a.87.87,0,0,0,.19,1.1Z"/><path class="cls-4" d="M107,160.25l20,9.93h.36l.19-.18c0-.55-.19-1.28-.19-1.66a.18.18,0,0,0-.18-.18l-19.49-9.37h-.37a1,1,0,0,0-.73.36.81.81,0,0,0,.37,1.1"/><path class="cls-4" d="M110.89,194.27a1,1,0,0,0,.74.92l20.23,2.39c0-.55.18-1.29.18-2l-20.41-2a.8.8,0,0,0-.74.74"/><path class="cls-4" d="M128.18,160.07c.18,0,.18.18,0,0l1.65,1.1h.38l.18-.18v-1.47a.18.18,0,0,0-.18-.18l-1.48-.93h-.37l-.18.19s0,.19-.18.19c.18.55,0,.73.18,1.28"/><path class="cls-4" d="M116,174.05c-.36,0-.55.18-.73.55a.62.62,0,0,0,.55.92l11.22,4h.18c.18,0,.37-.18.55-.37a.67.67,0,0,1,.37-.18c.18-.18.55-.18.55-.55v-.19a.18.18,0,0,0-.19-.18l-12.31-4.23c0,.37,0,.19-.19.19"/><path class="cls-4" d="M99.49,182.13l25.56,6.07h.19l.18-.18c0-.18.19-.18.19-.37a1,1,0,0,0,.36-1.1.18.18,0,0,0-.18-.19l-25.93-5.7h-.18c-.37,0-.74.19-.74.56a1,1,0,0,0,.55.91"/><path class="cls-4" d="M128.18,228.47,116,232.88a1,1,0,0,0-.55.92c.19.37.37.55.74.55h.18l11.4-3.86a8,8,0,0,1,.37-2"/><path class="cls-4" d="M124.32,250.9c-.37.18-.37.74-.19,1.1a1,1,0,0,0,.74.37c.18,0,.37,0,.37-.18l2.2-1.29-.55-.74v-.73Z"/><path class="cls-4" d="M126.89,238.21,107,248.14a.87.87,0,0,0-.37,1.1.93.93,0,0,0,.73.37h.37l19.12-9v-2.39"/><path class="cls-4" d="M110.89,214.31a.79.79,0,0,0,.74.73L130,213.21c0-.55.19-1.29.19-2l-18.76,2.4a.81.81,0,0,0-.56.73"/><path class="cls-4" d="M131.3,203.1l-34,.36a.8.8,0,0,0-.74.74.79.79,0,0,0,.74.73l33.83.37a9.09,9.09,0,0,1,.18-2.2"/><path class="cls-4" d="M129.28,219.27l-29.79,7.18c-.36.18-.73.55-.55.91,0,.37.37.56.74.56h.18l29.05-6.25a12.24,12.24,0,0,0,.37-2.4"/><path class="cls-4" d="M266.81,235.27h0a15.65,15.65,0,0,1-1.11,1.84l13.8,6.44h.37c.18-.19.36-.19.73-.19.18,0,.37,0,.37.19.18.18.36.18.73.18h.37s.19,0,.19-.18l.18-.19v-.18s0-.19-.18-.19Z"/><path class="cls-4" d="M271.22,259.91s0-.19-.18-.19l-.37-.36h-.55a1.41,1.41,0,0,1-.92-.37v-.18h.18c.19,0,.19,0,.19-.19v-.37l-6.07-5h-.18v-.18L262,252h-.19a.18.18,0,0,0-.18.19c0,.18-.18.37-.37.55,0,.18-.18.18-.18.55,0,.19,0,.37-.18.37V254l.91.73h.37a1.4,1.4,0,0,1,.92.18c0,.19.19.19.19.37.36.55.73,1.29,1.65,1.29h.18c.19.18.19.18.37.37.37.36.74.55.92,1.1a.18.18,0,0,1-.18.18v.37L271,262.3h.37l.18-.19v-.18a18.07,18.07,0,0,0-.37-2"/><path class="cls-4" d="M266.81,245h-.19a.18.18,0,0,0-.18.19h0c-.37.18-.55.18-.74.37l-.18.18-.18.18c0,.19,0,.19.18.19l3.13,1.84h.18a.19.19,0,0,0,.19-.19l.36-.37c.19.19.37.19.74.37.18.19.37.19.37.37v.55s0,.19.18.19l.74.55h.37l.18-.19v-.18c.18-.18.37-.18.55-.37l.19-.18c0-.19,0-.19-.19-.19Z"/><path class="cls-4" d="M274.35,262.85a1,1,0,0,1-.74-.37l-.18-.18h-.19c-.37.18-.54.18-.73.36l-.18.19a.18.18,0,0,0,.18.18l1.29,1.11H274a.18.18,0,0,0,.18-.19.18.18,0,0,1,.19-.18,1.41,1.41,0,0,0,.36-.92h-.36"/><path class="cls-4" d="M253.94,270.57v-.18l-.55-.74-.19-.18h-.36a.94.94,0,0,0-.37.74h0c.18.18.37.36.55.36.37.37.55.18.92,0h0"/><path class="cls-4" d="M260.74,279l-.18-.18a.18.18,0,0,0-.18.18.19.19,0,0,1-.19.19H260a.19.19,0,0,1-.19-.19.18.18,0,0,1-.18-.18s0-.19.18-.19c.19-.18.19-.36.37-.36l.19-.19v-.19l-5-6.43-.19-.18a.18.18,0,0,0-.18.18c0,.18-.18.55-.18.74h-.56a.18.18,0,0,0-.18.18v.37l4.78,5.88h.19s0,.19.18.19l.18.18v.19l3.13,3.85.18.19a4.24,4.24,0,0,1,1.48.37h.18a.19.19,0,0,0,.19-.19v-.37Z"/><path class="cls-4" d="M273.8,249.61c0-.18-.19-.18,0,0h-.19c-.37.19-.74.37-.74.74v.18a1.25,1.25,0,0,0,1.29.74c.37,0,.74,0,.92-.19a.18.18,0,0,0,.19-.18c0-.18,0-.18-.19-.18Z"/><path class="cls-4" d="M245.48,259.36l-.18-.19h-.55a1.09,1.09,0,0,1-.92-.36h.92a.18.18,0,0,0,.18-.19v-.18l-3.13-3.87-.18-.18h-.18a3.77,3.77,0,0,0-1.11.74c-.18.18-.36.18-.55.36l-.18.19v.18l5,6.07h.19a.18.18,0,0,0,.18-.19c.18,0,.18.19.18.74v.18L251,270l.18.18c.19,0,.19,0,.19-.18a1.48,1.48,0,0,0-.19-1.28.63.63,0,0,0-.18-.37c.18,0,.18-.19.37-.19s.18-.18,0-.36Z"/><path class="cls-4" d="M287.4,214.68h.92a.8.8,0,0,0,.74-.74,1,1,0,0,0-.74-.92l-1.1-.18H287V213c0,.37.19.74.19,1.11,0,.55.18.55.18.55"/><path class="cls-4" d="M302.85,203.46l-15.63-.18H287a.18.18,0,0,0-.18.18.94.94,0,0,0,.37.74c0,.18.18.18.18.37h-.18c-.19,0-.19.18-.19.36a.19.19,0,0,0,.19.19l15.44-.19a.79.79,0,0,0,.74-.73c.18-.37-.19-.74-.55-.74"/><path class="cls-4" d="M300.46,226.26l-13.24-3.12H287l-.18.18v.18a.18.18,0,0,0-.18-.18c0-.18-.19-.18-.19-.37l-.18-.18-1.1-.37s-.19,0-.19.18a2.21,2.21,0,0,0-.37,1.47.19.19,0,0,0,.19.19l1.65.37h.19a.18.18,0,0,1,.18.18H287l13.24,2.94h.19c.37,0,.73-.18.73-.55a1.81,1.81,0,0,0-.73-.92"/><path class="cls-4" d="M191.79,283.44h0c-.18,0-.18,0-.36.19a3.31,3.31,0,0,0-.37,1.47c-.55,0-.74.36-.74.55a1.23,1.23,0,0,0,.74,1.1h.37l.18-.18.37-2.76c0-.37,0-.37-.19-.37"/><path class="cls-4" d="M292.92,248.14l-2.39-1.29h-.19a.18.18,0,0,0-.18-.18l-3.86-1.84h-.19a.18.18,0,0,0-.18.18v.19l-.55.55-.18.18v.37c0,.18,0,.18.18.18l7,3.32h.36a1,1,0,0,0,.74-.37c0-.74-.18-1.11-.55-1.29"/><path class="cls-4" d="M284.83,214.31h.73v.18a.19.19,0,0,0,.19.19h.92s0-.19.18-.19a2.09,2.09,0,0,0-.55-1.28h-.19l-2.57-.37c-.18,0-.18,0-.18.18s0,.19.18.37a1.84,1.84,0,0,1,1.29.92h0"/><path class="cls-4" d="M126.71,157.32l-1.47-.93c-.19,0-.19-.18-.37-.18a1.4,1.4,0,0,0-.74.37c-.18.37-.18.92.19,1.1l3.31,2.21H128a.26.26,0,0,0,0-.37l-.19-.18c0-.37.19-.37.37-.55.18,0,.18-.19.18-.19,0-.19,0-.19-.18-.19l-1.1-.73h-.37a.25.25,0,0,0,0-.36"/><path class="cls-4" d="M200.07,100.5a.8.8,0,0,0-.74.74l-.18,15.25v7s0,.19.18.19h.37c.19,0,.19.18.37.18V124c-.18,0-.18,0-.18-.19s-.19-.18-.19-.18h0a.18.18,0,0,0-.18.18l-.19,9c0,.19,0,.19.19.19h.37v.36l-.19-.18h-.37l-.18.18L199,148.12c.93.18,1.66.37,2.58.55l-.55-47.8c-.19,0-.56-.37-.92-.37"/><path class="cls-4" d="M208.34,282a.18.18,0,0,0,.18-.18c.19,0,.37.18.56.18h.55l.18-.18L208,263.4a.18.18,0,0,0-.19-.18h-.37c-.18-.19-.18-.19-.18-.37s.18-.19.37-.19.18-.18.18-.36l-.18-2.58c-.55.19-1.47.19-2.21.37l2.76,21.51s0,.19.18.19c-.18.18-.18.18,0,.18h0"/><path class="cls-4" d="M210.73,116A.93.93,0,0,0,210,115h-.19a.78.78,0,0,0-.73.73l-4.23,34.38,2.21,1.11Z"/><path class="cls-4" d="M199,290.06c0,.18.19.18.19.18h0a.19.19,0,0,0-.19.19l.19,16.36a.74.74,0,1,0,1.47,0l.18-16.73a.18.18,0,0,0-.18-.18h0l.18-.19.19-21.32c0-.19-.19-.37-.19-.55-.18-.19-.18-.37-.18-.74v-.18a1,1,0,0,0-.73-.56l-.19-.92c.19-.18.37-.55.73-.55h0v1.47a.19.19,0,0,0,.19.19c.18,0,.18-.19.18-.19v-5.88a11.48,11.48,0,0,1-2.57.18Z"/><path class="cls-4" d="M194.55,261.38h-1.1a15.18,15.18,0,0,1-.55,4,15.86,15.86,0,0,1-1.11,2.95l-.36,3.49v.55a1.34,1.34,0,0,0,.73.73c.37.19.55.37.37.93h-.19a.77.77,0,0,0-.73.73c0,.19.18.19.18.37h0c0,.18.19.18.19.18h.18a.7.7,0,0,0-.18.56.18.18,0,0,1-.19.18h-.55a.18.18,0,0,0-.18.18l-.19,1.65v.19h.37V279c0,.19-.18.55-.18.74,0,.74.73.91,1.1.91h.19l.18-.17.74-5.34a.18.18,0,0,0-.19-.18h-.18c0-.19.18-.19.18-.37v-.37l1.66-12.87c0,.18-.19,0-.19,0"/><path class="cls-4" d="M190,115.21h0c-.56,0-.74.37-.74.92l2,20.22a.19.19,0,0,0,.19.19c.18,0,.18,0,.18.18h-.18c-.19,0-.19.19-.19.37l1.11,10.85h2.39l-4.05-32.18c0-.37-.37-.55-.73-.55"/><path class="cls-4" d="M245.11,296.31v-.18c-.18-.19-.36-.37-.55-.37s-.18,0-.18-.18c.18-.19.18-.37.37-.37V295l-1.11-2.2a.18.18,0,0,0-.18-.18h0c-.37.18-.55.18-.74.36l-.18.18c-.19,0-.19.19-.19.37l.93,1.84s0,.19.18.19h.18v.18l.56,1.29a1,1,0,0,0,.73.37h.37c.18,0,.18-.19.18-.19v-.18a.73.73,0,0,1-.37-.74"/><path class="cls-4" d="M242.35,291.72c0-.74-.36-.74-.73-.92-.18,0-.18,0-.36-.19h0c0-.18,0-.18.18-.37s.36-.36.36-.55h0a.59.59,0,0,0-.54-.55l-.19-.18v-1.11l-1.47-3.31-.19-.18v-.18l-.55-1.29a.18.18,0,0,0-.18-.18.18.18,0,0,1-.18-.19v-.36l-3.68-7.73a.18.18,0,0,0-.19-.18h0v-.18L226.54,257a12.53,12.53,0,0,1-2.57.36l6.62,13.24.18.18H231a1.15,1.15,0,0,1,.18.74v.18l6.62,13.24.18.19h.19v.18l2.75,5.52V291l.38.92.18.18H242l.36-.36"/><path class="cls-4" d="M242.54,270.2l-.19-.18a.18.18,0,0,0-.18.18v.19c0,.55,0,1.1-.37,1.1l-.18.18v.19l5,7.72a.92.92,0,0,0,.73.37c.19,0,.37,0,.37-.18a.7.7,0,0,0,.18-1.11Z"/><path class="cls-4" d="M212.76,258.81l-1.48.36,6.62,27.95a.19.19,0,0,0,.19.19h.18a.62.62,0,0,0,.19.36h0s-.19,0-.19.18V288l1.1,4.6a.18.18,0,0,0,.19.18h.37a2.61,2.61,0,0,1,1.1-.37c.18,0,.18-.18.18-.37l-7.35-34Z"/><path class="cls-4" d="M209.81,284.54c-.18,0-.37-.18-.55-.18a2.94,2.94,0,0,0-.74-1.29h-.36c-.18,0-.18.19-.18.19l.91,7.54a.18.18,0,0,0,.19.18h.36c.19,0,.19,0,.19-.18h.74s.18-.19,0-.19l-.56-6.07c.19.19.19,0,0,0"/><path class="cls-4" d="M219.93,257.52c-.74,0-1.66-.19-2.39-.19l1.65,4.6a.18.18,0,0,0,.18.19h0c-.18,0-.18.18-.18.36l9.37,25.93c.19.37.38.55.74.55h.19A1,1,0,0,0,230,288Z"/><path class="cls-4" d="M171.94,127l.18.19c.37,0,.55.18.55.37h-.18a.18.18,0,0,0-.18.18v.19l1.83,5.15.19.18a.18.18,0,0,0,.18-.18c.19-.37.37-.56.37-.93.18,0,.37-.18.55-.18s.19-.19.19-.37l-2.4-6.61s0-.19-.18-.19c0-.19-.18-.19-.18-.37a2.75,2.75,0,0,0-.55-.73,2.45,2.45,0,0,1-.55-.74.18.18,0,0,0,.18-.18l.18-.19c.19,0,.19-.18.19-.36l-.92-2.58c-.19-.37-.37-.55-.74-.55h-.18a1,1,0,0,0-.56.92Z"/><path class="cls-4" d="M245.3,250.35l.18.18a1.14,1.14,0,0,0,.74-.18c.18,0,.55-.19.73-.19s.19,0,.19-.18v-.37l-.74-.73h-2c.18.36.55.73.73,1.1a.62.62,0,0,1,.19.37"/><path class="cls-4" d="M244.38,158.6h-.18a.67.67,0,0,1,.55.19h0a.58.58,0,0,0-.37-.19"/><path class="cls-4" d="M253.94,150.51c.18,0,.18-.18.36-.18s.37.18.56.18H255l1.66-1.84s.18-.18,0-.18a.19.19,0,0,0-.19-.19h-.36a1.44,1.44,0,0,1-.93-.18h-.36l-7,7-1.65,1.65v.56c-.19.91-.37,1.65-1.11,1.83.56.19.92.19,1.48.37l7.35-7.54c.18-.18.18-.18,0-.37l-.18-.18-.19-.18c0-.55.19-.74.37-.74"/><path class="cls-4" d="M260.19,251.08a.53.53,0,0,0-.92,0,1,1,0,0,0-.37.74,1,1,0,0,0-.73-.37H258a.18.18,0,0,0-.18.19V252l.92.74h.37v-.18a.82.82,0,0,0,1.29-.56c0-.36,0-.74-.19-.92"/><path class="cls-4" d="M263,242.81c0-.18,0-.18-.18-.37l-1.11-.73a8.84,8.84,0,0,1-1.47,1.28l2,1.29h.19a.61.61,0,0,0,0-.92.56.56,0,0,1-.19-.37h.19c.55,0,.55,0,.55-.18"/><path class="cls-4" d="M259.27,157.86c-.18-.36-.18-.54-.37-.91a.94.94,0,0,0-.37-.74h-.36l-6.44,5,2.21,1.11,5-4.05c.56,0,.56-.18.37-.37"/><path class="cls-4" d="M263,152.9a.18.18,0,0,0,.18.18h.37a2.53,2.53,0,0,0,1.65-.55.63.63,0,0,0,.37-.18l.18-.19a1.06,1.06,0,0,1,.19-.73c0-.37,0-.55.18-.73v-.37h-.37l-2.75,2v.55"/><path class="cls-4" d="M260.38,165.59a.66.66,0,0,0-.19.55,1.43,1.43,0,0,1,.74.73l.55-.37.18-.18c0-.36,0-.36.18-.55v-.18a.18.18,0,0,0-.18-.18c-.18,0-.37-.19-.55-.19,0,.19-.37.19-.73.37"/><path class="cls-4" d="M262.4,267.45a.93.93,0,0,0,1.1,0,.69.69,0,0,0,0-1.11l-2.21-2.2h-.36c-.19,0-.19-.19-.37-.19h-.18a1.44,1.44,0,0,0-.74.74v.36Z"/><path class="cls-4" d="M254.68,260.09H255l.37-.18a1.37,1.37,0,0,1,.74-.37l.18-.18v-.19l-8.64-8.82h-.18s-.19,0-.19.18-.55.19-.92.37h-.73l-.19.18v.18Z"/><path class="cls-4" d="M261.66,143.16l-.55-.56-.18-.18h-.37l-4.78,4.78v.19a.18.18,0,0,0,.18.18h.37c.18,0,.37,0,.37-.18h.55v.18l.18.18h.19l4-4v-.55"/><path class="cls-4" d="M254.68,247c-.19.18-.56.18-.74.36h.18c.18,0,.37-.18.56-.36"/><path class="cls-4" d="M257.62,251.45h0c.18,0,.18-.19.18-.37a1.81,1.81,0,0,0-.55-1.47v-.18c0-.19.18-.37.18-.55v-.37l-1.65-1.29h-.37a.18.18,0,0,0-.19.18v.19a1.28,1.28,0,0,1-1.1.55c-.18,0-.18,0-.18.18v.37l3.68,2.76h0"/><path class="cls-4" d="M281,184.71h0l-9.18,2c.18.74.55,1.47.73,2l28.13-6.8c.37-.18.74-.55.55-.92,0-.37-.36-.55-.73-.55h-.19L281,184.71"/><path class="cls-4" d="M274.35,196.47a.18.18,0,0,0,.18.19l2.57-.37a.18.18,0,0,0,.19-.18c0-.18,0-.18-.19-.37s-.36-.18-.73-.37h-.18a10.11,10.11,0,0,0-2.39.19h-.93a3.3,3.3,0,0,1-.17,1.28,2.26,2.26,0,0,0,.91-.18.18.18,0,0,0,.19-.18c.36-.19.36-.19.55,0h0"/><path class="cls-4" d="M271.41,213.21c2.39.18,3.86.37,3.86.37h.18v-.19c0-.37-.37-.73-.55-1.1a.62.62,0,0,0-.19-.37l-.18-.18-2.94-.37a7.07,7.07,0,0,1-.18,1.84"/><path class="cls-4" d="M272.33,205.3h2.57v-.18c0-.19,0-.37.18-.37a.67.67,0,0,1,.37-.18h.18v.55l.19.18h4.6a.18.18,0,0,0,.18-.18v-.19c0-.18.18-.36,0-.73-.18-.18-.18-.37-.18-.74,0-.18-.19-.18-.19-.18h-7.72c0,.37-.18,1.1-.18,2"/><path class="cls-4" d="M274.53,231l.92.37h.18c.74,0,1.11.18,1.29.55a.18.18,0,0,0,.18.18l1.66.56H279a.18.18,0,0,0,.18-.18h.18a.7.7,0,0,1,.56.18,1.38,1.38,0,0,0,.91.18c.19,0,.19,0,.19-.18s.18-.37.18-.74c0-.18,0-.18-.18-.37l-3.13-1.1L269,227.36l-.37,1.84,4.59,1.47h.19l.18-.18c0-.18,0-.18.19-.37.36,0,.55.37.73.55v.19c-.18.18,0,.18,0,.18"/><path class="cls-4" d="M286.11,193.53c-.18,0-.18.19-.18.19,0,.18,0,.18.18.37s.37.18.56.36H287s.19,0,.19-.18l.37-.37v.19c0,.18.18.36.55.55h.92c.36-.19.55-.37.55-.74a.79.79,0,0,0-.74-.73Z"/><path class="cls-4" d="M258.17,130.47c.36.18.55.37.92.55l.18.19a.19.19,0,0,0,.19-.19l5.33-6.8a.87.87,0,0,0-.18-1.1.68.68,0,0,0-.56-.19c-.18,0-.37.19-.55.37L258,130.1l.19.37h0"/><path class="cls-4" d="M270.3,160.44a1,1,0,0,0,.74-.37c.18-.18.18-.18.37-.18H272l3.67-2.39c.37-.18.37-.74.19-1.11a1,1,0,0,0-.74-.36c-.18,0-.37,0-.37.18l-5.51,3.31-.18.18v.19a4.26,4.26,0,0,0,.92.55h.36"/><path class="cls-4" d="M266.26,150.7c.18,0,.36.18.18.91v.19c0,.18,0,.18.18.18H267l11-9c.19,0,.19-.19,0-.38l-.55-.54h-.37c-.36,0-.55.18-.55.36l-.18.18H276l-9.56,7.54-.18.19a.25.25,0,0,0,0,.37"/><path class="cls-4" d="M266.07,173.49l12.69-6.25H279l.36-.37h.37l13.61-6.62a.88.88,0,0,0,.36-1.1.94.94,0,0,0-.73-.36h-.37L287,161.36l-.18.18h-.37l-21.33,9.93a6.81,6.81,0,0,0,.92,2"/><path class="cls-4" d="M281.88,213.94c.38-.18.38-.36.56-.55,0-.18.18-.18.18-.37a.63.63,0,0,0,.18-.36.18.18,0,0,0-.18-.19l-7.17-.92c-.18,0-.18,0-.18.19h0v.18a2.45,2.45,0,0,0,.55.74l.37.36v.19a.56.56,0,0,0,.36.18c.19,0,.19,0,.19.19h.18l3.68.36h1.28"/><path class="cls-4" d="M284.64,174.6c-.18-.37-.36-.55-.73-.55h-.19l-14.89,5c.19.55.55,1.1.74,1.65h.18l14.53-5.14a1.45,1.45,0,0,0,.36-.92"/><path class="cls-4" d="M270.49,221.11v.37l9.56,2c.18,0,.18,0,.18-.18a3.32,3.32,0,0,0,.37-1.29l.18-.18a.18.18,0,0,0-.18-.18l-9.74-2.4a5.37,5.37,0,0,0-.37,1.84"/><path class="cls-4" d="M182.6,275.54c0,.18,0,.37.18.37h.37c.19,0,.19-.19.37-.19h0a.18.18,0,0,0,.19-.18V275c-.37.18-.74.18-1.11.36Z"/><path class="cls-4" d="M160.35,124l.19.18c.55.18,1.28.18,1.65.55h.37c.18,0,.18-.19,0-.37l-6.62-13.24a1,1,0,0,0-.73-.36h-.37a.82.82,0,0,0-.37,1.1Z"/><path class="cls-4" d="M159.44,141.5l.18.19c.18,0,.18,0,.18-.19s0-.18.19-.36c0-.19.18-.38.36-.56h.19c.18,0,.18,0,.18-.18v-.19l-.18-.36-.19-.19h-.73a1.61,1.61,0,0,0-.92.19.18.18,0,0,0-.18.18v.19Z"/><path class="cls-4" d="M154.29,133.23l.18.18c.18,0,.18,0,.18-.18a.66.66,0,0,1,.19-.37c0-.18.18-.18.18-.37v-.74l-.55-.73-.18-.18h-.37a7.93,7.93,0,0,1-.92-.19h-.19a.18.18,0,0,0-.18.19v.37Z"/><path class="cls-4" d="M159.07,138.93a1,1,0,0,0,.73.36h0s.19,0,.19-.18v-.37l-1.29-1.83-.18-.19h0a.19.19,0,0,0-.19.19v.18c-.18.18-.36.37-.36.55v.19a.77.77,0,0,0,.73.73c0,.18.18.18.37.37h0"/><path class="cls-4" d="M161.46,125.69c-.18,0-.18.18-.18.37l6.25,13.05c.18.18.36.37.36.55.19.37.55.55.74.92l.18.18a9.32,9.32,0,0,0,1.29-.54c.18,0,.18-.19,0-.37L162.74,125l-.18-.19h-.18a1.19,1.19,0,0,1-.92.92"/><path class="cls-4" d="M171.94,143.89h0a.57.57,0,0,0,.18-.37l-.73-1.65c0-.18-.19-.18-.19-.18H169s-.19,0-.19.18v.19l1.84,4c0,.18.19.18.19.18h0a.18.18,0,0,0,.18-.18l.18-.19c.19-.18.37-.18.37-.55s0-.55-.18-.73c0-.19-.19-.37,0-.56.37-.18.37-.18.55-.18"/><path class="cls-4" d="M145.46,162.1a10.66,10.66,0,0,1,1.84-1.29l-9.19-7.17h-.37l-.18.18c0,.18,0,.18-.19.18v-.36l.19-.19a.18.18,0,0,0-.19-.18l-1.1-.74h-.74c-.18,0-.36-.18-.55-.18a1.36,1.36,0,0,0-.92-.37c-.18,0-.18,0-.18.18s-.18.37-.18.56v.36Z"/><path class="cls-4" d="M181,146.83l-2.39-6.25-.19-.18h-.18l-.18.18c-.37.18-.55.56-.92.74-.19,0-.19.18-.19.37l3.31,9.92a21.69,21.69,0,0,1,2-1.1l-1.11-3.12-.18-.19v-.37"/><path class="cls-4" d="M154.1,148.3l.19.19h.36c.19,0,.37-.19.56-.19h.36c0,.19-.18.37-.36.55L155,149c-.18.19-.18.19,0,.37l4.42,5.51a12,12,0,0,1,2.38-.73l-.36-.55-.18-.19h-.19l-.18.19v-.19c-.19-.18-.19-.18-.19-.55v-.18c0-.19-.18-.19-.18-.37-.19-.19-.19-.37-.37-.55v-.37l-1.84-2.2-.18-.19c-.18,0-.18.19-.18.19,0,.18-.19.36-.19.55a.18.18,0,0,1-.18-.19,1.15,1.15,0,0,1,.18-.74l.19-.18v-.18l-3.87-4.78h-.18a.4.4,0,0,1-.37-.37v-.18l-.74-.92-.18-.18c-.55,0-.55.36-.73.54,0,.19,0,.19-.19.19s-.18.18-.37.37v.36Z"/><path class="cls-4" d="M130,170.55l-.19-.18h-.55V170c0-.37,0-.92-.55-.92h-.37a1.37,1.37,0,0,0-.36,1.1s0,.19.18.19l7.9,3.86c.37-.74.56-1.47.92-2l-3.86-1.84h-.55c-.37.18-.37.36-.55.55a.18.18,0,0,1-.18.18c-1.11.37-1.65,0-1.84-.55"/><path class="cls-4" d="M144.54,136v.19l3.86,5,.19.18h.18a.94.94,0,0,0,.37-.74.63.63,0,0,1,.18-.36h.19l.18-.19v-.18l-2-2.58-.19-.18a.18.18,0,0,0-.18.18l-.55.56c-.19-.19-.37-.37-.55-.37-.18-.19-.37-.19-.37-.37v-.37a2.23,2.23,0,0,1,.19-1.1l.18-.19v-.18l-1.47-1.84-.19-.18a.18.18,0,0,0-.18.18,1.14,1.14,0,0,0,.18,1.65c-.18.19,0,.37,0,.92"/><path class="cls-4" d="M152.26,157.86c.74-.36,1.29-.54,2-.91l-16.55-16.19h-.55a1,1,0,0,0-.74.38l-.18.18a1.15,1.15,0,0,0,.18.74Z"/><path class="cls-4" d="M256.88,132.12h0a1.6,1.6,0,0,0,1.1-1.28c0-.19,0-.19-.18-.37h-.18s-.19,0-.19.18l-.73,1.1v.37h.18"/><path class="cls-4" d="M243.64,136.17l-.18-.19c-.37,0-.55-.18-.92-.36l-.19-.19h-.18a.18.18,0,0,0-.18.19l-12.87,20,1.47,1.1c.18,0,.18.19.37.19l12.68-20.6v-.18"/><path class="cls-4" d="M225.26,154.74l20-42.84a.88.88,0,0,0-.37-1.1h-.37a1,1,0,0,0-.73.36l-21.33,43c1.1.18,1.84.37,2.76.55"/><path class="cls-4" d="M232.43,257.7l.18.19a.18.18,0,0,0,.18-.19v-.18c.19-.19.37-.37.37-.55v-.19a1.19,1.19,0,0,0-.92-.92h0c-.18,0-.36.19-.55.37v.37Z"/><path class="cls-4" d="M243.64,133.23l.19.18a3.44,3.44,0,0,1,1.28.19v0a.19.19,0,0,0,.19-.19l2.39-4c.18-.37.18-.92-.18-1.11-.19,0-.19-.18-.37-.18a1.37,1.37,0,0,0-.74.37l-2.76,4.41v.37"/><path class="cls-4" d="M234.63,159.34c.92-.19,2-.55,3.31-.74l15.82-20.22v-.19l-.19-.18h.37a.18.18,0,0,0,.18-.18l1.29-1.48V136h0a.67.67,0,0,1,.37-.18h0a.18.18,0,0,0,.18-.18l1.29-1.47v-.37l-.37-.37c-.18-.18-.37-.18-.73-.18h-.37a.18.18,0,0,0-.18.18l-3.68,4.6v.37l.18.18a.67.67,0,0,0-.37.18h0a.18.18,0,0,0-.18.19l-17.47,20.41h.55"/><path class="cls-4" d="M241.26,268l-6.07-9.93-.19-.18h-.37a2.14,2.14,0,0,1-1.28.36c-.19,0-.19,0-.19.19v.18l8.1,12.69.18.18a.18.18,0,0,0,.18-.18v-1.66h0a.18.18,0,0,0,.18-.18v-.19l-.36-.54-.18-.19h-.38v-.37c.38,0,.38,0,.38-.18"/><path class="cls-4" d="M212,154.74c.18,0,.37-.18.74-.18l8.82-40.27c0-.18,0-.18-.18-.37,0-.18.18-.36.18-.55v-.18l1.47-7c0-.18,0-.18-.18-.37h-.37l-.18.19v.18c-.19.73-.38,1.47-.56,2.21s-.36,1.47-.55,2.2c-.18,0-.18.19-.18.19,0-.19,0-.37-.18-.37,0-.18-.19-.18-.19-.18h0c-.18,0-.18,0-.18.18l-.19.73c0,.19,0,.19.19.19h.18c-.18,0-.37.18-.55.37v.18l-2.21,9.19c0,.19,0,.19.19.37.18,0,.18.19.18.19v.55h-.37l-.18.18-4.23,17.47c0,.18,0,.18.19.36a.18.18,0,0,1,.18.19h-.37l-.18.18-2.94,12.5a7,7,0,0,0,1.65,1.66"/><path class="cls-4" d="M183.52,129h0c-.18.37-.37.37-.55.74v.18a1.3,1.3,0,0,0,.74.92h.18c.18,0,.18-.19.18-.37l-.36-1.29c0-.18-.19-.18-.19-.18h0"/><path class="cls-4" d="M218.64,154l11.21-33.46a.62.62,0,0,0-.55-.92h-.18c-.37,0-.56.18-.74.55l-12.13,34a10.11,10.11,0,0,1,2.39-.19"/><path class="cls-4" d="M136.64,267.63a.65.65,0,0,0,.55.19.66.66,0,0,0,.55-.19l.55-.55-.92-1.29-.73.74a1.13,1.13,0,0,0,0,1.1"/><path class="cls-4" d="M181.68,128.45h0l.19.18h.18a1.41,1.41,0,0,1,.92-.18h.74v-.19l-2-8.46a.18.18,0,0,0-.18-.18l-.18-.18v-.19s.18-.18,0-.18l-3.5-14.34a.18.18,0,0,0-.18-.18h-.18l-.19-.92c0-.37-.18-.56-.37-.56h-.37c-.36.19-.73.56-.55.92Z"/><path class="cls-4" d="M184.44,137.64a.65.65,0,0,0,.55.37h.19c.36-.18.36-.37.36-.55v-.19l-.18-.92a.18.18,0,0,0-.18-.18h0c-.19,0-.19,0-.19.18l-.18.19h-.55s-.19,0-.19.18c.19,0,.19.55.37.92"/><path class="cls-4" d="M258.9,261.38a1,1,0,0,0-.73-.37l-.19-.19a.78.78,0,0,0-1.28.56v.55a1.1,1.1,0,0,0,.18.73c.19,0,.19.19.37.19,0,0,.18.18.18,0,1.29.55,2.39-.73,1.47-1.47"/><path class="cls-4" d="M211.47,296.31a4.91,4.91,0,0,1-.19-1.65v-.37a.76.76,0,0,0-1.47,0,1.61,1.61,0,0,0,0,1.29.67.67,0,0,0,.19.55c0,.18.18.37.18.55-.18.55,0,1.29.74,1.1.55-.18.73-.73.55-1.47"/><path class="cls-4" d="M222.5,296.5c-.18-1.11-2-.92-2,.18v.19a1,1,0,1,0,2-.37c.18.18.18,0,0,0"/><path class="cls-4" d="M180.76,295c0-.18-.36-.73-.55-.73a1.47,1.47,0,0,0-1.65,1.1c-.37,1.11,1.47,2,2,.92a1.12,1.12,0,0,0,.18-1.29"/><path class="cls-4" d="M170.65,290.06a1.18,1.18,0,0,0-1.29.92,1.06,1.06,0,0,0,1.11,1.1,1.18,1.18,0,0,0,1.1-1.1,1,1,0,0,0-.92-.92"/><path class="cls-4" d="M133.33,150.7a.91.91,0,0,0-1.66-.56c-.55.74.19,1.47.92,1.47h.19c.36,0,.55-.36.36-.55a.54.54,0,0,0,.19-.36"/><path class="cls-4" d="M177.64,136.17c0-.19-.18-.19-.18-.37a1.1,1.1,0,0,0-2,.55v.37a1,1,0,0,0,.92,1.11c.55.18.74,0,1.11-.37.36-.19.36-.92.18-1.29"/><path class="cls-4" d="M183.71,133.78c0,.18.18.37.18.74.18.37.55.18.55,0h0c.18-.19.18-.37.37-.74.37-.92-1.29-.92-1.1,0"/><path class="cls-4" d="M262.58,154.56h0c-.37,0-.92,0-.92.36a1.89,1.89,0,0,1-.18.56c-.19.18,0,.36.18.36a1.84,1.84,0,0,1,.55.19c.37,0,.55-.19.74-.55v-.19c.18-.18-.18-.55-.37-.73"/><path class="cls-4" d="M268.28,161.73a.77.77,0,0,0-1.47.18c-.19.55-.19.37-.74.55h-.55a1.61,1.61,0,0,0-1.1.55c-.92.74,0,2.21.92,1.47.18-.18.36-.18.36-.36h0c.19-.19.56-.37.56-.74v-.18c.18-.19.36-.37.55-.19.92,0,1.84-.55,1.47-1.28"/><path class="cls-4" d="M283.72,195.19c0-.37-.36-.55-.73-.55h-.37c-.18,0-.36-.19-.55-.19s-.37.19-.55.19c-.74,0-1.1,1.1-.55,1.47.36.18.55.36.91.36a2.84,2.84,0,0,0,1.3-.54c.36,0,.54-.37.54-.74"/><path class="cls-4" d="M284.64,203.65a.8.8,0,0,0-.92-.19.72.72,0,0,0-.18,1.29h.74c.55,0,.92-.55.36-1.1"/><path class="cls-4" d="M264.42,244.46c-.74,0-.74,1.29,0,1.29s.73-1.29,0-1.29"/><path class="cls-4" d="M135.54,268.92c-.37,0-.37-.18-.56-.18a.69.69,0,0,0-.55.18c-.73.36-.18,1.28.55,1.28h.19c.18,0,.37-.18.55-.55a1.11,1.11,0,0,1-.18-.73h0"/><path class="cls-5" d="M198.49,129.86a80.21,80.21,0,1,1-80.21,80.2,80.2,80.2,0,0,1,80.21-80.2"/><path class="cls-4" d="M198.49,137.26a72.8,72.8,0,1,1-72.8,72.8,72.8,72.8,0,0,1,72.8-72.8m0-2.53a75.33,75.33,0,1,1-75.32,75.33A75.33,75.33,0,0,1,198.49,134.73Z"/><path class="cls-1" d="M80.65,125.25l4.93-7.64,2.25,1.45-1.66,2.58,13.49,8.71-1.59,2.47-13.49-8.71L82.9,126.7Z"/><path class="cls-1" d="M107,120.47l-1.89,2.24-14.31-12.1,1.9-2.25,6.13,5.19L101,111l-6.14-5.19,1.94-2.3,14.31,12.11-1.94,2.29L103,112.73l-2.16,2.55Z"/><path class="cls-1" d="M110.85,100.61l3-2.73,1.8,2-3,2.73,3.69,4.06,3.76-3.43,1.81,2L116,110.6,103.35,96.75l5.93-5.4,1.81,2-3.76,3.43Z"/><path class="cls-1" d="M132,85.21l3.26-1.95,1.38,2.29-3.27,2,4,6.65-2.52,1.51-9.62-16.09,6.69-4,1.37,2.29-4.16,2.49Z"/><path class="cls-1" d="M139.37,71.79,142,70.55l7.9,17-2.66,1.24Z"/><path class="cls-1" d="M154.7,71,159,83.9l-2.52.84L150.55,67l3.51-1.17,6.41,9.69-3.55-10.65,2.49-.83,5.93,17.78-2.88,1Z"/><path class="cls-1" d="M173,68.88l4-.75.5,2.61-4,.76,1,5.39,5-1,.5,2.63-7.88,1.51-3.5-18.42,7.88-1.49.5,2.63-5,1Z"/><path class="cls-1" d="M189.51,58.59c2.88-.17,4.42,1.3,4.62,4.43l.06,1-2.78.17L191.34,63c-.08-1.22-.61-1.81-1.59-1.75s-1.44.71-1.36,1.93a3.91,3.91,0,0,0,1.05,2.38,9.29,9.29,0,0,0,1,.93l.83.68.28.23a14,14,0,0,1,1.11,1,7.46,7.46,0,0,1,1,1.16,6,6,0,0,1,1.1,3.2q.28,4.69-4.09,5T186,73.29l-.12-1.81,2.78-.17.12,2c.08,1.22.63,1.8,1.64,1.74s1.48-.7,1.4-1.92a3.86,3.86,0,0,0-1-2.36,11.69,11.69,0,0,0-1-1l-1.11-.91c-.46-.38-.84-.7-1.13-1a8.23,8.23,0,0,1-1-1.15,6.19,6.19,0,0,1-1.11-3.21Q185.18,58.86,189.51,58.59Z"/><path class="cls-1" d="M202,58.53l9.08.57-.17,2.67-3.06-.19-1,16-2.94-.19,1-16-3.08-.2Z"/><path class="cls-1" d="M228.82,66.62q1.26-4.53,5.57-3.34T237.44,69l-2.61,9.39a5.53,5.53,0,0,1-1.25,2.39c0,.27.26.47.7.59l.26.07L233.83,84l-.39-.11a2.58,2.58,0,0,1-2.1-1.91,6.25,6.25,0,0,1-2.08-.23q-4.31-1.2-3-5.73ZM229,77c-.33,1.2,0,1.93,1,2.2s1.63-.19,2-1.38l2.7-9.74c.33-1.19,0-1.91-1-2.19s-1.64.19-2,1.37Z"/><path class="cls-1" d="M250,68.88l-5.69,13.29q-.72,1.68.69,2.28c.94.4,1.64,0,2.12-1.08l5.69-13.29,2.56,1.1L249.77,84.3q-1.86,4.32-5.89,2.6t-2.19-6.06l5.62-13.11Z"/><path class="cls-1" d="M262.33,96.42l-2.55-1.52,1.31-3.18L258,89.87l-2.18,2.66-2.32-1.39,12.17-14.56,3.7,2.21Zm-2.72-8.55,2.45,1.46,3.62-8.87Z"/><path class="cls-1" d="M279,85.31l2.31,1.82-9.89,12.65,3.81,3-1.65,2.11-6.13-4.8Z"/><path class="cls-1" d="M291.3,95.63l2.12,2-13,13.51-2.12-2Z"/><path class="cls-1" d="M299.24,103.64l5.86,6.94-2,1.73-2-2.35-12.27,10.37-1.89-2.24,12.26-10.37-2-2.36Z"/><path class="cls-1" d="M301.22,126.65l8.48-10,1.68,2.58-5.94,6.54,8.39-2.77,1.54,2.36-12.54,3.7-5.21,3.39L296,130Z"/><path class="cls-1" d="M110.18,296.74,109,297.86a5.83,5.83,0,0,1-4.23,1.69,5.52,5.52,0,0,1-4.17-1.74A6.36,6.36,0,0,1,98.68,294a5.81,5.81,0,0,1,2.07-4.81L111,279.25a5.78,5.78,0,0,1,4.24-1.77,5.93,5.93,0,0,1,4.24,1.94,5.73,5.73,0,0,1,1.72,4.28,6.11,6.11,0,0,1-2,4.3l-1.05,1-2.58-2.66.89-.86a3,3,0,0,0,.92-1.79,2,2,0,0,0-.59-1.73c-1.06-1.1-2.32-.94-3.76.46l-9.49,9.22c-1.27,1.23-1.38,2.39-.34,3.46s2.25,1.06,3.5-.15l.92-.89Z"/><path class="cls-1" d="M117.2,304.81l8.46-10.74a6.09,6.09,0,0,1,4.49-2.52,6.22,6.22,0,0,1,5.27,10.22L127,312.51A6,6,0,0,1,122.5,315a6.44,6.44,0,0,1-6.68-5.26A6,6,0,0,1,117.2,304.81Zm11.37-8.44-8.46,10.74a2.49,2.49,0,0,0-.61,2,2.32,2.32,0,0,0,1,1.59,2.47,2.47,0,0,0,1.83.59,2.53,2.53,0,0,0,1.76-1.09l8.46-10.74a2.38,2.38,0,0,0-.35-3.61,2.4,2.4,0,0,0-1.78-.56A2.5,2.5,0,0,0,128.57,296.37Z"/><path class="cls-1" d="M133.28,324.07l12.89-22.45,9.59,5.51-1.74,3-6.37-3.65-3.91,6.81,5.55,3.18-1.74,3L142,316.33l-5.5,9.59Z"/><path class="cls-1" d="M153.39,334.47l9.06-24.25,10.35,3.87-1.22,3.27-6.88-2.57L162,322.14l6,2.24-1.22,3.27-6-2.24-3.87,10.36Z"/><path class="cls-1" d="M175.36,341.4l4.38-25.51,10.9,1.87-.6,3.45L182.81,320l-1.29,7.49,6.31,1.08-.6,3.44-6.3-1.08-1.29,7.49,7.24,1.24-.63,3.65Z"/><path class="cls-1" d="M198.43,344.05l-.78-25.87,11-.34.11,3.49-7.34.22.23,7.6,6.39-.2.11,3.49-6.4.2.23,7.59,7.34-.22.11,3.71Z"/><path class="cls-1" d="M241,316.07l.57,1.72L238,319l-.27-.8c-.65-2-1.81-2.69-3.46-2.14s-2,1.84-1.33,4a4.91,4.91,0,0,0,1,2,3.35,3.35,0,0,0,2.09.65l3,.18a5.54,5.54,0,0,1,3.82,1.49,10.53,10.53,0,0,1,2.1,4q2.39,7.21-3.69,9.22a6.23,6.23,0,0,1-4.84-.26,5.87,5.87,0,0,1-3.1-3.59l-.43-1.31,3.52-1.17.37,1.11a2.32,2.32,0,0,0,3.31,1.7c1.09-.36,1.7-.93,1.85-1.72a6.61,6.61,0,0,0-.5-2.78,7.49,7.49,0,0,0-1-2.24,3.36,3.36,0,0,0-2.26-.82l-2.86-.2a6.07,6.07,0,0,1-3.86-1.48,8.13,8.13,0,0,1-2.06-3.57,7.59,7.59,0,0,1-.06-5.27,5.84,5.84,0,0,1,3.87-3.46,6,6,0,0,1,4.83.36A5.58,5.58,0,0,1,241,316.07Z"/><path class="cls-1" d="M258.52,330.38l-12.35-22.74,3.25-1.77,5.3,9.74,4-2.18-5.29-9.74,3.26-1.77,12.35,22.74-3.26,1.77-5.5-10.13-4,2.19,5.5,10.13Z"/><path class="cls-1" d="M275.75,313l-8.41-10.78a6.1,6.1,0,0,1-1.39-5,6.26,6.26,0,0,1,2.4-3.85,6.18,6.18,0,0,1,4.31-1.39,6.11,6.11,0,0,1,4.48,2.55l8.41,10.77a6,6,0,0,1,1.36,4.94,6.44,6.44,0,0,1-6.71,5.23A6,6,0,0,1,275.75,313Zm-5.49-13.06,8.41,10.77a2.52,2.52,0,0,0,1.81,1.08,2.33,2.33,0,0,0,1.78-.56,2.46,2.46,0,0,0,1-1.64,2.53,2.53,0,0,0-.63-2l-8.41-10.78a2.6,2.6,0,0,0-1.76-1.1,2.54,2.54,0,0,0-1.83.58,2.37,2.37,0,0,0-1,1.59A2.55,2.55,0,0,0,270.26,299.93Z"/><path class="cls-1" d="M298.37,301.82,279.5,284.11l3.8-4.06a6.29,6.29,0,0,1,4.59-2.26c1.64,0,3.51,1,5.59,2.94a10.07,10.07,0,0,1,3.07,4.32,5.79,5.79,0,0,1-1.72,5.77l-1.29,1.38,7.37,6.91Zm-13.79-18,6.41,6,1.22-1.3c.93-1,1.25-1.91,1-2.76a8.29,8.29,0,0,0-2-2.45,8.82,8.82,0,0,0-2.53-1.88,2.49,2.49,0,0,0-2.69,1Z"/><path class="cls-6" d="M244.87,241.42a2.09,2.09,0,0,1,.24-.51,1.93,1.93,0,0,1,.57-.51,3,3,0,0,1,.91-.33c.32-.07.65-.1,1-.14a4.15,4.15,0,0,0,.8-.17,2.65,2.65,0,0,0,.58-.32,4.22,4.22,0,0,0,.74-.88,3.94,3.94,0,0,1,.41-.47,4.84,4.84,0,0,0-4.25.55c-1.58,1-2.08,2.4-1.12,3.2l0,0Q244.8,241.68,244.87,241.42Z"/><path class="cls-6" d="M250.43,238.32a1.33,1.33,0,0,0-.19-.14,4,4,0,0,0-.21.49c-.06.14-.12.31-.2.49a2,2,0,0,1-.38.56,2.34,2.34,0,0,1-.75.5,3.65,3.65,0,0,1-1,.25c-.35,0-.65.06-.92.11a2.64,2.64,0,0,0-.7.19,2,2,0,0,0-.84.74q-.18.27-.3.48c1,.62,2.91.43,4.38-.47S251.39,239.11,250.43,238.32Z"/><path class="cls-6" d="M253.26,237.4a1.41,1.41,0,0,0,0-.5,1.17,1.17,0,0,0-.28-.57,2.27,2.27,0,0,0-.66-.49,7.27,7.27,0,0,0-.79-.32,2.93,2.93,0,0,1-.64-.32,1.63,1.63,0,0,1-.38-.41,3.15,3.15,0,0,1-.29-.92,2.27,2.27,0,0,0-.16-.5,3.86,3.86,0,0,1,3.51,1.38c1,1.19.84,2.55-.34,3.05l-.05,0Q253.21,237.64,253.26,237.4Z"/><path class="cls-6" d="M249.65,233.49l.22-.07a2.44,2.44,0,0,1,0,.46c0,.14,0,.3,0,.48a1.53,1.53,0,0,0,.1.57,1.46,1.46,0,0,0,.45.6,2.91,2.91,0,0,0,.79.44l.76.28a2,2,0,0,1,.54.33,1.35,1.35,0,0,1,.43.82c0,.19,0,.35.07.49a3.8,3.8,0,0,1-3.66-1.34C248.32,235.36,248.47,234,249.65,233.49Z"/><path class="cls-6" d="M258.6,239a3.52,3.52,0,0,0-.67-.15,3,3,0,0,0-.84,0,2.74,2.74,0,0,0-.86.3,7.82,7.82,0,0,0-.67.43,2.72,2.72,0,0,1-.62.34,2.42,2.42,0,0,1-.66.13A7,7,0,0,1,253,240c-.27,0-.52,0-.72,0,0-.85,1.23-1.69,2.92-2,1.89-.31,3.66.22,4,1.17,0,0,0,0,0,0Z"/><path class="cls-6" d="M252.28,240.26a1,1,0,0,1,0-.17c.17,0,.38.09.62.15l.62.17a3.71,3.71,0,0,0,.8.1,3.07,3.07,0,0,0,.94-.12,3.3,3.3,0,0,0,.82-.4c.23-.16.42-.31.62-.43a2.24,2.24,0,0,1,.59-.27,3.06,3.06,0,0,1,1.24,0l.67.1c.07.89-1.16,1.79-2.92,2.07S252.58,241.21,252.28,240.26Z"/><path class="cls-6" d="M134.81,240.93a3,3,0,0,1,.39-.81,3,3,0,0,1,.9-.81,4.76,4.76,0,0,1,1.43-.53c.52-.11,1.05-.16,1.53-.23a5.91,5.91,0,0,0,1.27-.26,3.6,3.6,0,0,0,.93-.51,6.93,6.93,0,0,0,1.17-1.38,5.08,5.08,0,0,1,.65-.75c-1.67-.84-4.5-.51-6.74.87-2.5,1.54-3.3,3.81-1.78,5.07,0,0,.05,0,.06,0C134.67,241.43,134.73,241.2,134.81,240.93Z"/><path class="cls-6" d="M143.63,236a2.32,2.32,0,0,0-.3-.22,6.36,6.36,0,0,0-.33.76c-.09.24-.18.5-.32.79a3.22,3.22,0,0,1-.61.89,3.43,3.43,0,0,1-1.18.79,6,6,0,0,1-1.61.39c-.54.07-1,.11-1.45.18a4.35,4.35,0,0,0-1.12.31,3.13,3.13,0,0,0-1.32,1.17l-.49.76c1.63,1,4.63.68,6.95-.75C144.36,239.54,145.16,237.26,143.63,236Z"/><path class="cls-6" d="M148.12,234.54a2.28,2.28,0,0,0,0-.78,2,2,0,0,0-.45-.91,3.48,3.48,0,0,0-1-.77c-.42-.21-.86-.36-1.25-.52a4.52,4.52,0,0,1-1-.5,2.2,2.2,0,0,1-.61-.65,4.46,4.46,0,0,1-.45-1.46,4.15,4.15,0,0,0-.27-.8,6.14,6.14,0,0,1,5.57,2.19c1.56,1.89,1.32,4-.54,4.84l-.08,0A6.45,6.45,0,0,0,148.12,234.54Z"/><path class="cls-6" d="M142.4,228.35l.35-.13a4.93,4.93,0,0,1,0,.75,5.54,5.54,0,0,0,0,.75,2.45,2.45,0,0,0,.16.92,2.55,2.55,0,0,0,.72,1,4.73,4.73,0,0,0,1.25.68c.45.18.86.31,1.21.46a2.93,2.93,0,0,1,.84.51,2.07,2.07,0,0,1,.69,1.31c0,.29.08.55.11.77a6,6,0,0,1-5.81-2.13C140.29,231.3,140.53,229.14,142.4,228.35Z"/><path class="cls-6" d="M156.59,237.1a6.27,6.27,0,0,0-1.06-.23,4.45,4.45,0,0,0-2.69.5c-.4.21-.74.47-1.08.69a4.41,4.41,0,0,1-1,.53,4.16,4.16,0,0,1-1,.21,11.64,11.64,0,0,1-2.09-.14,8.06,8.06,0,0,0-1.14-.06c0-1.35,2-2.68,4.62-3.12,3-.48,5.82.35,6.29,1.86a.42.42,0,0,1,0,.06Z"/><path class="cls-6" d="M146.57,239.09l-.06-.28c.29.05.62.14,1,.24s.62.18,1,.27a6.51,6.51,0,0,0,1.27.17,4.9,4.9,0,0,0,1.49-.2,4.57,4.57,0,0,0,1.29-.64c.38-.25.68-.49,1-.68a3.72,3.72,0,0,1,.94-.42,5.06,5.06,0,0,1,2-.06l1,.16c.13,1.41-1.83,2.84-4.61,3.29C149.87,241.42,147.05,240.6,146.57,239.09Z"/><path class="cls-7" d="M219.84,201.63h-15a12.49,12.49,0,0,0-12.49,12.49v6.48a12.49,12.49,0,0,0,12.49,12.48h15a12.48,12.48,0,0,0,12.48-12.48v-6.48A12.49,12.49,0,0,0,219.84,201.63ZM217.22,225h-3.65a8.08,8.08,0,0,1,0-16.15h3.65a8.08,8.08,0,0,1,0,16.15Z"/><path class="cls-6" d="M219.84,233.81h-15a13.23,13.23,0,0,1-13.21-13.21v-6.48a13.23,13.23,0,0,1,13.21-13.21h15A13.22,13.22,0,0,1,233,214.12v6.48A13.22,13.22,0,0,1,219.84,233.81Zm-15-31.46a11.78,11.78,0,0,0-11.77,11.77v6.48a11.78,11.78,0,0,0,11.77,11.76h15A11.78,11.78,0,0,0,231.6,220.6v-6.48a11.78,11.78,0,0,0-11.76-11.77Zm12.37,23.34h-3.65a8.8,8.8,0,0,1,0-17.59h3.65a8.8,8.8,0,0,1,0,17.59Zm-3.65-16.15a7.36,7.36,0,0,0,0,14.71h3.65a7.36,7.36,0,0,0,0-14.71Z"/><g class="cls-8"><path class="cls-2" d="M221.68,204.62a.72.72,0,0,0,0-1.44.72.72,0,0,0,0,1.44Z"/><path class="cls-2" d="M224.2,205.82c2.82-.1,4.28,3.67,4.51,5.89.09.92,1.53.93,1.44,0-.3-3-2.26-7.46-6-7.33-.93,0-.93,1.47,0,1.44Z"/><path class="cls-2" d="M229.68,214.11a.72.72,0,0,0,0-1.44.72.72,0,0,0,0,1.44Z"/><path class="cls-2" d="M230.4,215.7a25.43,25.43,0,0,1-.19,3.49c-.12.92-1.35.53-1.23-.38a24.81,24.81,0,0,0,.14-3.11.64.64,0,1,1,1.28,0Z"/></g><path class="cls-2" d="M171.14,198.58v38a6.66,6.66,0,0,0,6.66,6.66h33.44a6.66,6.66,0,0,0,6.65-6.66v-38Z"/><g class="cls-9"><path class="cls-7" d="M209.67,198.58v38a6.66,6.66,0,0,1-6.66,6.66h8.23a6.66,6.66,0,0,0,6.65-6.66v-38Z"/></g><rect class="cls-7" x="171.14" y="198.58" width="46.76" height="6.11"/><path class="cls-6" d="M218.62,205.41H170.41v-7.55h48.21ZM171.86,204h45.31V199.3H171.86Z"/><path class="cls-2" d="M219.62,165.14h-6.26l-.2-.14a5,5,0,0,1,.8-2.49h9.26a2,2,0,0,0,0-4H207.89a2,2,0,0,0,0,4h2.27c.4,1.06.56,2.43-1.11,2.63H192.14a8.67,8.67,0,0,0,0,17.34h10.34a3.47,3.47,0,0,1,2.22,4.31c-.42,3.61-5.14,3.46-5.14,3.46H183.47c-8.05.56-7.22,8.33-7.22,8.33h4c-.1-1.66.69-1.8.69-1.8s24.65.41,31.92.18,6.47-5.5,6.47-5.5c.14-6.57-6.2-5.64-6.43-5.64s-1.66.37-1.94-1.07,1.48-2.27,1.48-2.27h7.15a8.67,8.67,0,0,0,0-17.34Z"/><path class="cls-6" d="M181,199.3h-5.43l-.07-.64a9.26,9.26,0,0,1,1.86-6.38,8.23,8.23,0,0,1,6-2.74h16.21c.67,0,4-.14,4.35-2.83l0-.14a2.69,2.69,0,0,0-1.67-3.36h-10.2a9.4,9.4,0,0,1,0-18.79H209a.81.81,0,0,0,.62-.29,1.27,1.27,0,0,0,0-.9h-1.74a2.74,2.74,0,1,1,0-5.47h15.33a2.74,2.74,0,0,1,0,5.47h-8.87a4,4,0,0,0-.39,1.19h5.66a9.4,9.4,0,0,1,0,18.79h-7c-.31.18-1.09.71-1,1.4.06.35.19.53.67.53a2.86,2.86,0,0,0,.35,0l.21,0h0c.15,0,.47,0,.88,0a6.51,6.51,0,0,1,4.68,1.7,6.26,6.26,0,0,1,1.57,4.67,5.44,5.44,0,0,1-1.19,3.92c-1.22,1.47-3.24,2.26-6,2.34-1.47,0-3.75.08-6.79.08-9.32,0-23.15-.23-25-.26a1.65,1.65,0,0,0-.16,1ZM177,197.86h2.63c.16-1.55,1.14-1.77,1.27-1.79H181c.16,0,15.21.25,25.14.25,3,0,5.29,0,6.74-.07,2.31-.07,4-.68,4.91-1.8a4.07,4.07,0,0,0,.88-2.88v-.12a5,5,0,0,0-1.16-3.68,5.08,5.08,0,0,0-3.65-1.27c-.35,0-.62,0-.75,0h-.19c-.13,0-.32,0-.52,0a2,2,0,0,1-2.09-1.69,3,3,0,0,1,1.88-3.06l.15-.07h7.31a8,8,0,0,0,0-15.9h-6.48l-.71-.49V165a5.87,5.87,0,0,1,.95-2.92l.22-.28h9.61a1.29,1.29,0,1,0,0-2.58H207.89a1.29,1.29,0,1,0,0,2.58h2.77l.18.48a3,3,0,0,1,0,2.63,2.18,2.18,0,0,1-1.72,1h-17a7.95,7.95,0,0,0,0,15.9h10.47l.13.06a4.14,4.14,0,0,1,2.67,5.12c-.39,3-3.35,4-5.78,4H183.5a6.85,6.85,0,0,0-5,2.22A7.54,7.54,0,0,0,177,197.86Z"/><path class="cls-2" d="M233.42,154.18h-3.33a1.81,1.81,0,0,0,0,3.61h3.33a1.81,1.81,0,0,0,0-3.61Z"/><path class="cls-6" d="M233.42,158.51h-3.33a2.53,2.53,0,1,1,0-5h3.33a2.53,2.53,0,0,1,0,5Zm-3.33-3.61a1.09,1.09,0,1,0,0,2.17h3.33a1.09,1.09,0,0,0,0-2.17Z"/><path class="cls-10" d="M195,198.58s2.77.42,2.64,2.64-.74,6.61,3.49,6.52,3.63-5.08,3.63-5.08-.23-2.2,2.36-2.14c2.08,0,1.85,3.7,1.85,3.7l0,5.88s-.26,2,2.28,2c0,0,2.18,0,2.22-1.94s0-9.11,0-9.11-.23-2.13,2.91-2.5"/><path class="cls-6" d="M211.31,212.85a3.13,3.13,0,0,1-2.43-.95,2.58,2.58,0,0,1-.58-1.84l0-5.86v0a4.54,4.54,0,0,0-.59-2.69.73.73,0,0,0-.55-.25,1.66,1.66,0,0,0-1.32.4,1.4,1.4,0,0,0-.31,1,6.31,6.31,0,0,1-1.08,4.46,4.16,4.16,0,0,1-3.25,1.41,4,4,0,0,1-3.14-1.13c-1.43-1.49-1.24-4-1.13-5.72l0-.44c.1-1.54-2-1.87-2-1.88l.22-1.42c1.18.18,3.39,1.11,3.25,3.39l0,.45c-.1,1.44-.25,3.6.73,4.63a2.6,2.6,0,0,0,2.06.68,2.76,2.76,0,0,0,2.19-.9,4.88,4.88,0,0,0,.74-3.35,2.84,2.84,0,0,1,.68-2.1,3.1,3.1,0,0,1,2.42-.87,2.15,2.15,0,0,1,1.58.72c1.07,1.16,1,3.36,1,3.73l0,5.89v.05h0a1.21,1.21,0,0,0,.25.78,1.88,1.88,0,0,0,1.33.44c.22,0,1.46-.11,1.49-1.24,0-1.8,0-8.53,0-9-.09-1,.54-2.9,3.55-3.25l.17,1.43c-2.32.27-2.29,1.56-2.28,1.71v.06c0,.3,0,7.25,0,9.14A2.8,2.8,0,0,1,211.31,212.85Z"/><g class="cls-9"><path class="cls-2" d="M201,206.21a.36.36,0,0,0,0-.72.36.36,0,0,0,0,.72Z"/></g><g class="cls-9"><path class="cls-2" d="M202,206.2c1.69-.56,1.57-2.24,1.71-3.71,0-.47-.69-.46-.73,0-.09,1.08.11,2.59-1.18,3-.43.15-.25.85.2.7Z"/></g><g class="cls-9"><path class="cls-2" d="M203.38,201.8a.37.37,0,0,0,0-.73.37.37,0,0,0,0,.73Z"/></g><g class="cls-9"><path class="cls-2" d="M211.76,200.75V205a.37.37,0,0,0,.73,0v-4.2a.37.37,0,0,0-.73,0Z"/></g><g class="cls-9"><path class="cls-2" d="M212.09,207a.36.36,0,0,0,0-.72.36.36,0,0,0,0,.72Z"/></g><g class="cls-9"><path class="cls-2" d="M211.79,207.74v2.38a.36.36,0,0,0,.72,0v-2.38a.36.36,0,0,0-.72,0Z"/></g><path class="cls-6" d="M211.24,244H177.8a7.39,7.39,0,0,1-7.39-7.38V197.86h48.21V236.6A7.39,7.39,0,0,1,211.24,244ZM171.86,199.3v37.3a6,6,0,0,0,5.94,5.94h33.44a6,6,0,0,0,5.93-5.94V199.3Z"/><path class="cls-2" d="M158.58,239.5a6,6,0,0,0,6,5.74H225.2a6.06,6.06,0,0,0,6.05-5.74Z"/><path class="cls-11" d="M221.84,238.51l-.08,1c-.29,3.74-4.72,6.67-10.1,6.67h10.45c5.37,0,9.81-2.93,10.09-6.67l.08-1Z"/><path class="cls-6" d="M146,246.54h8.61a.88.88,0,0,0,0-1.76H146a.88.88,0,0,0,0,1.76Z"/><path class="cls-6" d="M156.66,246.54a.88.88,0,0,0,0-1.76.88.88,0,0,0,0,1.76Z"/><path class="cls-6" d="M159,246.54h74.93a.88.88,0,0,0,0-1.76H159a.88.88,0,0,0,0,1.76Z"/><path class="cls-6" d="M236,246.54a.88.88,0,0,0,0-1.76.88.88,0,0,0,0,1.76Z"/><path class="cls-6" d="M238.39,246.54h5.47a.88.88,0,0,0,0-1.76h-5.47a.88.88,0,0,0,0,1.76Z"/><path class="cls-6" d="M225.2,246.22H164.63a7,7,0,0,1-7-6.67l-.05-1h74.74l-.05,1A7,7,0,0,1,225.2,246.22Zm-65.49-5.74a5.1,5.1,0,0,0,4.92,3.78H225.2a5.09,5.09,0,0,0,4.91-3.78Z"/></svg>