<svg id="Слой_1" data-name="Слой 1" xmlns="http://www.w3.org/2000/svg" viewBox="0 0 400 400"><defs><style>.cls-1{fill:#010101;}.cls-2{fill:#daa449;}.cls-3{fill:#221f20;}.cls-4{fill:#d3bb92;}</style></defs><path class="cls-1" d="M54.11,189.93h52.12a1.63,1.63,0,0,0,0-3.26H54.11a1.63,1.63,0,0,0,0,3.26Z"/><path class="cls-1" d="M106.23,204.26H71.05a1.63,1.63,0,0,0,0,3.26h35.18a1.63,1.63,0,0,0,0-3.26Z"/><path class="cls-1" d="M106.23,166.48H71.05a1.63,1.63,0,0,0,0,3.25h35.18a1.63,1.63,0,0,0,0-3.25Z"/><path class="cls-1" d="M365.54,186.67H313.41a1.63,1.63,0,0,0,0,3.26h52.13a1.63,1.63,0,0,0,0-3.26Z"/><path class="cls-1" d="M313.41,207.52H348.6a1.63,1.63,0,0,0,0-3.26H313.41a1.63,1.63,0,0,0,0,3.26Z"/><path class="cls-1" d="M313.41,169.73H348.6a1.63,1.63,0,0,0,0-3.25H313.41a1.63,1.63,0,0,0,0,3.25Z"/><path class="cls-2" d="M80.67,135.32,68.59,123.15a7.69,7.69,0,0,1-2.45-6,8.23,8.23,0,0,1,7.58-7.51,7.66,7.66,0,0,1,6,2.51l12.07,12.18a7.51,7.51,0,0,1,2.43,5.94,8.08,8.08,0,0,1-7.58,7.51A7.49,7.49,0,0,1,80.67,135.32ZM71.9,119.87,84,132.05a3.19,3.19,0,0,0,2.42,1.08,3,3,0,0,0,2.13-1,3.2,3.2,0,0,0,1-2.19,3.23,3.23,0,0,0-1.09-2.36L76.37,115.44a3.21,3.21,0,0,0-2.35-1.1,3.16,3.16,0,0,0-2.2,1,3,3,0,0,0-1,2.13A3.12,3.12,0,0,0,71.9,119.87Z"/><path class="cls-2" d="M109.8,119.41,91.62,92.51l6.19-4.18q6.81-4.6,12.14,3.29,3.3,4.88,1.23,9l12.45,9.46-4.08,2.76-11.35-9.06-2.31,1.56,7.77,11.49ZM97.92,93.53l5.67,8.39,2.19-1.48c1.27-.85,1.88-1.79,1.83-2.83a7.81,7.81,0,0,0-1.56-3.46,7.65,7.65,0,0,0-2.69-2.75c-1-.38-2.1-.12-3.44.78Z"/><path class="cls-2" d="M137.22,103,123.51,73.55l4.21-2L141.44,101Z"/><path class="cls-2" d="M154.82,87.43l-4.68-16.49a7.72,7.72,0,0,1,.74-6.42,8.24,8.24,0,0,1,10.27-2.92,7.71,7.71,0,0,1,4,5.08l.45,1.58-4.48,1.27L160.67,68a3.23,3.23,0,0,0-1.52-2.11,3.13,3.13,0,0,0-2.4-.19A3,3,0,0,0,154.87,67a3.14,3.14,0,0,0-.25,2.63l4.68,16.49a3.14,3.14,0,0,0,1.59,2.11,2.94,2.94,0,0,0,2.33.19A3.09,3.09,0,0,0,165.16,87a3.19,3.19,0,0,0,.19-2.59l-1.67-5.88-3.55,1L159,75.63l8-2.28,2.79,9.83a7.52,7.52,0,0,1-.75,6.37,8.09,8.09,0,0,1-10.27,2.91A7.51,7.51,0,0,1,154.82,87.43Z"/><path class="cls-2" d="M188.39,87.72,184.6,55.47l4.62-.55L193,87.17Z"/><path class="cls-2" d="M209.76,86.09l1.36-32.44,4.5.19,6.25,19.84.82-19.55,4.65.2L226,86.77l-4.41-.18-6.35-19.81-.81,19.51Z"/><path class="cls-2" d="M240.19,88.59l14.42-30,3.77.88-.29,33.27-4.53-1.05.24-7.11-6.17-1.44-2.91,6.49ZM254,80.14l.44-12-.09,0-4.89,10.94Z"/><path class="cls-2" d="M271.87,97.57l12.87-29.81L289,69.6,278,95.15l8.46,3.65-1.85,4.27Z"/><path class="cls-2" d="M315.47,110.84l-1.11,1.67a7.38,7.38,0,0,1-4.73,3.22,7.05,7.05,0,0,1-5.59-1,8.05,8.05,0,0,1-3.41-4.18q-1-3.06,1.26-6.44l9.87-14.9a7.26,7.26,0,0,1,4.73-3.3,7.34,7.34,0,0,1,5.71,1.24,7.14,7.14,0,0,1,3.26,4.78,7.64,7.64,0,0,1-1.3,5.81l-1,1.52-3.88-2.56.86-1.3a3.69,3.69,0,0,0,.66-2.44,2.58,2.58,0,0,0-1.19-2c-1.6-1.06-3.1-.53-4.49,1.57l-9.17,13.84c-1.23,1.85-1.05,3.3.52,4.34s3,.7,4.25-1.13l.88-1.33Z"/><path class="cls-2" d="M328,122.93l11.93-12.32a7.64,7.64,0,0,1,5.92-2.58,8.24,8.24,0,0,1,7.67,7.42,7.65,7.65,0,0,1-2.38,6l-11.93,12.33a7.53,7.53,0,0,1-5.89,2.54,8.08,8.08,0,0,1-7.67-7.41A7.52,7.52,0,0,1,328,122.93Zm15.27-9.09-11.93,12.33a3.12,3.12,0,0,0-1,2.43,2.94,2.94,0,0,0,1,2.11,3,3,0,0,0,4.55-.17l11.92-12.32a3,3,0,0,0,0-4.55,3,3,0,0,0-2.15-.93A3.16,3.16,0,0,0,343.25,113.84Z"/><path class="cls-1" d="M255.85,124.72a29.18,29.18,0,0,0-2.31-2.68c-16.65-16.66-49.73-10.58-73.88,13.56-19.31,19.32-27,44.3-20.8,62.06a2.71,2.71,0,0,0,5.09,0,50.54,50.54,0,0,1,10.76-17.34c8.74-9.5,20.87-15.2,33.07-18.23l8.74-2.22c2.91-.61,5.55-1.91,8.36-2.77A60.62,60.62,0,0,0,240,148.59C247.55,142.73,257.64,127.31,255.85,124.72ZM220.52,153.6l-.07,0-.08,0c-2,.61-4,1.53-6.22,2.25s-4.36,1.09-6.53,1.67c-4.29,1.08-8.52,2-12.64,3.38a75.62,75.62,0,0,0-12,5,68.6,68.6,0,0,0-11,7.15c5.85-6.74,13.78-11.53,22.11-14.83a107.14,107.14,0,0,1,12.83-3.87l6.3-1.65c2-.6,4-1.46,6.16-2.12a67.1,67.1,0,0,0,15.37-8.15,53.58,53.58,0,0,0,6.42-6c2-2.14,3.93-4.44,5.79-6.78a60.35,60.35,0,0,1-4.76,7.63,40.55,40.55,0,0,1-6.06,6.8A55.5,55.5,0,0,1,220.52,153.6Z"/><path class="cls-2" d="M260.36,132.66a2.46,2.46,0,0,0-4.63.21,43,43,0,0,1-12.34,19.63c-4.63,4.55-10.37,7.6-16.09,10.37l-4.45,1.72a32.17,32.17,0,0,1-4.51,1.49l-9,2.45c-2.81.8-5.77,1.29-8.45,2.44l-4.12,1.52c-1.38.5-2.62,1.28-4,1.86A58.22,58.22,0,0,0,178.35,184a53.61,53.61,0,0,0-11,13.71,54.21,54.21,0,0,0-3.24,6.63,3.7,3.7,0,0,0,.72,3.84c.39.45.8.88,1.23,1.31,16.65,16.66,49.73,10.58,73.88-13.57C259.72,176.17,267.34,150.48,260.36,132.66Zm-56.67,81.09c-10.3,2.77-22,2.81-31.32-2.19,10.24,2.32,20.44.67,29.78-2.73a87.28,87.28,0,0,0,25.61-15.19,98,98,0,0,0,19.89-22.37,78.2,78.2,0,0,0,11.43-28.12c.91,10.49-2,21.24-6.95,30.7A81.07,81.07,0,0,1,232,198.72,74.65,74.65,0,0,1,203.69,213.75Z"/><path class="cls-2" d="M177.89,216.21s5.9,2.67,2.9,8.15c-3.34,6.13-6.55,15.16.88,18.34,5.13,2.2,13.77-4.23,8.28-13.79-5.8-10.1-3-11.94-3-11.94Z"/><path class="cls-2" d="M201.27,219.36s-8.24,13,0,13.13S201.27,219.36,201.27,219.36Z"/><path class="cls-3" d="M12.07,244.2c3.44.19,5.28.55,5.54,1.07,1,.26,2.24,1.31,3.61,3.16v.24H21v.24c.52,0,.85.55,1,1.67l.33.74-.09.12v.12l.09.36H22.2l-.36-.12c0,.12.19.24.57.35l.26,2.68a11.51,11.51,0,0,1-2.41,5L18.68,261v.38c1.53,1.29,2.3,2.05,2.3,2.27V264c0,.17-.11.26-.34.26v.12H21l.12-.12h.12a6.05,6.05,0,0,1,1.19,2.39,8.08,8.08,0,0,1,.5,2.65v.62a7.2,7.2,0,0,1-.36,2.39l.12.5a12.92,12.92,0,0,1-3.27,5.79q-2.66,2.15-4.68,2.15l-1.1.38H12.54l-2.53-.5a7.11,7.11,0,0,1-2-1.34h-.1c0,.32-.53.61-1.58.88a5.37,5.37,0,0,1-4.82-2.43v-.22a4.8,4.8,0,0,0,1.81,1c1-.18,1.44-.47,1.44-.86l.12-.1H5c0-.17-.13-.26-.38-.26V277l-.12-1,.12-.62-.12-.6.12-.45-.12-.62.12-.45-.12-.15V273l.24-1.1-.12-.09v-.12l.12-.5L4.47,271l.12-.12-.12-.6v-5.9l.12-.62a10.17,10.17,0,0,1-1.7-1.91l-.12-.12H2.65c0-.24.29-.53.86-.86q0-.31.84-1l.84.24H5.3V260l-1-.24.24-1.81-.12-.12v-.12l.12-1.22-.12-1.31.12-1.46h.24v-.24c-.24,0-.36-.07-.36-.22v-.74q0-.24.36-.24v-.12H4.59V252l.12-.81-.24-.38v-.24h.12l-.12-1.44v-1.43c-.26-.83-.5-1.24-.74-1.24l-.6-.12h-1A2.65,2.65,0,0,0,0,247.47v-.26q.93-2.66,5.9-2.65c.62,0,1.28.48,2,1.45h.22a6.88,6.88,0,0,1,2.17-1.45l.38.36v-.36l.12.14h.46C11.21,244.49,11.49,244.33,12.07,244.2Zm-8.22,1.58V246l.5-.11v-.24H4.23Zm1.81,33v.12L6,279v-.22ZM6,260.23v.26H6.5v-.12Zm.58.36v.12l.5.12v-.24Zm0,15.89v.14H7l.24-.26H7ZM7.74,261c0,.16.11.24.34.24h.24v-.12Zm.12,16.15.46.26h.62l-.12-.5H8.67q0,.36-.24.36H8.2v-.12l.12-.12v-.12H8.08Zm.46-15.53v.24h.35v-.12Zm.35,14.79v.26h.15l.24-.26Zm.39-.7-.24.46h.24l.11-.34v-.12Zm0,1.2.23.24h.1v-.24Zm.11-29.15c0,.14.12.22.34.22h.12v-.12Zm0,14.22V262l.12.12h.22V262Zm.22,14.31v.24l.86-.12v-.24Zm.38,1.46-.14.35v.12h.14v-.24h.12l.62.24c0-.16-.17-.24-.5-.24v-.23Zm0-16.25v.36a.81.81,0,0,1,.74.47l-.14.12,1.1.24h.36v-.12c-1-.16-1.46-.47-1.46-.95h-.24v.24q-.24,0-.24-.36Zm.6-13.28.26.26h.12l-.24-.26Zm.48,27.73-.1.12v.1h.1l.36-.1v-.12Zm.24-24.1.12.35L11,254.21l.24,1.07v.12c0,.58-.08.86-.24.86l.24.6-.24,1c.49.95,1.06,1.43,1.69,1.43h.12c2,0,3-1,3-2.89l.12-.57-.12-.51v-.59l.27-.36q-.27,0-.27-.36l.27-1.1-.27-.24v-.12l.38-.5h-.26v-.09l.26-.36c-.25,0-.38-.08-.38-.24v-.84l-.12-.62.5.12h.12v-.12a1.72,1.72,0,0,1-1.24-.72l-1.31-.86a3.18,3.18,0,0,0-2.65,2.92Zm-.12,16,.24.36-.12.83.12.12v.12l-.12.12.12.74-.12,2.29.12.12v.12l-.12.12.12.6v.12l-.24.24.5,2-.14.12c.17,0,.49.32.95,1l1.34.24c1.53-.24,2.29-.88,2.29-1.91l-.12-.84.27-1.7-.27-1.07.12-.62-.12-1.32.27-1.45-.27-.24v-.26c0-.8.13-1.2.38-1.2v-.12c-.42,0-.76-.53-1-1.58l-1.55-.69c-1.61.22-2.41,1.31-2.41,3.25Zm1.19-5.19v.24l.5.12C12.66,262.89,12.5,262.77,12.16,262.64Zm.74.5v.12l.72.22H14v-.12l-1-.22Zm1.2.34v.24h.38v-.12Zm.74.36V264l.48.14c0-.17-.12-.26-.36-.26Zm1.57-12.28v.12h.22l.38-.12v-.12h-.14Zm0,12.9v.12l.6.21v-.21l-.38-.12ZM16.75,250v.12l.26.26v-.12Zm.5.26.24.24h.12l-.24-.24Zm.12.82v.38l.84-.5.12.12h.23v-.12l-.23-.24Zm1.82,13.85q0,.29-.63.39l-.11-.12-1.08.12v.11c.8,0,1.19.08,1.19.24.42,0,.63-.16.63-.47h.21Zm-.86-14.81c0,.18-.16.26-.46.26v.12l.58.1v-.1l.11-.12v-.12l-.11-.14Zm.23.72.39.12c0-.35.23-.58.69-.7v-.14h-.12C18.88,250.39,18.56,250.62,18.56,250.82Zm.74,14.83v.12l.48.27h.12c0-.13-.17-.26-.5-.39Zm.48-15.55h.12l.24-.24H20ZM20.14,266v.21h.36v-.1Zm.12-.86v.12h.24l.36-.12v-.12h-.22Zm1,1.31c0,.16.12.24.38.24h.24v-.12Z"/><path class="cls-3" d="M62.82,244.32h.12c0,.16.12.24.38.24l.12,3.37a1.77,1.77,0,0,1-.74,1.45l.12-.14h.12l.14.14h.12V249l.24.24-.12,1,.12,3v2.05c0,.66-.17,1-.5,1l-.94-.12-.5.12-1-.12-1,.12-.12-1.09.12-1.44-.12-.5.38-.69c-.25-.08-.38-.33-.38-.74l.12-.86c0-.74-.93-1.49-2.77-2.27l-.72-.12c-1.66,0-2.7.32-3.13.95h-.12a31.48,31.48,0,0,1-.5,5.43c.19,0,.32.28.38.86l-.24,1.31.24.24-.12.12.12.12v.12l-.12.71c0,1,.27,1.46.81,1.46l1-.36,1.34.24c.72-.2,1.08-.85,1.08-1.93a1.77,1.77,0,0,0-.84-1.34v-.22h.12c1.61.43,2.41,1.15,2.41,2.15l.15.48V259a3.42,3.42,0,0,1-.74,2.44c0,.38.15.57.47.57l.34,1.6c-.39,1.68-1.22,2.51-2.51,2.51l-.62.12v-.12a3.05,3.05,0,0,0,1.12-1.81c0-.19-.45-.35-1.36-.48H55l-.84.12-.11-.12v-.1c-1,.07-1.56.3-1.56.7l.24.5-.12,2.51.12.12v.12l-.24,1v.39h.24v.69l-.24.74.12.12v.12l-.12.84.12,1.33h-.12l.36,1.08-.24.26.12.36-.12.12v.12l.24.57-.24.24a1.88,1.88,0,0,1,.46,1.2l1.72.5a7.63,7.63,0,0,0,4.68-2.18l.12-1.31-.12-.12v-.12l.12-1.43-.12-.15v-.12l.24-.71-.24-1,.24-.24-.24-.38v-.34l.12-.11v-.12l1.31.23.38-.23,1.22.12h.72l.12.11h.12l-.24.72v.12l.24,1v.34l-.24,1,.24.7v.38a.79.79,0,0,1-.74.48v.26l.62-.38.12.86v.45q-.07,1.32-4,4.71a13,13,0,0,1-3.87,1.46l-.12-.15-.58.15h-.5a6.88,6.88,0,0,1-5-1.82c-.59.58-1,.86-1.31.86h-.6a6.76,6.76,0,0,1-4.08-1.93l-.24-.24-.39-.5.12-.12a4,4,0,0,0,1.58.74h.62a1.68,1.68,0,0,0,1-1.6l-.12-.46.27-.24L46,275.4l.12-.81-.12-1,.27-.24-.39-.38.12-1.55-.12-.34L46,270v-.5l.12-.12-.24-.45L46,267v-.5l-.12-.72.24-.47c-.15,0-.24-.12-.24-.36l.12-.86-.23-.24H46v-.1c-.44,0-.84-.44-1.19-1.34l.26-.26L45,262h-.86v-.12l1.81-2.27v-1.22l.12-.71-.12-.36.24-1.43c-.15,0-.24-.13-.24-.39l.12-1.67-.12-.12v-.12l.24-1-.24-.51.12-.85a14.75,14.75,0,0,0-.23-3.26l-1.94-.59-1.19.86h-.12v-.12q0-1.56,3.6-3.13h1.13a2.51,2.51,0,0,1,1.91,1.07,9.53,9.53,0,0,1,3.63-1.57l1.7.12,1.31-.24c0,.2.52.33,1.55.38l3.37,1.43C61.22,246.25,61.91,245.61,62.82,244.32Zm-16.27,17-.12.12v.12h.12l.36-.12v-.12Zm0,1.91v.14h.36v-.26ZM46.91,247l-.12.34v.12h.12l.26-.24v-.1l.12.1h.45v-.1l-.57-.12-.14.12ZM49,260.23a.84.84,0,0,1-.86.48V261l1.19-.6v-.12ZM48.1,262h.12l.5-.21v-.12H48.6C48.27,261.81,48.1,261.93,48.1,262ZM50,259.63v.24l.38-.12v-.24Zm.5-.24.24.24h.45l-.22-.24Zm.69-.62v.12h.38v-.24Zm.24-13.38c0,.16.13.24.38.24H52v-.12Zm.14,12.69v.12l.24.21.24-.21-.36-.12ZM53,280.37v.1l.57-.36V280H53.4Zm.84-33.76.24.24h.11l-.23-.24Zm0,33.26h.12l.23-.24H54Zm1.55-1h.12l.26-.24h-.14ZM56,247.57v.12l.74.24h.1v-.12l-.72-.24ZM57,277.46v.12h.11l.75-.24v-.24Zm.23-17.23v.12l.51-.6v-.12Zm.86,16.87h.12l.24-.26h-.12Zm.51-27.86.57.5v-.24l-.5-.26Zm.45,27.26h.12l.36-.36h-.12Zm1-24.35h.12l.24-.23h-.12Zm.24,23.61h.12l.21-.24h-.09Zm.95-.84v.24l.36-.12v-.12Zm.86-.57-.24.24v.12h.24l.24-.36ZM62,252.42q0,.24,1.08.57h.12v-.12Zm.48-2.8V250h.22v-.36Z"/><path class="cls-3" d="M94.74,244.17a7.83,7.83,0,0,1,3.83,1.44V246a1.57,1.57,0,0,0-1.32.59h.12a2.11,2.11,0,0,1,1.2-.47l.12-.12v-.12a4,4,0,0,1,1.55,1,.94.94,0,0,0,1.05-1.07h.48l-.12-.12v-.12c.65-.88,1-1.32,1.19-1.32l.12.12v.6l-.24.24.24,1-.24,1.76.24,1.8-.12.47.12.12-.12,1.32.12,1.79-.24.21.12.12v.12l-.12.12V254l.24,1.67v.48q0,.88-.36,1l-.12-.12h-.12l-.47.12-.12-.12-.6.12H98.81q-.36-.12-.36-.72v-1.67l.12-.6-.24-.24v-.24l.48-.57h-.24v-1.79l-.12-.12v-.12q.26,0,.36-.6l-.36.24h-.12a3,3,0,0,0-1-1.67v-.12l.12-.12v-.12h-.12l-.12.12h-.12a9,9,0,0,0-2.51-.36c-1.83,0-2.94,1.24-3.32,3.7,0,2.44,1.35,4.51,4,6.19l1.19-.12h1.2q.36,0,.36,1.32H98l.72,1.65q4.52,4.11,4.51,5.83c.16,0,.32.39.48,1.19l-.12.48v.36l.24.35-.12.72.12.6-.24.6.12.12h.12c-.13,1.65-.41,2.48-.84,2.48l.12.48q-1.74,4.28-3.56,5c-.45.72-1.6,1.28-3.46,1.67a2.91,2.91,0,0,1-1.32.24H93.67c-.94,0-2.49-.63-4.64-1.91l-1.67-1.79a3.89,3.89,0,0,0-1.29-1.19,11,11,0,0,1-1.08-3l.12-.48-.12-.47.12-.7-.12-.12v-.11l.12-.48-.12-.36q.2,0,.36-.84c-.24-1.11-.51-1.67-.83-1.67h-.36a1.5,1.5,0,0,0-1,.48h-.12v-.24c.42-1.35,1.09-2,2-2l1.77.48v-.12a3.14,3.14,0,0,1,1.55-.84h.84c.7,0,1.26.72,1.67,2.15v.36H90.7c0-.32-.23-.52-.71-.6l-.36.12.12.12v1l-.24.35v.12l.24.36v.48l-.24.84.12.12h.12l-.12.59.12.82c-.16,0-.24.11-.24.35a6.36,6.36,0,0,0,2,3,4.53,4.53,0,0,0,2.13.95H95.1c.37,0,1-.47,1.79-1.43l.72.24h.12v-.12l-.72-.12v-.24a11.29,11.29,0,0,0,.84-3.77,9.43,9.43,0,0,0-1.67-3.35c-.94-1.11-1.58-1.67-1.92-1.67l-2-.12-1.2.12-.12-.12v-.12l.12-.12v-.12l-.24-.93v-.84A5.2,5.2,0,0,0,88.67,262a10.71,10.71,0,0,0-2.12-2.15l-1.08-2.12.12-.36-.36-1,.12-.12-.48-2V254l.6-3.32.12-.12-.12-.12v-.12a8.88,8.88,0,0,1,4-4.87l3.11-1.2Zm-9.15,8v.12h.48v-.12Zm1,19.76v.1h.6v-.1Zm.84-21.07-.12.12v.12h.12l.36-.12v-.12Zm0,7.86h.12l.24-.24h-.12Zm.84,13.91v.23l.83.24C89.15,273,88.87,272.8,88.32,272.61Zm.23-22.84h.12l.72-.24v-.12h-.12Q88.55,249.53,88.55,249.77Zm.36.23-.12.12v.12h.12l.36-.12V250Zm-.12,8.1h.12l.24-.23v-.12Zm.72-.35h.12l.24-.24h-.12Zm.84-.6v.24l.35-.12v-.12Zm.47-.24V257h.24l.36-.12v-.12h-.24Zm1.8-9.06V248h.24l.35-.12v-.12h-.12Zm1.17-.47v.23l.36-.12v-.11Zm1.67-.34v.22l.36-.1V247Zm2.63,28.77v.12l.48.12h.24v-.12l-.6-.12Zm.83-22.94V253h.24l.48-.36h-.12Zm.36,23.42v.12l.84.12q0-.24-.36-.24Zm.84-24.14v.24l.93-.47v-.24Zm.24,24.38v.23h.45v-.12Zm2-25.45h.12l.24-.24h-.12Z"/><path class="cls-3" d="M150.23,242c1.75.56,2.62,1.28,2.62,2.15h-.12l.12.12v.24l-.12.12v.12l.36.36a5.11,5.11,0,0,1-.71,2.27,4.84,4.84,0,0,1,.83,2.51c0,1.19-1,1.95-2.86,2.27V252a2.46,2.46,0,0,0,.71-1.32c0-.55-.52-.83-1.55-.83l-1-.12-1.31.24-.6-.12-1.19.12h-.24l-.72-.12L144,250h-.23v-.12l-.84.12h-1.2l-.12,1.19v1l-.11.12v.12l-.72-.48h-.12c0,.14.32.38,1,.71l.12.12v.12l-.12,1,.12.48-.12.83.12.12-.23,2.27.23.24-.12.36.12,1.31v.12l-.12.12.12.36-.23,1c0,1.08.71,2.23,2.15,3.44v.36c-1.36,1.59-2,2.54-2,2.86l.12,1.32c0,.79-.12,1.19-.23,1.19l.11.12v.12l-.11.48.11.12v.12l-.11.36.11.12-.11.47.23,2.63-.23,2.27,1.07,1.31.72.24h.12a3,3,0,0,0,1.43-.47l.12.12v.11c-1.83,1.92-3.39,2.87-4.66,2.87A3.46,3.46,0,0,1,138.4,280a3.43,3.43,0,0,1-2.72.83q-1.53,0-4-2.86l.12-.12a2.3,2.3,0,0,0,1.2.35h.83c.8,0,1.2-.71,1.2-2.15l.12-1.43-.12-.48.12-.95-.12-3.71.24-.24-.24-1.31.12-.12c0-.81-.64-1.89-1.91-3.22a9.38,9.38,0,0,1,1.91-1.92H135l.36-1.4a5.21,5.21,0,0,1-.24-1.92l.36-.47-.36-.36.24-1.2-.24-1.79.36-.12-.36-1.55.12-.36-.12-1.67.12-.48-.12-.48h.12l-.12-.12V250q-.84,0-.84-.48l-1,.36-.12-.12-.24.24-1.44-.12-1.07.12-.36-.12-.48.12-.83-.12-.84.12-.72-.12c-.63,0-1,.12-1,.24l-.12.47a2,2,0,0,0,.71,1.56v.12a3.31,3.31,0,0,1-3.1-2.27,5.49,5.49,0,0,1,.72-2,2.1,2.1,0,0,1-1-1.8v-.35c0-1.41,1-2.32,3.11-2.75v.12a1.7,1.7,0,0,0-.6,1.07v.36c0,.56.44.84,1.31.84l.72-.12h.24c.79,0,1.19.12,1.19.36h.12q0-.36.24-.36h.12l.84.12.95-.12,2.39.24,1.67-.24.6.24,3.8-.24.36.12.48-.12.48.12,1.67-.12h1.19l1.08.12.12-.12h.12l2.39.24c1.67-.19,2.5-.51,2.5-1a1.51,1.51,0,0,0,.36-1c-.09-1-.33-1.43-.71-1.43Zm-23.75,7.29v.12l.71.12.12-.12v-.12Zm4.54-.72v.12h.47v-.12Zm2-.24v.12h.47v-.12Zm.59-.11v.11h.84v-.11Zm1.08.47v.12l.48.12h.12v-.12l-.48-.12Zm.36-.6v.13h.83v-.24Zm.6,29.49v.12H136v-.24Zm.35-18.26v.12l.84.48v-.24a.79.79,0,0,1-.6-.36Zm.84,17.66v.12h.36v-.24Zm1-16.58.57.48v-.24l-.45-.24Zm.35-12.78v.12h.7v-.12Zm0,12.06h.12l.22-.24h-.12Zm.58-.36h.12l.24-.23H139Zm.12,1.8q0,.24.36.24h.11v-.12Zm0,12.16.24.24h.12l-.24-.24Zm.47.36v.12l.36.12h.12v-.12l-.36-.12Zm.12-26.26v.12H140v-.12Zm0,14v.12l.36.33H140Zm.24-2.63v.12h.12l.36-.12v-.12h-.12Zm.6,3.2-.12.48.36.12.36-.12v-.12Zm-.12,12.18v.24h.24q0,.36.24.36v-.12Zm.48-27v.12h.6v-.12Zm1.43-.24V247h.48v-.12Zm1.08-.12v.12h.48v-.12Zm.83-.12v.12h.84v-.24Zm2-.36v.12h.48v-.12Z"/><path class="cls-3" d="M184.3,244.41h1.56a4.72,4.72,0,0,0,1.69.36q0,.39,1,.48l1.82,1.34a6.31,6.31,0,0,0,1.93-1.94h.12V246l.12.12v.14q-.19,0-.36.48.36,0,.36.21v.36l-.12.14.12.12v.12l-.12.12.12.12v.62l-.12.7.12.12v.11l-.12.39.12.36-.24.21.24.24-.12.62.12.36-.24.48.24.24-.12.12.12.11v.12l-.12,2.3v.12l-.12.14v.07l.24.27v.59l-.36.5.36.58v.24l-.24.26H189.1l-.11-.14-.12.14h-.6l-.12-.14H188l-.12.14-.12-.38.12-1.91-.12-.15v-.07l.24-.74-.24-.24v-.5H188v-.12l-.24-.34v-.11l.24-.27a4.2,4.2,0,0,0-1.55-3.72c0-.21-.73-.41-2.18-.6v-.1l-.62.22v-.12a4.15,4.15,0,0,0-1.55,3.49l-.22.24v.23l.1.86-.1.12.22.22v1.34h-.22l.1.59v.36l-.1.74.22.7-.12.12.12.14V258l-.22,1.07.1.48h-.1l.22,1V261l-.12.5a11.16,11.16,0,0,0,2.05,2.51,8.11,8.11,0,0,1-1.69,1.81l-.46,1.79v.62l.1.46-.1.48.22.5-.22.95.22.86-.22.24-.62-.24h-.12v.12c.56.07.84.26.84.58l-.1.74.22.95L182,274v.12c.51,2.07,1.27,3.11,2.29,3.11H185c2-.85,3-2,3-3.56l.12-.14.33.14h.39v-.14a.86.86,0,0,1-1-1l.12-.12-.12-.69.12-1.43-.12-.74.12-.12h.24l.21.24.39-.12,3.48-.12v.36h-.12l.24,2v1.44l-.24.38.24.33-.12.6V275H192v-.26h-.21c0,.25.15.38.47.38l.12.12v.12a6.93,6.93,0,0,1-3.13,3.94q-1.5,1.94-5.3,1.94c-.59,0-1.83-.61-3.7-1.82a33,33,0,0,1-2.54-3.37v-.24l.12-.38h-.12c-.16,0-.51-.79-1.07-2.36l.12-.12-.6-.74-.62-2.51-.22-1.44.1-.12V268c0-1.2-.72-2.37-2.15-3.52l-.36-.47,1.67-2,.39-2-.12-.14a3.61,3.61,0,0,1,.35-1.67l-.12-.5.24-.48-.12-.34c.74-3.42,1.41-5.55,2-6.4,0-.46.2-.69.47-.69v-.27a1.66,1.66,0,0,1,.86-1.43,3.78,3.78,0,0,1,2.39-2.29q.12-.4,1.32-.69C182.25,244.62,182.93,244.41,184.3,244.41Zm-7.43,27.77v.35l.46-.23-.12-.12v-.12Zm1.31-1c-.17.37-.34.57-.5.62v-.12l-.35.12v.22l.11-.1h.24l.12.1h.12c0-.31.21-.5.62-.58v-.14Zm.24-21.77h.22v-.23q.36,0,.36-.24h-.12ZM179.74,270c0,.2-.25.4-.74.59v.24l.86-.71V270Zm0-22.25-.12.12V248h.12l.36-.12v-.12Zm.24,23-.12.36h.83V271l-.47-.24Zm1.19.12-.12.12v.12l.62.24h.12v-.12ZM184.78,248l-.12.12v.12H185Zm.48-.36-.1.12V248h.1l.12-.36Zm0-.38v.14h.48v-.14Zm1.45-1.19v.38h.12l.1-.38Zm1.08,0v.14h.12c0-.26.12-.38.36-.38l.12-.36h-.12Q188,245.54,187.79,246.09Zm.12,3.25v.11l.57.27v-.27l-.45-.11Zm.84,1.57v.24h.35V251Zm.47,22.49v.12h.36v-.24Zm.24-22.63.5.74v.12h.22l-.1-.12v-.12l.1-.12v-.12A1.15,1.15,0,0,1,189.46,250.77Zm.27,23.1V274l.35.12v-.24Zm.45.12v.24h.6v-.12Zm.12-22.24V252h.24c0,.26.12.39.38.39v.23h.24l-.62-.83Zm1.55,1.07v.5h.27c.15,0,.23-.12.23-.38v-.12h-.12v.27H192v-.27Z"/><path class="cls-3" d="M224,244.27h.36a7.19,7.19,0,0,1,4.13,1.65l1.65,2,.35-.12v.12a14.82,14.82,0,0,1,2,4.25,5.16,5.16,0,0,1,.81,2.36l-.09.36q.33,0,.57,2h-.36a2.53,2.53,0,0,1,.48,1.17l-.12.72c.15,0,.34.35.6,1.05l-.12-.12h-.12v.12q.84.12.84.72a3.23,3.23,0,0,1,1.17,1.07l-1.77,2-.36.57.12.36-.12.36.12.59-1.05,5.67.12.47a7.31,7.31,0,0,1-1.43,2.94q0,2.17-3.42,4.71a7.29,7.29,0,0,1-3,1.79l-.94-.24-.59.12c-1.95,0-3.87-1.14-5.78-3.44l-1.65-2.7a3.3,3.3,0,0,0-.72-2l.12-.35-.34-.36.22-.34v-.12c-.54,0-.89-1.49-1-4.49-.13,0-.21-.28-.24-.83v-.7l.12-.47-.12-.48v-.12l.12-.6-2-2.12v-.22c1.26-1.39,1.89-2.21,1.89-2.49a25.82,25.82,0,0,1,1.17-6.37,7.75,7.75,0,0,0,1.07-2.73q1.6-2.79,2.94-3.18l-.12-.12v-.11a3.3,3.3,0,0,1,2.73-1.77Q222.49,244.27,224,244.27ZM216.54,262h.11l.72-.23v-.1h-.12C216.77,261.7,216.54,261.81,216.54,262Zm.23,10,.24.24h.12V272Zm1.41-10.73v.12h.12l.6-.12V261Zm1.29,11.33c0,.16.12.23.36.23h.24v-.11Zm.36-11.69H220l.24-.24h-.12Zm.6,12q0,.24.36.24h.12v-.12Zm.12-12.51v.23l.48-.11v-.12Zm1-10.52.12.6v.12l-.24.24.12.93-.12,5.33-.09.81.09.12v.12l-.09.12v.12l.09.12v.12l-.09.12v.12a7.55,7.55,0,0,0,2,2.6v.12q-1.89,2.1-1.89,2.7l-.09,2.24.09.48-.21.24.21.24V268l-.09.11.09.12v.12l-.09.6.09.36-.09.48.09,2.94v.11q0,.24-.45.24v.24q.57,0,.57,1.05.6,2.49,2.37,2.49h.59q1.84,0,2.73-3.18-.07-.6-.36-.6l.24-.71-.24-.81.12-.48-.12-2.61.12-.12h.12l-.24-.57.12-1.08-.12-.95.12-1.29q0-.52-2-2.82c1.34-1.5,2-2.41,2-2.72l-.12-.12v-.12l.36-.48a1.31,1.31,0,0,1-.36-.81l.12-1.79-.12-1.41.12-.36-.12-.7v-1.07l.12-.48a11.33,11.33,0,0,0-1.08-2.94h-.12l-.12.12a3.79,3.79,0,0,0-1.52-.24h-.12a2.55,2.55,0,0,0-2.37,1.41Zm1.67-2.36v.12l.58.12H224v-.12l-.6-.12Zm1.06.24V248l.59.13h.24V248Zm.95,30.58v.12h.22l.47-.12v-.12h-.24Zm2.1-3.18.48.33h.24v-.11l-.6-.22Zm.84.33v.24h.12l.24-.24Zm.36-17.46h.12l.24-.24h-.12Zm.81-.57v.09l.12.12v.12l-.12.12v.24h.12a.32.32,0,0,1,.36-.36l.36.12-.6-.45Zm.72-.12v.12h.35c0-.16.13-.24.36-.24v-.12h-.12Zm0,18.87v.12h.48v-.12Zm.59-19.47V257h.12l.46-.36h-.1Zm1.29,0v.12h.48v-.12Zm.6-.12v.12h.24l.45-.12v-.12h-.21Zm.36,2.48v.12l.45.12h.12v-.12l-.45-.12Z"/><path class="cls-3" d="M267.62,244.34l.74.12.12-.12h.15l.59.12.51-.12c1.81.42,2.72.75,2.72,1l.12-.15h.24a6.36,6.36,0,0,1,2.34,1.36h.12c0-.2.16-.32.5-.35q0-.27.48-.27c0-.38.37-.87,1.12-1.48l.12.14-.12.87.12.47-.12.12.12.89v.86a4.82,4.82,0,0,0-1.84-.27l.12.39,1.72.24-.12.62.12,2.22-.12,1.84.12.74-.12,1.48v.36l-.12.14.12.36-.12.62h.24v.24l-.24.24-.12-.12H277l-.74.12-.12-.12H276l-.5.12h-.24l-.12-.12L275,257h-.12l-.12-.12-.14.12h-.24l-.24-.24v-.48l.12-.5-.12-.12v-.12l.12-.14v-.12l-.12-.12v-.12l.12-.12v-.12l-.12-.5.12-.12v-.12l-.12-.74.12-.86a10.65,10.65,0,0,0-1.6-2.72c0-.16-.13-.24-.38-.24q0-.24-.48-.24c0-.34-.25-.5-.74-.5v-.24h-.27v.12l-1.33-.27-.12.15h-.15l-.48-.15-.5.15v-.15c-1.3.45-1.95,1.15-1.95,2.11l-.27,1.12.12.36-.24,1.24.12.36-.12.38.12,1.1v.24l-.24.38v.12q.36,0,.36.24v.26l-.12,1.34.12.12v.14L266,258v.12l.12,1.36v.24l-.12.12V260h.12l.26-.24,2.34.24c1.15-.16,1.73-.44,1.73-.86a2.52,2.52,0,0,0-1.25-2V257h.15a2.92,2.92,0,0,1,1.33.62c.53,0,1.11.82,1.75,2.46l-.26.26.26.6c-.16.69-.33,1.06-.5,1.12a3,3,0,0,1,.5,1.61c0,1.08-.95,1.94-2.84,2.57h-.39V266c.42,0,.79-.46,1.13-1.37a2,2,0,0,0-1.13-.62l-.48.27-.11-.12v-.15l-1.37.27v-.12l-.11.12h-.27l-.12-.12-.62.12v.24L266,265.8l.12.47-.24,1.25h.24v.12l-.12,4.92.12,1.36-.12.62.12.48-.12,1a2.68,2.68,0,0,0,1.36,2.72l.74.24h.36a4.21,4.21,0,0,0,2.11-.86h.11v.12c0,.73-1,1.55-2.93,2.46v-.12l-.15.12h-.12l-.47-.24v.12l.12.36H267l-1.37.14h-1.24a2.74,2.74,0,0,1-1.6-.86,3.07,3.07,0,0,1-1.84,1h-.26a7.58,7.58,0,0,1-3.56-1.36L256,278.46v-.12h.15l1.48.62c1.15,0,1.72-.45,1.72-1.36l.12-1-.12-.62.12-.12v-.12l-.12-.38.12-.36-.24-1.46.24-.62-.24-2.84.12-1.84-.12-.38h.12l-.12-.12v-.24l.24-.24-.24-.89.12-1a3.81,3.81,0,0,0-2-3.08v-.12l2-2.34-.12-1.22v-1l.12-.74-.12-.48.12-.86-.12-.14.24-.24v-.12l-.24-.38v-.12a3,3,0,0,1,.24-1.34l-.12-.5q.36,0,.36-.24c-.32,0-.48-.13-.48-.38l.12-.12v-.12l-.12-.12v-.12l.12-.14v-.12l-.12-.63.12-.47-.26-1.24.14-.36-.14-.39.14-.11-.14-.13c-.4-.22-.6-.43-.6-.62h-.74a3,3,0,0,0-2,1.25l-.12-.12a5.82,5.82,0,0,1,3.08-3.47,8.22,8.22,0,0,1,2.22-.36c.45,0,1.14.45,2.08,1.34a3.77,3.77,0,0,1,2.1-1.22l.12.12C265.28,244.66,266.06,244.45,267.62,244.34Zm-8.12,34.5V279h.62v-.38H260Zm1-33.14v.12l.24.24.62.26v-.11l-.74-.51Zm.38,5.67-.26.5h.12l.62-.5Zm-.26,20.33.38.38v-.14l-.26-.24Zm.12-20.69v.12h.38v-.24Zm.62,21.19v.24h.26c0,.25.08.38.24.38l.12-.14v-.12Zm.12-26c0,.16.17.23.5.23l.12.12v.12l-.12.12h.38l.12-.36Zm0,32.63.26.24.48-.12v-.12Zm.14-27.71H262v-.39Zm.74-.62v.23c.38,0,1-.36,1.72-1.09v-.12A4.94,4.94,0,0,1,262.34,250.51Zm0,22.67v.24c.48.11.72.32.72.62h.26v-.12l-.86-.74Zm.86-11.83v.12l.6.12h.14l.24-.24-.62-.12Zm.24,13.81v.12l.5,1h.12v-.6c-.17,0-.26-.16-.26-.48Zm.62-.88v.26h.36l-.12.12v.12l-.5-.24h-.12v.12c.75.14,1.12.38,1.12.72h.48Zm1.72-26v.12l.24.39-1.22.24.12.11v.27h-.12l-.12-.12-.5.36h.24c.49-.08.74-.2.74-.36l-.12-.15.36-.11.38.11c0-.16.12-.23.36-.23l.74-.51v-.12l-.12-.11V248l.12-.11h-.12Zm-1.48,13.07h.12l.5-.38h-.12C264.47,261.1,264.3,261.23,264.3,261.35Zm.38-14.55q0,.27.36.27h.12V247Zm.12,29.94v.38H265l-.12-.38Zm.36-15.89h.24l.38-.36v-.12C265.42,260.53,265.21,260.69,265.16,260.85Zm0,16.75v.26l.12.12h.12l-.12-.38Zm.24-30.53v.11l.62.12h.12v-.12l-.48-.11Zm.5,32.13v.12c.19,0,.52.34,1,1H267c-.47-.75-.8-1.12-1-1.12ZM267,248v.24h.35v-.35Zm1.6-.62-.51-.12-.86.39v.12l.86.12.24-.51.12.12h.26c.58-.28.87-.48.87-.59h-.12Zm-.27,31.9-.24.62.12.12h.12l.27-.36-.15-.12.15-.12-.15-.14Zm1.49-32.64H270l.27-.24h-.12Zm1,.12c0,.18-.12.27-.35.27v.11h.74Zm.89-1.33-.27.35h.27l.24-.24v-.11Zm.36,1.6-.12.35h.62Zm.86.23v.12l2.58.39v-.27c-1.39,0-2.08-.12-2.08-.36Z"/><path class="cls-3" d="M309.08,244.34l.74.12.12-.12h.14l.6.12.5-.12c1.82.42,2.73.75,2.73,1l.12-.15h.23a6.37,6.37,0,0,1,2.35,1.36h.12c0-.2.16-.32.5-.35q0-.27.48-.27c0-.38.37-.87,1.12-1.48l.12.14-.12.87.12.47-.12.12.12.89v.86a4.85,4.85,0,0,0-1.84-.27l.12.39,1.72.24-.12.62L319,251l-.12,1.84.12.74-.12,1.48v.36l-.12.14.12.36-.12.62H319v.24l-.24.24-.12-.12h-.14l-.74.12-.12-.12h-.12L317,257h-.23l-.12-.12-.12.12h-.12l-.12-.12-.15.12h-.23l-.24-.24v-.48l.12-.5-.12-.12v-.12l.12-.14v-.12l-.12-.12v-.12l.12-.12v-.12l-.12-.5.12-.12v-.12l-.12-.74.12-.86a10.78,10.78,0,0,0-1.61-2.72c0-.16-.12-.24-.38-.24q0-.24-.48-.24c0-.34-.24-.5-.74-.5v-.24h-.26v.12l-1.34-.27-.12.15h-.14l-.48-.15-.5.15v-.15c-1.3.45-2,1.15-2,2.11l-.26,1.12.12.36-.24,1.24.12.36-.12.38.12,1.1v.24l-.24.38v.12q.36,0,.36.24v.26l-.12,1.34.12.12v.14l-.12.12v.12l.12,1.36v.24l-.12.12V260h.12l.26-.24,2.34.24c1.15-.16,1.72-.44,1.72-.86a2.5,2.5,0,0,0-1.24-2V257h.14a2.89,2.89,0,0,1,1.34.62c.53,0,1.11.82,1.75,2.46l-.27.26.27.6c-.16.69-.33,1.06-.51,1.12a2.94,2.94,0,0,1,.51,1.61c0,1.08-1,1.94-2.85,2.57h-.38V266c.42,0,.79-.46,1.12-1.37a2,2,0,0,0-1.12-.62l-.48.27-.12-.12v-.15l-1.36.27v-.12l-.12.12h-.26l-.12-.12-.62.12v.24l-.12,1.24.12.47-.24,1.25h.24v.12l-.12,4.92.12,1.36-.12.62.12.48-.12,1c0,1.4.45,2.31,1.36,2.72l.74.24h.36a4.19,4.19,0,0,0,2.1-.86h.12v.12q0,1.09-2.94,2.46v-.12l-.14.12H309l-.48-.24v.12l.12.36h-.12l-1.36.14h-1.24a2.71,2.71,0,0,1-1.6-.86,3.1,3.1,0,0,1-1.84,1h-.26a7.61,7.61,0,0,1-3.57-1.36l-1.12-1.36v-.12h.15l1.48.62c1.14,0,1.72-.45,1.72-1.36l.12-1-.12-.62.12-.12v-.12l-.12-.38L301,275l-.24-1.46.24-.62-.24-2.84.12-1.84-.12-.38h.12l-.12-.12v-.24l.24-.24-.24-.89.12-1a3.8,3.8,0,0,0-2-3.08v-.12l2-2.34-.12-1.22v-1l.12-.74-.12-.48.12-.86-.12-.14.24-.24v-.12l-.24-.38v-.12a3,3,0,0,1,.24-1.34l-.12-.5q.36,0,.36-.24c-.32,0-.48-.13-.48-.38l.12-.12v-.12l-.12-.12v-.12l.12-.14v-.12l-.12-.63.12-.47-.27-1.24.15-.36-.15-.39.15-.11-.15-.13c-.39-.22-.59-.43-.59-.62h-.74a3,3,0,0,0-2,1.25l-.12-.12a5.87,5.87,0,0,1,3.09-3.47,8.22,8.22,0,0,1,2.22-.36c.44,0,1.14.45,2.08,1.34a3.77,3.77,0,0,1,2.1-1.22l.12.12C306.74,244.66,307.52,244.45,309.08,244.34ZM301,278.84V279h.62v-.38h-.12Zm1-33.14v.12l.24.24.62.26v-.11l-.74-.51Zm.38,5.67-.26.5h.12l.62-.5Zm-.26,20.33.38.38v-.14l-.26-.24Zm.12-20.69v.12h.38v-.24Zm.62,21.19v.24h.26c0,.25.08.38.24.38l.12-.14v-.12Zm.12-26c0,.16.16.23.5.23l.12.12v.12l-.12.12h.38l.12-.36Zm0,32.63.26.24.48-.12v-.12Zm.14-27.71h.36v-.39Zm.74-.62v.23c.38,0,.95-.36,1.72-1.09v-.12A4.94,4.94,0,0,1,303.8,250.51Zm0,22.67v.24c.48.11.72.32.72.62h.26v-.12l-.86-.74Zm.86-11.83v.12l.6.12h.14l.24-.24-.62-.12Zm.24,13.81v.12l.5,1h.12v-.6c-.18,0-.26-.16-.26-.48Zm.62-.88v.26h.36l-.12.12v.12l-.5-.24h-.12v.12c.75.14,1.12.38,1.12.72h.48Zm1.72-26v.12l.24.39-1.22.24.12.11v.27h-.12l-.12-.12-.5.36h.24c.49-.08.74-.2.74-.36l-.12-.15.36-.11.38.11c0-.16.12-.23.36-.23l.74-.51v-.12l-.12-.11V248l.12-.11h-.12Zm-1.48,13.07h.12l.5-.38h-.12C305.93,261.1,305.76,261.23,305.76,261.35Zm.38-14.55q0,.27.36.27h.12V247Zm.12,29.94v.38h.24l-.12-.38Zm.36-15.89h.24l.38-.36v-.12C306.87,260.53,306.67,260.69,306.62,260.85Zm0,16.75v.26l.12.12h.12l-.12-.38Zm.24-30.53v.11l.62.12h.12v-.12l-.48-.11Zm.5,32.13v.12c.19,0,.52.34,1,1h.14c-.46-.75-.79-1.12-1-1.12ZM308.48,248v.24h.36v-.35Zm1.6-.62-.5-.12-.86.39v.12l.86.12.24-.51.12.12h.26c.58-.28.86-.48.86-.59h-.12Zm-.26,31.9-.24.62.12.12h.12l.26-.36-.14-.12.14-.12-.14-.14Zm1.48-32.64h.12l.27-.24h-.12Zm1,.12q0,.27-.36.27v.11h.74Zm.89-1.33-.27.35h.27l.23-.24v-.11Zm.35,1.6-.12.35H314Zm.86.23v.12l2.58.39v-.27q-2.07,0-2.07-.36Z"/><path class="cls-3" d="M358.85,244.32H359q0,.24.39.24l.11,3.37a1.75,1.75,0,0,1-.74,1.45l.12-.14H359l.15.14h.12V249l.23.24-.11,1,.11,3v2.05c0,.66-.16,1-.5,1l-.93-.12-.5.12-1-.12-1,.12-.11-1.09.11-1.44-.11-.5.38-.69c-.26-.08-.38-.33-.38-.74l.11-.86c0-.74-.92-1.49-2.77-2.27l-.71-.12c-1.66,0-2.7.32-3.13.95h-.12a31.48,31.48,0,0,1-.5,5.43c.19,0,.31.28.38.86l-.24,1.31.24.24-.12.12.12.12v.12l-.12.71c0,1,.27,1.46.81,1.46l1-.36,1.34.24c.71-.2,1.07-.85,1.07-1.93a1.78,1.78,0,0,0-.83-1.34v-.22h.12c1.61.43,2.41,1.15,2.41,2.15l.14.48V259a3.42,3.42,0,0,1-.74,2.44q0,.57.48.57l.33,1.6c-.38,1.68-1.21,2.51-2.5,2.51l-.62.12v-.12a3.11,3.11,0,0,0,1.12-1.81c0-.19-.46-.35-1.36-.48H351l-.84.12-.12-.12v-.1c-1,.07-1.55.3-1.55.7l.24.5-.12,2.51.12.12v.12l-.24,1v.39h.24v.69l-.24.74.12.12v.12l-.12.84.12,1.33h-.12l.36,1.08-.24.26.12.36-.12.12v.12l.24.57-.24.24a1.87,1.87,0,0,1,.45,1.2l1.72.5a7.68,7.68,0,0,0,4.69-2.18l.11-1.31-.11-.12v-.12l.11-1.43-.11-.15v-.12l.23-.71-.23-1,.23-.24-.23-.38v-.34l.11-.11v-.12l1.32.23.38-.23,1.22.12h.72l.12.11h.11l-.23.72v.12l.23,1v.34l-.23,1,.23.7v.38a.77.77,0,0,1-.74.48v.26l.63-.38.11.86v.45q-.06,1.32-4,4.71a13,13,0,0,1-3.87,1.46l-.12-.15-.58.15h-.5a6.88,6.88,0,0,1-5-1.82c-.59.58-1,.86-1.31.86h-.6a6.81,6.81,0,0,1-4.09-1.93l-.24-.24-.38-.5.12-.12a4,4,0,0,0,1.58.74h.62a1.68,1.68,0,0,0,1.05-1.6l-.12-.46.26-.24-.26-.62.12-.81-.12-1,.26-.24L342,273l.12-1.55-.12-.34.12-1.1v-.5l.12-.12-.24-.45.12-1.94v-.5l-.12-.72.24-.47q-.24,0-.24-.36l.12-.86-.24-.24h.24v-.1c-.44,0-.84-.44-1.19-1.34l.26-.26L341,262h-.86v-.12l1.81-2.27v-1.22l.12-.71-.12-.36.24-1.43q-.24,0-.24-.39l.12-1.67-.12-.12v-.12l.24-1-.24-.51.12-.85a13.54,13.54,0,0,0-.24-3.26l-1.93-.59-1.2.86h-.12v-.12c0-1,1.21-2.08,3.61-3.13h1.12a2.52,2.52,0,0,1,1.92,1.07,9.53,9.53,0,0,1,3.63-1.57l1.69.12,1.32-.24c0,.2.52.33,1.55.38l3.37,1.43C357.26,246.25,358,245.61,358.85,244.32Zm-16.27,17-.12.12v.12h.12l.36-.12v-.12Zm0,1.91v.14h.36v-.26Zm.36-16.25-.12.34v.12h.12l.26-.24v-.1l.12.1h.46v-.1l-.58-.12-.14.12ZM345,260.23a.85.85,0,0,1-.86.48V261l1.19-.6v-.12Zm-.86,1.79h.12l.5-.21v-.12h-.12C344.3,261.81,344.14,261.93,344.14,262Zm1.93-2.39v.24l.38-.12v-.24Zm.5-.24.24.24h.46l-.22-.24Zm.7-.62v.12h.38v-.24Zm.23-13.38q0,.24.39.24H348v-.12Zm.15,12.69v.12l.24.21.24-.21-.36-.12ZM349,280.37v.1l.57-.36V280h-.12Zm.83-33.76.24.24h.12l-.24-.24Zm0,33.26h.12l.24-.24h-.12Zm1.56-1h.12l.26-.24h-.14Zm.62-31.32v.12l.74.24h.09v-.12l-.71-.24Zm1.07,29.89v.12h.12l.74-.24v-.24Zm.24-17.23v.12l.5-.6v-.12Zm.86,16.87h.12l.24-.26h-.12Zm.5-27.86.58.5v-.24l-.51-.26Zm.46,27.26h.12l.35-.36h-.11Zm1-24.35h.12l.23-.23h-.12Zm.23,23.61h.12l.22-.24h-.1Zm1-.84v.24l.36-.12v-.12Zm.86-.57-.24.24v.12h.24l.24-.36ZM358,252.42q0,.24,1.08.57h.12v-.12Zm.48-2.8V250h.21v-.36Z"/><path class="cls-3" d="M399.38,244.32h.12c0,.16.13.24.38.24l.12,3.37a1.77,1.77,0,0,1-.74,1.45l.12-.14h.12l.14.14h.12V249l.24.24-.12,1,.12,3v2.05c0,.66-.17,1-.5,1l-.93-.12-.51.12-.95-.12-1,.12-.12-1.09.12-1.44-.12-.5.38-.69c-.25-.08-.38-.33-.38-.74l.12-.86c0-.74-.92-1.49-2.77-2.27l-.72-.12c-1.65,0-2.7.32-3.13.95h-.12a30.36,30.36,0,0,1-.5,5.43c.19,0,.32.28.38.86L389,257.1l.24.24-.12.12.12.12v.12l-.12.71c0,1,.27,1.46.82,1.46l1-.36,1.33.24c.72-.2,1.08-.85,1.08-1.93a1.77,1.77,0,0,0-.84-1.34v-.22h.12c1.61.43,2.41,1.15,2.41,2.15l.15.48V259a3.42,3.42,0,0,1-.74,2.44c0,.38.16.57.47.57l.34,1.6c-.38,1.68-1.22,2.51-2.51,2.51l-.62.12v-.12a3.05,3.05,0,0,0,1.12-1.81c0-.19-.45-.35-1.36-.48h-.36l-.83.12-.12-.12v-.1c-1,.07-1.56.3-1.56.7l.24.5-.12,2.51.12.12v.12l-.24,1v.39h.24v.69l-.24.74.12.12v.12l-.12.84.12,1.33H389l.36,1.08-.24.26.12.36-.12.12v.12l.24.57-.24.24a1.83,1.83,0,0,1,.46,1.2l1.72.5a7.63,7.63,0,0,0,4.68-2.18l.12-1.31-.12-.12v-.12l.12-1.43L396,272v-.12l.24-.71-.24-1,.24-.24-.24-.38v-.34l.12-.11v-.12l1.31.23.39-.23,1.22.12h.71l.12.11H400l-.24.72v.12l.24,1v.34l-.24,1,.24.7v.38a.79.79,0,0,1-.74.48v.26l.62-.38.12.86v.45q-.08,1.32-4,4.71a13,13,0,0,1-3.87,1.46l-.12-.15-.57.15H391a6.89,6.89,0,0,1-5-1.82c-.58.58-1,.86-1.31.86h-.6a6.79,6.79,0,0,1-4.08-1.93l-.24-.24-.38-.5.12-.12a3.94,3.94,0,0,0,1.57.74h.62a1.67,1.67,0,0,0,1.06-1.6l-.12-.46.26-.24-.26-.62.12-.81-.12-1,.26-.24-.38-.38.12-1.55-.12-.34.12-1.1v-.5l.12-.12-.24-.45.12-1.94v-.5l-.12-.72.24-.47q-.24,0-.24-.36l.12-.86-.24-.24h.24v-.1c-.45,0-.85-.44-1.2-1.34l.26-.26-.14-.12h-.86v-.12l1.82-2.27v-1.22l.12-.71-.12-.36.24-1.43q-.24,0-.24-.39l.12-1.67-.12-.12v-.12l.24-1-.24-.51.12-.85a15,15,0,0,0-.24-3.26l-1.94-.59-1.19.86h-.12v-.12q0-1.56,3.61-3.13h1.12a2.51,2.51,0,0,1,1.91,1.07,9.65,9.65,0,0,1,3.63-1.57l1.7.12,1.31-.24c0,.2.52.33,1.56.38l3.36,1.43C397.79,246.25,398.47,245.61,399.38,244.32Zm-16.27,17-.12.12v.12h.12l.36-.12v-.12Zm0,1.91v.14h.36v-.26Zm.36-16.25-.12.34v.12h.12l.26-.24v-.1l.12.1h.45v-.1l-.57-.12-.14.12Zm2,13.24a.84.84,0,0,1-.86.48V261l1.2-.6v-.12Zm-.86,1.79h.12l.5-.21v-.12h-.12C384.83,261.81,384.66,261.93,384.66,262Zm1.94-2.39v.24l.38-.12v-.24Zm.5-.24.24.24h.45l-.21-.24Zm.69-.62v.12h.38v-.24Zm.24-13.38c0,.16.13.24.38.24h.12v-.12Zm.14,12.69v.12l.24.21.24-.21-.36-.12Zm1.34,22.29v.1l.58-.36V280H390Zm.84-33.76.24.24h.12l-.24-.24Zm0,33.26h.12l.24-.24h-.12Zm1.55-1H392l.26-.24h-.14Zm.62-31.32v.12l.74.24h.1v-.12l-.72-.24Zm1.08,29.89v.12h.12l.74-.24v-.24Zm.24-17.23v.12l.5-.6v-.12Zm.86,16.87h.12l.23-.26h-.12Zm.5-27.86.57.5v-.24l-.5-.26Zm.45,27.26h.12l.36-.36H396Zm1-24.35h.12l.24-.23h-.12Zm.24,23.61H397l.21-.24h-.09Zm1-.84v.24l.35-.12v-.12Zm.86-.57-.24.24v.12h.24l.24-.36Zm-.12-21.93c0,.16.36.35,1.07.57h.12v-.12Zm.48-2.8V250h.21v-.36Z"/><path class="cls-1" d="M168.38,297.23V298h-1.47v-.33c0-.83-.35-1.24-1-1.24s-1,.44-1,1.32a2.06,2.06,0,0,0,.13.87,1.32,1.32,0,0,0,.71.5l1.13.45a2.21,2.21,0,0,1,1.25,1,4.17,4.17,0,0,1,.29,1.77c0,2-.85,3-2.54,3a2.5,2.5,0,0,1-1.79-.7,2.34,2.34,0,0,1-.72-1.74v-.55h1.47v.46a.93.93,0,0,0,1,1.06,1,1,0,0,0,.91-.42,2.67,2.67,0,0,0,.16-1.11,3.2,3.2,0,0,0-.1-1,1.35,1.35,0,0,0-.75-.59l-1.06-.43a2.45,2.45,0,0,1-1.27-1,3.23,3.23,0,0,1-.33-1.6,3,3,0,0,1,.64-2,2.3,2.3,0,0,1,1.89-.82,2.38,2.38,0,0,1,1.77.73A2.23,2.23,0,0,1,168.38,297.23Z"/><path class="cls-1" d="M173.84,305.26V295h1.47v10.27Z"/><path class="cls-1" d="M181,305.26V295h1.42l2.24,6.19V295h1.47v10.27h-1.39l-2.27-6.17v6.17Z"/><path class="cls-1" d="M196.46,302.33V303a2.3,2.3,0,0,1-.68,1.67,2.23,2.23,0,0,1-1.65.71,2.5,2.5,0,0,1-1.63-.51,2.3,2.3,0,0,1-.79-1.92v-5.65a2.27,2.27,0,0,1,.67-1.69,2.31,2.31,0,0,1,1.72-.67,2.25,2.25,0,0,1,1.69.69,2.41,2.41,0,0,1,.67,1.76v.58H195v-.49a1.16,1.16,0,0,0-.25-.76.81.81,0,0,0-.66-.31q-.9,0-.9,1.2v5.24c0,.71.29,1.06.89,1.06s.92-.35.92-1v-.51Z"/><path class="cls-1" d="M202,305.26V295h4.38v1.39h-2.91v3H206v1.39h-2.53v3h2.91v1.47Z"/><path class="cls-1" d="M218.45,305.26v-1.38l2.65-5a2.82,2.82,0,0,0,.26-1.35,2.65,2.65,0,0,0-.08-.77.63.63,0,0,0-.64-.37.64.64,0,0,0-.72.74V298h-1.47v-.81a2.22,2.22,0,0,1,.64-1.58,2.14,2.14,0,0,1,1.57-.65,1.92,1.92,0,0,1,1.65.78,2.89,2.89,0,0,1,.52,1.8,5.77,5.77,0,0,1-.07,1.11,4.58,4.58,0,0,1-.42,1l-2.16,4.17h2.65v1.47Z"/><path class="cls-1" d="M228.14,303.14v-6a2.11,2.11,0,0,1,.66-1.62,2.29,2.29,0,0,1,3.08,0,2.11,2.11,0,0,1,.64,1.61v6a2.09,2.09,0,0,1-.64,1.6,2.19,2.19,0,0,1-3.74-1.6Zm1.47-6v6a.76.76,0,0,0,.2.53.7.7,0,0,0,.52.21.69.69,0,0,0,.52-.21.72.72,0,0,0,.2-.53v-6a.7.7,0,0,0-.2-.53.69.69,0,0,0-.52-.21.7.7,0,0,0-.52.21A.74.74,0,0,0,229.61,297.12Z"/><path class="cls-1" d="M237.83,303.14v-6a2.11,2.11,0,0,1,.66-1.62,2.15,2.15,0,0,1,1.53-.59,2.18,2.18,0,0,1,1.55.6,2.11,2.11,0,0,1,.64,1.61v6a2.09,2.09,0,0,1-.64,1.6,2.19,2.19,0,0,1-3.74-1.6Zm1.47-6v6a.76.76,0,0,0,.2.53.7.7,0,0,0,.52.21.69.69,0,0,0,.52-.21.76.76,0,0,0,.2-.53v-6a.74.74,0,0,0-.2-.53.69.69,0,0,0-.52-.21.7.7,0,0,0-.52.21A.74.74,0,0,0,239.3,297.12Z"/><path class="cls-1" d="M249.28,305.26v-8.71l-1.47,1.08v-1.55l1.47-1.09h1.47v10.27Z"/><path class="cls-4" d="M107.89,331.1V316.71H111a3.48,3.48,0,0,1,2.66,1,4.89,4.89,0,0,1,.94,3.38A5.62,5.62,0,0,1,114,324a3.22,3.22,0,0,1-3,1.5h-1v5.61ZM110,318.65v4.9h1a1.51,1.51,0,0,0,1.47-.67,4.48,4.48,0,0,0,.23-1.76,4.75,4.75,0,0,0-.21-1.74,1.37,1.37,0,0,0-1.41-.73Z"/><path class="cls-4" d="M122.18,331.1V316.71h3.31c2.42,0,3.64,1.41,3.64,4.23a3.75,3.75,0,0,1-1.78,3.6l2.22,6.56h-2.18L125.47,325h-1.23v6.14Zm2.06-12.45v4.49h1.17a1.48,1.48,0,0,0,1.37-.58,3.43,3.43,0,0,0,.29-1.66,3.36,3.36,0,0,0-.31-1.68,1.62,1.62,0,0,0-1.45-.57Z"/><path class="cls-4" d="M136.85,331.1V316.71H143v1.94h-4.08v4.23h3.56v1.94h-3.56V329H143v2.06Z"/><path class="cls-4" d="M150.39,331.1V316.71h2l2.65,7.62h0l2.62-7.62h2V331.1h-2.06v-8.75l-2.07,6.19H154.5l-2.05-6.19v8.75Z"/><path class="cls-4" d="M167.75,331.1V316.71h2.06V331.1Z"/><path class="cls-4" d="M184.54,316.71v11.16a3.26,3.26,0,0,1-1,2.38,3.21,3.21,0,0,1-2.36,1,3.35,3.35,0,0,1-3.34-3.36V316.71h2.06v11c0,1,.43,1.49,1.28,1.49s1.27-.49,1.27-1.49v-11Z"/><path class="cls-4" d="M192.55,331.1V316.71h2l2.64,7.62h0l2.63-7.62h2V331.1h-2.06v-8.75l-2.07,6.19h-1.05l-2-6.19v8.75Z"/><path class="cls-4" d="M219.54,327.71v-7.6a3.36,3.36,0,0,1,3.46-3.52,3.35,3.35,0,0,1,3.46,3.52v7.6a3.45,3.45,0,0,1-.31,1.47l1.28,1-1.05,1.26-1.22-1a3.34,3.34,0,0,1-2.16.75,3.41,3.41,0,0,1-2.36-.89A3.35,3.35,0,0,1,219.54,327.71Zm2.07-7.6v7.6a1.39,1.39,0,0,0,.42,1.09,1.32,1.32,0,0,0,1,.36,1.06,1.06,0,0,0,.45-.08l-.94-.74,1.06-1.26.83.67v-7.64A1.43,1.43,0,0,0,224,319a1.4,1.4,0,0,0-1-.38,1.33,1.33,0,0,0-1,.37A1.41,1.41,0,0,0,221.61,320.11Z"/><path class="cls-4" d="M241,316.71v11.16a3.3,3.3,0,0,1-1,2.38,3.34,3.34,0,0,1-5.7-2.38V316.71h2.06v11c0,1,.42,1.49,1.27,1.49s1.28-.49,1.28-1.49v-11Z"/><path class="cls-4" d="M248.08,331.1l3.21-14.39H253l3.21,14.39h-2.06l-.6-3.09h-2.81l-.61,3.09Zm5.09-5-1-5.21h0l-1,5.21Z"/><path class="cls-4" d="M263.3,331.1V316.71h2.06V329h4.08v2.06Z"/><path class="cls-4" d="M276.9,331.1V316.71H279V331.1Z"/><path class="cls-4" d="M288.38,331.1V318.65H286v-1.94h6.83v1.94h-2.38V331.1Z"/><path class="cls-4" d="M301.72,331.1V325l-2.83-8.31h2.18l1.66,5.72h0l1.66-5.72h2.18L303.78,325v6.08Z"/><path class="cls-1" d="M208.92,342.25h-96a1.12,1.12,0,0,1,0-2.23h96a1.12,1.12,0,1,1,0,2.23Z"/><path class="cls-1" d="M108.4,346.35c-2.45,0-8.39-3.55-9.56-4.26a1.12,1.12,0,0,1-.53-.95,1.11,1.11,0,0,1,.53-.95c1.17-.72,7.11-4.27,9.56-4.27a5.22,5.22,0,1,1,0,10.43Zm-6.78-5.21c2.57,1.45,5.69,3,6.78,3a3,3,0,1,0,0-6C107.31,338.15,104.19,339.68,101.62,341.14Z"/><path class="cls-1" d="M306.77,342.25H192.64a1.12,1.12,0,1,1,0-2.23H306.77a1.12,1.12,0,1,1,0,2.23Z"/><path class="cls-1" d="M311.24,346.35a5.22,5.22,0,1,1,0-10.43c2.45,0,8.4,3.55,9.56,4.27a1.09,1.09,0,0,1,.54.95,1.11,1.11,0,0,1-.54.95C319.64,342.8,313.69,346.35,311.24,346.35Zm0-8.2a3,3,0,0,0,0,6c1.1,0,4.22-1.54,6.78-3C315.46,339.68,312.34,338.15,311.24,338.15Z"/></svg>