<svg id="Слой_1" data-name="Слой 1" xmlns="http://www.w3.org/2000/svg" xmlns:xlink="http://www.w3.org/1999/xlink" viewBox="0 0 400 400"><defs><style>.cls-1{fill:none;}.cls-2{fill:#1a1d24;}.cls-3{clip-path:url(#clip-path);}.cls-4{fill:#c69c6c;}.cls-5{fill:#fff;}.cls-6{fill:#010101;}.cls-7{fill:#edc17b;}</style><clipPath id="clip-path"><path class="cls-1" d="M15.52,200c0,101.88,82.6,184.46,184.48,184.46S384.48,301.88,384.48,200,301.89,15.54,200,15.54,15.52,98.12,15.52,200"/></clipPath></defs><ellipse class="cls-2" cx="200" cy="200" rx="184.48" ry="184.46"/><g class="cls-3"><rect class="cls-2" x="-120.74" y="61.29" width="381.41" height="4.2" transform="translate(-24.33 68.04) rotate(-45)"/><rect class="cls-4" x="-109.1" y="72.92" width="381.41" height="4.19" transform="translate(-29.14 79.71) rotate(-45.02)"/><rect class="cls-4" x="-97.47" y="84.56" width="381.42" height="4.2" transform="translate(-33.97 91.24) rotate(-44.97)"/><rect class="cls-4" x="-85.83" y="96.2" width="381.41" height="4.2" transform="translate(-38.79 102.91) rotate(-44.98)"/><rect class="cls-4" x="-74.19" y="107.83" width="381.41" height="4.2" transform="translate(-43.61 114.45) rotate(-44.95)"/><rect class="cls-4" x="-62.55" y="119.47" width="381.41" height="4.2" transform="translate(-48.42 126.28) rotate(-45.02)"/><rect class="cls-4" x="-50.91" y="131.1" width="381.41" height="4.2" transform="translate(-53.24 138.04) rotate(-45.05)"/><polygon class="cls-4" points="18.06 281.16 15.09 278.2 284.8 8.51 287.77 11.48 18.06 281.16"/><rect class="cls-4" x="-27.64" y="154.38" width="381.42" height="4.2" transform="translate(-62.88 161.21) rotate(-45.02)"/><rect class="cls-4" x="-16" y="166.01" width="381.41" height="4.2" transform="translate(-67.7 172.77) rotate(-45)"/><rect class="cls-4" x="-4.36" y="177.65" width="381.42" height="4.2" transform="translate(-72.52 184.49) rotate(-45.02)"/><rect class="cls-4" x="7.27" y="189.29" width="381.42" height="4.2" transform="translate(-77.34 196.05) rotate(-45)"/><rect class="cls-4" x="18.91" y="200.92" width="381.41" height="4.2" transform="translate(-82.16 207.69) rotate(-45)"/><rect class="cls-4" x="30.55" y="212.56" width="381.42" height="4.2" transform="translate(-86.99 219.05) rotate(-44.95)"/><rect class="cls-4" x="42.19" y="224.2" width="381.41" height="4.2" transform="translate(-91.8 231.24) rotate(-45.05)"/><rect class="cls-4" x="53.82" y="235.84" width="381.41" height="4.19" transform="translate(-96.62 242.7) rotate(-45.02)"/><rect class="cls-4" x="65.46" y="247.47" width="381.41" height="4.2" transform="translate(-101.44 254.24) rotate(-45)"/><rect class="cls-4" x="77.1" y="259.11" width="381.41" height="4.2" transform="translate(-106.26 266.21) rotate(-45.05)"/><rect class="cls-4" x="88.74" y="270.74" width="381.41" height="4.2" transform="translate(-111.08 277.62) rotate(-45.02)"/><rect class="cls-4" x="100.37" y="282.38" width="381.42" height="4.19" transform="translate(-115.9 289.26) rotate(-45.02)"/><rect class="cls-4" x="112.01" y="294.02" width="381.42" height="4.2" transform="translate(-120.71 301.29) rotate(-45.07)"/><rect class="cls-4" x="123.65" y="305.65" width="381.41" height="4.2" transform="translate(-125.54 312.42) rotate(-45)"/><rect class="cls-4" x="135.28" y="317.29" width="381.41" height="4.2" transform="translate(-130.36 324.07) rotate(-45)"/></g><path class="cls-5" d="M346.16,200A146.16,146.16,0,1,1,200,53.86,146.15,146.15,0,0,1,346.16,200"/><path class="cls-6" d="M200,348.63C118,348.63,51.36,282,51.36,200S118,51.37,200,51.37,348.64,118.05,348.64,200,282,348.63,200,348.63Zm0-292.29C120.78,56.34,56.33,120.79,56.33,200S120.78,343.65,200,343.65,343.67,279.21,343.67,200,279.22,56.34,200,56.34Z"/><path class="cls-2" d="M337.26,200A137.26,137.26,0,1,1,200,62.76,137.26,137.26,0,0,1,337.26,200"/><path class="cls-7" d="M158.51,292.78c1.47,0,2.21.8,2.21,2.41v.5H159.3v-.6c0-.62-.25-.94-.75-.94s-.76.32-.76.94a2,2,0,0,0,.46,1.25,5.13,5.13,0,0,0,.47.5l.41.38.14.12a6.48,6.48,0,0,1,.53.54,3.27,3.27,0,0,1,.47.62,3.09,3.09,0,0,1,.46,1.67c0,1.6-.74,2.41-2.24,2.41s-2.24-.81-2.24-2.41v-.93h1.42v1c0,.63.26.94.78.94s.78-.31.78-.94a2,2,0,0,0-.46-1.23,6.48,6.48,0,0,0-.47-.52l-.54-.5a5.5,5.5,0,0,1-.54-.53,4.06,4.06,0,0,1-.47-.62,3.11,3.11,0,0,1-.46-1.67C156.29,293.58,157,292.78,158.51,292.78Z"/><path class="cls-7" d="M165.27,292.89h1.51v9.58h-1.51Z"/><path class="cls-7" d="M172.91,295.54v6.93h-1.36v-9.58h1.89l1.55,5.73v-5.73h1.34v9.58h-1.55Z"/><path class="cls-7" d="M185.46,298.9v1.27c0,1.6-.75,2.41-2.24,2.41s-2.25-.81-2.25-2.41v-5c0-1.61.75-2.41,2.25-2.41s2.24.8,2.24,2.41v.93H184v-1c0-.62-.26-.94-.78-.94s-.78.32-.78.94v5.17c0,.63.26.94.78.94s.78-.31.78-.94V298.9Z"/><path class="cls-7" d="M191.57,296.93h2.07v1.36h-2.07v2.81h2.59v1.37h-4.1v-9.58h4.1v1.37h-2.59Z"/><path class="cls-7" d="M205.53,294.1a1.67,1.67,0,0,0,1.17-.36,2.23,2.23,0,0,0,.49-.85h1v9.58h-1.5v-7.31h-1.16Z"/><path class="cls-7" d="M218.22,300.17a2.36,2.36,0,1,1-4.71,0v-.76a2.08,2.08,0,0,1,.93-2,2,2,0,0,1-.93-1.92v-.31a2.36,2.36,0,1,1,4.71,0v.31a2,2,0,0,1-.93,1.92,2.08,2.08,0,0,1,.93,2Zm-3.2-4.38c0,.66.28,1,.85,1s.84-.34.84-1v-.54c0-.73-.28-1.1-.84-1.1s-.85.37-.85,1.1Zm0,4.34c0,.72.28,1.08.85,1.08s.83-.36.84-1.08v-.89q0-1.08-.84-1.08c-.57,0-.85.36-.85,1.08Z"/><path class="cls-7" d="M227.23,292.89v1.31L225,302.47h-1.5l2.2-8.21h-3v-1.37Z"/><path class="cls-7" d="M231.8,295.19c0-1.61.76-2.41,2.28-2.41s2.28.8,2.28,2.41v5c0,1.6-.75,2.41-2.28,2.41s-2.28-.81-2.28-2.41Zm1.5,5.07c0,.64.26.95.78.95s.78-.31.78-.95v-5.17c0-.62-.26-.94-.78-.94s-.78.32-.78.94Z"/><path class="cls-5" d="M136.7,302.07A119.5,119.5,0,0,1,79.89,200a121,121,0,0,1,1.62-19.62l1.75.3A119.34,119.34,0,0,0,81.66,200a117.72,117.72,0,0,0,56,100.56Z"/><path class="cls-5" d="M139.14,293A111,111,0,0,1,90,184l1.75.25A110.91,110.91,0,0,0,90.6,200a109.16,109.16,0,0,0,49.52,91.54Z"/><path class="cls-5" d="M263.29,302.07l-.93-1.51a117.72,117.72,0,0,0,56-100.56,119.34,119.34,0,0,0-1.6-19.32l1.75-.3A122,122,0,0,1,320.11,200a119.49,119.49,0,0,1-56.82,102.07"/><path class="cls-5" d="M260.85,293l-1-1.48A109.16,109.16,0,0,0,309.4,200a110.93,110.93,0,0,0-1.15-15.77L310,184a113.09,113.09,0,0,1,1.17,16,110.92,110.92,0,0,1-50.33,93"/><polygon class="cls-5" points="200 309.06 203.03 315.22 209.83 316.21 204.91 321 206.08 327.76 200 324.57 193.92 327.76 195.08 321 190.16 316.21 196.96 315.22 200 309.06"/><path class="cls-4" d="M83.6,135.27l4.91-7.58,2.24,1.44-1.66,2.57,13.39,8.68-1.59,2.46L87.5,134.15l-1.67,2.57Z"/><path class="cls-4" d="M109.76,130.58l-1.89,2.23L93.68,120.74l1.89-2.22,6.08,5.17,2.16-2.53L97.72,116l1.94-2.28,14.19,12.07-1.94,2.28-6.07-5.17-2.16,2.53Z"/><path class="cls-4" d="M113.7,110.83l3-2.71,1.78,2-3,2.71,3.66,4,3.74-3.39,1.79,2-5.91,5.35L106.26,107l5.91-5.35,1.79,2-3.74,3.4Z"/><path class="cls-4" d="M134.79,95.58l3.26-1.93,1.36,2.29-3.26,1.93,3.93,6.61L137.56,106l-9.5-16,6.66-4,1.35,2.3-4.14,2.45Z"/><path class="cls-4" d="M142.19,82.23,144.85,81l7.79,16.92L150,99.15Z"/><path class="cls-4" d="M157.44,81.54l4.21,12.8-2.5.83-5.83-17.69,3.5-1.15L163.15,86l-3.48-10.6,2.47-.82L168,92.26l-2.87.95Z"/><path class="cls-4" d="M175.65,79.46l3.95-.74.49,2.61-4,.73,1,5.37,5-.93.49,2.62-7.84,1.46-3.42-18.3,7.84-1.47.49,2.61-5,.94Z"/><path class="cls-4" d="M192.14,69.29c2.87-.17,4.4,1.31,4.58,4.42l.05,1-2.76.15-.07-1.16c-.06-1.22-.59-1.8-1.57-1.75s-1.43.7-1.36,1.92a3.92,3.92,0,0,0,1,2.36,10.13,10.13,0,0,0,1,.93l.81.68a2.64,2.64,0,0,1,.29.24,13.78,13.78,0,0,1,1.1,1,8.44,8.44,0,0,1,1,1.15,6.09,6.09,0,0,1,1.08,3.19c.18,3.11-1.18,4.76-4.08,4.92s-4.45-1.31-4.63-4.41l-.11-1.81,2.77-.16.11,2c.07,1.21.61,1.78,1.62,1.72s1.47-.68,1.4-1.9a3.9,3.9,0,0,0-1-2.35,10.13,10.13,0,0,0-1-.94l-1.11-.91c-.45-.37-.82-.7-1.11-1a10.54,10.54,0,0,1-1-1.14,6.16,6.16,0,0,1-1.08-3.2Q187.84,69.54,192.14,69.29Z"/><path class="cls-4" d="M204.59,69.27l9,.61-.18,2.65-3-.2-1.07,15.93-2.91-.2,1.06-15.92-3.06-.21Z"/><path class="cls-4" d="M231.23,77.43q1.26-4.5,5.54-3.3c2.85.82,3.85,2.72,3,5.72l-2.63,9.32a5.45,5.45,0,0,1-1.25,2.36c0,.28.26.48.7.6l.25.08-.71,2.5-.39-.11a2.53,2.53,0,0,1-2.08-1.9,6.2,6.2,0,0,1-2.07-.24c-2.84-.8-3.85-2.71-3-5.7Zm.12,10.3c-.33,1.18,0,1.91,1,2.18s1.63-.17,2-1.36L237,78.88c.33-1.18,0-1.9-1-2.18s-1.63.18-2,1.35Z"/><path class="cls-4" d="M252.26,79.77,246.56,93c-.49,1.11-.26,1.87.67,2.27s1.63,0,2.11-1.07L255.05,81l2.54,1.1L252,95.1q-1.86,4.29-5.86,2.55c-2.67-1.16-3.38-3.16-2.14-6l5.63-13Z"/><path class="cls-4" d="M264.43,107.21l-2.53-1.52,1.32-3.15-3.08-1.85L258,103.32l-2.31-1.39,12.16-14.42,3.67,2.22Zm-2.67-8.5,2.42,1.46,3.65-8.8Z"/><path class="cls-4" d="M281.07,96.25l2.29,1.81-9.89,12.53,3.78,3-1.65,2.09-6.08-4.8Z"/><path class="cls-4" d="M293.26,106.59l2.1,2-13,13.37-2.1-2Z"/><path class="cls-4" d="M301.11,114.59l5.8,6.93-2.05,1.71-1.95-2.34-12.24,10.24-1.88-2.24L301,118.65l-2-2.35Z"/><path class="cls-4" d="M303,137.5l8.47-9.85,1.66,2.58-5.94,6.47,8.36-2.72,1.51,2.35L304.57,140l-5.19,3.34-1.58-2.46Z"/><path class="cls-7" d="M137.61,246.54a22.74,22.74,0,1,1-12.49-41.78,22.44,22.44,0,0,1,12.49,3.75l-2.11,3.29a18.88,18.88,0,0,0-29.24,15.78,18.92,18.92,0,0,0,18.86,18.81,18.58,18.58,0,0,0,10.38-3.09Zm-10.54-33.61a15,15,0,0,0-10.35,4.81,14.82,14.82,0,0,0-4.24,10.61,14.67,14.67,0,0,0,6.32,12.38,15.43,15.43,0,0,0,7.14,2.16h-.82a15.33,15.33,0,0,1-7.86-2.16,14.71,14.71,0,0,1-5.47-5.52,15.38,15.38,0,0,1,2.49-18.53,14.8,14.8,0,0,1,10.84-4.52A8,8,0,0,1,127.07,212.93ZM141.36,210l-3.13,4.68a10.65,10.65,0,0,0-1.13-.67l3.18-4.78Zm1,36.59-1.13.72L137.1,241a6.75,6.75,0,0,0,1.13-.67Z"/><path class="cls-7" d="M184.58,227.58a22.77,22.77,0,0,1-38.85,16.06,22.83,22.83,0,0,1,0-32.17,21.69,21.69,0,0,1,16-6.71,22.89,22.89,0,0,1,22.82,22.82Zm-4,0a18.86,18.86,0,1,0-5.52,13.28A18.2,18.2,0,0,0,180.62,227.58Zm-16.9-14.65a15.52,15.52,0,0,0-14.55,15.42,14.7,14.7,0,0,0,6.27,12.38,16,16,0,0,0,7.14,2.16h-.82a15.36,15.36,0,0,1-15.26-15.31,15,15,0,0,1,4.47-10.9,14.64,14.64,0,0,1,10.79-4.52A8.13,8.13,0,0,1,163.72,212.93Zm25.9,14.65a25.79,25.79,0,0,1-3.34,12.84,26.14,26.14,0,0,1-8.94,9.31H175.8a26.32,26.32,0,0,0,8.88-9.31,26.37,26.37,0,0,0,0-25.69,26.11,26.11,0,0,0-8.83-9.35h1.54a26.63,26.63,0,0,1,8.89,9.35A25.82,25.82,0,0,1,189.62,227.58Z"/><path class="cls-7" d="M211.15,236.57h-14v13.1h-3.85V205.38H211v3.85H197.17v23.48h14Zm4.58-22.87h-9.62l-5.6,15.47v-16.5h13.62v-7.29h1.6Zm.15,26.41H202.26v9.56h-1.54V239.09h13.57v-9.92h1.59Z"/><path class="cls-7" d="M237.41,236.57h-14v13.1h-3.85V205.38h17.68v3.85H223.43v23.48h14ZM242,213.7h-9.6l-5.61,15.47v-16.5h13.62v-7.29H242Zm.16,26.41H228.52v9.56H227V239.09h13.57v-9.92h1.59Z"/><path class="cls-7" d="M265.16,249.67H245.84V205.38h17.78v3.85H249.8v23.48h13.92v3.86H249.8v9.25h15.36Zm3.24-36h-9.56l-5.6,15.47v-16.5h13.62v-7.29h1.54Zm0,26.41H254.83v2.16h-1.59v-3.18h13.62v-9.92h1.54Zm1.49,9.62H268.3v-7.46h1.59Z"/><path class="cls-7" d="M292.91,249.67H273.59V205.38h17.78v3.85H277.55v23.48h13.92v3.86H277.55v9.25h15.36Zm3.24-36h-9.56L281,229.17v-16.5h13.62v-7.29h1.54Zm0,26.41H282.58v2.16H281v-3.18h13.62v-9.92h1.54Zm1.49,9.62h-1.59v-7.46h1.59Z"/><path class="cls-7" d="M143,267.05V256.18h1.56v4.66h1.92v-4.66H148v10.87h-1.56v-4.84h-1.92v4.84Z"/><path class="cls-7" d="M154.1,267.05V256.18h1.56v10.87Z"/><path class="cls-7" d="M161.66,264.48v-5.74a2.57,2.57,0,0,1,.82-2,2.62,2.62,0,0,1,1.79-.65,2.53,2.53,0,0,1,2.61,2.65v.55h-1.56v-.55a1,1,0,0,0-1-1.1,1,1,0,0,0-.74.28,1,1,0,0,0-.32.82v5.74a1.07,1.07,0,0,0,.32.83,1,1,0,0,0,.74.27,1.07,1.07,0,0,0,.76-.28,1.11,1.11,0,0,0,.29-.82v-2h-1.24v-1.38h2.8v3.42a2.56,2.56,0,0,1-2.61,2.66,2.59,2.59,0,0,1-1.79-.67A2.52,2.52,0,0,1,161.66,264.48Z"/><path class="cls-7" d="M172.83,267.05V256.18h1.56v4.66h1.93v-4.66h1.55v10.87h-1.55v-4.84h-1.93v4.84Z"/><path class="cls-7" d="M191.25,264.48v-5.74a2.66,2.66,0,0,1,4.4-2,2.57,2.57,0,0,1,.82,2v5.74a2.52,2.52,0,0,1-.23,1.12l1,.78-.79.95-.92-.76a2.51,2.51,0,0,1-1.63.57,2.59,2.59,0,0,1-1.79-.67A2.56,2.56,0,0,1,191.25,264.48Zm1.56-5.74v5.74a1,1,0,0,0,.32.83,1,1,0,0,0,.73.27.78.78,0,0,0,.33-.06l-.7-.56.8-.95.62.5v-5.77a1,1,0,0,0-.3-.81,1,1,0,0,0-.75-.29,1,1,0,0,0-.73.28A1,1,0,0,0,192.81,258.74Z"/><path class="cls-7" d="M207.46,256.18v8.43a2.51,2.51,0,0,1-2.52,2.53,2.54,2.54,0,0,1-2.52-2.53v-8.43H204v8.27c0,.76.32,1.13,1,1.13s1-.37,1-1.13v-8.27Z"/><path class="cls-7" d="M212.81,267.05l2.43-10.87h1.29L219,267.05h-1.55l-.46-2.34h-2.13l-.45,2.34Zm3.85-3.8-.77-3.94h0l-.76,3.94Z"/><path class="cls-7" d="M224.31,267.05V256.18h1.55v9.31H229v1.56Z"/><path class="cls-7" d="M234.58,267.05V256.18h1.56v10.87Z"/><path class="cls-7" d="M243.26,267.05v-9.41h-1.81v-1.46h5.17v1.46h-1.81v9.41Z"/><path class="cls-7" d="M253.33,267.05v-4.6l-2.14-6.27h1.65l1.26,4.32h0l1.25-4.32H257l-2.14,6.27v4.6Z"/><path class="cls-7" d="M178.62,274.75h42.76a1,1,0,0,0,0-1.91H178.62a1,1,0,0,0,0,1.91Z"/><path class="cls-7" d="M108.77,170.54H139.3a1,1,0,0,0,0-1.91H108.77a1,1,0,0,0,0,1.91Z"/><path class="cls-7" d="M139.3,178.93H118.69a1,1,0,0,0,0,1.91H139.3a1,1,0,0,0,0-1.91Z"/><path class="cls-7" d="M139.3,156.8H118.69a1,1,0,0,0,0,1.9H139.3a1,1,0,0,0,0-1.9Z"/><path class="cls-7" d="M291.23,168.63H260.69a1,1,0,0,0,0,1.91h30.54a1,1,0,0,0,0-1.91Z"/><path class="cls-7" d="M260.69,180.84h20.62a1,1,0,0,0,0-1.91H260.69a1,1,0,0,0,0,1.91Z"/><path class="cls-7" d="M260.69,158.7h20.62a1,1,0,0,0,0-1.9H260.69a1,1,0,0,0,0,1.9Z"/><path class="cls-7" d="M227,132.33a16.81,16.81,0,0,0-1.36-1.57c-9.76-9.76-29.13-6.2-43.28,8C171,150,166.5,164.66,170.14,175.07a1.59,1.59,0,0,0,3,0,29.52,29.52,0,0,1,6.3-10.16c5.13-5.57,12.23-8.92,19.38-10.69l5.12-1.3c1.71-.36,3.25-1.12,4.9-1.62a35.4,35.4,0,0,0,8.88-5C222.1,142.88,228,133.84,227,132.33Zm-20.71,16.92h0l0,0c-1.17.36-2.35.89-3.65,1.31s-2.55.64-3.82,1c-2.52.64-5,1.17-7.41,2a44.13,44.13,0,0,0-7,2.93,40.16,40.16,0,0,0-6.47,4.19,33.19,33.19,0,0,1,13-8.69,64.33,64.33,0,0,1,7.53-2.27l3.69-1c1.14-.35,2.32-.86,3.6-1.25a39.23,39.23,0,0,0,9-4.77,31.61,31.61,0,0,0,3.76-3.49c1.2-1.25,2.3-2.6,3.39-4a34.42,34.42,0,0,1-2.79,4.47,24.28,24.28,0,0,1-3.55,4A32.48,32.48,0,0,1,206.26,149.25Z"/><path class="cls-7" d="M229.61,137a1.45,1.45,0,0,0-2.72.13,25,25,0,0,1-7.23,11.49,34.17,34.17,0,0,1-9.42,6.08l-2.61,1a17.85,17.85,0,0,1-2.65.87L199.72,158a42.06,42.06,0,0,0-5,1.44l-2.41.89c-.81.29-1.53.75-2.32,1.09a33.86,33.86,0,0,0-8.47,5.65,31,31,0,0,0-6.42,8,31.67,31.67,0,0,0-1.9,3.88,2.19,2.19,0,0,0,.42,2.25c.23.26.47.52.72.77,9.76,9.76,29.14,6.2,43.29-8C229.23,162.47,233.7,147.42,229.61,137Zm-33.2,47.51c-6,1.62-12.87,1.65-18.35-1.28,6,1.36,12,.39,17.44-1.6a50.74,50.74,0,0,0,15-8.9,57.2,57.2,0,0,0,11.66-13.11,45.82,45.82,0,0,0,6.7-16.48c.53,6.15-1.2,12.45-4.07,18A47.44,47.44,0,0,1,213,175.68,43.61,43.61,0,0,1,196.41,184.49Z"/><path class="cls-7" d="M181.29,185.93s3.46,1.56,1.7,4.78c-2,3.59-3.84,8.88.51,10.75,3,1.29,8.07-2.48,4.86-8.08-3.4-5.93-1.78-7-1.78-7Z"/><path class="cls-7" d="M195,187.78s-4.84,7.62,0,7.69S195,187.78,195,187.78Z"/><path class="cls-7" d="M227.85,102.41l-.58,12.3a.11.11,0,0,1,0,.08.58.58,0,0,0-.19,0H187.87a.55.55,0,0,0-.18,0,.12.12,0,0,1,0-.08l-.57-12.3a.14.14,0,0,1,.27,0c1,5.48,2.9,9,5.27,9,2.73,0,4.95-10.88,4.95-14.19,0,6.52,2.21,14.19,4.94,14.19s5-7.34,5-21.33c0,14,2.22,21.33,4.95,21.33s5-7.67,5-14.19c0,3.31,2.22,14.19,4.95,14.19,2.36,0,4.27-3.56,5.27-9A.14.14,0,0,1,227.85,102.41Z"/><rect class="cls-7" x="186.94" y="115.25" width="41.05" height="2.04" rx="0.94"/><path class="cls-7" d="M228,116.35a.94.94,0,0,1-.94.94H187.87a.94.94,0,0,1-.93-.94v-.17a.93.93,0,0,1,.93-.93h39.18a.94.94,0,0,1,.94.93Z"/><rect class="cls-7" x="187.86" y="117.76" width="39.21" height="3.1"/></svg>