<svg id="Слой_1" data-name="Слой 1" xmlns="http://www.w3.org/2000/svg" viewBox="0 0 400 400"><defs><style>.cls-1{fill:#1a1d24;}.cls-2{fill:#fff;}.cls-3{fill:#c69c6c;}.cls-4{fill:#c4ab71;}</style></defs><circle class="cls-1" cx="200" cy="200" r="179.91" transform="translate(-29.36 365.5) rotate(-80.81)"/><path class="cls-2" d="M200,97.39a102.54,102.54,0,0,1,92.91,59h60.33a159.33,159.33,0,0,0-306.48,0h60.33A102.54,102.54,0,0,1,200,97.39Zm0,205.22a102.53,102.53,0,0,1-92.91-59.05H46.76a159.32,159.32,0,0,0,306.48,0H292.91A102.53,102.53,0,0,1,200,302.61Z"/><path class="cls-3" d="M200,372.37c-95,0-172.38-77.32-172.38-172.37S105,27.62,200,27.62,372.37,105,372.37,200,295.05,372.37,200,372.37Zm0-339.16C108,33.21,33.21,108,33.21,200S108,366.78,200,366.78,366.78,292,366.78,200,292,33.21,200,33.21Z"/><path class="cls-1" d="M81.59,256.69a3.06,3.06,0,0,1-4.14-1.56,3.1,3.1,0,0,1,1.6-4.15,3.19,3.19,0,0,1,4.14,1.56A3.22,3.22,0,0,1,81.59,256.69Z"/><path class="cls-1" d="M87.53,267.68a3.13,3.13,0,1,1-3.09-5.44,3.13,3.13,0,1,1,3.09,5.44Z"/><path class="cls-1" d="M94.48,278.06a3.13,3.13,0,1,1-3.59-5.12,3.13,3.13,0,1,1,3.59,5.12Z"/><path class="cls-1" d="M102.39,287.73A3.13,3.13,0,1,1,98.32,283a3.13,3.13,0,1,1,4.07,4.75Z"/><path class="cls-1" d="M111.17,296.61a3.13,3.13,0,1,1-4.5-4.34,3.13,3.13,0,1,1,4.5,4.34Z"/><path class="cls-1" d="M120.76,304.63a3.13,3.13,0,1,1-4.9-3.9,3.13,3.13,0,1,1,4.9,3.9Z"/><path class="cls-1" d="M283,301.68a3.12,3.12,0,1,1-4.92,3.83,3.12,3.12,0,0,1,4.92-3.83Z"/><path class="cls-1" d="M292.27,293.33a3.12,3.12,0,1,1-4.54,4.28,3.12,3.12,0,0,1,4.54-4.28Z"/><path class="cls-1" d="M300.74,284.14a3.13,3.13,0,1,1-4.13,4.69,3.13,3.13,0,0,1,4.13-4.69Z"/><path class="cls-1" d="M308.28,274.19a3.2,3.2,0,0,1,.83,4.44,3.24,3.24,0,0,1-4.49.61,3.12,3.12,0,0,1,3.66-5.05Z"/><path class="cls-1" d="M314.86,263.56a3.21,3.21,0,0,1,1.24,4.35,3.24,3.24,0,0,1-4.41,1,3,3,0,0,1-1-4.21A3.07,3.07,0,0,1,314.86,263.56Z"/><path class="cls-1" d="M320.39,252.36a3.18,3.18,0,0,1,1.64,4.21,3.25,3.25,0,0,1-4.29,1.45,3,3,0,0,1-1.42-4.1A3.12,3.12,0,0,1,320.39,252.36Z"/><path class="cls-1" d="M88.13,134.21l3-5.89,1.73.89-1,2,10.39,5.35-1,1.9-10.4-5.35-1,2Z"/><path class="cls-1" d="M109.24,125,108,126.79,96.87,118.9l1.24-1.74,4.77,3.38,1.41-2-4.77-3.38,1.26-1.79,11.13,7.89-1.26,1.78-4.77-3.37-1.41,2Z"/><path class="cls-1" d="M113.8,106.86l2-2.14,1.41,1.33-2,2.14,2.9,2.75,2.54-2.69,1.42,1.34-4,4.24-9.91-9.36,4-4.25,1.41,1.34L111,104.25Z"/><path class="cls-1" d="M135.63,88.82l2.31-1.51L139,88.94l-2.32,1.52,3.09,4.71L138,96.34l-7.47-11.41,4.74-3.11,1.07,1.63-3,1.94Z"/><path class="cls-1" d="M144.74,76.54l1.92-1,6.05,12.22-1.92,1Z"/><path class="cls-1" d="M160.23,74l3.22,9.33-1.82.63L157.18,71l2.54-.88,4.74,7-2.66-7.73,1.81-.62,4.45,12.89-2.09.72Z"/><path class="cls-1" d="M178,71.12l2.89-.56.37,1.91-2.9.55.75,3.93,3.64-.7.36,1.91-5.73,1.11-2.57-13.4,5.73-1.1.37,1.91-3.63.7Z"/><path class="cls-1" d="M194.66,63.11c2.1-.11,3.22,1,3.34,3.25l0,.72-2,.11,0-.86c-.05-.89-.43-1.32-1.14-1.28s-1.06.5-1,1.4a2.82,2.82,0,0,0,.75,1.73,6.77,6.77,0,0,0,.71.69l.6.5.21.17a9,9,0,0,1,.8.72,5.38,5.38,0,0,1,.72.84,4.54,4.54,0,0,1,.78,2.35c.12,2.28-.89,3.47-3,3.58s-3.25-1-3.37-3.25l-.07-1.32,2-.11.08,1.46c0,.89.44,1.31,1.18,1.27s1.08-.5,1-1.39a2.82,2.82,0,0,0-.74-1.72,7.91,7.91,0,0,0-.71-.7L194,70.6c-.33-.28-.6-.51-.81-.72a5.87,5.87,0,0,1-.71-.84,4.54,4.54,0,0,1-.78-2.35Q191.51,63.27,194.66,63.11Z"/><path class="cls-1" d="M208.44,63.24l6.59.54-.16,1.94-2.22-.18-1,11.65L209.56,77l1-11.65-2.24-.19Z"/><path class="cls-1" d="M237,71.59q1.08-3.25,4.17-2.22c2.05.69,2.72,2.11,2,4.28l-2.25,6.73a3.91,3.91,0,0,1-1,1.68c0,.21.18.36.49.47l.18.06L240,84.4l-.28-.09a1.87,1.87,0,0,1-1.46-1.47,4.7,4.7,0,0,1-1.5-.24q-3.08-1-2-4.28Zm-.26,7.53c-.29.86-.08,1.4.63,1.64s1.19-.08,1.48-.93l2.33-7c.28-.84.08-1.38-.63-1.62s-1.2.07-1.48.92Z"/><path class="cls-1" d="M256.6,75.86l-4.72,9.4c-.4.8-.26,1.36.4,1.69s1.19.1,1.59-.69l4.71-9.4,1.81.9-4.65,9.29c-1,2-2.49,2.58-4.39,1.63S249,86.22,250,84.19l4.65-9.29Z"/><path class="cls-1" d="M268.18,98.78l-1.78-1.23,1.11-2.24-2.16-1.5-1.71,1.82L262,94.51l9.57-10,2.58,1.79Zm-1.55-6.34,1.7,1.18,3.09-6.25Z"/><path class="cls-1" d="M284.49,94.52,286.06,96l-7.91,8.6,2.59,2.39-1.32,1.43-4.17-3.84Z"/><path class="cls-1" d="M296.07,106.22l1.4,1.63-10.37,8.86-1.39-1.62Z"/><path class="cls-1" d="M304.09,116.38l3.67,5.51L306.14,123l-1.25-1.86-9.72,6.48L294,125.81l9.73-6.48-1.24-1.87Z"/><path class="cls-1" d="M305.85,137.24l7-6.4,1,2L309,137l6.31-1.22.89,1.84-9.4,1.51-4.07,2-.93-1.93Z"/><path class="cls-1" d="M139.83,300.89l1.82,1.12-6.11,10,3,1.85-1,1.66-4.83-3Z"/><path class="cls-1" d="M147.87,305.59l1.9,1-6.28,12.11-1.9-1Z"/><path class="cls-1" d="M154,319.15l5-8.4,2.76,1.12-5.18,12.63-1.87-.77,3.71-9.05-5.07,8.49-1.88-.77,2.18-9.53L150,321.79l-1.73-.71,5.17-12.62,2.76,1.13Z"/><path class="cls-1" d="M165.8,313.14l2,.64-4,13-2-.63Z"/><path class="cls-1" d="M171.37,314.81l6.45,1.49-.44,1.9-2.17-.5-2.64,11.39-2.09-.49,2.64-11.38-2.19-.51Z"/><path class="cls-1" d="M182.67,323l2.92.42-.28,1.92-2.92-.42-.57,4,3.66.52-.28,1.93-5.78-.83,2-13.5,5.78.84-.28,1.92-3.67-.52Z"/><path class="cls-1" d="M191.1,318.19l3.38.21c2.13.13,3.12,1.32,3,3.57l-.43,6.88c-.14,2.24-1.27,3.3-3.4,3.16l-3.38-.2Zm2,2.08-.6,9.72,1.2.08c.73,0,1.12-.38,1.18-1.25l.44-7.09c0-.88-.29-1.34-1-1.38Z"/><path class="cls-1" d="M210,324.16,213,324l.13,1.94-2.94.19.27,4,3.69-.25.13,1.95-5.83.39-.9-13.61,5.82-.39.13,1.95-3.69.24Z"/><path class="cls-1" d="M217.24,317.75l3.34-.53c2.11-.32,3.33.62,3.68,2.85l1.07,6.81q.51,3.33-2.64,3.82l-3.35.53Zm2.41,1.6,1.51,9.62,1.19-.19c.72-.11,1-.6.88-1.47l-1.1-7c-.14-.88-.56-1.26-1.28-1.14Z"/><path class="cls-1" d="M227.69,315.86l2.08-.49,3.16,13.27-2.09.49Z"/><path class="cls-1" d="M233.31,314.47l6.31-2,.59,1.85-2.13.69,3.58,11.13-2,.65-3.57-11.13-2.14.69Z"/><path class="cls-1" d="M243,311.11l2-.81,5.18,12.62-2,.81Z"/><path class="cls-1" d="M250.19,311.62q-1.56-3,1.35-4.52c1.93-1,3.41-.46,4.45,1.57L259.2,315c1,2,.59,3.54-1.35,4.53s-3.41.45-4.45-1.58Zm5.18,5.48c.41.8.94,1,1.6.69s.79-.9.38-1.7L254,309.52c-.41-.79-.94-1-1.6-.69s-.79.91-.38,1.7Z"/><path class="cls-1" d="M261.56,305.94l5.34,8.3-1.62,1.05-7.38-11.48,2.27-1.45,6.26,5.68L262,301.17l1.6-1L271,311.61l-1.86,1.19Z"/><path class="cls-2" d="M86.15,181.47c0-1,0-1.88-.09-2.53a11.31,11.31,0,0,0-.25-1.69c-.22-1.31-.9-2-2-2a1.66,1.66,0,0,0-1.71,1.54,10.32,10.32,0,0,0-.51,3.76v38.58a9.54,9.54,0,0,0,.51,3.76c.22,1.08.79,1.63,1.71,1.63,1.14,0,1.82-.68,2-2.05a6.77,6.77,0,0,0,.25-1.54c.06-.7.09-1.59.09-2.68V206.77l6.68-3v15.66c0,4.46-.74,7.42-2.21,8.9a9.38,9.38,0,0,1-6.85,2.46,10.66,10.66,0,0,1-3.55-.59,7.71,7.71,0,0,1-3-1.87,7.23,7.23,0,0,1-2-3.6c-.11-.55-.22-1.26-.33-2.12a24.15,24.15,0,0,1-.17-3V180.34A22.41,22.41,0,0,1,75,177.4c.11-.82.22-1.56.33-2.2a9.69,9.69,0,0,1,.73-2.06,5.71,5.71,0,0,1,1.23-1.69,9.74,9.74,0,0,1,6.43-2.22,10,10,0,0,1,6.94,2.47,6.87,6.87,0,0,1,1.66,3.21,21.75,21.75,0,0,1,.55,5.43v10.6a10.44,10.44,0,0,0-6.68,2.59Z"/><path class="cls-2" d="M134.56,224.85a9.44,9.44,0,0,1-1.48,3.38,9.12,9.12,0,0,1-6.68,2.55,9.43,9.43,0,0,1-6.77-2.55,7.81,7.81,0,0,1-2-3.51c-.11-.61-.22-1.34-.33-2.21a23.86,23.86,0,0,1-.17-3V180.26a21,21,0,0,1,.17-2.78c.11-.82.22-1.5.33-2a9,9,0,0,1,2-3.75,9.59,9.59,0,0,1,6.77-2.47,9.19,9.19,0,0,1,6.68,2.72,5.3,5.3,0,0,1,1.23,1.86,9.56,9.56,0,0,1,.65,2.69,11.56,11.56,0,0,1,.17,2.29v40.55A22.19,22.19,0,0,1,134.56,224.85Zm-6.2-45.95a10.39,10.39,0,0,0-.25-1.65q-.42-1.8-1.71-1.8a2,2,0,0,0-2.05,1.63c0,.48-.11,1-.16,1.57s-.09,1.33-.09,2.27v38.17c0,1,0,1.75.09,2.32s.11,1.05.16,1.44a2,2,0,0,0,2.05,1.54q1.38,0,1.71-1.71a7.3,7.3,0,0,0,.25-1.48c.06-.66.08-1.47.08-2.45V181.38C128.44,180.41,128.42,179.58,128.36,178.9Z"/><path class="cls-2" d="M161,227a12,12,0,0,0,.5-4.34V177.54a26.56,26.56,0,0,0-.12-2.8A7.31,7.31,0,0,0,161,173a3.29,3.29,0,0,0-.56-1.4,11.09,11.09,0,0,0-1.23-1.52H180.1v11.48c-.65-2.12-1.45-3.45-2.43-4a5.6,5.6,0,0,0-3.42-.79h-5.72v18.12h3.92c.87,0,1.57,0,2.11,0a6.48,6.48,0,0,0,1.4-.21,5.66,5.66,0,0,0,1.44-1.27,9.44,9.44,0,0,0,1.32-2.07v14.45q-1.8-3.51-4.55-3.51h-5.64v20.46a23.41,23.41,0,0,0,.25,4.34,8.52,8.52,0,0,0,2,2.92H159.22A5.14,5.14,0,0,0,161,227Z"/><path class="cls-2" d="M206.94,227a11.94,11.94,0,0,0,.51-4.34V177.54a26.18,26.18,0,0,0-.13-2.8,7.31,7.31,0,0,0-.38-1.75,3.29,3.29,0,0,0-.56-1.4,11.09,11.09,0,0,0-1.23-1.52H226v11.48c-.64-2.12-1.45-3.45-2.43-4a5.6,5.6,0,0,0-3.42-.79h-5.72v18.12h3.92c.87,0,1.57,0,2.11,0a6.48,6.48,0,0,0,1.4-.21,5.66,5.66,0,0,0,1.44-1.27,9.44,9.44,0,0,0,1.32-2.07v14.45q-1.8-3.51-4.55-3.51h-5.64v20.46a23.41,23.41,0,0,0,.25,4.34,8.52,8.52,0,0,0,2,2.92H205.15A5.14,5.14,0,0,0,206.94,227Z"/><path class="cls-2" d="M271.33,181.22a7,7,0,0,0-1.94-3.37,5,5,0,0,0-3.36-1.1H260v18.12h3.18c.66,0,1.26,0,1.77,0a2,2,0,0,0,1.19-.38,3.14,3.14,0,0,0,1.48-1.19,16.18,16.18,0,0,0,1.19-2v14.45a15.25,15.25,0,0,0-1-1.78,3.5,3.5,0,0,0-1.11-1.1,5.56,5.56,0,0,0-2.75-.63H260V223.1h7.69a3.08,3.08,0,0,0,2.27-.82,6.55,6.55,0,0,0,1.4-2.52v10.18H251.08a6.46,6.46,0,0,0,1.07-1.35,9.2,9.2,0,0,0,.64-1.4,14.18,14.18,0,0,0,.42-4.09V176.75a13.71,13.71,0,0,0-.42-3.93,13.76,13.76,0,0,0-.64-1.27,10.58,10.58,0,0,0-1.07-1.48h20.25Z"/><path class="cls-2" d="M314.92,181.22a6.9,6.9,0,0,0-1.94-3.37,5,5,0,0,0-3.36-1.1h-6.06v18.12h3.18c.67,0,1.26,0,1.77,0a2,2,0,0,0,1.19-.38,3.14,3.14,0,0,0,1.48-1.19,15,15,0,0,0,1.19-2v14.45a15.25,15.25,0,0,0-1-1.78,3.58,3.58,0,0,0-1.1-1.1,5.6,5.6,0,0,0-2.76-.63h-3.93V223.1h7.69a3.08,3.08,0,0,0,2.27-.82,6.42,6.42,0,0,0,1.4-2.52v10.18H294.67a6.46,6.46,0,0,0,1.07-1.35,8.32,8.32,0,0,0,.64-1.4,14.18,14.18,0,0,0,.42-4.09V176.75a13.71,13.71,0,0,0-.42-3.93,11.64,11.64,0,0,0-.64-1.27,10.58,10.58,0,0,0-1.07-1.48h20.25Z"/><path class="cls-4" d="M199.59,107.38c-8.53,0-15.45,9.88-15.45,22.07s6.92,22.06,15.45,22.06,15.46-9.88,15.46-22.06S208.13,107.38,199.59,107.38ZM202.2,143a24.61,24.61,0,0,1-.48,2.61c-.18.76-.38,1.42-.56,2s-.36.94-.48,1.22-.2.42-.2.42,0-.16.1-.46.12-.72.19-1.27.15-1.22.21-2,.09-1.63.09-2.56c0-.47,0-1,0-1.46s0-1-.09-1.55-.09-1.08-.19-1.63-.14-1.12-.28-1.68a34.67,34.67,0,0,0-.85-3.45l-.27-.85c-.1-.28-.18-.56-.3-.86l-.69-1.75c-.23-.62-.46-1.25-.68-1.87s-.33-1.28-.49-1.91-.21-1.29-.3-1.92-.07-1.28-.1-1.9,0-1.23.08-1.82.15-1.17.23-1.73.23-1.09.35-1.6.3-1,.45-1.46.33-.9.5-1.31l.54-1.15c.19-.34.35-.67.52-1s.35-.55.49-.79c.31-.47.58-.83.76-1.06s.3-.36.3-.36l-.2.41c-.13.27-.3.68-.51,1.19-.1.26-.21.54-.32.85s-.23.66-.35,1-.21.76-.33,1.17-.21.84-.32,1.3-.16.93-.25,1.42-.14,1-.18,1.54-.07,1.06-.08,1.61,0,1.12.05,1.69l.09.85a6.44,6.44,0,0,0,.1.87c0,.29.11.58.16.87s.09.58.17.87c.17.57.33,1.15.49,1.73s.43,1.13.64,1.7l.69,1.8c.12.29.21.62.31.93s.18.64.28.95l.14.47.1.47c.07.31.13.62.2.93.15.62.21,1.24.3,1.85a27.1,27.1,0,0,1,0,6.66Z"/><path class="cls-4" d="M212.59,148.9s3.17-7.57,10.95-4.65,10.55,3.37,12.52,2.6,1.89-5.22-.44-5.52-4,1.85-3,3.69c0,0-1.62-2.76.54-4.57s7.37-.37,6.46,4.71c-.83,4.68-4.74,5.65-9,4.59-3.63-.9-9.2-2.8-9.2-2.8l9.18,3.39c2.28.84,4.56.86,5.89-.29,0,0-1,3-6.9,1.46S216.86,147,212.59,148.9Z"/><path class="cls-4" d="M186.6,148.9s-3.17-7.57-10.95-4.65-10.56,3.37-12.52,2.6-1.89-5.22.44-5.52,4,1.85,3,3.69c0,0,1.63-2.76-.53-4.57s-7.37-.37-6.46,4.71c.84,4.68,4.74,5.65,9,4.59,3.64-.9,9.21-2.8,9.21-2.8l-9.18,3.39c-2.29.84-4.57.86-5.9-.29,0,0,1,3,6.9,1.46S182.33,147,186.6,148.9Z"/><path class="cls-4" d="M199.59,293.91c8.54,0,15.45-9.88,15.45-22.06s-6.91-22.07-15.45-22.07-15.45,9.88-15.45,22.07S191.06,293.91,199.59,293.91ZM197,258.27a20.23,20.23,0,0,1,.48-2.6,18.92,18.92,0,0,1,.56-2c.18-.53.36-.94.47-1.21l.2-.42-.09.45c-.06.29-.12.73-.2,1.27s-.14,1.22-.2,2-.09,1.62-.09,2.56c0,.47,0,.95,0,1.46s0,1,.1,1.55.09,1.07.19,1.62.14,1.12.27,1.69a33.83,33.83,0,0,0,.85,3.44c.1.28.19.57.28.85s.17.57.3.87c.23.58.46,1.16.68,1.74l.69,1.87c.19.64.33,1.28.49,1.92s.2,1.29.3,1.92.07,1.27.1,1.89,0,1.23-.08,1.83-.15,1.16-.23,1.72-.23,1.1-.35,1.61-.31,1-.45,1.46-.34.9-.51,1.31-.36.78-.53,1.14-.36.68-.53,1-.34.56-.49.8a12.45,12.45,0,0,1-.76,1.06,3.59,3.59,0,0,1-.29.35l.2-.41c.13-.27.3-.67.51-1.18.09-.26.2-.55.32-.86s.22-.65.35-1,.21-.76.33-1.17.21-.85.31-1.3.17-.94.26-1.43.13-1,.18-1.53.07-1.07.08-1.62,0-1.11-.05-1.68l-.09-.86a8.39,8.39,0,0,0-.1-.86c0-.29-.11-.58-.16-.87s-.09-.59-.18-.87l-.48-1.73c-.22-.57-.43-1.13-.64-1.7s-.47-1.21-.7-1.81c-.11-.28-.21-.61-.3-.93l-.28-.94-.14-.48-.1-.46c-.07-.32-.14-.63-.2-.94-.15-.61-.22-1.24-.31-1.84a25.36,25.36,0,0,1-.2-3.52A23.85,23.85,0,0,1,197,258.27Z"/><path class="cls-4" d="M186.6,252.39S183.43,260,175.65,257s-10.56-3.36-12.52-2.6-1.89,5.23.44,5.53,4-1.85,3-3.69c0,0,1.62,2.75-.54,4.57s-7.36.37-6.45-4.71c.83-4.68,4.74-5.66,9-4.6,3.64.9,9.21,2.8,9.21,2.8L168.63,251c-2.29-.84-4.57-.86-5.9.29,0,0,1-3,6.9-1.47S182.32,254.27,186.6,252.39Z"/><path class="cls-4" d="M212.59,252.39s3.16,7.58,10.95,4.65,10.55-3.36,12.52-2.6,1.89,5.23-.44,5.53-4-1.85-3-3.69c0,0-1.62,2.75.54,4.57s7.37.37,6.46-4.71c-.84-4.68-4.75-5.66-9-4.6-3.63.9-9.2,2.8-9.2,2.8l9.18-3.38c2.28-.84,4.56-.86,5.89.29,0,0-1-3-6.9-1.47S216.86,254.27,212.59,252.39Z"/></svg>