<svg id="Слой_1" data-name="Слой 1" xmlns="http://www.w3.org/2000/svg" viewBox="0 0 400 400"><defs><style>.cls-1{fill:#2d1e14;}.cls-2{fill:#e8c08a;}.cls-3{fill:#17160f;}.cls-4{fill:#c69c6c;}.cls-5{fill:#fff;}.cls-6{fill:#231f20;}</style></defs><path class="cls-1" d="M375.86,123.26a219.91,219.91,0,0,0-352.86,0l31.25,6.45,15,27.94a162.3,162.3,0,0,1,260.41,0L342.58,130Z"/><path class="cls-2" d="M68.55,101.89c-.41-.47-.75-.85-1-1.13a7.44,7.44,0,0,0-.78-.69A1.19,1.19,0,0,0,65,100a1,1,0,0,0-.19,1.38,6.22,6.22,0,0,0,1.23,1.94l15.06,17.89a6.13,6.13,0,0,0,1.7,1.55,1,1,0,0,0,1.43.08,1.22,1.22,0,0,0,.15-1.74,4.71,4.71,0,0,0-.48-.82c-.25-.34-.58-.77-1-1.27l-4.5-5.34,1.93-4,6.11,7.26c1.74,2.07,2.55,3.73,2.45,5a5.72,5.72,0,0,1-2.22,3.82,6.29,6.29,0,0,1-1.87,1.11,4.69,4.69,0,0,1-2.11.29,4.38,4.38,0,0,1-2.31-.9c-.27-.22-.6-.5-1-.86A13.9,13.9,0,0,1,78.16,124L62.84,105.81a13.52,13.52,0,0,1-1.07-1.43c-.27-.43-.51-.81-.7-1.15A5.85,5.85,0,0,1,60.6,102a3.43,3.43,0,0,1-.09-1.27,5.89,5.89,0,0,1,2.12-3.53,6.07,6.07,0,0,1,4.17-1.57,4.28,4.28,0,0,1,2,.84,13.41,13.41,0,0,1,2.37,2.3l4.14,4.92a6.34,6.34,0,0,0-2.09,3.81Z"/><path class="cls-2" d="M108.79,105.5a5.78,5.78,0,0,1,.34,2.21,5.52,5.52,0,0,1-2.59,3.47,5.69,5.69,0,0,1-4.29.89,4.77,4.77,0,0,1-2.15-1.16c-.25-.28-.55-.62-.88-1a12.76,12.76,0,0,1-1.06-1.48L85.43,88.3a13.22,13.22,0,0,1-.81-1.48c-.21-.45-.37-.84-.49-1.14a5.58,5.58,0,0,1-.21-2.56,5.85,5.85,0,0,1,2.66-3.46,5.55,5.55,0,0,1,4.3-.77,3.22,3.22,0,0,1,1.24.55,6,6,0,0,1,1.2,1.17,6.56,6.56,0,0,1,.83,1.12l1.22,1.93,11.93,18.83A13.39,13.39,0,0,1,108.79,105.5ZM90.72,84a6.51,6.51,0,0,0-.66-.77c-.53-.52-1-.64-1.46-.36a1.22,1.22,0,0,0-.52,1.5l.42.85c.16.31.39.71.7,1.19l12.37,19.55c.32.5.58.89.79,1.16s.4.5.56.68a1.22,1.22,0,0,0,1.55.13c.47-.3.57-.77.32-1.43a3.71,3.71,0,0,0-.36-.84c-.18-.36-.43-.78-.74-1.28L91.57,85.22C91.26,84.72,91,84.31,90.72,84Z"/><path class="cls-2" d="M122.74,99.41a7.09,7.09,0,0,0-.81-2.52L110.66,72a15.75,15.75,0,0,0-.77-1.51,4.68,4.68,0,0,0-.64-.88,2.23,2.23,0,0,0-.66-.63,6.27,6.27,0,0,0-1.07-.53l11.53-5.22,2.87,6.34a4.06,4.06,0,0,0-2.34-1.61,3.49,3.49,0,0,0-2.09.42l-3.15,1.43,4.52,10,2.17-1c.48-.22.86-.4,1.15-.55a3.32,3.32,0,0,0,.72-.47,3.37,3.37,0,0,0,.48-1.06,5.54,5.54,0,0,0,.21-1.47l3.61,8c-1.24-1-2.38-1.26-3.39-.8l-3.11,1.41,5.11,11.29A14.67,14.67,0,0,0,127,97.47a5.09,5.09,0,0,0,1.82,1.12l-6.37,2.88A3.11,3.11,0,0,0,122.74,99.41Z"/><path class="cls-2" d="M147.59,89.41a7.17,7.17,0,0,0-.42-2.61L139.7,60.48c-.19-.67-.37-1.2-.53-1.61a4.62,4.62,0,0,0-.51-1,2.14,2.14,0,0,0-.56-.72,6.56,6.56,0,0,0-1-.69l12.17-3.45,1.9,6.69a4,4,0,0,0-2.08-1.93,3.34,3.34,0,0,0-2.12.1l-3.34,1,3,10.56,2.29-.65c.5-.14.91-.26,1.22-.37a3.56,3.56,0,0,0,.78-.35,3.6,3.6,0,0,0,.63-1,6,6,0,0,0,.43-1.43l2.38,8.43c-1.08-1.17-2.16-1.6-3.23-1.29l-3.29.93,3.39,11.93a14,14,0,0,0,.86,2.49,5.17,5.17,0,0,0,1.63,1.38L147,91.42A3.16,3.16,0,0,0,147.59,89.41Z"/><path class="cls-2" d="M181.17,54.25a4.14,4.14,0,0,0-1.43-1.86,3,3,0,0,0-2.11-.4l-3.63.48,1.42,10.89,1.91-.25c.4-.06.76-.11,1.07-.17a1.24,1.24,0,0,0,.68-.32,2,2,0,0,0,.8-.83,10.59,10.59,0,0,0,.56-1.29l1.14,8.68a10.83,10.83,0,0,0-.76-1,2.12,2.12,0,0,0-.75-.58,3.48,3.48,0,0,0-1.71-.16l-2.35.31,1.64,12.55,4.62-.61a1.81,1.81,0,0,0,1.3-.67,3.83,3.83,0,0,0,.64-1.62l.81,6.12-12.17,1.6a4.3,4.3,0,0,0,.53-.9,5.36,5.36,0,0,0,.28-.89,8.7,8.7,0,0,0-.07-2.5L169.93,53a8.67,8.67,0,0,0-.56-2.33,6.1,6.1,0,0,0-.49-.71,6.81,6.81,0,0,0-.76-.81l12.17-1.59Z"/><path class="cls-2" d="M210.38,53.31a4.3,4.3,0,0,0-1.17-2.05,3,3,0,0,0-2-.68l-3.67,0-.06,11h1.92l1.08,0a1.23,1.23,0,0,0,.72-.23,2,2,0,0,0,.9-.71,10.86,10.86,0,0,0,.73-1.2l-.05,8.75a9.49,9.49,0,0,0-.61-1.07,2.07,2.07,0,0,0-.67-.68A3.52,3.52,0,0,0,205.8,66h-2.38l-.06,12.65,4.65,0a1.86,1.86,0,0,0,1.38-.49,4,4,0,0,0,.86-1.52l0,6.17-12.28-.07a3.92,3.92,0,0,0,.65-.81,5,5,0,0,0,.4-.85,8.82,8.82,0,0,0,.27-2.48l.15-28.09a8.74,8.74,0,0,0-.24-2.38,7,7,0,0,0-.39-.77,6.72,6.72,0,0,0-.64-.91l12.27.07Z"/><path class="cls-2" d="M258.45,75.71l-2.24,7.76c-.14.5-.26.93-.34,1.28a3.67,3.67,0,0,0-.13.9,1.09,1.09,0,0,0,.81,1.1,1.14,1.14,0,0,0,1.39-.68,7.25,7.25,0,0,0,.87-2.12l1.2-4.13a11.83,11.83,0,0,0,.63-5.11,8.18,8.18,0,0,0-1.59-3.36,19.89,19.89,0,0,1-1.17-1.82,10,10,0,0,1-.53-1.06,6.43,6.43,0,0,1-.31-2,7.71,7.71,0,0,1,.34-2.23l1.36-4.74q.27-.9.54-1.59c.19-.47.34-.85.47-1.15A5.88,5.88,0,0,1,261.62,55a5.65,5.65,0,0,1,4.21-.34,5.31,5.31,0,0,1,3.48,2.72q.9,1.68-.18,5.45L267,70l-2.82-4.79.84-2.94c.18-.6.3-1.1.38-1.49a6.1,6.1,0,0,0,.13-1c.07-.86-.19-1.37-.79-1.54a1.16,1.16,0,0,0-1.29.54,4.68,4.68,0,0,0-.39.9c-.12.35-.24.75-.37,1.2l-1,3.6a4.21,4.21,0,0,0,.08,2.92,11.76,11.76,0,0,1,.67,1c.19.34.37.68.55,1a7.65,7.65,0,0,1,.62,1.09c.23.46.5,1,.82,1.59a7.6,7.6,0,0,1,.64,1.58,5.57,5.57,0,0,1,.2,1.56c-.06.42-.15,1-.28,1.61s-.34,1.43-.6,2.35l-1.76,6.08q-1.1,3.8-2.78,4.81a5.12,5.12,0,0,1-4.27.37,5.51,5.51,0,0,1-3.46-2.6,3.53,3.53,0,0,1-.46-1.1,7,7,0,0,1-.19-1.31l.25-1.32c.09-.51.24-1.1.43-1.77l3.13-10.84Z"/><path class="cls-2" d="M273.71,95.75a6.39,6.39,0,0,1,.56-.46,3.14,3.14,0,0,0,.48-.39,4.92,4.92,0,0,0,.86-1.36l12.32-26.4c.23-.47.41-.89.57-1.26a2.77,2.77,0,0,0,.24-.93c0-.18,0-.42,0-.71a6.73,6.73,0,0,0-.1-1.07l5,2.35c-.34.39-.63.76-.9,1.13a8.48,8.48,0,0,0-.71,1.22l-5.37,11.51,2.94-.19,4.9-10.5a6.36,6.36,0,0,0,.65-2.46l5.11,2.38a7.46,7.46,0,0,0-1.6,1.21,9.89,9.89,0,0,0-1,1.87L285.6,97.51a9.68,9.68,0,0,0-.76,2,4.89,4.89,0,0,1,0,.66,3.53,3.53,0,0,0,.07.82l0,.52-5.12-2.39.38-.33a8.3,8.3,0,0,0,1.22-2l6.27-13.42-2.93.17L279,95.87a5.41,5.41,0,0,0-.62,2.17l0,.41-5.11-2.39Z"/><path class="cls-2" d="M306.26,111.34a5.89,5.89,0,0,1-1.91,1.17,5.55,5.55,0,0,1-4.21-1.05,5.73,5.73,0,0,1-2.48-3.61,4.78,4.78,0,0,1,.24-2.42c.15-.34.35-.75.6-1.22a14.51,14.51,0,0,1,.95-1.55L313,83.13a13.24,13.24,0,0,1,1-1.32c.34-.37.62-.67.86-.9a5.55,5.55,0,0,1,2.28-1.19,5.81,5.81,0,0,1,4.22,1.12,5.58,5.58,0,0,1,2.38,3.66,3.1,3.1,0,0,1,0,1.35,5.63,5.63,0,0,1-.61,1.57,6.68,6.68,0,0,1-.71,1.2l-1.3,1.87-12.73,18.3A14.22,14.22,0,0,1,306.26,111.34Zm12.82-25a4.87,4.87,0,0,0,.44-.91c.28-.69.2-1.19-.22-1.48a1.22,1.22,0,0,0-1.59.1c-.19.21-.4.45-.62.72a13.37,13.37,0,0,0-.83,1.1l-13.21,19c-.34.49-.59.88-.76,1.18s-.31.56-.42.78a1.2,1.2,0,0,0,.49,1.47c.45.32.93.23,1.44-.26a3.92,3.92,0,0,0,.64-.65c.25-.3.55-.7.88-1.18l12.94-18.6C318.6,87.11,318.87,86.69,319.08,86.33Z"/><path class="cls-2" d="M347.23,106a10.75,10.75,0,0,1-3,4.09L338.2,116a30.24,30.24,0,0,1-2.31,2.09,8.4,8.4,0,0,1-1.53,1,4.49,4.49,0,0,0-.63.1,3.68,3.68,0,0,1-.73.07,2.92,2.92,0,0,1-1.2-.23,5.09,5.09,0,0,1-1.31-.78c-.21-.2-.47-.45-.81-.75s-.75-.69-1.23-1.18l-7.06,6.93c-.4.39-.73.74-1,1a5.51,5.51,0,0,0-.58.78,2.78,2.78,0,0,0-.29.83,10.63,10.63,0,0,0-.13,1.11l-4.65-4.73a4.18,4.18,0,0,0,1.92-.43,8.23,8.23,0,0,0,1.88-1.49l20.12-19.75a8.23,8.23,0,0,0,1.52-1.85,3.34,3.34,0,0,0,.46-1.91l5.16,5.26Q347.8,104.22,347.23,106Zm-14.92,8.26c.58.59,1.29.48,2.12-.34l7.62-7.48c.8-.78.9-1.47.32-2.06l-.83-.85-10.06,9.88Z"/><path class="cls-1" d="M375.86,264.77a219.9,219.9,0,0,1-352.86,0l31.25-6.44,15-27.95a162.28,162.28,0,0,0,260.41,0l12.95,27.69Z"/><path class="cls-3" d="M296.55,173.43h93a.57.57,0,0,0,0-1.14h-93a.57.57,0,0,0,0,1.14Z"/><path class="cls-3" d="M296.55,220.64h93a.57.57,0,0,0,0-1.14h-93a.57.57,0,0,0,0,1.14Z"/><path class="cls-3" d="M9.94,173.43h93a.57.57,0,0,0,0-1.14h-93a.57.57,0,0,0,0,1.14Z"/><path class="cls-3" d="M9.94,220.64h93a.57.57,0,0,0,0-1.14h-93a.57.57,0,0,0,0,1.14Z"/><path class="cls-4" d="M283.79,198.09A82.13,82.13,0,1,1,201.67,116,82.13,82.13,0,0,1,283.79,198.09Z"/><path class="cls-5" d="M265.86,198.09a64.19,64.19,0,1,1-64.19-64.19A64.19,64.19,0,0,1,265.86,198.09Z"/><path class="cls-3" d="M201.67,133.9c-26.52,0-48,28.74-48,64.19s21.5,64.2,48,64.2,48-28.74,48-64.2S228.19,133.9,201.67,133.9Zm-37.54,70.51c.11,2.49.25,4.94.52,7.3s.6,4.64,1,6.79c.17,1.08.47,2.1.66,3.11s.46,2,.7,2.89c.46,1.86,1,3.52,1.48,5s1,2.76,1.38,3.82c.86,2.08,1.33,3.3,1.33,3.3s-.72-1.07-1.95-3c-.57-1-1.24-2.2-2-3.61s-1.49-3.06-2.14-4.92a54.91,54.91,0,0,1-2-6,65.1,65.1,0,0,1-1.51-6.94,73.13,73.13,0,0,1-.83-7.56c-.07-1.3-.13-2.6-.13-3.91s0-2.62,0-3.93c.09-2.63.32-5.25.6-7.81s.73-5.07,1.21-7.47,1.06-4.71,1.63-6.88,1.22-4.19,1.88-6a81,81,0,0,1,3.54-8.74c1-2.06,1.64-3.18,1.64-3.18s-1.58,4.95-3.29,12.46c-.44,1.87-.83,3.92-1.27,6.08s-.79,4.44-1.15,6.8-.6,4.82-.88,7.31-.42,5-.47,7.57c0,1.27-.09,2.54-.08,3.8S164.08,203.16,164.13,204.41Zm45.62,33.18a64.26,64.26,0,0,1-1.47,7.58,57.63,57.63,0,0,1-1.76,5.69c-.56,1.55-1.11,2.74-1.47,3.54s-.62,1.21-.62,1.21.1-.45.28-1.31.38-2.11.63-3.7.44-3.55.63-5.77.27-4.73.29-7.45c0-1.37,0-2.78-.12-4.25s-.09-3-.3-4.51-.28-3.13-.59-4.73-.44-3.25-.86-4.9a89.88,89.88,0,0,0-2.64-10c-.28-.82-.58-1.65-.86-2.48A26.76,26.76,0,0,0,200,204c-.7-1.69-1.41-3.39-2.12-5.08s-1.43-3.64-2.13-5.44-1-3.73-1.53-5.57-.63-3.76-.92-5.59-.23-3.71-.32-5.51.14-3.58.24-5.31.49-3.4.73-5,.71-3.17,1.09-4.67.95-2.89,1.39-4.25,1.05-2.61,1.57-3.81,1.15-2.28,1.67-3.32,1.1-2,1.63-2.82,1.07-1.62,1.52-2.32c1-1.38,1.79-2.4,2.36-3.09s.92-1,.92-1l-.62,1.2c-.4.78-.92,2-1.59,3.44-.3.76-.63,1.59-1,2.49s-.68,1.9-1.07,3-.67,2.2-1,3.39-.64,2.47-1,3.79-.51,2.72-.79,4.15-.41,2.92-.56,4.45-.22,3.11-.23,4.71,0,3.24.15,4.9l.27,2.49a21.67,21.67,0,0,0,.31,2.52l.51,2.52a24.91,24.91,0,0,0,.53,2.54c.51,1.67,1,3.35,1.52,5s1.33,3.29,2,5l2.14,5.25a22,22,0,0,1,1,2.7l.87,2.76.43,1.37.33,1.36c.21.91.42,1.82.62,2.72a53.77,53.77,0,0,1,.94,5.36,68.92,68.92,0,0,1,.65,10.25A65,65,0,0,1,209.75,237.59Zm34.07-33a73.13,73.13,0,0,1-.83,7.56,65.1,65.1,0,0,1-1.51,6.94,54.86,54.86,0,0,1-2,6c-.65,1.86-1.48,3.47-2.14,4.92s-1.4,2.63-2,3.61c-1.23,1.93-1.95,3-1.95,3s.47-1.22,1.33-3.3c.38-1.06.85-2.34,1.38-3.82s1-3.16,1.47-5c.24-.92.52-1.88.71-2.89s.49-2,.65-3.11c.41-2.15.72-4.43,1-6.79s.41-4.81.52-7.3c.05-1.25.09-2.51.07-3.77s0-2.53-.08-3.8c-.05-2.54-.24-5.07-.47-7.57s-.51-4.94-.89-7.31-.73-4.64-1.14-6.8-.83-4.21-1.27-6.08c-1.71-7.51-3.29-12.46-3.29-12.46s.66,1.12,1.64,3.18a83.16,83.16,0,0,1,3.54,8.74c.66,1.84,1.28,3.87,1.88,6s1.18,4.46,1.62,6.88.91,4.9,1.21,7.47.51,5.18.61,7.81c0,1.31.06,2.62,0,3.93S243.89,203.27,243.82,204.57Z"/><path class="cls-4" d="M76.39,269a7.88,7.88,0,0,1-2,3.13l-4.12,4.63a21.52,21.52,0,0,1-1.59,1.64,6.46,6.46,0,0,1-1.06.84,3.92,3.92,0,0,0-.46.1,2.45,2.45,0,0,1-.53.09,2.26,2.26,0,0,1-.89-.11,4.19,4.19,0,0,1-1-.5q-.24-.21-.63-.51c-.26-.2-.58-.47-.95-.8l-4.81,5.4c-.27.31-.5.58-.67.81a4.92,4.92,0,0,0-.39.6,2,2,0,0,0-.16.62,6.77,6.77,0,0,0,0,.81l-3.62-3.22a3,3,0,0,0,1.38-.41A5.63,5.63,0,0,0,56.18,281l13.71-15.41a6.28,6.28,0,0,0,1-1.42,2.55,2.55,0,0,0,.25-1.42l4,3.58C76.2,267.21,76.61,268.11,76.39,269Zm-10.47,6.76c.45.4,1,.29,1.53-.35l5.19-5.84c.54-.6.58-1.11.13-1.51l-.65-.58-6.85,7.7Z"/><path class="cls-4" d="M73.24,296.82a1.38,1.38,0,0,0-.25.48,3.18,3.18,0,0,0-.06,1.12l-3.72-2.7.83-.21a1,1,0,0,0,.56-.29c.14-.14.3-.32.49-.54s.41-.51.67-.86l12-16.53c.26-.35.46-.66.62-.92l.38-.65a6.07,6.07,0,0,0,0-1.48l4.3,3.12a4.39,4.39,0,0,1,.64.55l.43.44a1.85,1.85,0,0,1,.39,1.58,12.59,12.59,0,0,1-.48,1.3A9.32,9.32,0,0,1,89,283.05l-2.19,3a6,6,0,0,1-2.27,2.15,1.93,1.93,0,0,1-1.72.05,2.22,2.22,0,0,1,.72,2,19.55,19.55,0,0,1-1.87,2.9l-4.1,5.64c-.44.61-.82,1.17-1.13,1.66a6.44,6.44,0,0,0-.66,1.25c-.2.48-.37,1-.53,1.47a9.54,9.54,0,0,0-.33,1.61l-.38-.27a2.44,2.44,0,0,1-.9-1.46,2.71,2.71,0,0,1-.08-.89q0-.59,0-1.38a1.82,1.82,0,0,0,0-.51c0-.2,0-.43,0-.67a1.43,1.43,0,0,0-.09-.39c-.06-.17-.13-.37-.23-.59a2.25,2.25,0,0,0,1-.53c.07-.09.18-.22.33-.38s.32-.39.52-.66l5.07-7a1.47,1.47,0,0,0,.3-.72,1.09,1.09,0,0,0-.16-.64s0-.09-.21-.21l-.59-.42-5.86,8.08Zm9-11.06c.51.37,1,.22,1.49-.45L87,280.73c.48-.67.47-1.19,0-1.56l-.61-.45-4.79,6.6Z"/><path class="cls-4" d="M105.56,293.77a3,3,0,0,0,0-1.72,2.16,2.16,0,0,0-1-1.18l-2.32-1.37-4.08,6.92,1.22.72c.25.15.48.28.68.38a.91.91,0,0,0,.54.13,1.56,1.56,0,0,0,.84-.12,8.25,8.25,0,0,0,.9-.49l-3.26,5.51a5.58,5.58,0,0,0,0-.91,1.47,1.47,0,0,0-.17-.67,2.53,2.53,0,0,0-.91-.86l-1.5-.88-4.7,8,2.93,1.73a1.33,1.33,0,0,0,1,.2,2.86,2.86,0,0,0,1.11-.65l-2.3,3.89-7.73-4.56a2.7,2.7,0,0,0,.71-.28,3.33,3.33,0,0,0,.57-.38,6.74,6.74,0,0,0,1.08-1.47L99.65,288a6.05,6.05,0,0,0,.73-1.59c0-.19,0-.4,0-.63a5,5,0,0,0-.08-.81l7.73,4.56Z"/><path class="cls-4" d="M124.87,302.45c.08-.27.14-.5.18-.7a.83.83,0,0,0-1.46-.74,2.21,2.21,0,0,0-.41.6c-.14.27-.28.57-.42.89L116,317.44a3.65,3.65,0,0,0-.29.81,6.18,6.18,0,0,0-.11.61,3.78,3.78,0,0,0,.08.51c.05.18.12.41.21.68-.49.16-.88.3-1.16.42a7.27,7.27,0,0,0-.73.35,10.06,10.06,0,0,0-.81.64c-.3.26-.65.6-1,1a7.15,7.15,0,0,0,.07-2.45,8.29,8.29,0,0,0-.72-1.82,1.63,1.63,0,0,0,1-.56,1.53,1.53,0,0,0,.36-.5c.12-.24.25-.5.38-.79L120,301.41c.18-.4.32-.72.42-1a2.32,2.32,0,0,0,.18-.71.81.81,0,0,0-.43-1,.77.77,0,0,0-.56-.07,1.5,1.5,0,0,0-.5.3,7.59,7.59,0,0,0-.77,1.44l-7.84,17.38a5.46,5.46,0,0,0-.42,1.31,3.59,3.59,0,0,1,0,.4q0,.25,0,.78a4.1,4.1,0,0,0-2.59.58l-1.27.66c-.32.17-.57.28-.73.35a3.39,3.39,0,0,1-1.81.05,12.19,12.19,0,0,0,1.25-1.06,10.56,10.56,0,0,0,1-1.09c.21-.32.46-.73.75-1.22a19.55,19.55,0,0,0,.91-1.79l8.53-18.93c.23-.5.41-.93.53-1.27a2,2,0,0,0,.18-.74,5.32,5.32,0,0,0-.27-1.75l5.67,2.56.45,2.05,1.86-1,5.85,2.64a4.17,4.17,0,0,0-1.28.92,5.3,5.3,0,0,0-1,1.64l-8.33,18.47a4.64,4.64,0,0,0-.49,1.69,2.51,2.51,0,0,0,0,1.4l-4.21-1.9a4.06,4.06,0,0,0,1-.85,8.31,8.31,0,0,0,.75-1.38l7.59-16.85A8.27,8.27,0,0,0,124.87,302.45Z"/><path class="cls-4" d="M135,327.88a4.39,4.39,0,0,0-.13.71,3.18,3.18,0,0,0,.32,1.55l-4.59-1.54a8.2,8.2,0,0,0,.73-.54,2,2,0,0,0,.46-.51,3.56,3.56,0,0,0,.33-.64q.19-.45.42-1.14l6.36-18.89a9.67,9.67,0,0,0,.34-1.19c.07-.31.12-.55.14-.7a2.59,2.59,0,0,0-.32-1.55l4.6,1.55a3.14,3.14,0,0,0-1.19,1,2.92,2.92,0,0,0-.33.63c-.13.3-.27.69-.43,1.17l-6.36,18.89C135.2,327.17,135.09,327.56,135,327.88Z"/><path class="cls-4" d="M154.18,334.7a4,4,0,0,1-3.05.34,3.89,3.89,0,0,1-2.57-1.71,2,2,0,0,1-.41-.82,6.45,6.45,0,0,1-.15-1,7.13,7.13,0,0,1,.13-.94c.08-.37.18-.78.29-1.22L153,310.8a5.18,5.18,0,0,0,.2-1.78,2.08,2.08,0,0,0-.43-1.29l4.43,1.08a2.72,2.72,0,0,0-.91,1.15c0,.12-.1.33-.19.62s-.21.67-.33,1.16l-4.45,18.2a4.69,4.69,0,0,0-.2,1.59.82.82,0,0,0,.61.85.8.8,0,0,0,1-.51,4.85,4.85,0,0,0,.63-1.64l4.48-18.3q.13-.58.21-1a2.58,2.58,0,0,0,0-.63,2.17,2.17,0,0,0-.3-1.33l4.49,1.1a2,2,0,0,0-1.07,1,2.07,2.07,0,0,0-.31.71c-.09.32-.19.69-.29,1.12L156,331.25C155.6,333,155,334.18,154.18,334.7Z"/><path class="cls-4" d="M182.1,317.59a7.06,7.06,0,0,0,0-.72c-.08-.5-.31-.77-.69-.82a.83.83,0,0,0-.91.53,1.93,1.93,0,0,0-.22.69c-.06.3-.11.63-.15,1l-2.15,16.24a3.79,3.79,0,0,0,0,.86c0,.23,0,.44.06.62s.14.29.23.46.23.36.4.59a10.52,10.52,0,0,0-1,.74q-.36.3-.6.54a9.32,9.32,0,0,0-.59.85q-.32.51-.72,1.26a7.27,7.27,0,0,0-.63-2.37,8.69,8.69,0,0,0-1.22-1.54,1.52,1.52,0,0,0,.76-.81,1.54,1.54,0,0,0,.21-.58c.05-.26.09-.55.13-.87L177.1,318c.05-.42.09-.78.12-1.05a2.42,2.42,0,0,0,0-.73c-.06-.49-.29-.76-.69-.82a.76.76,0,0,0-.56.1,1.67,1.67,0,0,0-.39.43,7.84,7.84,0,0,0-.32,1.6l-2.51,18.9a5.41,5.41,0,0,0,0,1.38,3,3,0,0,1,.14.37c.05.17.13.42.25.74a4.18,4.18,0,0,0-2.32,1.3q-.62.61-1,1a7.27,7.27,0,0,1-.6.55,3.35,3.35,0,0,1-1.72.57,10.26,10.26,0,0,0,.89-1.37,9.62,9.62,0,0,0,.61-1.32c.11-.37.23-.84.37-1.39s.25-1.21.35-2l2.73-20.58q.1-.82.15-1.38a2.23,2.23,0,0,0,0-.76,5.47,5.47,0,0,0-.76-1.59l6.16.81,1,1.84,1.49-1.5,6.36.84a4.45,4.45,0,0,0-1,1.25,5.47,5.47,0,0,0-.49,1.86l-2.66,20.09a4.77,4.77,0,0,0,0,1.76,2.53,2.53,0,0,0,.46,1.33l-4.59-.61a4.22,4.22,0,0,0,.77-1.12,7.28,7.28,0,0,0,.31-1.54L182,318.66A8.05,8.05,0,0,0,182.1,317.59Z"/><path class="cls-4" d="M224.25,315.36a7.89,7.89,0,0,1,.83,3.6l.38,6.19c0,.91.07,1.67,0,2.28a6.11,6.11,0,0,1-.15,1.34,4,4,0,0,0-.26.4,2.32,2.32,0,0,1-.31.44,2.14,2.14,0,0,1-.7.55,3.77,3.77,0,0,1-1.06.35c-.21,0-.47,0-.8.09s-.74.08-1.24.11l.44,7.22c0,.41.06.76.1,1a4,4,0,0,0,.15.7,2,2,0,0,0,.32.56c.16.19.34.39.55.6l-4.84.3a3,3,0,0,0,.68-1.27,5.92,5.92,0,0,0,.08-1.75l-1.25-20.58a6.39,6.39,0,0,0-.29-1.72,2.48,2.48,0,0,0-.84-1.17l5.38-.33A2.79,2.79,0,0,1,224.25,315.36Zm-2.59,12.19c.6,0,.88-.48.82-1.33l-.47-7.79c0-.81-.38-1.2-1-1.17l-.87.06.63,10.29Z"/><path class="cls-4" d="M241.68,337.3a1.6,1.6,0,0,0,.16.52,3.19,3.19,0,0,0,.75.83l-4.54.71c.16-.27.3-.52.44-.73a1.1,1.1,0,0,0,.19-.6c0-.2,0-.45,0-.74s-.07-.65-.14-1.07L235.36,316q-.11-.64-.21-1.08c-.07-.3-.13-.54-.19-.73a6.41,6.41,0,0,0-1-1.08l5.25-.82a4.56,4.56,0,0,1,.84-.06h.61a1.9,1.9,0,0,1,1.39.85,13.58,13.58,0,0,1,.58,1.26,10.21,10.21,0,0,1,.52,2.06l.57,3.67a6.11,6.11,0,0,1-.09,3.12,2,2,0,0,1-1.19,1.26,2.2,2.2,0,0,1,1.92.9,18.86,18.86,0,0,1,.71,3.37l1.08,6.89c.12.75.24,1.41.37,2a6.6,6.6,0,0,0,.42,1.35q.3.72.66,1.41a9,9,0,0,0,.9,1.38l-.46.07a2.43,2.43,0,0,1-1.67-.39,2.65,2.65,0,0,1-.68-.58c-.27-.29-.59-.63-1-1a1.72,1.72,0,0,0-.32-.39l-.47-.48a1.09,1.09,0,0,0-.33-.22c-.16-.08-.36-.17-.59-.26a2.25,2.25,0,0,0,.34-1.08,4.36,4.36,0,0,1,0-.5,8.24,8.24,0,0,0-.09-.83l-1.34-8.54a1.48,1.48,0,0,0-.3-.72,1.06,1.06,0,0,0-.56-.34s-.1,0-.3,0l-.71.11,1.54,9.85C241.6,336.8,241.65,337.08,241.68,337.3Zm-1.45-14.16c.62-.1.87-.56.74-1.37l-.87-5.6c-.13-.82-.5-1.18-1.12-1.08l-.75.12,1.25,8Z"/><path class="cls-4" d="M266.25,331.2a4.29,4.29,0,0,1-.26,1.62,4,4,0,0,1-2.57,1.85,4.2,4.2,0,0,1-3.19-.32,3.54,3.54,0,0,1-1.24-1.28c-.11-.25-.25-.55-.39-.91a10,10,0,0,1-.41-1.27l-4.46-16.82a7.81,7.81,0,0,1-.24-1.21q-.08-.54-.09-.9a4,4,0,0,1,.41-1.84,4.28,4.28,0,0,1,2.62-1.82,4,4,0,0,1,3.17.41,2.24,2.24,0,0,1,.74.65,3.93,3.93,0,0,1,.58,1.08,5.16,5.16,0,0,1,.34,1c.12.44.26,1,.42,1.61l4.18,15.76A10.43,10.43,0,0,1,266.25,331.2Zm-7.88-19a4.75,4.75,0,0,0-.29-.68c-.26-.48-.57-.67-.94-.57a.88.88,0,0,0-.69.93c0,.21.06.44.1.69a9.83,9.83,0,0,0,.23,1l4.33,16.35q.17.63.3,1c.09.24.16.43.23.59a.89.89,0,0,0,1.05.44q.6-.17.54-.93a3.07,3.07,0,0,0-.06-.67c-.05-.28-.13-.64-.24-1l-4.24-16C258.58,312.86,258.47,312.51,258.37,312.22Z"/><path class="cls-4" d="M276.31,302.4a2,2,0,0,1,1.28.54,7.46,7.46,0,0,1,1.74,3l5.71,14.7c.35.87.61,1.61.79,2.22a13,13,0,0,1,.38,1.48,2.59,2.59,0,0,1-.46,2,3.83,3.83,0,0,1-1.22.89,3.17,3.17,0,0,1-.64.33l-.87.34-4,1.56a2.4,2.4,0,0,0,.27-1.5,2.28,2.28,0,0,0-.15-.74c-.11-.31-.25-.68-.41-1.1l-7.26-18.65c-.18-.47-.34-.85-.47-1.15a2.27,2.27,0,0,0-.4-.67,1.41,1.41,0,0,0-.46-.49,5.13,5.13,0,0,0-.75-.43l5.3-2.06A3.66,3.66,0,0,1,276.31,302.4Zm-1.25,3-1.12.43,7.66,19.7,1.13-.44c.49-.19.52-.85.08-2l-6.34-16.29C276,305.64,275.55,305.17,275.06,305.36Z"/><path class="cls-4" d="M305.34,316.66a4,4,0,0,1-2,2.3,3.93,3.93,0,0,1-3.06.46,2,2,0,0,1-.85-.33,6.49,6.49,0,0,1-.75-.61,6.3,6.3,0,0,1-.53-.79l-.62-1.1-9.1-16.83a5.27,5.27,0,0,0-1.05-1.46,2,2,0,0,0-1.18-.66l4-2.17a2.65,2.65,0,0,0,.1,1.46l.27.58c.12.28.3.64.54,1.09L300,315.07a4.78,4.78,0,0,0,.92,1.31.84.84,0,0,0,1,.23.81.81,0,0,0,.36-1,4.65,4.65,0,0,0-.64-1.63l-9-16.57c-.2-.36-.37-.66-.53-.91a2.73,2.73,0,0,0-.39-.49,2.13,2.13,0,0,0-1.12-.78l4.06-2.2a2,2,0,0,0-.09,1.48,2,2,0,0,0,.24.73c.15.3.33.64.54,1l9,16.61C305.26,314.46,305.58,315.73,305.34,316.66Z"/><path class="cls-4" d="M309.62,289.17c-.27-.37-.49-.67-.68-.89a5.48,5.48,0,0,0-.53-.54.89.89,0,0,0-1.25-.17.72.72,0,0,0-.21,1,4.59,4.59,0,0,0,.79,1.48l10,13.86a4.12,4.12,0,0,0,1.16,1.22.75.75,0,0,0,1,.14c.41-.29.47-.71.2-1.26a3.18,3.18,0,0,0-.31-.62c-.16-.27-.38-.59-.66-1l-3-4.14,1.62-2.82,4.07,5.63c1.15,1.6,1.66,2.85,1.51,3.77a4.13,4.13,0,0,1-1.82,2.66,4.66,4.66,0,0,1-1.43.71,3.51,3.51,0,0,1-1.55.1,3.24,3.24,0,0,1-1.64-.78c-.18-.18-.41-.4-.67-.68a11.73,11.73,0,0,1-.84-1l-10.19-14.1a9.18,9.18,0,0,1-.7-1.1c-.18-.32-.33-.62-.45-.87a4.6,4.6,0,0,1-.28-.94,2.58,2.58,0,0,1,0-.92,4.27,4.27,0,0,1,1.73-2.47,4.41,4.41,0,0,1,3.13-.91,3,3,0,0,1,1.44.72,9.77,9.77,0,0,1,1.6,1.81l2.75,3.81a4.57,4.57,0,0,0-1.72,2.66Z"/><path class="cls-4" d="M338.47,291a4.45,4.45,0,0,0,1.53.43l-3.51,3.38a3.34,3.34,0,0,0-.25-1.45,2,2,0,0,0-.4-.58c-.21-.23-.46-.51-.76-.82l-14.51-15-.82.79a2.83,2.83,0,0,0-.48.59,3.64,3.64,0,0,0-.28.61,3.41,3.41,0,0,0,.14,1.77l-3-3.12,7.39-7.14,3,3.12a2.69,2.69,0,0,0-3,.51l-.82.8L337,289.69A9.32,9.32,0,0,0,338.47,291Z"/><path class="cls-6" d="M29.7,188.17h5.16v1.06h-4v7.22h2.69v1.07H30.82v8.39h4.34V207H29.7Z"/><path class="cls-6" d="M43.57,202.43l1-.18c.41,2.62,1.1,3.84,2.52,3.84s2.13-.87,2.13-2.83-1.24-3.63-2.56-5.41-2.77-3.56-2.75-6.07,1.2-3.79,2.9-3.79c2.06,0,2.77,1.63,3.33,4.19l-1.07.23c-.46-2.41-1.06-3.35-2.31-3.35s-1.75.94-1.75,2.66c0,2.29,1.27,3.79,2.56,5.52s2.75,3.51,2.75,6-1.37,3.89-3.26,3.89C44.92,207.15,44.05,205.48,43.57,202.43Z"/><path class="cls-6" d="M61.08,189.23h-2.8v-1.06H65v1.06h-2.8V207H61.08Z"/><path class="cls-6" d="M317.2,205.93h2V189.54a3.19,3.19,0,0,1-1.95.84v-1a2.39,2.39,0,0,0,2-1.22h1v17.76h1.78v1H317.2Z"/><path class="cls-6" d="M331.3,203.92l1-.22c.33,1.34.79,2.39,1.83,2.39,1.85,0,2.39-2.65,2.49-7.88a3,3,0,0,1-2.52,1.62c-2.72,0-3.22-2.61-3.22-5.82,0-3.48.86-6,3.33-6s3.53,2.72,3.53,9.25c0,6.18-.82,9.91-3.61,9.91C332.09,207.15,331.56,205,331.3,203.92Zm5.34-7c0-4.73-.64-7.85-2.44-7.85-1.58,0-2.19,1.65-2.19,4.95,0,2.77.28,4.76,2.09,4.76A2.91,2.91,0,0,0,336.64,196.91Z"/><path class="cls-6" d="M347.21,203.92l1-.22c.33,1.34.79,2.39,1.83,2.39,1.86,0,2.39-2.65,2.49-7.88a3,3,0,0,1-2.51,1.62c-2.72,0-3.23-2.61-3.23-5.82,0-3.48.86-6,3.33-6s3.53,2.72,3.53,9.25c0,6.18-.81,9.91-3.61,9.91C348,207.15,347.46,205,347.21,203.92Zm5.33-7c0-4.73-.63-7.85-2.44-7.85-1.57,0-2.18,1.65-2.18,4.95,0,2.77.28,4.76,2.08,4.76A2.9,2.9,0,0,0,352.54,196.91Z"/><path class="cls-6" d="M363,205.93h2V189.54a3.24,3.24,0,0,1-2,.84v-1a2.41,2.41,0,0,0,2-1.22h1v17.76h1.78v1H363Z"/></svg>