<svg id="Слой_1" data-name="Слой 1" xmlns="http://www.w3.org/2000/svg" viewBox="0 0 400 400"><defs><style>.cls-1{fill:#232122;}.cls-2{fill:#221f20;}.cls-3{fill:#d3b891;}.cls-4{fill:#d3bb92;}.cls-5{fill:#c0a877;}</style></defs><path class="cls-1" d="M177.46,189.7l7.62-2.34c2.54-.67,4.81-1.93,7.25-2.8a53.93,53.93,0,0,0,13-8.17c6.38-5.49,14.61-19.54,12.93-21.74a25.67,25.67,0,0,0-2.16-2.27c-15.42-14-44.34-7.19-64.6,15.16-16.21,17.87-21.93,40.26-15.69,55.66a2.4,2.4,0,0,0,4.5-.22,44.26,44.26,0,0,1,8.74-15.76C156.36,198.45,166.82,192.9,177.46,189.7Z"/><path class="cls-1" d="M207.33,218.16c16.57-18.28,22.18-41.28,15.25-56.7a2.17,2.17,0,0,0-4.07.39,38,38,0,0,1-10,17.84c-3.89,4.22-8.82,7.17-13.75,9.86l-3.86,1.7a27,27,0,0,1-3.91,1.51l-7.83,2.55a59.68,59.68,0,0,0-7.36,2.53l-3.57,1.51c-1.19.5-2.25,1.24-3.41,1.82a51.14,51.14,0,0,0-12.35,9.13,50.7,50.7,0,0,0-11.65,18.55,3.3,3.3,0,0,0,.8,3.36q.55.57,1.14,1.11C158.14,247.29,187.06,240.51,207.33,218.16Z"/><path class="cls-1" d="M262.45,220.24a37.8,37.8,0,0,1-18.83,8c-5.65,1-11.36.32-16.91-.56l-4.09-1a27.13,27.13,0,0,1-4-1.19l-7.76-2.74-.61-.23c-10.33,11.06-23,18.8-35.84,21.81a50.79,50.79,0,0,1-7.6,1.17c10.86,11.06,31,16.45,52.51,12.55,24.27-4.4,42.73-19.22,46.63-35.68A2.17,2.17,0,0,0,262.45,220.24Z"/><path class="cls-1" d="M266.32,211.27c-2.66-14.64-17.28-25-36.24-27.81-1.66,11.52-7.05,23.64-15.73,34.4l6.05,2.25c2.42,1,5,1.4,7.46,2.2a53.72,53.72,0,0,0,15.29,1.44c8.4-.47,23.49-6.59,23.5-9.36A27.52,27.52,0,0,0,266.32,211.27Z"/><path class="cls-2" d="M65.26,279l.06.06h.06l.42-.06h.4l.19.13.08-.07V279a4.79,4.79,0,0,1,3.15,1.47l.34.34c0,.11.11.27.33.47l.67,2.15H71v.4l-.07.4.13.53c-.14,0-.2.05-.2.14a.18.18,0,0,1,.2.19c-.07,1.39-.22,2.08-.46,2.08l.06.28a10.55,10.55,0,0,1-1.13,1.61,4.56,4.56,0,0,1-3.3,1.47h-.8l-1.15-.06v.46c0,.09-.06.13-.19.13l.19.54-.13.41.13.12-.06.95.06.88-.13.25.13.15v.27l-.13.19.13.14v.8l-.06.07.06.06v.2h-.13c.21.8.61,1.21,1.2,1.21l.08.06.47-.06h.2l.13.13c-.89,1-1.54,1.55-2,1.55q-1.26,0-1.26-.48l-.08.07h-.13l-.53-.13a1.62,1.62,0,0,1-1.21.54,2.79,2.79,0,0,1-2-.94l-.4-.68.07-.06H59q1.47,0,1.47-.54a5,5,0,0,0,.21-1.4l-.15-.4v-.41l.15-.67-.15-.13v-.47l.08-.4-.08-.07v-.07l.21-.4c-.14,0-.21,0-.21-.13l.08-.33-.08-.48.15-.87c-.07,0-.16-.29-.28-.88-.34-.43-.56-.66-.67-.67l-.19-.26.86-1.07.13-.27v-.61l.08-.93-.08-.2.08-.47-.08-1.07.08-.27-.08-.54.08-.2c0-1.11-.24-1.74-.74-1.88l-.41.07-.13-.14-.6.14v-.14a4,4,0,0,1,3.08-1.6c.16,0,.36.18.61.53l.06.06h.07a3.07,3.07,0,0,1,1.48-.86l.2.06C64.25,279.15,64.58,279,65.26,279Zm-4.9,9.79-.21.27h.15c0-.09.06-.14.19-.14Zm.94-.47v.07h.2l.06-.07v-.07H61.5Zm.07,7.57h.06l.21-.19v-.08Zm.33-.27h.07l.2-.19H62v-.14Zm.8-.8v.06l.28-.12v-.13Zm.13,1V296h.27v-.07Zm.21-1.41v.07H63l.08-.07v-.06Zm.61-.54h.06l.34-.2v-.13A.66.66,0,0,0,63.45,293.88Zm2.08-12.6-.34-.07-.94.88.06.33V283l-.13.14.07.2-.07,1.21.13,1.34-.06.26.06.55v.19c0,.08-.22.21-.67.41v.07h.08l.53-.21v.06l-.07.28c0,.31.4.46,1.2.46l.21.08.06-.08c.86-.27,1.28-.6,1.28-1,.11,0,.2-.6.28-1.68l-.07-.4v-.61l.07-.61-.07-.27.07-.26c-.25-1.2-.69-1.81-1.35-1.81l-.14-.14Zm-1.35-1.82v.08h.47v-.08Zm2.15.4v.08c.13,0,.2,0,.2.13h.07v-.13l-.07-.08Zm.4.08c0,.09.07.13.2.13H67V280Zm.33,0,.08.19h.26l-.07-.19Zm.34,5.43-.07.06v.14h.07l.14-.14v-.06Zm.14-5.24.13.15h.06l-.13-.15Zm1.6,4.29.27-.06.34.06-.13-.19v-.06l.34-.41v-.07c-.26.32-.49.48-.68.48Zm1,0v.08l.48.13v-.13l-.42-.08Zm.21-1.07v.14l.27-.14v-.13Z"/><path class="cls-2" d="M84,279.12a4,4,0,0,1,2.82,1.25,4.49,4.49,0,0,1,1.31,2.88q0,.66-.12.66l.12.26a4.85,4.85,0,0,1-1,2.95c-.11,0-.42.33-.92,1v.12q1.55.66,1.77,1.32l.13.26L88,290H88c.13,0,.19.24.19.72V291l-.06.39.06.07-.06.45.06.73-.13.26.07.2L88,294a13.38,13.38,0,0,1,.32,2.48,1.11,1.11,0,0,0,.73.46h.06a.85.85,0,0,0,.53-.26h.06v.07c0,.22-.06.35-.19.38h-.19l-.4-.06h-.07v.06l.66.13a3.88,3.88,0,0,1-2.3,1.71L87,299h-.2a1.55,1.55,0,0,1-1.31-.93c-.19,0-.47-.33-.85-1l.07-.06V297l-.07-.4.19.08h.07v-.08c-.09,0-.13-.06-.13-.19l-.19-.19.06-.2-.06-.26.13-.85-.13-.13v-.4l.13-.13-.07-.46.07-.2-.07-.38V293l.07-.26-.07-.26v-.06l.07-.53-.07-.53.07-.06v-.07c-.11,0-.17-.28-.2-.85,0-.35-.59-.54-1.77-.59h-.85V292l-.08,1.25.08.32-.08.07.08.34v.51l-.14.13.14.47-.08.06.08.06-.08.07h-.06l.14.66-.08.06v.07l.08.26-.08.19c.32.66.67,1,1.06,1a1.1,1.1,0,0,0,.72-.4h.07v.07A1.6,1.6,0,0,1,83,298a1.5,1.5,0,0,1-1.32,1,2.8,2.8,0,0,1-1.64-.87,1.6,1.6,0,0,1-1.11.72h-.13c-.67,0-1.46-.57-2.36-1.7v-.07l1,.26.4-.06.2.06-.07-.06v-.07q.14,0,.39-.78c-.09,0-.13-.07-.13-.2l.06-.06-.06-.33v-.13l.06-.53-.06-.38.06-.21-.06-.39v-.32l.06-.08-.06-.06v-2l.13-.19L78.18,290l.06-.21-1-1.05-.06-.06v-.07c.69-.8,1-1.34,1-1.64l.07-.46-.07-.07v-.13l.07-.25-.13-.4v-.07l.13-.13-.13-.46.06-.33-.06-.59v-.58l.06-.34-.06-.45.13-1.57a1.25,1.25,0,0,0-.86-.47l-1,.53v-.06a3.51,3.51,0,0,1,1.77-1.45c.11-.18.39-.27.85-.27a2.23,2.23,0,0,1,1,.72,5.09,5.09,0,0,1,2.1-1h.07l.06.06Zm-4.79,9.77c0,.12-.26.23-.79.34v.06h.21a2.16,2.16,0,0,1,.85-.27v-.13l-.06.07h-.08l-.07-.07Zm-.58,0V289h.32v-.07Zm.19-2.36v.13l.26.14v-.06Zm1.58,2.1v.13l.32-.06v-.07Zm.32-8.6v.07H81V280Zm1.9,1.13c0,.12,0,.19-.13.19l-.06-.07-.33.07h-.19V282l-.08.26.08.06v.07l-.08.52.08.92-.08.39.08.53v.46l-.14.2.14.39-.08.46.08.26-.08.27c0,.39.13.58.4.58l.92.07c.88-.25,1.32-.68,1.32-1.31,0-.35.1-.53.32-.53v-.06c-.17,0-.26-.07-.26-.2V284l.13-.13c-.16-1.49-.38-2.24-.66-2.24,0-.15-.33-.28-1-.39v-.06l-.06.06h-.28v-.12ZM81.92,280v.07l.33.06h.06v-.06L82,280Zm0,8.14v.06h.2l.45-.12V288h-.19Zm.07,1.06v.13h.19v-.07Zm.45-9.07v.07l.34.06H83v-.13h-.06l-.28.07-.06-.07Zm.53,7.69.06.06V288l.26-.06v-.13Zm.19.26v.06h.34v-.06Zm.26-7.74v.06l.27.07v-.13Zm.27,7.22v.13l.33-.13v-.07h-.13Zm.58-7.09v.06l.47.07h.13v-.07l-.39-.06Zm.21,6.69v.13l.2-.07v-.06Zm.07,1.19v.06l.32.06H85v-.06l-.39-.06Zm.45-7.75v.06h.27v-.06Zm.2,7.87c0,.09.07.13.2.13h.06v-.06Zm.13-1.64v.07h.2l.06-.07v-.06h-.06Zm.07-6.1v.06l.45.07h.34v-.07l-.73-.06Zm.32,15.88v.07l.72.19h.2c0-.06-.29-.15-.85-.26Zm.27-7.88v.07l.26.06h.13v-.06l-.32-.07Zm.33-7.87V281l.38.06h.14V281l-.4-.06Zm0,5.44v.07h.12l.26-.2h-.06Zm.52,10.5-.07.07V297h.59v-.06Zm.2-7.67v.13h.26v-.06ZM88,297c0,.09.06.13.19.13h.06V297Z"/><path class="cls-2" d="M105.94,279.06H106c0,.09.07.13.2.13l.07,1.82a1,1,0,0,1-.4.79l.06-.08H106l.07.08h.07v-.21l.13.13-.07.53.07,1.63V285c0,.35-.09.53-.27.53l-.51-.06-.27.06-.51-.06-.53.06-.07-.59.07-.78-.07-.27.21-.37c-.14-.05-.21-.18-.21-.4l.07-.47c0-.4-.5-.8-1.5-1.23l-.39-.06c-.9,0-1.46.17-1.69.52h-.07a15.46,15.46,0,0,1-.27,2.93c.11,0,.17.15.21.46l-.13.71.13.13-.07.07.07.06v.07l-.07.38c0,.53.15.79.44.79l.53-.19.73.13c.38-.12.58-.46.58-1.05a.94.94,0,0,0-.45-.72v-.12h.06c.87.23,1.3.62,1.3,1.16l.08.26V287a1.8,1.8,0,0,1-.4,1.31c0,.21.09.31.26.31l.18.87c-.21.9-.66,1.36-1.36,1.36l-.33.06v-.06a1.72,1.72,0,0,0,.61-1c0-.1-.25-.18-.74-.26h-.19l-.46.07-.06-.07v-.05c-.56,0-.84.16-.84.38l.13.27-.07,1.36.07.06v.07l-.13.52v.21h.13v.38l-.13.4.06.06v.07l-.06.45.06.72h-.06l.19.58-.13.14.07.2-.07.06v.07l.13.31-.13.13a.94.94,0,0,1,.25.64l.93.27a4.12,4.12,0,0,0,2.53-1.17l.07-.71-.07-.07v-.06l.07-.78-.07-.08V294l.13-.39-.13-.51.13-.13-.13-.21v-.18l.07-.06v-.07l.71.13.2-.13.66.07h.39l.06.06h.07l-.13.39V293l.13.53v.18l-.13.53.13.38v.2a.42.42,0,0,1-.4.26v.14l.33-.2.07.46v.25c0,.47-.75,1.32-2.16,2.54a6.8,6.8,0,0,1-2.09.79L102,299l-.31.08h-.27a3.71,3.71,0,0,1-2.68-1c-.32.31-.56.46-.71.46h-.33a3.74,3.74,0,0,1-2.21-1l-.12-.13-.21-.27.06-.07a2.08,2.08,0,0,0,.86.4h.33a.9.9,0,0,0,.57-.86l-.06-.25.14-.13-.14-.33.06-.44-.06-.53.14-.13-.21-.21.07-.84-.07-.18.07-.59v-.27l.06-.07-.13-.24.07-1.05v-.27l-.07-.39.13-.26c-.09,0-.13-.06-.13-.19l.07-.46-.13-.14h.13v-.05c-.25,0-.46-.24-.65-.72l.14-.14-.08-.07h-.46v-.06l1-1.23v-.66l.07-.38-.07-.2.13-.77c-.09,0-.13-.07-.13-.21l.07-.9-.07-.07v-.06l.13-.52-.13-.27.07-.46a8.07,8.07,0,0,0-.13-1.76l-1-.32-.64.46H95v-.06c0-.56.65-1.13,2-1.7h.61a1.35,1.35,0,0,1,1,.59,5.22,5.22,0,0,1,2-.86l.92.07.71-.13c0,.11.28.18.84.2l1.82.78Q105.21,280.11,105.94,279.06Zm-8.79,9.2-.07.06v.07h.07l.19-.07v-.06Zm0,1v.08h.19v-.14Zm.19-8.78-.06.18v.07h.06l.14-.13v-.05l.07.05h.24v-.05l-.31-.07-.08.07Zm1.11,7.15a.45.45,0,0,1-.46.26v.13l.64-.32v-.07Zm-.46,1h.06l.27-.11v-.07h-.06Q98,288.55,98,288.63Zm1-1.29v.13l.21-.06v-.13Zm.27-.13.13.13h.25l-.12-.13Zm.38-.33v.06h.2v-.13Zm.13-7.24c0,.09.07.13.2.13h.07v-.06Zm.07,6.86v.07l.13.11.13-.11-.19-.07Zm.73,12.05v.05l.31-.19v-.06h-.07Zm.45-18.25.13.13h.06l-.13-.13Zm0,18h.06l.13-.13h-.06Zm.84-.53H102l.15-.13H102Zm.34-16.93v.07l.4.12h0V281l-.39-.13Zm.58,16.16V297h.06l.4-.13v-.13Zm.13-9.32v.07l.27-.32v-.07Zm.46,9.12h.07l.12-.14h-.06Zm.27-15.06.31.28v-.13l-.27-.15Zm.25,14.74H104l.2-.19h-.07Zm.53-13.16h.06l.13-.13h-.06Zm.13,12.76h.06l.12-.13h0Zm.51-.45v.13l.2-.07v-.06Zm.47-.31-.13.13v.06h.13l.13-.19Zm-.07-11.86c0,.09.2.19.58.31h.07v-.06Zm.26-1.51v.19h.12v-.19Z"/><path class="cls-2" d="M126.56,279h.27c.41,0,1.11.52,2.11,1.56l.06.21h-.2q-.48,0-.48-.15l-.4.15h-.21a1.09,1.09,0,0,1-.2.6v.07l.06.41-.06.34c.13,0,.2.27.2.82l-.14.13q.2,0,.48,1.71a.39.39,0,0,1,.21.33l-.07.07v.06l.21.56-.08.06q.13,0,.21.54l-.07.21.13.13-.06.21c.09,0,.23.38.41,1.15a11.34,11.34,0,0,1,1.36,1.29v.08l-.82,1v.19l.07.48h-.14v.08l.62,2.23-.15.14c.14,0,.35.75.62,2.24q.5,1.35,1,1.35h.2a1.11,1.11,0,0,0,.62-.27l.06.07c-.55,1-1.18,1.49-1.9,1.49,0,.06-.16.11-.47.15a4,4,0,0,1-1.23-.55,3.49,3.49,0,0,1-1,.68h-.27a3.34,3.34,0,0,1-1.56-.82l-.67-.95.06-.07h.07l.81.34h.14a.57.57,0,0,0,.54-.4l-.06-.07v-.08l.06-.33-.2-.88v-.48a17.89,17.89,0,0,1-.75-3.25h.08l.06.06h.06v-.06l-.2-.54v-.69c-.11,0-.22-.29-.34-.88l.15-.14c-.14,0-.21-.05-.21-.14v-.07l.06-.06a10.43,10.43,0,0,1-.6-2.52H125a5,5,0,0,0-.35,1.5c-.1,1.14-.26,1.71-.47,1.71h-.07v.06l.14.21c-.21,1.44-.39,2.17-.54,2.17v.2a3.74,3.74,0,0,1-.48,1.5l.13.13-.13.14v.2l.07.34c-.2,1.36-.38,2-.55,2l-.33.07h-2.66l-.2-.2v-1l-.07-.4.07-.27-.07.07h-.13l.06-.07-.06-.08v-.67l-.15-1.1-.06.08h-.06c-.18-1.44-.55-3.6-1.09-6.46h-.08c-.16,1.41-.38,2.11-.67,2.11l.07.33-.07.35h.13v.2c0,.09-.07.14-.21.14v.13h.15a18.48,18.48,0,0,1-1,4.42l.08.34c0,.23,0,.34-.14.34l.06.06v.08l-.34,1.76v.13l.07.08v.06l.08-.06h.06l.21.06c0-.08.13-.17.4-.27v.13c0,.49-.43,1-1.29,1.57h-.4a1,1,0,0,1-.83-.55,2.85,2.85,0,0,1-1,.55c-.61,0-1.18-.61-1.7-1.84h.06a2,2,0,0,0,.82.41h.2q.69-.25.69-1.29a8.35,8.35,0,0,0,.6-2.17v-.48l.34-.75-.13-.13v-.06l.21-.21-.08-.06.28-1.1-.07-.27.07-.27c-.55-.62-.82-1.05-.82-1.3,1-.8,1.5-1.45,1.5-2a1.77,1.77,0,0,1,.27-.82v-.07l-.07-.07v-.06a.87.87,0,0,1,.34-.48h-.21l.69-2.85-.07-.21.13-.61h.08l.06.07h.07v-.07l-.07-.07v-.07l.07-.4c0-.73-.25-1.1-.75-1.1l-.54.15v-.15c.82-1,1.52-1.48,2.1-1.48a2.07,2.07,0,0,1,1.09.46,1.41,1.41,0,0,1,1-.46q.8,0,2,1.56l-.07.07h-.2l-.21-.15a1.16,1.16,0,0,0-.67,1.1l.4,2.11-.07.06V284l.27.48v.68l.07.06v.07l-.13.14c.17,0,.28.29.34.88l-.07.06c.11,0,.22.59.34,1.77q.15,0,.33,1.71H122a1.2,1.2,0,0,1,.28-.89v-.34c0-.45.11-.75.33-.88l-.19-.08a9.5,9.5,0,0,1,.46-1.89l-.06-.42.27-.06v-.13H123v-.27l.07-.08-.07-.06v-.07c.26-1.5.48-2.25.67-2.25l-.13-.67.07-.07v-.07q-.22-.94-.42-1h-.06l-.54.15-.07-.07c.67-1.09,1.35-1.64,2-1.64a1.44,1.44,0,0,1,1.09.62h.06c0-.09.07-.14.21-.14A.67.67,0,0,1,126.56,279ZM114.4,297h.06l.14-.13h-.07Zm.88-.6h.06l.21-.21h-.07Zm.33-.28h.08l.13-.14h-.07ZM116,290h.07l.14-.13h-.06Zm.28-.2h.06l.14-.14h-.06Zm.14-9.39v.15h.19v-.07Zm.46,8.91v.13c.18-.06.27-.13.27-.2h-.06Zm.62-8.22-.35.33v.07l.48-.34v-.06Zm-.07-.27v.13h.2v-.07Zm.47-.15v.15l.27.06v-.13Zm.75.75v.15h.21v-.08Zm.48,7h.06l.35-.27h-.07Zm.14-6.72.2.2h.07l-.2-.2Zm1.09,7.07v.07l.2.06h.07v-.06l-.21-.07Zm.48-1.84h.06l.13-.13H121Zm0,2V289h.27v-.07Zm0,4.35v.13l.19-.06v-.13Zm.19-6.52h.08l.13-.14h-.07Zm.35,6.25v.13l.19-.06v-.13Zm.46-.27v.07l.21-.21H122Zm1-3.4v.07h.27v-.07Zm0,2.65H123l.13-.14H123Zm.35-.2h.07l.12-.13h-.06Zm.07-2.45v.13h.27v-.06Zm.27,2.24h.06l.14-.13h-.06Zm.2-6.79v.06l.13-.13v-.06Zm1.3-1.15v.13l.27-.21h-.07Zm.67-.35v.14l.41-.14v-.07H126Zm.47,6.46v.07h.28v-.07Zm.69-7.28v.07l.13-.13v-.07Z"/><path class="cls-2" d="M140.52,279a1.74,1.74,0,0,1,1,.62c.29-.37.56-.56.83-.56a2.72,2.72,0,0,1,2.87,1.72l-1-.27c-.63.05-.95.23-.95.54l.06,1.78v.42l-.06.54.06.54-.06.48.06.62V287l1.1,1.37v.15c-.32.45-.57.68-.76.68l.07.06v.07a1.43,1.43,0,0,0-.47,1l.06,1.3v1.16h-.14v.62l.08.42-.08.06V294l.14.82-.06,1.56.06.21-.06.27c.47.55.79.83.95.83a1.58,1.58,0,0,0,.89-.35h.07c0,.52-.51.93-1.51,1.24l-.07-.08h-.06a1.72,1.72,0,0,1-1,.49,1.43,1.43,0,0,1-1.16-.55c0,.2-.39.31-1.16.35a4.06,4.06,0,0,1-2.34-1l-.34-.41.07-.06.82.41c.74-.22,1.1-.56,1.1-1l-.07-.07v-.41l.14-.21-.14-.54.07-.07-.07-.81v-.14a18.46,18.46,0,0,1,.14-2.88l-.14-.4.07-.42-.07-.68v-.21l-1-1.3a4.3,4.3,0,0,0,1.1-1.78l.07-1.23-.14-.62v-.19l.2-1.86c-.15,0-.24-.43-.27-1.3l.07-.2c0-.41-.35-.68-1-.83h-.06a1,1,0,0,0-.76.35v-.14A3.84,3.84,0,0,1,140,279ZM140,281c0,.09.07.14.21.14h.06V281Zm0,9v.07h.14l.21-.28v-.06L140,290Zm.35-.41v.06h.13l.2-.27v-.07c-.07,0-.14.1-.2.28Zm.47.54v.08h.28v-.14Zm.13-1.37-.06.21H141v-.21Zm.35-.54-.14.27v.14h.07l.14-.35v-.06Zm-.07-7.39v.07l.49-.07v-.08h-.29Zm.34,14.65v.06l.28.07c0-.09-.07-.13-.21-.13Zm.15-.48v.13h.19v-.07Zm.13-7.61-.07.21h.13v-.21Zm0-6.7.14.14H142v-.14Zm.14,6.43-.08.21H142l.07-.21Zm.13,8.08v.07l.28.06h.07v-.06l-.28-.07Zm.07-8.42v.07l.13-.14v-.07Zm.07-6.22v.13l.27-.07v-.06Zm0,8.55v.06l.21-.2h-.07Zm0,6.7v.13l.27.08Zm.27-9.65-.06.21v.07h.06l.14-.28Zm.14-.41v.14l.21-.06v-.14Zm0,9.65v.14H143l.06.07h.08v-.13h-.35l-.06-.08Z"/><path class="cls-2" d="M152.81,279a2.59,2.59,0,0,1,1.24.72c.38-.44.71-.66,1-.66h.07a2.06,2.06,0,0,1,1.24.79l-.13.13h.13l.19-.07.72.84v.07l-.53-.13h-.38c-.2,0-.38.43-.53,1.3l.08.07-.15,1,.07.6-.13.92.13.12-.07.33.07.39v.06h-.2l.13.19-.06.4a2.66,2.66,0,0,0,1.24,2,2.24,2.24,0,0,1-.65.72l-.06-.06c0,.21-.09.32-.26.32l.06.07v.06l-.33.72.13.2v.13l-.07.25.07.26v.27l-.2.2c.06.39.12.58.2.58l-.07.4.07,1.3-.13.2.13.58v.13l-.07.06c.3,1.35.79,2,1.45,2h.52c.94,0,1.51-.59,1.7-1.76l-.08-.59v-.39l.15-.19-.15-.13v-.13l.15-.21-.07-.19.07-.07-.15-.12.15-1.24-.07-.79h.07l-.15-.84.08-.07v-.06a2.16,2.16,0,0,0-.4-.92v-.13l-.06.07h-.07a.23.23,0,0,0-.26-.26l-.32-.4a5.11,5.11,0,0,0,1-1.37l.08-.32-.08-.2.08-.06h.07l-.15-.32h.08l-.08-.08.08-.65-.08-.66.15-1-.15-.13.08-.08-.08-.32V283l.08-.06-.08-.07v-.72l.15-.13-.07-.32v-.46l-.46-.53h-.46a.77.77,0,0,0-.46.2H158v-.07a3.23,3.23,0,0,1,1.45-1.43l.19.07.2-.2h.13a1.47,1.47,0,0,1,.85.53,1.15,1.15,0,0,1,.84-.4h.14c1.09.4,1.63.84,1.63,1.3l.13.13v.07h-.07l-.91-.2c-.31.11-.45.39-.45.86l.06.25-.13.41.13.38v2.16l-.06.39.06.39-.06.4.06.45-.06.19q0,.33,1.11,1.5v.19a6.32,6.32,0,0,0-1.18,1.45l.07.07h.06l-.13.77.13.32-.06.34.06.71V292l-.13.4.13.32-.06.79.06.19-.13.13.13.13V294c0,.32-.06.5-.19.52l-.2-.06c0,.09.09.14.26.14l.07.06v.07a5.22,5.22,0,0,1-.86,2.27,3.92,3.92,0,0,1-3.52,1.9h-.52l-.4-.08-.26.08a6.61,6.61,0,0,1-2.67-.92,4.21,4.21,0,0,1-1.37-2.15l.06-.07v-.06l-.33-1.63.06-.45-.06-.6.14-.45c-.1,0-.16-.48-.21-1.43l.13-.53-.13-.39v-.19l.07-.26c0-.32-.35-.87-1-1.64l1-1.18a1.25,1.25,0,0,1,.27-.64c-.1,0-.19-.09-.27-.26V286h.07l-.07-.46c0-.83.2-1.24.6-1.24v-.07h-.13l-.26.13-.14-.39v-.19l.06-.26-.13-.34V283h.07c-.07-1.53-.27-2.29-.58-2.29h-.79l-.2.13h-.06v-.2A3.78,3.78,0,0,1,152.81,279Zm-.72,2v.13l.46.13h.13v-.07Zm.53,8V289l.26.13h.06c0-.06-.09-.12-.26-.19Zm.58,2.86v.07l.53.19c0-.07-.16-.15-.47-.26Zm.33-7.89V284h.07l.32-.07v-.06h-.19Zm.13-2.41v.06H154v-.06Zm.13,15.59v.13l.2-.07v-.06Zm.26-13.37v.13l.2-.07v-.06Zm.07-2.09v.06l.38.13h.07v-.07l-.39-.12Zm0,15.33V297h.32V297Zm.45-6.72-.07.07v.06h.27v-.06Zm.14,2.29v.06l.06.07h.2v-.07Zm.39.19v.07l.38.12c0-.07-.1-.14-.32-.19Zm4.38,1.37.12.13h.07l-.13-.13Zm.19-11.55v.07H160v-.07h-.13v-.06Zm.13,11.81.13.13H160l-.13-.13ZM160,294v.13l.26.06V294Zm.13-2V292l.13-.13v-.07Zm.2,2.69v.06l.39.26v-.13Zm.06-6.14.21-.06v-.14Zm.06-6.2a1.26,1.26,0,0,0,.6-.46H161C160.64,282,160.46,282.14,160.44,282.3Zm.15,11.87v.07l.25.06c0-.08-.06-.13-.19-.13Zm.32.92c0,.09.09.13.26.13v.13h.19v-.06Zm.06-.85v.13h.33v-.07Zm.39,1.17v.07l.26.06c0-.08-.07-.13-.19-.13Zm.07-1v.07l.19.06h.06v-.06l-.19-.07Z"/><path class="cls-2" d="M183.88,279h.27c.41,0,1.11.52,2.11,1.56l.06.21h-.2q-.48,0-.48-.15l-.4.15H185a1,1,0,0,1-.21.6v.07l.07.41-.07.34c.14,0,.21.27.21.82l-.14.13q.2,0,.48,1.71a.4.4,0,0,1,.2.33l-.06.07v.06l.2.56-.07.06c.09,0,.16.18.2.54l-.06.21.13.13-.07.21c.1,0,.24.38.42,1.15a12,12,0,0,1,1.35,1.29v.08l-.81,1v.19l.06.48h-.14v.08l.62,2.23-.14.14c.14,0,.34.75.62,2.24q.5,1.35,1,1.35H189a1.09,1.09,0,0,0,.62-.27l.07.07c-.55,1-1.18,1.49-1.9,1.49q0,.09-.48.15a4.15,4.15,0,0,1-1.22-.55,3.49,3.49,0,0,1-1,.68h-.27a3.29,3.29,0,0,1-1.56-.82l-.68-.95.07-.07h.06l.82.34h.14a.57.57,0,0,0,.54-.4l-.06-.07v-.08l.06-.33-.21-.88v-.48a19.54,19.54,0,0,1-.74-3.25h.07l.07.06h.06v-.06l-.2-.54v-.69c-.11,0-.22-.29-.34-.88l.14-.14c-.13,0-.2-.05-.2-.14v-.07l.06-.06a10.77,10.77,0,0,1-.61-2.52h-.06a5,5,0,0,0-.35,1.5q-.15,1.71-.48,1.71h-.06v.06l.14.21c-.22,1.44-.4,2.17-.54,2.17v.2a3.74,3.74,0,0,1-.48,1.5l.13.13-.13.14v.2l.06.34c-.19,1.36-.38,2-.54,2l-.33.07h-2.67l-.19-.2v-1l-.08-.4.08-.27-.08.07h-.12l.06-.07-.06-.08v-.67l-.15-1.1-.06.08h-.07c-.18-1.44-.54-3.6-1.08-6.46h-.08c-.16,1.41-.39,2.11-.67,2.11l.06.33-.06.35h.13v.2c0,.09-.07.14-.21.14v.13h.14a18.19,18.19,0,0,1-.95,4.42l.08.34c0,.23,0,.34-.15.34l.07.06v.08l-.34,1.76v.13l.07.08v.06l.07-.06h.07l.21.06c0-.08.13-.17.4-.27v.13c0,.49-.43,1-1.3,1.57h-.4a1,1,0,0,1-.82-.55,2.94,2.94,0,0,1-1,.55c-.61,0-1.18-.61-1.71-1.84H169a2.06,2.06,0,0,0,.81.41H170c.46-.17.68-.6.68-1.29a8.25,8.25,0,0,0,.61-2.17v-.48l.34-.75-.13-.13v-.06l.2-.21-.07-.06.28-1.1-.08-.27.08-.27c-.55-.62-.82-1.05-.82-1.3,1-.8,1.49-1.45,1.49-2a1.77,1.77,0,0,1,.27-.82v-.07l-.06-.07v-.06a.9.9,0,0,1,.33-.48h-.2l.68-2.85-.06-.21.13-.61h.08l.06.07h.07v-.07l-.07-.07v-.07l.07-.4c0-.73-.26-1.1-.76-1.1l-.54.15v-.15c.83-1,1.53-1.48,2.11-1.48a2,2,0,0,1,1.08.46,1.45,1.45,0,0,1,1-.46q.81,0,2,1.56l-.06.07h-.21l-.2-.15a1.17,1.17,0,0,0-.68,1.1l.4,2.11-.06.06V284l.27.48v.68l.07.06v.07l-.13.14c.17,0,.28.29.33.88l-.06.06q.17,0,.33,1.77c.11,0,.22.57.34,1.71h.14a1.25,1.25,0,0,1,.27-.89v-.34c0-.45.11-.75.34-.88l-.19-.08a9.5,9.5,0,0,1,.46-1.89l-.06-.42.27-.06v-.13h-.13v-.27l.06-.08-.06-.06v-.07c.26-1.5.48-2.25.67-2.25l-.13-.67.06-.07v-.07c-.14-.63-.28-.95-.41-1h-.06l-.55.15-.06-.07c.67-1.09,1.35-1.64,2-1.64a1.44,1.44,0,0,1,1.09.62H183c0-.09.07-.14.21-.14A.67.67,0,0,1,183.88,279Zm-12.17,18h.07l.14-.13h-.08Zm.88-.6h.07l.2-.21h-.06Zm.34-.28H173l.12-.14h-.06Zm.41-6.18h.07l.14-.13h-.07Zm.27-.2h.07l.14-.14h-.06Zm.15-9.39v.15H174v-.07Zm.46,8.91v.13c.18-.06.27-.13.27-.2h-.06Zm.62-8.22-.35.33v.07l.48-.34v-.06Zm-.08-.27v.13H175v-.07Zm.48-.15v.15l.27.06v-.13Zm.75.75v.15h.21v-.08Zm.48,7h.06l.35-.27h-.08Zm.14-6.72.19.2h.08l-.2-.2Zm1.08,7.07v.07l.21.06H178v-.06l-.21-.07Zm.48-1.84h.07l.13-.13h-.07Zm0,2V289h.27v-.07Zm0,4.35v.13l.2-.06v-.13Zm.2-6.52h.07l.13-.14h-.06Zm.34,6.25v.13l.2-.06v-.13Zm.47-.27v.07l.21-.21h-.07Zm1-3.4v.07h.27v-.07Zm0,2.65h.08l.13-.14h-.07Zm.35-.2h.06l.13-.13h-.06Zm.06-2.45v.13h.27v-.06Zm.27,2.24H181l.14-.13H181Zm.21-6.79v.06l.13-.13v-.06Zm1.29-1.15v.13l.27-.21h-.06Zm.68-.35v.14l.41-.14v-.07h-.14Zm.47,6.46v.07h.27v-.07Zm.69-7.28v.07l.13-.13v-.07Z"/><path class="cls-2" d="M214.18,279l.07.06h.06l.42-.06h.4l.19.13.08-.07V279a4.79,4.79,0,0,1,3.15,1.47l.33.34c0,.11.12.27.34.47l.67,2.15H220v.4l-.07.4.13.53c-.14,0-.21.05-.21.14s.21.07.21.19c-.07,1.39-.22,2.08-.46,2.08l.06.28a9.92,9.92,0,0,1-1.14,1.61,4.52,4.52,0,0,1-3.29,1.47h-.8l-1.15-.06v.46c0,.09-.06.13-.19.13l.19.54-.13.41.13.12-.06.95.06.88-.13.25.13.15v.27l-.13.19.13.14v.8l-.06.07.06.06v.2h-.13c.21.8.61,1.21,1.2,1.21l.08.06.47-.06h.2l.13.13c-.89,1-1.54,1.55-1.95,1.55-.84,0-1.27-.16-1.27-.48l-.07.07h-.13l-.53-.13A1.64,1.64,0,0,1,210,299a2.79,2.79,0,0,1-2-.94l-.4-.68.06-.06h.27c1,0,1.48-.18,1.48-.54a5,5,0,0,0,.2-1.4l-.14-.4v-.41l.14-.67-.14-.13v-.47l.08-.4-.08-.07v-.07l.21-.4c-.14,0-.21,0-.21-.13l.08-.33-.08-.48.14-.87c-.06,0-.16-.29-.27-.88-.34-.43-.57-.66-.67-.67l-.19-.26.86-1.07.13-.27v-.61l.08-.93-.08-.2.08-.47-.08-1.07.08-.27-.08-.54.08-.2c0-1.11-.25-1.74-.74-1.88l-.41.07-.13-.14-.61.14v-.14a4.05,4.05,0,0,1,3.09-1.6c.16,0,.36.18.61.53l.06.06h.07a3,3,0,0,1,1.48-.86l.2.06C213.18,279.15,213.51,279,214.18,279Zm-4.89,9.79-.21.27h.14c0-.09.07-.14.2-.14Zm.94-.47v.07h.19l.07-.07v-.07h-.07Zm.07,7.57h.06l.21-.19v-.08Zm.33-.27h.07l.2-.19H211v-.14Zm.8-.8v.06l.27-.12v-.13Zm.13,1V296h.27v-.07Zm.21-1.41v.07h.13l.07-.07v-.06Zm.6-.54h.07l.34-.2v-.13A.71.71,0,0,0,212.37,293.88Zm2.08-12.6-.33-.07-.94.88.06.33V283l-.13.14.07.2-.07,1.21.13,1.34-.06.26.06.55v.19c0,.08-.22.21-.67.41v.07h.08l.53-.21v.06l-.07.28c0,.31.4.46,1.2.46l.21.08.06-.08c.86-.27,1.28-.6,1.28-1q.16-.06.27-1.68l-.06-.4v-.61l.06-.61-.06-.27.06-.26c-.24-1.2-.69-1.81-1.34-1.81l-.14-.14Zm-1.34-1.82v.08h.47v-.08Zm2.14.4v.08c.14,0,.21,0,.21.13h.07v-.13l-.07-.08Zm.41.08c0,.09.06.13.2.13h.07V280Zm.33,0,.08.19h.26l-.07-.19Zm.34,5.43-.07.06v.14h.07l.14-.14v-.06Zm.14-5.24.13.15h.06l-.13-.15Zm1.6,4.29.27-.06.34.06-.13-.19v-.06l.33-.41v-.07c-.25.32-.48.48-.67.48Zm1,0v.08l.48.13v-.13l-.42-.08Zm.21-1.07v.14l.27-.14v-.13Z"/><path class="cls-2" d="M232.88,279.12a4,4,0,0,1,2.81,1.25,4.51,4.51,0,0,1,1.32,2.88c0,.44-.07.66-.13.66l.13.26a4.91,4.91,0,0,1-1,2.95c-.12,0-.42.33-.92,1v.12q1.55.66,1.77,1.32l.13.26-.07.21H237c.13,0,.19.24.19.72V291l-.06.39.06.07-.06.45.06.73-.13.26.07.2L237,294a13.38,13.38,0,0,1,.32,2.48,1.11,1.11,0,0,0,.72.46h.07a.85.85,0,0,0,.53-.26h.06v.07c0,.22-.06.35-.19.38h-.19l-.4-.06h-.07v.06l.66.13a3.91,3.91,0,0,1-2.3,1.71l-.26.08h-.21a1.55,1.55,0,0,1-1.3-.93c-.19,0-.47-.33-.85-1l.06-.06V297l-.06-.4.19.08h.07v-.08c-.09,0-.13-.06-.13-.19l-.2-.19.07-.2-.07-.26.13-.85-.13-.13v-.4l.13-.13-.06-.46.06-.2-.06-.38V293l.06-.26-.06-.26v-.06l.06-.53-.06-.53.06-.06v-.07c-.1,0-.17-.28-.19-.85,0-.35-.59-.54-1.77-.59h-.85V292l-.08,1.25.08.32-.08.07.08.34v.51l-.15.13.15.47-.08.06.08.06-.08.07h-.07l.15.66-.08.06v.07l.08.26-.08.19c.32.66.67,1,1.06,1a1.1,1.1,0,0,0,.72-.4h.07v.07a1.65,1.65,0,0,1-.66.85,1.5,1.5,0,0,1-1.32,1,2.77,2.77,0,0,1-1.64-.87,1.6,1.6,0,0,1-1.11.72h-.13c-.67,0-1.46-.57-2.36-1.7v-.07l1,.26.4-.06.19.06-.06-.06v-.07q.14,0,.39-.78c-.09,0-.13-.07-.13-.2l.06-.06-.06-.33v-.13l.06-.53-.06-.38.06-.21-.06-.39v-.32l.06-.08-.06-.06v-2l.13-.19-.13-1.51.06-.21-1-1.05-.06-.06v-.07c.69-.8,1-1.34,1-1.64l.07-.46-.07-.07v-.13l.07-.25-.13-.4v-.07l.13-.13-.13-.46.06-.33-.06-.59v-.58l.06-.34-.06-.45.13-1.57a1.25,1.25,0,0,0-.86-.47l-1,.53v-.06a3.51,3.51,0,0,1,1.77-1.45c.11-.18.39-.27.85-.27a2.17,2.17,0,0,1,1,.72,5.11,5.11,0,0,1,2.11-1h.06l.07.06Zm-4.79,9.77c0,.12-.26.23-.79.34v.06h.21a2.16,2.16,0,0,1,.85-.27v-.13l-.07.07h-.07l-.07-.07Zm-.58,0V289h.32v-.07Zm.19-2.36v.13l.26.14v-.06Zm1.58,2.1v.13l.32-.06v-.07Zm.32-8.6v.07h.33V280Zm1.9,1.13c0,.12-.05.19-.13.19l-.07-.07-.32.07h-.19V282l-.08.26.08.06v.07l-.08.52.08.92-.08.39.08.53v.46l-.15.2.15.39-.08.46.08.26-.08.27c0,.39.13.58.4.58l.92.07c.87-.25,1.32-.68,1.32-1.31,0-.35.1-.53.32-.53v-.06c-.17,0-.26-.07-.26-.2V284l.13-.13c-.17-1.49-.39-2.24-.66-2.24,0-.15-.33-.28-1-.39v-.06l-.07.06h-.27v-.12Zm-.65-1.13v.07l.32.06h.07v-.06l-.32-.07Zm0,8.14v.06h.2l.45-.12V288h-.2Zm.07,1.06v.13h.19v-.07Zm.45-9.07v.07l.34.06h.19v-.13h-.07l-.27.07-.06-.07Zm.53,7.69.06.06V288l.26-.06v-.13Zm.19.26v.06h.34v-.06Zm.26-7.74v.06l.27.07v-.13Zm.27,7.22v.13l.32-.13v-.07h-.12Zm.58-7.09v.06l.47.07h.13v-.07l-.39-.06Zm.21,6.69v.13l.19-.07v-.06Zm.06,1.19v.06l.33.06h.13v-.06l-.39-.06Zm.46-7.75v.06h.27v-.06Zm.2,7.87c0,.09.07.13.2.13h.06v-.06Zm.13-1.64v.07h.2l.06-.07v-.06h-.06Zm.07-6.1v.06l.45.07h.33v-.07l-.72-.06Zm.32,15.88v.07l.72.19h.2c0-.06-.29-.15-.86-.26Zm.27-7.88v.07l.26.06h.13v-.06l-.32-.07Zm.32-7.87V281l.39.06h.14V281l-.4-.06Zm0,5.44v.07h.13l.26-.2h-.06Zm.53,10.5-.08.07V297h.6v-.06Zm.2-7.67v.13h.25v-.06Zm.91,7.8c0,.09.07.13.2.13h.06V297Z"/><path class="cls-2" d="M250.11,279h.19a3.83,3.83,0,0,1,2.23.89l.89,1.08.2-.06V281a8.13,8.13,0,0,1,1.08,2.3,2.69,2.69,0,0,1,.44,1.28l0,.19c.12,0,.22.37.31,1.09h-.19a1.4,1.4,0,0,1,.26.63l-.07.39c.08,0,.19.19.32.57l-.06-.07h-.07v.07c.31,0,.46.17.46.39a1.73,1.73,0,0,1,.63.58l-1,1.08-.19.31.06.2-.06.19.06.32-.56,3.06.06.26a4.05,4.05,0,0,1-.77,1.59c0,.78-.62,1.63-1.85,2.54a3.84,3.84,0,0,1-1.6,1l-.51-.13-.32.07a4.26,4.26,0,0,1-3.13-1.86l-.89-1.46a1.8,1.8,0,0,0-.38-1.08l.06-.2-.18-.19.12-.18v-.07q-.45,0-.57-2.43c-.07,0-.11-.15-.13-.45v-.37l.06-.26-.06-.26V290l.06-.33-1.08-1.15v-.11q1-1.12,1-1.35a14,14,0,0,1,.63-3.44,4.28,4.28,0,0,0,.58-1.48c.58-1,1.11-1.58,1.59-1.71l-.06-.07v-.06a1.78,1.78,0,0,1,1.47-1C249.25,279.14,249.57,279,250.11,279Zm-4,9.57h.06l.39-.13v-.05h-.06Q246.09,288.47,246.09,288.61Zm.13,5.42.13.13h.06V294Zm.76-5.8v.07H247l.33-.07v-.12Zm.7,6.13c0,.08.06.13.19.13H248v-.07Zm.19-6.32h.07l.12-.13H248Zm.32,6.51c0,.09.07.13.2.13h.06v-.07Zm.07-6.77v.13l.26-.06v-.07Zm.57-5.68.06.32v.07l-.13.12.07.51-.07,2.88,0,.44,0,.06v.07l0,.06v.07l0,.06v.07l0,.06V287a4.15,4.15,0,0,0,1.07,1.4v.07c-.68.75-1,1.24-1,1.46l0,1.21,0,.26-.11.13.11.13v.24l0,.07,0,.06v.07l0,.32,0,.19,0,.26,0,1.59v.07q0,.12-.24.12v.13c.2,0,.31.19.31.57.21.9.64,1.34,1.28,1.34h.32q1,0,1.47-1.71c0-.22-.09-.33-.19-.33l.13-.38-.13-.44.06-.26-.06-1.41.06-.06h.07l-.13-.31.06-.58-.06-.52.06-.7c0-.19-.36-.7-1.08-1.52q1.08-1.21,1.08-1.47l-.06-.07v-.06l.19-.26a.7.7,0,0,1-.19-.44l.06-1-.06-.76.06-.2-.06-.37v-.58l.06-.26a6.07,6.07,0,0,0-.58-1.59h-.07l-.06.07a2,2,0,0,0-.83-.13h-.06a1.37,1.37,0,0,0-1.28.76Zm.9-1.28v.07l.31.06h.07v-.06l-.33-.07Zm.57.13v.13l.32.06h.13v-.06Zm.51,16.53v.07h.12l.26-.07v-.06h-.13Zm1.14-1.72.26.18h.13v-.06l-.32-.12Zm.45.18v.13h.07l.13-.13Zm.2-9.44h.06l.13-.13h-.06Zm.44-.31v.05l.06.07v.06l-.06.07v.13h.06a.18.18,0,0,1,.2-.2l.19.07-.32-.25Zm.38-.06v.06h.2c0-.08.06-.13.19-.13V286h-.06Zm0,10.2v.07h.26v-.07Zm.33-10.52v.12h.06l.25-.19H254Zm.69,0v.06h.26v-.06Zm.33-.07v.07h.13l.24-.07v-.06H255Zm.19,1.34v.07l.25.06h.06v-.06l-.24-.07Z"/><path class="cls-2" d="M269.38,279.06c1,.15,1.5.32,1.5.52l.19-.07a2.89,2.89,0,0,1,1.5,1.5l.4.58a.18.18,0,0,1,.2.21,6.57,6.57,0,0,1,1.09,3.58,9.58,9.58,0,0,1,.4,2.16l.84.91a5.63,5.63,0,0,0-1,1.62h-.06l-.07-.07v.86l.07.25q-.61,3.84-1,3.84l.07.06v.2a7.1,7.1,0,0,1-1.69,2.74,5.39,5.39,0,0,1-2.73,1l-.21-.07-.77.07a8.29,8.29,0,0,1-2.34-.91h-.06q0,.17-1,.33a3,3,0,0,1-2.73-1.77H262a2.6,2.6,0,0,0,1.5.72h.06c.43,0,.65-.5.65-1.51l.06-.44-.06-.58.06-.06v-.07l-.18-.78.18-1.18-.06-.4v-.44l.06-.27-.11-.77.05-.28-.05-.06v-.07l.05-.06v-.05l-.05-.34.11-.32a9,9,0,0,1-1-1.23v-.07c.69-.68,1-1.18,1-1.5h-.11v-.08l.11-.18-.11-.39.51-.45v-.07h-.06l-.27.19h-.13l-.05-.33v-.06l.05-.26-.05-.21h.05l-.05-.18.05-.9-.05-.4.11-.85-.11-.47.11-.37-.06-.34.06-.06v-.07c-.1-.51-.29-.77-.58-.77h-.51c-.19,0-.46.17-.79.53h-.05v-.07c.65-1,1.24-1.58,1.75-1.58a2.39,2.39,0,0,1,1.63.54,1.53,1.53,0,0,1,.84-.47l.21.06v-.06c0-.11.23-.19.71-.25a.8.8,0,0,1,.51-.2h.07l.13.13.4-.13.06.06h.07Zm-5.8,1.24v.07h.26v-.07Zm.26-.19v.13h.08l.13-.13ZM264.89,292V292c0,.09.12.17.32.25v-.12Zm.21.43v.08l.18.07v-.15Zm.37-.06.13.21-.19.06v.07h.06l.4-.13C265.87,292.45,265.74,292.38,265.47,292.34Zm0,1.58V294l.13-.13v-.06Zm.13-.4v.07h.08l.19-.07v-.07h-.07Zm.33-.13h.12l.13-.13h-.13ZM266,285v.08h.05a.63.63,0,0,1,.4-.19v-.13C266.15,284.87,266,285,266,285Zm.05,7.57v.07h.13v.06l-.07.07v.06h.21v-.13l.26.07h.13v-.07l-.6-.13Zm.47.47v.05h.06l.06-.26Q266.52,292.87,266.52,293.08Zm.58-1.38L267,292h.13v-.13c.14,0,.21,0,.21-.14l-.08-.06Zm.33-7.43v.27h.07v-.27Zm0,8.86v.13h.26v-.07Zm.13,5.28-.13.25h.13l.07-.19v-.06Zm.19-17.13.08.78-.14.14.06,0V283l.08.45h-.08l.08.06v.07a1,1,0,0,1-.33.64h.19v.2l-.06.06.06.08V286l-.06.28.12.58-.06.26,1.16,1.31v.07c0,.08-.2.28-.58.58,0,.21-.21.47-.64.77.13,0,.2.05.2.13l-.08.65.08.61-.14.24.06.4-.06.07.14.12-.08,1.1.08.2-.08.33.08.38-.14,1.31.06.07v.06l-.06.2.06.31-.06.06.14.14-.08.33c0,.17.13.28.39.32l.07-.07h.06l.27.07c.91-.09,1.36-.27,1.36-.52.23,0,.47-.62.71-1.88h.06l-.06-.65.06-.33-.06-.33a1.82,1.82,0,0,1,.21-1v0c-.14,0-.21,0-.21-.13l.06-1.76a1.28,1.28,0,0,0-.37-1l.06-.06v-.13c-.18,0-.27-.11-.27-.34l-.06.07H270l-.33-.31v-.07a7.69,7.69,0,0,0,1.12-1.44h.07a6,6,0,0,1-.21-1.5h.06l-.06-.07v-2.22c0-.91-.26-1.5-.77-1.75a3.43,3.43,0,0,0-1.17-.25l-.27.06-.06-.06v-.06Zm3.39.84v.08h.14l.18-.08v-.06h-.11Zm.32,12.12.2.19h.06v-.13Zm.26-12.5v.13l.27-.13v-.07h-.06ZM272,294.5v.06l.32.07c0-.09-.06-.13-.19-.13Zm1.11.4V295h.25V295Z"/><path class="cls-2" d="M283,279a2.68,2.68,0,0,1,1.24.72c.37-.44.7-.66,1-.66h.06a2,2,0,0,1,1.24.79l-.13.13h.13l.2-.07.72.84v.07l-.53-.13h-.39c-.2,0-.37.43-.53,1.3l.08.07-.14,1,.06.6-.13.92.13.12-.06.33.06.39v.06h-.19l.13.19-.07.4a2.68,2.68,0,0,0,1.24,2,2.26,2.26,0,0,1-.64.72l-.07-.06c0,.21-.08.32-.26.32l.07.07v.06l-.34.72.13.2v.13l-.06.25.06.26v.27l-.19.2c.05.39.11.58.19.58l-.06.4.06,1.3-.13.2.13.58v.13l-.06.06c.3,1.35.78,2,1.44,2h.52c.95,0,1.52-.59,1.7-1.76l-.07-.59v-.39l.14-.19-.14-.13v-.13l.14-.21-.07-.19.07-.07-.14-.12.14-1.24-.07-.79h.07l-.14-.84.07-.07v-.06a2.23,2.23,0,0,0-.39-.92v-.13l-.07.07H289a.23.23,0,0,0-.26-.26l-.33-.4a5.29,5.29,0,0,0,1-1.37l.07-.32-.07-.2.07-.06h.07l-.14-.32h.07l-.07-.08.07-.65-.07-.66.14-1-.14-.13.07-.08-.07-.32V283l.07-.06-.07-.07v-.72l.14-.13-.07-.32v-.46l-.46-.53h-.45a.79.79,0,0,0-.47.2h-.06v-.07a3.16,3.16,0,0,1,1.44-1.43l.2.07.19-.2h.13c.22,0,.5.18.85.53a1.15,1.15,0,0,1,.84-.4h.15c1.08.4,1.62.84,1.62,1.3l.13.13v.07h-.06l-.92-.2c-.3.11-.45.39-.45.86l.06.25-.13.41.13.38v2.16l-.06.39.06.39-.06.4.06.45-.06.19q0,.33,1.11,1.5v.19a6.32,6.32,0,0,0-1.18,1.45l.07.07h.06l-.13.77.13.32-.06.34.06.71V292l-.13.4.13.32-.06.79.06.19-.13.13.13.13V294c0,.32-.06.5-.19.52l-.19-.06c0,.09.08.14.25.14l.07.06v.07a5.17,5.17,0,0,1-.85,2.27,3.93,3.93,0,0,1-3.53,1.9h-.52l-.4-.08-.25.08A6.66,6.66,0,0,1,284,298a4.27,4.27,0,0,1-1.37-2.15l.07-.07v-.06l-.34-1.63.07-.45-.07-.6.14-.45c-.09,0-.16-.48-.2-1.43l.13-.53-.13-.39v-.19l.06-.26c0-.32-.34-.87-1-1.64l1-1.18a1.25,1.25,0,0,1,.27-.64c-.1,0-.2-.09-.27-.26V286h.06l-.06-.46c0-.83.19-1.24.59-1.24v-.07h-.13l-.26.13-.14-.39v-.19l.07-.26-.13-.34V283h.06c-.07-1.53-.26-2.29-.58-2.29H281l-.19.13h-.07v-.2A3.77,3.77,0,0,1,283,279Zm-.73,2v.13l.47.13h.13v-.07Zm.53,8V289l.26.13h.06c0-.06-.08-.12-.25-.19Zm.58,2.86v.07l.53.19c0-.07-.15-.15-.46-.26Zm.34-7.89V284h.06l.33-.07v-.06h-.2Zm.13-2.41v.06h.32v-.06Zm.13,15.59v.13l.19-.07v-.06Zm.26-13.37v.13l.19-.07v-.06Zm.06-2.09v.06l.39.13h.06v-.07l-.39-.12Zm0,15.33V297h.32V297Zm.45-6.72-.06.07v.06h.27v-.06Zm.14,2.29v.06l.07.07h.19v-.07Zm.39.19v.07l.39.12c0-.07-.11-.14-.32-.19Zm4.38,1.37.13.13h.06l-.13-.13Zm.19-11.55v.07h.33v-.07H290v-.06Zm.13,11.81.13.13h.07l-.13-.13Zm.2-.39v.13l.25.06V294Zm.13-2V292l.12-.13v-.07Zm.19,2.69v.06l.4.26v-.13Zm.06-6.14.21-.06v-.14Zm.07-6.2a1.27,1.27,0,0,0,.59-.46h-.06C290.79,282,290.62,282.14,290.6,282.3Zm.14,11.87v.07l.26.06c0-.08-.07-.13-.19-.13Zm.32.92c0,.09.09.13.26.13v.13h.19v-.06Zm.07-.85v.13h.32v-.07Zm.38,1.17v.07l.26.06c0-.08-.06-.13-.19-.13Zm.07-1v.07l.19.06h.07v-.06l-.19-.07Z"/><path class="cls-2" d="M305.25,279.12h.84a2.8,2.8,0,0,0,.92.19c0,.14.19.22.57.26l1,.72a3.66,3.66,0,0,0,1.05-1.05h.06V280l.06.07v.08c-.06,0-.13.08-.19.25.13,0,.19,0,.19.12v.19l-.06.08.06.07v.06l-.06.07.06.06v.34l-.06.37.06.06v.07l-.06.21.06.19-.12.12.12.13-.06.33.06.2-.12.25.12.13-.06.07.06.06v.07l-.06,1.24v.06l-.06.08v0l.12.14v.32l-.19.27.19.31v.13l-.12.14h-1.76l-.07-.07-.06.07h-.32l-.07-.07h-.06l-.07.07-.06-.2.06-1-.06-.07v0l.13-.4-.13-.13v-.27h.13v-.07l-.13-.18v-.06l.13-.14a2.28,2.28,0,0,0-.84-2c0-.11-.39-.22-1.18-.32v-.05l-.33.11v-.06a2.26,2.26,0,0,0-.84,1.88l-.12.13v.13l.05.47-.05.06.12.12v.72H304l.05.32v.2l-.05.4.12.37-.07.07.07.07v.13L304,287l.05.26H304l.12.52v.26l-.07.27a6.16,6.16,0,0,0,1.11,1.36,4.3,4.3,0,0,1-.91,1l-.25,1V292l.05.25-.05.26.12.27-.12.51.12.47-.12.13-.34-.13h-.06v.06c.3,0,.45.14.45.31l-.05.4.12.52-.07.06v.07c.28,1.12.69,1.68,1.24,1.68h.4c1.08-.46,1.62-1.1,1.62-1.93l.06-.07.18.07h.21v-.07a.47.47,0,0,1-.52-.53l.07-.07-.07-.37.07-.78-.07-.4.07-.06h.13l.11.13.21-.07,1.89-.06v.19h-.07l.13,1.11v.78l-.13.2.13.18-.06.33v.2h-.21v-.14h-.12c0,.14.09.21.26.21l.07.06v.07a3.79,3.79,0,0,1-1.7,2.13,3.42,3.42,0,0,1-2.86,1.05,5.42,5.42,0,0,1-2-1,19.63,19.63,0,0,1-1.37-1.82v-.13l.07-.2h-.07c-.08,0-.27-.43-.58-1.28l.07-.07-.32-.4-.34-1.35-.12-.78.06-.06v-.07a2.55,2.55,0,0,0-1.17-1.9l-.19-.25.9-1.1.21-1.1-.06-.08a1.85,1.85,0,0,1,.19-.9l-.07-.27.13-.26-.06-.18a10.85,10.85,0,0,1,1.1-3.46c0-.25.11-.38.25-.38v-.14a.88.88,0,0,1,.47-.77,2.06,2.06,0,0,1,1.29-1.25c0-.14.28-.27.71-.37Q304.14,279.12,305.25,279.12Zm-4,15v.2l.24-.13-.06-.07v-.06Zm.71-.51c-.1.19-.19.31-.28.33v-.06l-.19.06v.12l.07-.05h.12l.07.05h.06c0-.16.12-.27.34-.31v-.08Zm.13-11.77h.11v-.13c.13,0,.2,0,.2-.13h-.07Zm.71,11.12c0,.11-.14.22-.4.32v.13l.46-.38V293Zm0-12-.07.06v.07h.07L303,281v-.06Zm.13,12.41-.07.19h.45v-.06l-.26-.13Zm.64.06-.06.07v.06l.33.13h.07v-.06Zm1.95-12.34-.06.06v.06h.2Zm.26-.2,0,.07v.13h0l.06-.2Zm0-.21v.08H306v-.08Zm.79-.64v.21h.06l.05-.21Zm.58,0v.08h.06a.18.18,0,0,1,.2-.21l.06-.19h-.06C307.31,279.71,307.23,279.82,307.14,280Zm.06,1.75v.07l.31.14v-.14l-.24-.07Zm.46.86v.13h.19v-.07Zm.25,12.15v.07h.2v-.13Zm.13-12.23.27.4V283h.12l-.05-.07v-.06l.05-.07v-.06A.63.63,0,0,1,308,282.55Zm.14,12.49v.06l.2.07V295Zm.25.06v.13h.32v-.06Zm.07-12v.12h.12a.18.18,0,0,0,.21.2v.13H309l-.34-.45Zm.83.58v.27h.15c.08,0,.13-.07.13-.2v-.07h-.07v.14h-.14v-.14Z"/><path class="cls-2" d="M329.67,277.79c.95.3,1.42.68,1.42,1.16H331l.06.06v.13l-.06.07v.06l.19.19a2.7,2.7,0,0,1-.39,1.23,2.54,2.54,0,0,1,.46,1.36c0,.64-.52,1.05-1.55,1.22v-.06a1.38,1.38,0,0,0,.38-.71q0-.45-.84-.45l-.51-.07-.71.13-.33-.06-.64.06H327l-.39-.06-.26.06h-.13v-.06l-.45.06h-.64l-.07.65v.51l-.06.07v.06l-.39-.26h-.06q0,.12.51.39l.07.07v.06l-.07.52.07.26-.07.45.07.06-.13,1.23.13.13-.07.19.07.71v.07l-.07.06.07.2-.13.51a2.6,2.6,0,0,0,1.16,1.86v.2a5.13,5.13,0,0,0-1.1,1.55l.07.71c0,.43-.07.64-.13.64l.06.07v.06l-.06.26.06.06v.07l-.06.19.06.07L325,294l.13,1.43-.13,1.22.58.71.39.13H326a1.55,1.55,0,0,0,.78-.26l.06.07v.06a4,4,0,0,1-2.52,1.55,1.89,1.89,0,0,1-1-.58,1.84,1.84,0,0,1-1.47.45c-.56,0-1.27-.51-2.14-1.55l.07-.06a1.22,1.22,0,0,0,.65.19h.45c.43,0,.64-.38.64-1.16l.07-.77-.07-.26.07-.52-.07-2,.13-.13-.13-.71.07-.07a3,3,0,0,0-1-1.74,5.38,5.38,0,0,1,1-1h-.13l.19-.76a3,3,0,0,1-.13-1l.2-.25-.2-.2.13-.64-.13-1,.2-.07-.2-.84.07-.19-.07-.91.07-.25-.07-.26h.07l-.07-.07v-.45c-.3,0-.45-.08-.45-.26l-.52.2-.06-.07-.13.13-.77-.06-.59.06-.19-.06-.26.06-.45-.06-.45.06-.39-.06c-.34,0-.52.07-.52.13l-.06.25a1,1,0,0,0,.39.84v.07a1.79,1.79,0,0,1-1.68-1.23,3.18,3.18,0,0,1,.38-1.1,1.12,1.12,0,0,1-.51-1v-.2c0-.76.56-1.25,1.68-1.48v.06a.92.92,0,0,0-.33.58v.2q0,.45.72.45l.38-.07h.13c.43,0,.65.07.65.2h.06c0-.13.05-.2.13-.2h.07l.45.07.51-.07,1.3.13.9-.13.32.13,2.06-.13.19.07.26-.07.26.07.9-.07h.65l.58.07.06-.07h.07l1.29.13c.9-.1,1.36-.27,1.36-.51a.9.9,0,0,0,.19-.52q-.07-.78-.39-.78Zm-12.84,3.93v.07l.39.06.07-.06v-.07Zm2.46-.38v.06h.26v-.06Zm1.1-.13v.06h.25v-.06Zm.32-.07v.07h.45v-.07Zm.58.26v.07l.26.06h.06v-.06l-.26-.07Zm.19-.32v.06h.45V281Zm.33,15.94v.06H322V297Zm.19-9.87v.06l.45.26v-.13a.41.41,0,0,1-.32-.19Zm.45,9.54v.07h.19v-.13Zm.52-9,.31.26v-.13l-.25-.13Zm.19-6.91v.07h.38v-.07Zm0,6.52h.07l.11-.13h-.06Zm.31-.19h.07l.13-.13h-.07Zm.07,1c0,.08.06.13.19.13h.06v-.07Zm0,6.57.13.13h.06l-.13-.13Zm.25.19V295l.2.06h.06V295l-.19-.07Zm.07-14.19v.07h.26v-.07Zm0,7.56v.06l.19.18h.07Zm.13-1.42v.06h.06l.2-.06v-.07h-.07Zm.32,1.73-.06.25.19.07.19-.07v-.06Zm-.06,6.58v.13h.12c0,.13.05.2.14.2v-.07Zm.26-14.58v.07h.32v-.07Zm.77-.13v.07h.26v-.07Zm.58-.06v.06h.26v-.06Zm.45-.07v.07h.46v-.13Zm1.1-.19v.06h.26v-.06Z"/><path class="cls-2" d="M57.91,207.31H58c0,.08.06.11.18.11L58.2,209a.83.83,0,0,1-.35.68l.06-.06H58l.07.06h.06v-.18l.11.12-.06.46.06,1.4v1c0,.3-.08.46-.24.46l-.43-.06-.24.06-.45-.06-.45.06-.06-.52.06-.67-.06-.24.18-.32c-.12,0-.18-.15-.18-.35l.06-.4c0-.34-.44-.7-1.3-1.06l-.34-.06c-.77,0-1.26.15-1.46.45h-.06a14.33,14.33,0,0,1-.23,2.54c.09,0,.15.13.17.4l-.11.62.11.11-.05.05.05.06v.06l-.05.33c0,.46.13.69.38.69l.46-.17.63.11c.33-.1.5-.4.5-.91a.85.85,0,0,0-.39-.63v-.09h0c.76.2,1.13.53,1.13,1l.07.23v.05a1.6,1.6,0,0,1-.35,1.14c0,.18.08.27.23.27l.15.75q-.27,1.17-1.17,1.17l-.29.06v-.06a1.39,1.39,0,0,0,.52-.85c0-.09-.21-.16-.63-.22h-.17l-.39.06-.06-.06v0c-.48,0-.73.14-.73.32l.11.24-.05,1.17.05.06v.05l-.11.46v.18h.11v.32l-.11.35.06.06v0l-.06.4.06.62h-.06l.17.5-.11.13.05.17-.05,0v.06l.11.27-.11.11a.87.87,0,0,1,.21.56l.81.23a3.6,3.6,0,0,0,2.19-1l.06-.62-.06-.06V221l.06-.67-.06-.07v-.06l.11-.33-.11-.45.11-.11-.11-.18V219l.06-.05v-.06L57,219l.18-.11.57.06h.34l0,.05h.06l-.11.34v0l.11.46V220l-.11.46.11.32V221a.37.37,0,0,1-.35.22v.13l.29-.18.06.4v.22c0,.4-.65,1.14-1.87,2.2a6.13,6.13,0,0,1-1.81.68l-.06-.07-.27.07H54a3.21,3.21,0,0,1-2.33-.85c-.27.27-.48.4-.61.4h-.28a3.23,3.23,0,0,1-1.92-.9l-.11-.11-.18-.24.06-.06a1.84,1.84,0,0,0,.74.35h.29a.78.78,0,0,0,.49-.75l-.06-.21.13-.11-.13-.29.06-.38-.06-.46.13-.11-.18-.18,0-.73,0-.16,0-.51v-.24l.06,0-.11-.22,0-.9v-.24l0-.33.11-.23c-.07,0-.11,0-.11-.16l0-.41-.11-.11h.11v0c-.2,0-.39-.21-.56-.63l.13-.12-.07-.06h-.4v0l.85-1.07v-.57l0-.33,0-.17.11-.67c-.07,0-.11-.06-.11-.18l0-.78,0-.06v-.06l.11-.45L50,211l0-.4a5.64,5.64,0,0,0-.11-1.52l-.9-.28-.56.4h-.06v-.06c0-.48.56-1,1.69-1.46h.53a1.16,1.16,0,0,1,.89.5,4.57,4.57,0,0,1,1.7-.74l.8.06.61-.11c0,.09.24.15.73.18l1.58.67C57.16,208.22,57.48,207.92,57.91,207.31Zm-7.62,8-.06.05v.06h.06l.17-.06v-.05Zm0,.89v.07h.17v-.12Zm.17-7.61-.06.16v.06h.06l.12-.12v0l.06,0h.21v0l-.27-.06-.07.06Zm1,6.2a.4.4,0,0,1-.4.23v.11l.56-.28v-.06Zm-.4.84h0l.24-.1v-.05h-.06C51.1,215.5,51,215.56,51,215.6Zm.9-1.12v.12l.18-.06v-.11Zm.24-.11.11.11h.21l-.1-.11Zm.32-.29v.06h.18V214Zm.11-6.27q0,.12.18.12h.06v-.06Zm.07,5.95v.05l.11.1.12-.1-.17-.05Zm.63,10.43v.05l.27-.17V224H53.5Zm.39-15.8.11.11h.06l-.11-.11Zm0,15.57h.06l.11-.11h-.06Zm.73-.46h.05l.13-.11h-.07Zm.29-14.67v.06L55,209h.05v-.06l-.34-.11Zm.5,14v0h.06l.34-.11v-.11Zm.11-8.07v.06l.24-.28v-.06Zm.41,7.9h.05l.11-.12h-.05Zm.23-13,.27.23v-.11l-.24-.12Zm.21,12.76h.06l.17-.17h-.06Zm.46-11.4h.06l.11-.11h-.06ZM56.73,222h.06l.1-.11h0Zm.45-.39v.12l.17-.06v-.06Zm.4-.27-.11.12v0h.11l.11-.17Zm0-10.27c0,.08.16.17.5.27h.06v-.05Zm.22-1.31V210h.1v-.17Z"/><path class="cls-2" d="M68.27,207.24a3.66,3.66,0,0,1,1.79.68v.16a.74.74,0,0,0-.61.28h0a1,1,0,0,1,.56-.22l.06-.06V208a1.86,1.86,0,0,1,.73.44c.33,0,.49-.16.49-.5h.22l0-.05v-.06c.3-.41.49-.62.56-.62l.05.06v.28l-.11.11.11.45L72,209l.11.84-.05.22.05.06-.05.61.05.84-.11.1.06.06v.05l-.06.06v.06l.11.78v.22c0,.28-.05.43-.17.45l0-.06h-.06l-.22.06-.06-.06-.28.06h-1.1c-.12,0-.17-.15-.17-.34v-.78l0-.28-.11-.11v-.11l.23-.27h-.12v-.84l0-.06v-.05c.08,0,.14-.1.17-.28l-.17.11H70a1.39,1.39,0,0,0-.45-.78v-.06l.06-.06v0H69.5l0,0h-.06a4.23,4.23,0,0,0-1.17-.16c-.86,0-1.38.57-1.56,1.73a3.42,3.42,0,0,0,1.89,2.9l.56-.06h.56c.12,0,.17.21.17.62h0l.33.77c1.41,1.28,2.11,2.19,2.11,2.73.08,0,.15.19.23.56l-.06.22v.17l.12.17-.06.33.06.28-.12.28.06.06h.06c-.06.77-.2,1.16-.4,1.16l.06.23c-.55,1.33-1.1,2.11-1.67,2.33a2.52,2.52,0,0,1-1.62.79,1.43,1.43,0,0,1-.62.11h-.5a5.23,5.23,0,0,1-2.17-.9l-.78-.84a1.88,1.88,0,0,0-.61-.55,5.28,5.28,0,0,1-.5-1.39l0-.22,0-.23,0-.32,0-.06v-.05l0-.23,0-.17c.06,0,.12-.13.17-.39-.12-.52-.24-.78-.39-.78h-.17a.7.7,0,0,0-.45.22h-.06v-.11c.2-.63.52-1,.95-1l.83.22v0a1.47,1.47,0,0,1,.73-.39h.39c.33,0,.59.33.78,1v.17h-.11c0-.15-.11-.24-.33-.28l-.17.06.06.05v.45l-.12.17v.05l.12.17v.23l-.12.39.06,0h.06l-.06.28.06.38c-.08,0-.12.06-.12.17a3,3,0,0,0,1,1.39,2.09,2.09,0,0,0,1,.45h.67c.17,0,.45-.23.84-.68l.34.12h0V222l-.33-.06v-.11a5.42,5.42,0,0,0,.39-1.76A4.33,4.33,0,0,0,69,218.5c-.45-.52-.74-.78-.9-.78l-.94-.06-.56.06-.06-.06v-.06l.06,0v-.06l-.11-.43v-.4a2.47,2.47,0,0,0-1-1.06,4.87,4.87,0,0,0-1-1l-.51-1,.06-.17-.17-.45.06,0-.23-1v-.11l.28-1.56.06-.06-.06-.05v-.06a4.23,4.23,0,0,1,1.89-2.28l1.46-.56ZM64,211V211h.22V211Zm.49,9.25v.05h.28v-.05Zm.39-9.87-.05.06v.06h.05l.17-.06v-.06Zm0,3.69h.06l.11-.12H65Zm.4,6.51v.11l.39.11C65.66,220.72,65.53,220.65,65.27,220.56Zm.11-10.7h.05l.34-.11v-.06h-.06C65.49,209.73,65.38,209.79,65.38,209.86Zm.16.11-.05.06v.06h.05l.17-.06V210Zm-.05,3.8h.05l.12-.11v-.06Zm.33-.17h.06l.11-.11h0Zm.4-.28v.11l.16-.05v-.06Zm.22-.11v0h.11l.17,0v-.06h-.11Zm.84-4.24V209h.11l.17-.05v-.06H67.5Zm.55-.23v.12l.17-.06v-.06Zm.78-.15v.1l.17-.05v0Zm1.23,13.47v.05l.22.06h.12v-.06l-.28-.05Zm.39-10.74v.05h.11l.23-.17h-.06Zm.17,11v.06l.39,0c0-.07-.05-.11-.17-.11Zm.39-11.3v.11l.44-.22v-.11Zm.11,11.41v.11h.22v-.05Zm.94-11.91h.06l.11-.12H72Z"/><path class="cls-2" d="M89.67,206.2c.82.26,1.23.6,1.23,1h-.05l.05.06v.11l-.05.06v.05l.16.17a2.39,2.39,0,0,1-.33,1.06,2.26,2.26,0,0,1,.39,1.18c0,.55-.45.91-1.34,1.06v-.06a1.12,1.12,0,0,0,.33-.61c0-.26-.24-.39-.73-.39l-.44-.06-.62.11-.28,0-.56,0h-.11l-.33,0-.23,0h-.11v0l-.39,0H85.7l-.06.56V211l0,.06v0l-.34-.22h0c0,.06.14.18.44.33l.06.06v0l-.06.45.06.23-.06.39.06,0-.11,1.07.11.11-.06.17.06.61v.06l-.06,0,.06.17-.11.45a2.28,2.28,0,0,0,1,1.61v.17a4.47,4.47,0,0,0-1,1.34l.06.61c0,.38-.06.56-.11.56l0,.06v.06l0,.22,0,.06v.05l0,.17,0,.06,0,.22.11,1.23-.11,1.06.5.62.34.11h0a1.32,1.32,0,0,0,.67-.22l.06,0v.06A3.49,3.49,0,0,1,85,224.54a1.7,1.7,0,0,1-.9-.5,1.59,1.59,0,0,1-1.27.39c-.48,0-1.1-.45-1.85-1.34l.06-.06a1.07,1.07,0,0,0,.56.17H82c.37,0,.56-.34.56-1l0-.67,0-.22,0-.45,0-1.74.11-.11-.11-.61,0-.06a2.58,2.58,0,0,0-.89-1.51,4.4,4.4,0,0,1,.89-.89h-.11l.17-.66a2.39,2.39,0,0,1-.11-.9l.17-.22-.17-.17.11-.56-.11-.84.17-.06-.17-.72,0-.17,0-.78,0-.23,0-.22h0l0-.06V210c-.26,0-.39-.07-.39-.22l-.45.17-.06-.06-.11.11-.67,0-.5,0-.17,0L80,210l-.4,0-.39,0-.33,0c-.3,0-.45.06-.45.11l-.06.22a.9.9,0,0,0,.34.73V211A1.56,1.56,0,0,1,77.26,210a2.77,2.77,0,0,1,.34-.95,1,1,0,0,1-.45-.84V208c0-.65.49-1.08,1.46-1.28v0a.82.82,0,0,0-.28.51v.17c0,.26.2.39.61.39l.34-.06h.11c.37,0,.56.06.56.17H80c0-.11,0-.17.11-.17h0l.39.06.45-.06,1.12.11.78-.11.28.11,1.78-.11.17.06.22-.06.23.06.78-.06h.56l.5.06.06-.06h.05l1.12.11c.79-.09,1.18-.24,1.18-.44A.77.77,0,0,0,90,207c-.05-.45-.16-.67-.34-.67Zm-11.12,3.42v0l.34.06,0-.06v0Zm2.13-.34v.06h.22v-.06Zm.95-.11v.06h.22v-.06Zm.28-.06v.06h.39v-.06Zm.5.23v0l.22.06h.06v-.06l-.22,0Zm.17-.28v.05H83V209Zm.28,13.8v.06H83v-.11Zm.16-8.55v.06l.4.23v-.12a.35.35,0,0,1-.28-.17Zm.4,8.27v.06h.17v-.11Zm.44-7.76.27.22v-.11l-.21-.11Zm.17-6v.06h.33v-.06Zm0,5.65h.06l.1-.11h-.06Zm.27-.17h.06l.11-.11h-.06Zm.06.84c0,.08,0,.12.17.12h0v-.06Zm0,5.7.11.11h.06l-.12-.11Zm.22.17v0l.17.06h0v-.06l-.16,0Zm.06-12.3v.06h.22v-.06Zm0,6.55v0l.16.16h.06Zm.11-1.24v.06h0L85,214V214h0Zm.28,1.5-.06.23.17.05.17-.05v-.06ZM85,221.24v.11h.11c0,.11,0,.17.12.17v-.06Zm.23-12.63v0h.28v0Zm.67-.11v.05h.22v-.05Zm.5-.06v.06h.22v-.06Zm.39-.05v.05h.39v-.11Zm.95-.17v.05h.23v-.05Z"/><path class="cls-2" d="M97.24,218.81l.49.09.09-.09c.38,0,.76.32,1.12.94a.6.6,0,0,0,.09.4v.09h-.09v0l.09.13v.09c0,.38-.3.78-.89,1.21l-.63.09-.05,0v-.05l-.22.05h0c-.39-.1-.59-.21-.59-.32l0,0v0h0l-.13,0a1,1,0,0,1-.31-.49h.09v-.09l-.05,0h0c-.09,0-.14-.14-.14-.36v-.13c0-.5.11-.78.32-.85,0-.17.13-.31.4-.4C96.75,219,96.91,218.93,97.24,218.81Zm-.94,2.06h.09l.4-.13v-.05h-.18Zm.76-.45v.05l.27,0h.13v0l-.31-.05Zm.23-.13v.13l.09-.09v0Zm.31,0h0l.14,0v-.09Zm.45-.26,0,0v0h0l.13,0v0Zm.31,0h0l.18-.09v-.09Zm.31.54,0,.13.27-.09v0Z"/><path class="cls-2" d="M310.94,204.59h.37a3.31,3.31,0,0,1,2.85,1.22c0,.07.22.31.66.71a5.76,5.76,0,0,1,.41,1.18l-.05.21c.11,0,.16.15.16.41l0,.76,0,.21c-.11.78-.21,1.17-.31,1.17l.05,0v.05a8.49,8.49,0,0,1-1,1.79,4.72,4.72,0,0,0-.26,1.48l-.5-.05h-.71a4.51,4.51,0,0,1-1,.76c0,.11-.31.38-.93.82q-.36.57-.66.57v.1l.26-.16v.06a3.7,3.7,0,0,0-.77,1.42h.06l.29.05h.26l.21-.05.76.1,0,0v-.05l.52.05h.24l.26-.05.31.05h.21a8.15,8.15,0,0,0,2.39-.46l.05.06V220l-.05.06v.05l-.26-.05h-.5l-.56-.06-.41.11h-.71l-.31-.05-.16.05L312,220l-.26.05-.61-.11h-.55l-.16.11h-.81l-.21-.05-.21.05h-.66L308,220l-.26.05V220l0,.05h-.61L307,220v-.65l.15-.21-.05-.05.11-.11c-.11,0-.16,0-.16-.1v-.15l.05-.21-.05-.05v0c.13-1.23.28-1.85.47-1.85a2.66,2.66,0,0,1,.55-1.23,2,2,0,0,1,.76-.91,6.75,6.75,0,0,1,.76-1,2.16,2.16,0,0,0,1-1.73l-.05-.31v-.26c0-.11.25-.2.76-.26.32,0,.56-.8.71-2.39v-.57a1.76,1.76,0,0,0-.77-1.28h-.36a1,1,0,0,0-1.07.68,1,1,0,0,0-.21.6v.57l0,.76,0,.37,0,.39,0,.21-.14,0a3.3,3.3,0,0,1-1.17-.1v0h-.11c0,.1,0,.15-.1.15h-.31l0,0h-.05l.05-.21-.05-.81h.05l-.05,0,.05-.47-.05-.81h.05l-.05-.05v-.16l.1-.1-.1-.4.1-.52,0,0v-.15c0-.07,0-.11.15-.11v-.09l-.05.06h-.1v-.31l-.05-.52.05-.45v-.16l1.28.71h.1a3.36,3.36,0,0,1,1.58-.86Zm-3.11,12.3-.05.05V217h.05l.16-.06v-.05Zm.87,2.56v.05h.15l.06-.05v0h-.06Zm.05-13.84.52.46h.05c0-.06-.17-.21-.52-.46Zm.16.41c0,.06.08.11.25.15h0v0Zm.15,10.16.05,0v.11c-.1,0-.15,0-.15.1H309a.63.63,0,0,1,.36-.16v-.05h-.1v0c0-.08.11-.17.34-.25v-.11Zm.26,3.06h.05l.1-.1h-.05Zm.26-13,.19.19v.05h.1l-.26-.24Zm0,9.8,0,.05v0h0l.21,0V216Zm.11-.31v.1l.15,0v-.1Zm.15,3.16V219a1.59,1.59,0,0,1,.62-.26v0h-.05Zm.05-12.31.11.21h.05v-.05l-.05-.16Zm.11,8.94v.05h.15l.06-.05v0h-.06Zm.66,3.06v.05h.2v-.1Zm.62,0v.11l.25-.06v-.05Zm.25-.66h.06l.29-.2v-.11Zm.2-11.54v0H312v0Zm.26,12,0,.05v.05h0l.15-.05v-.05Zm.2-9.81v.11l.21.05C312.43,208.72,312.36,208.67,312.22,208.61Zm.47.47v0l.14.05v-.1Zm.05-.16V209l.25.15H313c0-.07-.11-.14-.26-.21Zm.4.47v.05l.16.05h.05v-.05l-.16-.05Zm.47.19v0l.05.06v.05l-.05,0,.15.05.14-.05v0Zm.24.31v.05l0,.16H314v-.16l-.05-.05Zm.62.26.1.1h.06l-.11-.1Zm.1.47.21.19v-.05l-.15-.14Z"/><path class="cls-2" d="M326.25,204.59h.15a3,3,0,0,1,1.73.69l.7.84.15-.05v.05a6.07,6.07,0,0,1,.84,1.79,2.22,2.22,0,0,1,.35,1l-.05.15q.15,0,.24.84h-.14a1.15,1.15,0,0,1,.2.49l-.06.3c.06,0,.15.15.25.45l0,0h-.05v0c.23,0,.35.14.35.3a1.39,1.39,0,0,1,.49.44l-.75.85-.14.25,0,.14,0,.15,0,.25-.45,2.38.05.2a2.86,2.86,0,0,1-.59,1.24q0,.91-1.44,2a3.28,3.28,0,0,1-1.24.75l-.4-.11-.24.06a3.31,3.31,0,0,1-2.44-1.44l-.69-1.15a1.39,1.39,0,0,0-.3-.84l.05-.14-.15-.15.1-.15v0c-.23,0-.38-.63-.45-1.88-.05,0-.08-.12-.1-.35v-.3l0-.19,0-.21v0l0-.25-.84-.89v-.1c.53-.58.79-.92.79-1a11,11,0,0,1,.5-2.69,3.12,3.12,0,0,0,.44-1.14c.46-.78.87-1.23,1.24-1.34l0,0v0a1.36,1.36,0,0,1,1.14-.75C325.59,204.67,325.83,204.59,326.25,204.59ZM323.13,212h0l.3-.1v0h0C323.23,211.9,323.13,212,323.13,212Zm.09,4.22.11.1h.05v-.1Zm.6-4.51v.05h.05l.24-.05v-.11Zm.55,4.76c0,.06.05.09.14.09h.11v-.05Zm.14-4.92h.06l.1-.09h-.05Zm.25,5.06c0,.07.05.11.16.11H325v-.05Zm.05-5.25v.1l.19,0v-.05Zm.45-4.42.05.26v0l-.1.1.05.4-.05,2.24,0,.33,0,0v.06l0,.05v0l0,.05v0l0,.05v0a3.25,3.25,0,0,0,.84,1.1v0c-.53.59-.79,1-.79,1.15l0,.94,0,.2-.1.1.1.09v.21l0,.05,0,0v0l0,.26,0,.14,0,.19,0,1.24v.05c0,.07-.07.11-.21.11v.1c.18,0,.26.15.26.44.17.7.49,1,1,1h.25c.52,0,.9-.44,1.14-1.34,0-.16-.07-.24-.16-.24l.11-.3-.11-.35.06-.19-.06-1.1.06-.05h0l-.11-.25.06-.44-.06-.4.06-.54a3.62,3.62,0,0,0-.84-1.2q.84-.93.84-1.14l-.06,0v-.05l.16-.19a.61.61,0,0,1-.16-.35l.06-.74-.06-.59.06-.16-.06-.3v-.45l.06-.19a5,5,0,0,0-.44-1.24h-.05l-.06.05a1.53,1.53,0,0,0-.64-.1h-.05a1.07,1.07,0,0,0-1,.59Zm.69-1v0l.26,0h0v0l-.25,0Zm.45.09v.1l.24.06h.11v-.06Zm.4,12.85V219h.09l.21-.05v0H327Zm.89-1.34.2.15h.1v0l-.25-.1Zm.35.15v.09h0l.09-.09Zm.14-7.35h.05l.11-.09h0Zm.35-.24v.05l.05.05v0l-.05,0v.11h.05c0-.1.05-.15.14-.15l.16,0-.25-.19Zm.3,0v0H329c0-.07,0-.1.15-.1v0h-.06Zm0,7.94v0h.2v0Zm.24-8.19v.1h.06l.2-.15h-.05Zm.56,0v0h.19v0Zm.24-.05v.05h.1l.2-.05v0h-.1Zm.15,1.05v0l.2,0h0v0l-.2,0Z"/><path class="cls-2" d="M341.07,204.65v.89l-.06.05.06.16-.11.72.11.31v.53l-.06.21.06.2v.11H341l-.15-.11h-.05l.25.31v.11l-.05.41.11,1-.11.72v.05c0,.39.32.89,1,1.51V212l-1,1.2.11.41-.31.11v.05l.25.05-.05.27.05.47-.25.05v0c.2,0,.31.17.31.51v.21l-.11.21.11.84v.46H341c0,1,.16,1.57.47,1.57,0,.07.26.12.79.15h.25c0,.4-.48.75-1.46,1l-1,.15-.41-.31c-.29.35-.54.52-.74.52a1.08,1.08,0,0,0-.46-.47v.06c0,.06.1.13.31.2V220h-.16c-1.14-.33-1.71-.66-1.71-1-.07,0-.12-.11-.16-.31l.05,0H337c.8,0,1.2-.22,1.2-.67l0-.58,0-2V215l0-.21,0-.21,0-.46,0-.43,0-.31,0-.46c-.08,0-.34-.3-.79-.89l.84-1.09,0-.05v-.16l0-.37,0-.46v-.47l0-.48,0-.31,0,0h.05l-.05-.05v-.05c0-1.46-.14-2.19-.41-2.19l-.05-.2h-.43l-.15-.11c0,.13-.14.21-.42.26v-.05a2.9,2.9,0,0,1,.95-.89l.05-.05v-.05l.05.05h.1l0-.05v0l.62-.37h.31a1.62,1.62,0,0,1,.89.52A2.06,2.06,0,0,1,341.07,204.65Zm-3.27,14.21.1.1H338l-.1-.1Zm.41.53v.05l.11.1v0Zm.05-2.87h.06l.1-.1h-.05Zm.06-2.61c0,.18.15.27.41.27l-.05-.05V214l.05.07h.36l.1-.12h-.05l-.36,0v-.1h0l-.31.1v-.1Zm.1-8.32.1.11h.05l-.1-.11Zm.31.26v.05l.1.11V206Zm.52,8.11v0l.25.07h.12l-.12-.17Zm.2.38v.1h.27v-.05Zm.27-.43.11.1h.05l.1-.1Zm.11-7,.15.26h0V207l-.1-.11Zm.05,7.61v0h.31v0Zm.21-7.35v.12l.2.1h0Zm0,6.77V214h.15l.05-.05h0l.16.05h.15v-.05l-.36,0Zm.36-6.45c0,.08.1.14.25.21v-.1l-.2-.11Z"/><path class="cls-2" d="M351.76,204.59h.36a3.31,3.31,0,0,1,2.85,1.22c0,.07.22.31.66.71a5.88,5.88,0,0,1,.42,1.18l-.06.21c.11,0,.16.15.16.41l0,.76,0,.21c-.1.78-.21,1.17-.31,1.17l.05,0v.05a8.49,8.49,0,0,1-1,1.79,5.12,5.12,0,0,0-.26,1.48l-.5-.05h-.71a4.51,4.51,0,0,1-1,.76c0,.11-.31.38-.93.82q-.36.57-.66.57v.1l.26-.16v.06a3.62,3.62,0,0,0-.76,1.42h.05l.29.05h.26l.21-.05.76.1,0,0v-.05l.52.05h.25l.25-.05.31.05h.21a8.15,8.15,0,0,0,2.39-.46l.05.06V220l-.05.06v.05l-.26-.05h-.5l-.56-.06-.41.11h-.71l-.31-.05-.16.05-.2-.05-.26.05-.61-.11h-.55l-.16.11h-.81l-.21-.05-.21.05h-.65l-.47-.05-.26.05V220l0,.05h-.61l-.1-.11v-.65l.16-.21-.06-.05.11-.11c-.11,0-.16,0-.16-.1v-.15l.05-.21-.05-.05v0c.13-1.23.29-1.85.47-1.85a2.66,2.66,0,0,1,.55-1.23,2.07,2.07,0,0,1,.77-.91,5.63,5.63,0,0,1,.76-1,2.17,2.17,0,0,0,1-1.73l-.05-.31v-.26c0-.11.25-.2.76-.26.32,0,.56-.8.71-2.39v-.57a1.77,1.77,0,0,0-.76-1.28h-.37a1,1,0,0,0-1.07.68,1,1,0,0,0-.2.6v.57l0,.76,0,.37,0,.39,0,.21-.15,0a3.3,3.3,0,0,1-1.17-.1v0H349c0,.1,0,.15-.11.15h-.31l0,0h-.05l.05-.21-.05-.81h.05l-.05,0,.05-.47-.05-.81h.05l-.05-.05v-.16l.1-.1-.1-.4.1-.52,0,0v-.15c0-.07,0-.11.16-.11v-.09l-.06.06h-.1v-.31l-.05-.52.05-.45v-.16l1.28.71h.1a3.36,3.36,0,0,1,1.58-.86Zm-3.12,12.3-.05.05V217h.05l.16-.06v-.05Zm.87,2.56v.05h.16l.05-.05v0h-.05Zm.05-13.84.52.46h.05c0-.06-.17-.21-.52-.46Zm.16.41c0,.06.08.11.25.15H350v0Zm.15,10.16.05,0v.11c-.1,0-.15,0-.15.1h.05a.63.63,0,0,1,.36-.16v-.05h-.1v0c0-.08.11-.17.35-.25v-.11Zm.26,3.06h.05l.1-.1h0Zm.26-13,.19.19v.05h.1l-.25-.24Zm0,9.8,0,.05v0h0l.2,0V216Zm.1-.31v.1l.15,0v-.1Zm.15,3.16V219a1.58,1.58,0,0,1,.63-.26v0h-.06Zm.06-12.31.1.21h.05v-.05l-.05-.16Zm.1,8.94v.05H351l.05-.05v0H351Zm.66,3.06v.05h.2v-.1Zm.62,0v.11l.26-.06v-.05Zm.26-.66h.05l.3-.2v-.11Zm.19-11.54v0h.21v0Zm.26,12-.05.05v.05h.05l.15-.05v-.05Zm.21-9.81v.11l.2.05C353.24,208.72,353.17,208.67,353,208.61Zm.46.47v0l.14.05v-.1Zm.05-.16V209l.25.15h.05c0-.07-.1-.14-.26-.21Zm.4.47v.05l.16.05h.05v-.05l-.16-.05Zm.47.19v0l.05.06v.05l-.05,0,.15.05.14-.05v0Zm.24.31v.05l0,.16h.06v-.16l-.06-.05Zm.62.26.11.1h.05l-.11-.1Zm.11.47.2.19v-.05l-.15-.14Z"/><path class="cls-3" d="M200,47.67A235.34,235.34,0,0,0,19.33,132l43.19,7.72,12,38.64a163.67,163.67,0,0,1,250.88,0l12-38.64L380.67,132A235.34,235.34,0,0,0,200,47.67Z"/><path class="cls-2" d="M94.2,80.28l2.33-1.21a8.09,8.09,0,0,0,2.83-.79c.2.38.85.35,2-.11l3.78.59a10.77,10.77,0,0,0,1.38-4.42l.18-.09,1,2,.28.08.11.22c-.19.1-.25.43-.16,1,.35-.19.59-.18.7,0l.28.54-.07.3.28.09.09.18-.09.27.28.09.48.93.37,1.14.27.08.09.18.12.67.46.44L111,83l.55.17.3,1,.46.44,0,.91.55.17-.09.27.27.09.1.18,1.61,3.53.1.18-.07.31,0,.11.57.21.47.89-.15,1,1,.58.18.36-.15.58-4.87,2.54-.3-.12-.06.31-.9.47-.29-.13-.18.1-.07.31-.48-.48-1.31-3-.3-.12,0-.11-.22-1.29-.55-.18-.39-.75.36-.19-.1-.18-.62-.31-.09-.18.15-.58q-2.07-4-5.24-4.38c-.17-.31-1.41,0-3.74.8l-.07-.14-.77.81-.09-.18a7.07,7.07,0,0,0,.4,6.45l-.14.53.19.36.82,1.21,0,.26.49.15,1,2-.33.17.62.82.28.54.43,1.19.87.87-.09.27.29.12.19.36.52,1.78.52.64-.15.08,1.07,1.27.38.71.21.85c.16.31,1.85,1,5.05,2.16a13.52,13.52,0,0,1-1.13,4.05l.73,3,.48.93.5.6.23.8.72.58.42,1.6,1,1.13-.14.52-1.12.13-.18.09.1.19c.88-.35,1.45-.28,1.7.2l.44,1.19L114,126.2l-.09.28.1.18c2.38,2.7,4.34,3.66,5.87,2.86l1.11-.58q3.49-4.23,1.7-7.68l.07-.31.61,0,.57-.3-.11-.22a1.44,1.44,0,0,1-2.2-.72l.09-.27-.73-1-.94-2.25-.76-1,.09-.28.36-.18.51.19.48-.48,5.14-2.91.28.54-.18.09,2,2.9,1.12,2.15L129,118l.62.32.29,1,.3.57-.58.3-.2-.4-.32.17c.19.38.53.45,1,.2l.28.09.09.18a11.78,11.78,0,0,1-1.61,8.37q-.75,4.08-6.45,7.05c-.89.46-3.21.52-7,.17a55.9,55.9,0,0,1-6.44-3.07l-.19-.36-.12-.67-.18.1c-.23.12-1.39-.78-3.46-2.71l.08-.27-1.47-.65-2.9-3.28-1.44-2,0-.26-.1-.17c-.93-1.8-2.92-3-6-3.59l-.92-.44.93-4.36-1-3.35L92,110.8c-.63-1.49-.89-2.42-.77-2.79l-.58-.66v-.9l-.44-.41q-2.37-8.57-2-11.2c-.28-.73-.23-1.2.18-1.42L88.21,93a2.79,2.79,0,0,1,.17-2.82c-.37-1.54.22-3.31,1.79-5.32-.09-.47.39-1.16,1.43-2.07Q91.12,81.89,94.2,80.28ZM89.33,92.45l.32-.17-.19-.36c.36-.18.48-.4.35-.64l-.18.1ZM90,88.91l-.09.27.1.18.18-.09.44-.46-.09-.18Zm7.75-3.59-.08.28.09.17.58-.29Zm.14-1.48.11.21.72-.37-.11-.22Zm.3.57-.05.25.19.36.14-.07-.1-.63Zm.95-3.51.3.58.18-.1-.15-.64Zm1.62-.84.11.22.18-.1a.55.55,0,0,1,.24-.85l-.1-.63-.18.09C100.78,79,100.7,79.39,100.75,80.06Zm2.72,4.79.09.18,1.07-.06-.2-.39-.78.17Zm1.31,42.92.28.54.49-.71-.27-.09-.09-.18Zm1.23-2.46a1.87,1.87,0,0,1-.27,1.32l-.1-.18-.44.46.17.33.1-.24.36-.19.26,0,.18-.09q-.36-.67.48-1.35l-.11-.21ZM106,86.56l.19.36.54-.28-.1-.18Zm1.44,35.74c.16.31-.05.8-.64,1.48l.18.35.73-1.74-.09-.18Zm-.48-36.52,1.34.72.09.18.32-.17-.23-.1-.1-.18,0-.26-.09-.17A2,2,0,0,1,106.92,85.78Zm1.4,37.41.1.63,1.26-.66-.1-.17h-.9Zm.62-36.59.17.32.36-.19a.57.57,0,0,0,.88.28l.18.36.36-.19-1.59-.77Zm1.27,35.83-.09.28.1.17,1.11-.12.18-.1-.09-.17ZM112.12,87l.39.75.4-.21c.23-.12.26-.37.06-.76l-.1-.18-.18.1.21.39-.4.21-.2-.4Zm12.15,32.93.1.18.54-.28-.19-.36Zm1.13.33.1.18.63-.1-.19-.36Zm.78-.18.18.36.9-.47-.09-.18Z"/><path class="cls-2" d="M132.54,64.65l.58-.17q3.06-.92,7.5.68l3.65,2.46.52-.37.06.19a25.6,25.6,0,0,1,5.31,5.93c.55.23,1.37,1.38,2.47,3.44v.63c.37-.11,1,.89,1.9,3l-.58.17a4.41,4.41,0,0,1,1.35,1.67l.15,1.22c.23-.07.72.41,1.48,1.42l-.26-.14-.19.06.06.19c.94-.14,1.51.12,1.7.76A5.57,5.57,0,0,1,160.67,87l-1.9,4.11-.3,1.11.37.52,0,.64.48.91,1,9.69.43.72a12.28,12.28,0,0,1-.91,5.46q1.05,3.52-3.26,9.29-2.52,3.75-3.94,4.34l-1.63.07-.91.48q-4.73,1.41-11-2.79l-4-3.58A5.54,5.54,0,0,0,133,115l0-.64-.71-.42.18-.64-.05-.2c-.88.27-2.18-2-3.88-6.78-.21.07-.47-.35-.79-1.24l-.34-1.12,0-.83-.42-.72-.06-.2-.1-1-4.28-2.48-.1-.35c1.37-2.86,2-4.5,1.86-4.94a43.67,43.67,0,0,1-1.19-10.92,13.44,13.44,0,0,0,.43-4.94q1.23-5.31,3.23-6.57l-.26-.14,0-.2c.69-2.28,1.88-3.68,3.56-4.18Q130.14,65.37,132.54,64.65ZM129.05,97l.19-.06,1-.73,0-.16-.19.06C129.31,96.42,129,96.71,129.05,97Zm2.34-1.92.06.19.19,0,.91-.49-.11-.38ZM131.44,75l.48.91.06.19-.27.5.64,1.46,2.39,8.7.24,1.36.21.15.06.19-.1.24.06.2.21.15.06.19-.1.24.06.19q.65,1.17,4.48,3.27l.05.19c-1.36,2.89-1.94,4.65-1.75,5.3l.93,3.69.38.72-.23.5.47.28.22.74-.1.24.21.14.06.2.13,1,.33.54.08.82,1.57,4.72.06.19c.08.26-.13.47-.62.61l.12.39c.62-.19,1.1.29,1.43,1.43q2.18,3.73,5,2.88l1-.28q3-.9,2.88-6.48c-.26-.62-.56-.89-.87-.79l.05-1.28-.79-1.2,0-.84-1.46-4.16.14-.26.19,0-.66-.82-.33-1.8-.65-1.49-.43-2.15q-.26-.86-4.62-3.61c1.44-3.07,2.09-4.87,1.93-5.39l-.25-.13-.06-.2.36-.94a2.26,2.26,0,0,1-1-1.15l-.67-3-.88-2.23,0-.64-.53-1.07-.52-1.74,0-.84a19.43,19.43,0,0,0-3.17-4.24l-.19.06-.14.25a6.54,6.54,0,0,0-2.6.35l-.19.06a4.33,4.33,0,0,0-3.16,3.43ZM133,70.34l.06.19,1-.08.19-.06-.06-.19-1,.09Zm.88,23.33.19-.06.28-.5-.2.06Zm.4,19.46.5.28.2-.06-.12-.39Zm.53-20.58.12.39.72-.43-.06-.19Zm0-22.33.12.39,1-.1.39-.12-.06-.19ZM139,112.8c.08.26.31.33.7.21l.38-.11,0-.2Zm1.72.12c.08.26.31.33.7.21l.19-.06,0-.19Zm6-28.09.19-.06.28-.5-.2,0Zm1-1.33,0,.16.25.14.06.19-.14.25.12.39.19-.06a.53.53,0,0,1,.41-.75l.64,0-1.19-.45Zm1.11-.54.05.2.58-.18c-.07-.25.08-.44.47-.56l-.06-.19-.19.06Zm.68-1.25.11.38.2,0,.56-.81-.16,0Zm1.65,37.66,0,.19.35-.1.72-.43-.06-.19-.39.11Zm.44-38.29.06.2.77-.23-.06-.2Zm.91-.48.06.19.39-.11.67-.42-.05-.19-.35.1Zm.52,32.6.94.31.38-.12-.05-.19-1.08-.06Zm1.26-28.74.06.19.8,0,.19-.06-.06-.2-.79,0Zm.26,28.88.11.38.2-.06.27-.5Zm3.41.24.06.2.77-.23-.06-.2Z"/><path class="cls-2" d="M180.14,55.71l1.27.09.18-.22.24,0,1,.11.83-.28c3.12.41,4.7.84,4.74,1.27l.18-.26.4,0c.59,0,2,.59,4.16,1.94l.2,0c0-.35.23-.58.79-.69,0-.29.23-.46.77-.51-.06-.65.49-1.54,1.66-2.67l.23.22-.07,1.47.27.79-.18.22.34,1.47.13,1.45a8.28,8.28,0,0,0-3.14-.16l.26.62,2.94.14-.11,1.07.55,3.72.08,3.12.31,1.23,0,2.52.06.6-.18.26.25.59-.1,1.07.4,0,0,.4-.37.44-.22-.18-.24,0-1.23.32-.22-.19-.2,0-.83.28-.4,0-.22-.18-.18.21-.2,0-.22-.18-.23.22-.4,0-.44-.36-.07-.81.12-.87-.22-.18,0-.2.18-.26,0-.2-.22-.18,0-.2.19-.22,0-.21-.28-.82.18-.22,0-.2-.31-1.23.07-1.47a18.65,18.65,0,0,0-3.12-4.35c0-.27-.25-.38-.68-.34,0-.27-.31-.38-.85-.33-.05-.56-.49-.81-1.32-.73l0-.4-.44,0,0,.2-2.3-.24-.18.26-.24,0-.83-.16-.82.31,0-.24q-3.21,1.44-3,3.85l-.27,1.94.25.58L178.61,71l.26.59-.14.66.37,1.84,0,.4-.35.68,0,.2c.41,0,.62.08.64.35l0,.44v2.27l.22.19,0,.24-.18.22,0,.2.41,2.28,0,.4-.19.22,0,.2.2,0,.41-.44,4,0c1.91-.44,2.83-1,2.77-1.71a4.25,4.25,0,0,0-2.4-3.12l0-.24.24,0a5,5,0,0,1,2.35.84q1.34-.12,3.32,3.88l-.4.48.54,1c-.16,1.18-.39,1.84-.67,2a5.08,5.08,0,0,1,1.09,2.62c.17,1.83-1.3,3.42-4.4,4.79l-.64.06,0-.4c.7-.07,1.26-.89,1.69-2.47a3.35,3.35,0,0,0-2-.88l-.77.52L184.9,89l0-.24-2.25.65,0-.2-.19.22-.44,0-.22-.18-1,.29,0,.41v2.11l.27.79-.21,2.13.41,0v.2l.56,8.32.42,2.28-.11,1.06.28.79,0,1.67c.21,2.36,1.12,3.82,2.71,4.38l1.29.29.6-.06a6.94,6.94,0,0,0,3.41-1.77l.21,0,0,.2c.11,1.23-1.42,2.77-4.58,4.6l0-.2-.22.23h-.2l-.85-.33,0,.21.26.58-.2,0-2.27.45-2.1.2a4.71,4.71,0,0,1-2.83-1.21,5.28,5.28,0,0,1-3,1.94l-.44,0q-2.22.19-6.21-1.75L165.88,115l0-.2.24,0,2.6.82c1.93-.18,2.83-1,2.69-2.57l.05-1.67-.3-1,.18-.21,0-.21-.26-.62.15-.63-.63-2.42.31-1.08-.85-4.75-.08-3.13-.26-.62.2,0-.22-.18,0-.41.36-.43-.54-1.46.05-1.67c-.17-1.93-1.45-3.56-3.82-4.89l0-.2,3-4.25-.39-2-.16-1.69.09-1.27-.28-.78.07-1.47-.22-.23.36-.43,0-.21-.46-.6,0-.2a5.3,5.3,0,0,1,.2-2.3l-.28-.83q.6,0,.57-.45c-.54,0-.83-.14-.87-.57l.19-.22,0-.2-.22-.19,0-.2.18-.26,0-.2-.3-1,.13-.82-.63-2.06.18-.63-.3-.62.22-.22-.26-.18c-.7-.31-1.07-.63-1.1-1l-1.25.11q-1.44.14-3.15,2.4l-.22-.18q1.51-4.77,4.66-6.32a14.34,14.34,0,0,1,3.69-.95c.75-.06,2,.58,3.71,1.94,1.38-1.51,2.5-2.3,3.36-2.38l.22.18C176.24,56.61,177.53,56.14,180.14,55.71Zm-11.83,3.4,0,.2.44.37,1.08.35v-.2l-1.33-.74Zm1.52,9.49-.37.89.2,0,1-.94Zm-.3-.58,0,.2.64-.06,0-.4Zm.51-8.21c0,.27.32.37.88.32l.22.19,0,.2-.19.22.65-.06.14-.63Zm1,8.27.6,0-.06-.65Zm.74,47.05,0,.2,1-.09-.06-.65-.2,0Zm.41-48.21,0,.4c.64-.06,1.55-.76,2.73-2.12l0-.2A8,8,0,0,1,172.19,66.92Zm.34,36,.7.58,0-.24-.48-.36Zm1.32.73,0,.4.44,0c0,.43.2.63.47.61l.18-.26,0-.2Zm1.23,11.18.48.36.79-.28,0-.2Zm2.57-52.19,0,.2.46.61-2,.59.22.19,0,.44-.2,0-.22-.18-.79.68.4,0q1.23-.32,1.2-.72l-.23-.22.59-.26.66.14c0-.26.17-.42.57-.46l1.17-1,0-.2-.22-.18,0-.2.19-.22-.21,0Zm-2.33,22.43,0,.21,1,.1.24,0,.37-.44-1.07-.1Zm.25-24.75c0,.29.24.42.64.38l.2,0,0-.2Zm.13,44.82,0,.41c.82.11,1.25.42,1.3.93l.44,0,0-.2-1.56-1.11Zm1.11-44.49,0,.2,1.07.1h.2l0-.21-.82-.12Zm.36,24.25h.2l.79-.73-.2,0C177.42,84.45,177.15,84.69,177.17,84.9Zm.69,23.42,0,.2,1,1.53.2,0-.09-1c-.3,0-.47-.23-.52-.77Zm.91-1.59,0,.44.6,0-.18.22,0,.2-.88-.32h-.21l0,.2c1.29.13,1.95.48,2,1l.8-.07Zm-.23-22.81.41,0,.59-.67,0-.2C178.92,83.35,178.6,83.65,178.54,83.92Zm1.17-21.87,0,.4.61-.06-.06-.6Zm2.6-1.3-.87-.12-1.39.78,0,.2,1.47.07.33-.89.21.19.45,0q1.38-.87,1.35-1.14h-.2Zm-1.91,50,.06.64.4,0-.26-.62Zm.73,1.39,0,.44.22.19.21,0-.26-.63Zm1.5,2.58,0,.2c.32,0,.92.49,1.8,1.55l.25,0c-.9-1.19-1.52-1.77-1.87-1.74Zm1.62-55.42.2,0,.41-.45-.21,0Zm1.67,0c0,.29-.16.46-.57.49l0,.21,1.25-.12Zm.88,55.19-.31,1.09.22.18.2,0,.39-.64L187,115l.22-.22-.26-.22ZM187.2,57l-.39.65.45,0,.36-.44,0-.2Zm.85,2.65-.14.62,1-.1Zm1.49.27,0,.2,4.41.24,0-.44c-2.34.21-3.53.12-3.56-.28Z"/><path class="cls-2" d="M224.47,56.15l1.23.32.22-.18.24,0,1,.3.86-.12q4.49,1.5,4.43,2.14l.22-.22.4,0q.88.09,3.73,2.68l.2,0c0-.35.33-.52.9-.52,0-.29.31-.42.85-.36.06-.65.77-1.42,2.13-2.32l.18.26-.34,1.43.12.83-.22.18.06,1.51-.14,1.45a8.4,8.4,0,0,0-3.06-.74l.14.66,2.86.68-.3,1L240,69l-.5,3.08.08,1.27-.44,2.48-.06.6-.22.22.14.63-.3,1,.4,0,0,.41-.44.36-.18-.22-.24,0-1.27.08-.18-.23h-.21l-.86.11-.4,0-.18-.23-.23.19-.2,0-.18-.22-.26.17-.4,0-.37-.45.08-.8.29-.83-.19-.22,0-.2.23-.22,0-.2-.18-.22v-.21l.23-.18,0-.2-.12-.86.22-.19,0-.2L234,72.4l.34-1.43a18.46,18.46,0,0,0-2.25-4.85c0-.27-.18-.43-.61-.47,0-.27-.23-.43-.77-.48.06-.56-.33-.89-1.16-1l0-.4-.44,0,0,.2-2.22-.66-.22.22-.24,0-.78-.32-.87.16,0-.25c-2.27.54-3.49,1.62-3.64,3.23l-.63,1.85.14.62-.6,2,.14.63-.26.62L220,74l0,.41-.47.6,0,.2c.41,0,.59.2.57.46l0,.45-.42,2.23.18.22,0,.24-.22.19,0,.2,0,2.31,0,.4-.22.19,0,.2.2,0,.49-.36,3.9.78c2-.08,3-.47,3-1.17a4.22,4.22,0,0,0-1.77-3.5l0-.24.24,0a4.93,4.93,0,0,1,2.16,1.27c.88.08,1.73,1.56,2.53,4.43l-.48.4.34,1c-.38,1.12-.72,1.73-1,1.81a5,5,0,0,1,.59,2.78c-.18,1.82-1.92,3.12-5.21,3.88l-.65-.06,0-.41c.7.07,1.4-.63,2.11-2.11a3.31,3.31,0,0,0-1.79-1.23l-.84.37-.19-.22,0-.24-2.34.22,0-.21-.22.19-.45,0-.18-.22-1.06.1,0,.41L218.26,92l.13.82-.61,2.06.4,0,0,.2-1,8.27,0,2.32-.31,1,.13.83-.36,1.63c-.23,2.36.38,4,1.85,4.81l1.21.52.6.06a7,7,0,0,0,3.68-1.1l.2,0,0,.2q-.18,1.85-5.35,3.66l0-.2-.26.18-.2,0-.77-.48,0,.2.14.63-.2,0-2.32,0-2.09-.21a4.74,4.74,0,0,1-2.56-1.71,5.25,5.25,0,0,1-3.26,1.35l-.44,0c-1.47-.14-3.4-1.1-5.77-2.88l-1.67-2.48,0-.2.24,0,2.39,1.28c1.94.19,3-.48,3.12-2l.36-1.63-.1-1.07.23-.18,0-.2-.14-.66.26-.59L205.6,104l.51-1,.06-4.83.5-3.08-.14-.66.2,0-.18-.23,0-.4.44-.36-.26-1.53.37-1.63c.18-1.93-.76-3.77-2.84-5.52l0-.2L208,81V78.9l.16-1.69.32-1.23-.12-.83.34-1.43-.17-.26.44-.36,0-.2-.34-.69,0-.2a5.11,5.11,0,0,1,.62-2.21l-.12-.87c.4,0,.62-.07.64-.34-.54,0-.78-.3-.74-.72l.22-.19,0-.2-.18-.22,0-.2.22-.22,0-.2-.1-1.07.28-.78-.24-2.14.3-.58-.18-.67.26-.18-.22-.22c-.63-.44-.93-.82-.9-1.15l-1.25-.12c-1-.09-2.15.5-3.55,1.77l-.18-.22Q206,56.89,209.41,56a13.6,13.6,0,0,1,3.8-.24c.76.07,1.85.93,3.29,2.59,1.63-1.22,2.88-1.79,3.74-1.71l.18.22Q220.5,56,224.47,56.15ZM205.14,113l0,.2,1,.11.06-.65-.2,0Zm3-11.85.58.7,0-.24-.41-.44Zm.28,12.17.41.45.82-.12,0-.2Zm.89-11.21,0,.4.44.05c0,.43.07.66.34.68l.23-.22v-.2Zm1.53,1.82,0,.4c.79.27,1.15.65,1.11,1.16l.44,0,0-.2-1.33-1.39Zm1.07-37-.53.8.2,0,1.13-.74Zm-.19-.63,0,.2.65.07,0-.41Zm.47-9,0,.2.36.44,1,.54,0-.2-1.17-1Zm.18,50.12,0,.2.68,1.69.21,0,.09-1c-.29,0-.41-.31-.36-.84Zm1.19-1.39-.05.44.61.06-.22.18,0,.2-.81-.48-.2,0,0,.2c1.24.37,1.83.83,1.78,1.39l.8.08Zm-.37-39.41.61.06.06-.65Zm.57-8.32c0,.27.24.43.8.49l.19.22,0,.2-.23.18.65.06.26-.58Zm.46,25.81,0,.2,1,.3.24,0,.44-.36-1-.3Zm.18,26.19-.06.64.4,0-.14-.66Zm.14-44.61,0,.4c.65.07,1.67-.46,3.08-1.56l0-.21A8,8,0,0,1,214.56,65.67Zm.33,46.12,0,.44.18.22.21,0-.14-.66Zm1,2.81,0,.21c.33,0,.82.64,1.49,1.85l.24,0c-.66-1.34-1.16-2-1.51-2.06Zm.22-30.33.2,0,.91-.56-.2,0C216.42,83.87,216.11,84.06,216.09,84.27Zm1.53-.71.41,0,.7-.54,0-.2C218.1,83.07,217.73,83.31,217.62,83.56Zm3.1-21.07v.2l.33.69-2.09.2.18.22,0,.44-.2,0-.18-.22-.91.52.41,0c.84,0,1.28-.21,1.3-.48l-.17-.26.62-.14.62.26c0-.27.24-.38.65-.34l1.33-.73,0-.2-.19-.22,0-.2.22-.18-.2,0Zm-1.6-2.68c0,.3.15.47.55.51l.21,0,0-.2Zm.88,55.4-.5,1,.18.23.2,0,.5-.57-.22-.22.26-.18-.22-.26Zm.28-54.83,0,.2,1,.3.2,0,0-.2-.79-.28Zm2.58,1.91,0,.4.6.06.06-.6Zm2.8-.78-.83-.29-1.51.51,0,.2,1.43.34.48-.81.18.22.45,0c1-.39,1.53-.68,1.54-.87l-.2,0Zm2.17-1,.2,0,.48-.36-.2,0Zm1.63.36c0,.29-.24.42-.65.38l0,.21,1.25.12Zm1.71-2.11-.5.56.44,0,.44-.36,0-.2Zm.34,2.76-.26.58,1.05.1Zm1.41.54,0,.2,4.29,1.06,0-.44c-2.34-.22-3.48-.54-3.44-.94Z"/><path class="cls-2" d="M281.38,68.79l.19.06q-.1.38.51.57L280.68,75a3,3,0,0,1-1.89,2l.26-.17.19,0,.17.31.19,0,.18-.62.28.5-.66,1.54-1.23,4.95-1,3.34c-.31,1.06-.73,1.51-1.28,1.35l-1.45-.63-.88,0-1.49-.65-1.65-.27.32-1.84.88-2.27,0-.87.95-1q-.57-.37-.27-1.38L273,78q.53-1.79-3.43-5l-1.11-.53q-4-1.17-5.53.07l-.2-.06q-2.67,7.74-3.38,8.58c.31.09.38.62.21,1.58l-1,2,.27.51-.25.13.14.25-.05.2-.54,1.11c-.46,1.58-.25,2.49.63,2.75l1.76-.12,2.06,1c1.27,0,2.16-.87,2.67-2.63a3,3,0,0,0-.73-2.57l.11-.35.19.05q3.62,2.19,2.9,4.64v.85l-.06.19a5.7,5.7,0,0,1-2.36,3.61c-.18.62,0,1,.51,1.16l-.22,2.76q-2.12,3.81-5.26,2.89l-1.07-.1.06-.2c1.57-.86,2.47-1.67,2.68-2.42.1-.31-.57-.78-2-1.42l-.59-.17L258,96.6l-.14-.25.05-.16c-1.72-.38-2.67-.25-2.85.4l.15.92-1.39,4,.14.25-.06.2-.85,1.48-.18.62.39.11-.33,1.13-.74,1.09.14.25-.06.19-.59,1.31-.44,2.23-.19-.06.07,1.92-.51.31,0,.64-.25.14-.05.19.11,1-.5.27a3.08,3.08,0,0,1,.17,2.16l2.56,1.63c2.28.66,5.16.23,8.64-1.31l.82-2.08L262,115l.06-.19.87-2.27-.12-.29.05-.2.73-1.05.06-1.66.51-.28-.21-.74.16-.54.25-.13.05-.2,2,1,.73-.21,1.92.78,1.17.33.14.26.19,0-.73,1-.05.2-.08,1.7-.16.55-.85,1.47.06,1.24-.18.63a1.32,1.32,0,0,1-1.43.42l-.12.43,1.19-.33-.22,1.46-.21.73c-.5,1.41-3.4,3.32-8.72,5.76q-5.58.94-7,.54l-.12-.29-1,0-.82-.24a11.65,11.65,0,0,1-7.22-5.3,4.18,4.18,0,0,1-2.54.77l-1-.28c-1.92-.56-3.82-2.25-5.72-5.08l-.28-.5-.38-1,.25-.13a6.76,6.76,0,0,0,2.21,2l1,.29a2.83,2.83,0,0,0,2.47-2.1l0-.8.54-.26-.13-1.14.57-1.26.27-1.65.54-.26-.44-.8.93-2.47,0-.6.71-1.73.24-.82.25-.13-.17-.86,1.11-3.08.24-.82.14-1.22.62-.66c-.26-.08-.34-.31-.22-.7l.6-1.34-.28-.5.39.11,0-.16c-.73-.21-1.16-1.12-1.31-2.74l.55-.3-.17-.26-1.4-.41,0-.19,4-2.83.58-2,.53-1.11,0-.64,1.06-2.22c-.25-.07-.33-.31-.2-.73l1-2.66-.13-.25.05-.2.84-1.44-.15-.92.6-1.35q1.4-5.33,1.15-5.39L249.1,64.9l-2.35.83-.19,0,.06-.2c.49-1.68,2.93-2.81,7.34-3.37l1.83.53a4.22,4.22,0,0,1,2.59,2.65q5.1-1.29,6.65-.84l2.7,1,2.25.24c-.1.33.68.79,2.35,1.36L277.12,71Q278.25,71.29,281.38,68.79ZM246,91.84l-.07.23.59.17.12-.43Zm.91-3.11-.25.14-.06.19.19.06.64,0,.06-.19Zm1.38,34,0,.16,1.1-.31.06-.2-.2,0Zm.81-32.12.2.06.91-.11.06-.2-.19,0C249.44,90.33,249.12,90.44,249.07,90.59Zm2.25-2.5a1.45,1.45,0,0,1-1.63.37l-.11.39,2.23-.41.05-.2Zm-1.46,34.2.19.06.51-.28-.2,0Zm3-.85.19,0,.54-.26-.23-.07Zm.5-33.81-.11.38h.67l.12-.39Zm.9-22-.35.49-.06.19.19.06.54-.27.05-.15.15.21.74.22,0-.16-.87-.46-.29.12Zm0,21.88.27.5.74.21-.24-.49Zm1.42-.69-.06.2.62.18.12-.39Zm.58,33.12,0,.19.19.06,1.32,0,.11-.39Zm.37-34.06-.06.19.29.46.49-.23-.53-.36Zm1.59,34,.19.05.52-.31-.2-.06Zm1.84-.52.19.06L261,119l-.19,0Zm2.34-54.17q-.1.39.51.57l.2.06.05-.2Zm0,53.54.19.06.46-.29-.15,0Zm1.95-.9-.12.38.64,0,.06-.19ZM264.83,92l-.05.2,1.09-.73.06-.2Zm1.2,25.25-.5.28-.06.19.39.11.56-.46Zm-.42-49,.28.5.19.06-.27-.51Zm3.08,2.58-.05.2,1.09.73.15,0,.06-.19-1.05-.73Zm3.56,4,.7,1.09.11-.39-.69-.67Zm.95,5.41.19.06.51-.27-.2-.06Zm3,1.35c-.07.26.42.74,1.48,1.44l.19.06.06-.2Zm2.1-4.32-.17.58.35.11.17-.59Z"/><path class="cls-2" d="M319.89,87.22l.18.09c-.13.24,0,.46.39.65l-2.38,5.19a3,3,0,0,1-2.23,1.64l.29-.13.18.09.1.33.18.09.29-.58.19.54-.93,1.39L314,101.16l-1.56,3.11c-.5,1-1,1.35-1.51,1.1l-1.31-.89-.85-.2-1.36-.91-1.57-.57.66-1.75L307.8,99l.2-.85,1.11-.75c-.33-.32-.33-.79,0-1.41l.84-1.21q.84-1.66-2.46-5.55l-1-.72c-2.51-1.26-4.33-1.58-5.46-.94l-.18-.09q-4.05,7.11-4.89,7.81c.29.15.26.68-.08,1.59l-1.36,1.81.18.54-.28.09.09.27-.09.18-.72,1c-.74,1.46-.71,2.4.11,2.82l1.76.2,1.84,1.38c1.24.24,2.27-.47,3.1-2.1a3,3,0,0,0-.25-2.66l.17-.33.18.09q3.15,2.82,2,5.09l-.15.83-.09.18a5.72,5.72,0,0,1-3,3.12c-.29.58-.19,1,.29,1.24l-.72,2.67c-1.85,2.24-3.75,2.86-5.7,1.88l-1-.29.09-.18c1.7-.56,2.73-1.19,3.08-1.89.15-.29-.42-.88-1.69-1.76l-.54-.27-1.36-.46-.09-.27.07-.15c-1.61-.69-2.57-.74-2.87-.13l0,.94-2.1,3.7.09.27-.09.18-1.1,1.3-.3.58.36.18-.52,1-.93.93.09.28-.09.18-.82,1.17-.84,2.11-.18-.09-.28,1.9-.56.21-.09.64-.27.09-.09.18-.08,1-.54.18a3.14,3.14,0,0,1-.22,2.15l2.21,2.07c2.12,1.06,5,1.16,8.74.28l1.18-1.9-.09-.27.09-.18,1.28-2.08-.08-.3.1-.18.9-.9.37-1.63.54-.18-.07-.76.26-.51.27-.09.09-.18,1.8,1.37.77-.07,1.75,1.11,1.08.54.09.27.18.1-.91.9-.09.18-.38,1.66-.26.51L299.05,130l-.16,1.23-.29.58a1.34,1.34,0,0,1-1.49.16l-.2.4,1.23-.11-.47,1.39-.35.69q-1.11,1.94-9.62,4.08c-3.77-.07-6.09-.31-7-.75l-.07-.31-1-.22-.76-.38a11.67,11.67,0,0,1-6.12-6.53,4.38,4.38,0,0,1-2.65.3l-.9-.46q-2.67-1.35-4.7-6l-.18-.54-.2-1,.28-.09a6.5,6.5,0,0,0,1.82,2.32l.94.47a2.81,2.81,0,0,0,2.8-1.62l.17-.77.58-.16.08-1.14.79-1.14.57-1.57.58-.16-.29-.87,1.37-2.26.07-.6,1-1.57.38-.75.27-.09v-.87l1.65-2.84.39-.75.36-1.18.73-.54q-.36-.18-.09-.72l.84-1.21-.18-.55.36.19.07-.15c-.67-.34-.94-1.32-.79-2.93l.6-.2-.12-.29-1.3-.65.09-.18,4.47-2,.93-1.84.73-1,.09-.63,1.45-2c-.24-.13-.26-.38-.07-.76l1.46-2.44-.09-.27.09-.18,1.09-1.27,0-.94.84-1.21c1.55-3.32,2.26-5,2.11-5.09l-2.47-2.38-2.46.39-.18-.09.09-.18q1.19-2.34,7.84-2l1.7.85a4.27,4.27,0,0,1,2.07,3.09c3.49-.23,5.72-.11,6.69.38l2.47,1.47,2.17.64c-.16.32.53.9,2.05,1.76l4,4.74Q316.35,89.11,319.89,87.22Zm-42.39,47-.08.15,1.14-.11.09-.18-.18-.09Zm1.64-.12.18.09.55-.18-.18-.09Zm1.73-30.65-.11.21.54.28.2-.4Zm1.46-2.89-.27.08-.1.19.18.09.64.09.09-.18Zm-.09,33.24.18.09.58-.16-.22-.11Zm1.91-31,.18.09.92.06.09-.19-.18-.09C284.56,102.58,284.22,102.62,284.15,102.77Zm2.66-2.06a1.41,1.41,0,0,1-1.66.07l-.18.36h2.26l.09-.18Zm-.92,32.2-.09.18.18.09,1.3.2.19-.36Zm1.94.29.18.1.56-.22-.18-.09Zm1.06-32.57-.18.36.67.11.18-.36Zm.84,32.4.18.09.81-.27-.18-.09Zm.1-32.38.18.54.69.35-.14-.52Zm1.52-.41-.09.18.58.29.18-.36Zm.78,32.6.19.09.5-.2-.14-.07Zm.33-33.36-.09.18.2.51.52-.14-.45-.46Zm1.33-20.34-.43.41-.09.18.18.09.58-.16.07-.14.11.23.68.35L295,80l-.78-.62-.31.07Zm.43,53.16-.19.36.64.1.09-.19Zm1.73-.21-.54.18-.09.18.36.18.63-.36Zm3.43-25-.09.18,1.21-.52.1-.18Zm2.53-26.85c-.12.24,0,.45.4.65l.18.09.09-.18Zm2.58,3.6.17.55.18.09-.17-.54ZM307,86.91l-.09.18.94.92.15.07.09-.18-.9-.9ZM309.76,97l.18.09.55-.18-.19-.09Zm.06-5.5.48,1.2.18-.36-.56-.78Zm2.67,7.37c-.13.24.27.81,1.18,1.69l.19.09.09-.18ZM315.34,95l-.27.54.32.17.27-.54Z"/><path class="cls-3" d="M49.43,145.71A7.25,7.25,0,1,1,42.19,153,7.26,7.26,0,0,1,49.43,145.71Z"/><path class="cls-3" d="M350.56,145.71a7.25,7.25,0,1,1-7.24,7.25A7.25,7.25,0,0,1,350.56,145.71Z"/><path class="cls-4" d="M111.05,192.13H25a1.39,1.39,0,1,1,0-2.78h86.09a1.39,1.39,0,0,1,0,2.78Z"/><path class="cls-4" d="M375,192.13H289a1.39,1.39,0,1,1,0-2.78H375a1.39,1.39,0,1,1,0,2.78Z"/><path class="cls-4" d="M111.05,233.55H25a1.39,1.39,0,0,1,0-2.78h86.09a1.39,1.39,0,1,1,0,2.78Z"/><path class="cls-4" d="M375,233.55H289a1.39,1.39,0,1,1,0-2.78H375a1.39,1.39,0,1,1,0,2.78Z"/><path class="cls-4" d="M394.13,269.92H5.87a1.39,1.39,0,1,1,0-2.78H394.13a1.39,1.39,0,1,1,0,2.78Z"/><polygon class="cls-5" points="194.62 329.12 198.33 336.77 206.74 338.04 200.62 343.92 202 352.33 194.52 348.33 186.97 352.23 188.43 343.87 182.39 337.92 190.82 336.71 194.62 329.12"/><polygon class="cls-5" points="169.48 329.64 168.15 335.53 162.56 337.77 167.73 340.86 168.13 346.88 172.68 342.9 178.53 344.38 176.14 338.83 179.33 333.74 173.34 334.28 169.48 329.64"/><polygon class="cls-5" points="153.92 332.69 154 336.68 150.75 339.01 154.57 340.16 155.8 343.95 158.06 340.68 162.04 340.71 159.63 337.52 160.9 333.74 157.12 335.05 153.92 332.69"/><polygon class="cls-5" points="219.65 329.94 220.9 335.84 226.49 338.15 221.26 341.17 220.79 347.16 216.29 343.14 210.43 344.57 212.87 339.05 209.74 333.91 215.73 334.5 219.65 329.94"/><polygon class="cls-5" points="235.07 333.17 234.94 337.15 238.16 339.5 234.32 340.63 233.08 344.42 230.82 341.11 226.85 341.06 229.3 337.92 228.09 334.13 231.84 335.48 235.07 333.17"/><path class="cls-5" d="M260.28,332.12a7.4,7.4,0,0,1-3-.67,8.49,8.49,0,0,1-5-8.2c.05-5.29,3.67-10.21,9.23-12.51,9.89-4.11,34.36,3.23,47.45,8.81,8.19,3.5,17,4,22.55,1.31a10.37,10.37,0,0,0,5.77-6.94c1.46-5.55-1.12-9.39-4-11.14s-6.13-1.58-8.2.31a6.44,6.44,0,0,0-2.1,6.56,5,5,0,0,0,3.94,3.63,3.62,3.62,0,0,0,4.22-2.12,2.29,2.29,0,0,0-.07-2.51.88.88,0,0,1,1.07-1.4c1.17.9,1.43,2.8.62,4.63A5.38,5.38,0,0,1,326.6,315a6.79,6.79,0,0,1-5.32-4.87,8.16,8.16,0,0,1,2.6-8.34c2.65-2.43,6.78-2.64,10.3-.53s6.51,6.6,4.81,13.1a12.28,12.28,0,0,1-6.7,8.07c-6,3-15.25,2.48-24-1.26-12.83-5.48-36.68-12.71-46.09-8.81-5.57,2.31-8.1,7.14-8.14,10.9a6.71,6.71,0,0,0,4,6.57,4.72,4.72,0,0,0,6.17-1.72c1.17-1.76,1.27-3.92.22-4.91a4.09,4.09,0,0,0-5.07-.5.88.88,0,0,1-1-1.46,5.81,5.81,0,0,1,7.27.68c1.68,1.59,1.69,4.67,0,7.16A6.46,6.46,0,0,1,260.28,332.12Z"/><path class="cls-5" d="M128.63,332.12a7.36,7.36,0,0,0,3-.67,8.5,8.5,0,0,0,5-8.2c0-5.29-3.68-10.21-9.23-12.51C117.5,306.63,93,314,80,319.55c-8.19,3.5-17.05,4-22.56,1.31a10.43,10.43,0,0,1-5.77-6.94c-1.45-5.55,1.12-9.39,4-11.14s6.13-1.58,8.19.31a6.45,6.45,0,0,1,2.11,6.56A5,5,0,0,1,62,313.28a3.63,3.63,0,0,1-4.23-2.12,2.31,2.31,0,0,1,.07-2.51.88.88,0,0,0,.17-1.23.89.89,0,0,0-1.24-.17c-1.17.9-1.42,2.8-.61,4.63A5.37,5.37,0,0,0,62.31,315a6.82,6.82,0,0,0,5.32-4.87A8.14,8.14,0,0,0,65,301.8c-2.64-2.43-6.78-2.64-10.29-.53s-6.51,6.6-4.81,13.1a12.26,12.26,0,0,0,6.69,8.07c6,3,15.26,2.48,24-1.26,12.83-5.48,36.68-12.71,46.08-8.81,5.58,2.31,8.11,7.14,8.15,10.9a6.71,6.71,0,0,1-4,6.57,4.73,4.73,0,0,1-6.17-1.72c-1.16-1.76-1.26-3.92-.21-4.91a4.09,4.09,0,0,1,5.07-.5.88.88,0,0,0,1.22-.24.87.87,0,0,0-.24-1.22,5.81,5.81,0,0,0-7.27.68c-1.67,1.59-1.69,4.67,0,7.16A6.44,6.44,0,0,0,128.63,332.12Z"/></svg>