<svg id="Слой_1" data-name="Слой 1" xmlns="http://www.w3.org/2000/svg" viewBox="0 0 400 400"><defs><style>.cls-1{fill:#231e21;}.cls-2{fill:#edc17b;}</style></defs><path class="cls-1" d="M13.05,240.39c0-.88,0-1.61-.08-2.17a9.68,9.68,0,0,0-.21-1.44c-.19-1.12-.77-1.69-1.75-1.69a1.44,1.44,0,0,0-1.47,1.33,9.09,9.09,0,0,0-.43,3.22v33.05a8.42,8.42,0,0,0,.43,3.22c.19.93.68,1.39,1.47,1.39,1,0,1.56-.58,1.75-1.75a6,6,0,0,0,.21-1.32c0-.6.08-1.36.08-2.29v-9.88l5.72-2.57V272.9q0,5.73-1.9,7.62A8,8,0,0,1,11,282.63a9,9,0,0,1-3-.5,6.58,6.58,0,0,1-2.54-1.61,6,6,0,0,1-1.68-3.07c-.1-.48-.19-1.09-.29-1.83a21.37,21.37,0,0,1-.14-2.57V239.42a20,20,0,0,1,.14-2.52c.1-.7.19-1.33.29-1.88a8.25,8.25,0,0,1,.62-1.77,5.17,5.17,0,0,1,1.06-1.45,8.36,8.36,0,0,1,5.51-1.89A8.54,8.54,0,0,1,16.87,232a5.84,5.84,0,0,1,1.44,2.75,19.08,19.08,0,0,1,.46,4.65v9.09a8.92,8.92,0,0,0-5.72,2.22Z"/><path class="cls-1" d="M54.52,277.55a8.09,8.09,0,0,1-1.27,2.9,7.78,7.78,0,0,1-5.72,2.18,8.05,8.05,0,0,1-5.8-2.18,6.65,6.65,0,0,1-1.68-3c-.09-.53-.19-1.16-.28-1.9a19.59,19.59,0,0,1-.14-2.57V239.35a17.23,17.23,0,0,1,.14-2.38c.09-.7.19-1.28.28-1.73A7.72,7.72,0,0,1,41.73,232a8.22,8.22,0,0,1,5.8-2.11,7.84,7.84,0,0,1,5.72,2.32,4.76,4.76,0,0,1,1.06,1.59,8.33,8.33,0,0,1,.55,2.31,9.47,9.47,0,0,1,.15,2v34.73A18.77,18.77,0,0,1,54.52,277.55Zm-5.31-39.36a8.92,8.92,0,0,0-.21-1.41c-.24-1-.73-1.54-1.47-1.54a1.72,1.72,0,0,0-1.75,1.39c-.05.41-.1.85-.15,1.34s-.07,1.14-.07,1.95v32.7c0,.83,0,1.49.07,2s.1.9.15,1.24a1.7,1.7,0,0,0,1.75,1.32q1.19,0,1.47-1.47a6.34,6.34,0,0,0,.21-1.27c0-.56.07-1.25.07-2.09v-32C49.28,239.48,49.26,238.77,49.21,238.19Z"/><path class="cls-1" d="M77.18,279.41a10.32,10.32,0,0,0,.43-3.72V237a19.73,19.73,0,0,0-.11-2.4,6.07,6.07,0,0,0-.32-1.5,3,3,0,0,0-.48-1.2,9.53,9.53,0,0,0-1.06-1.31H93.53v9.84c-.55-1.81-1.24-3-2.08-3.43a4.76,4.76,0,0,0-2.93-.68h-4.9v15.52H87c.74,0,1.34,0,1.81,0a6.35,6.35,0,0,0,1.2-.18,5.41,5.41,0,0,0,1.23-1.09,8.24,8.24,0,0,0,1.13-1.78v12.38q-1.55-3-3.9-3H83.62v17.52a19.54,19.54,0,0,0,.22,3.72,7.36,7.36,0,0,0,1.68,2.51H75.64A4.45,4.45,0,0,0,77.18,279.41Z"/><path class="cls-1" d="M116.53,279.41a10.32,10.32,0,0,0,.43-3.72V237a22,22,0,0,0-.11-2.4,6.56,6.56,0,0,0-.32-1.5,3,3,0,0,0-.48-1.2,10.34,10.34,0,0,0-1.06-1.31h17.89v9.84c-.55-1.81-1.24-3-2.08-3.43a4.76,4.76,0,0,0-2.93-.68H123v15.52h3.36c.74,0,1.34,0,1.81,0a6.35,6.35,0,0,0,1.2-.18,5.41,5.41,0,0,0,1.23-1.09,8.24,8.24,0,0,0,1.13-1.78v12.38q-1.55-3-3.9-3H123v17.52a20.76,20.76,0,0,0,.21,3.72,7.36,7.36,0,0,0,1.68,2.51H115A4.45,4.45,0,0,0,116.53,279.41Z"/><path class="cls-1" d="M171.69,240.17a6,6,0,0,0-1.67-2.88,4.22,4.22,0,0,0-2.88-.94H162v15.52h2.72c.57,0,1.07,0,1.52,0a1.82,1.82,0,0,0,1-.33,2.76,2.76,0,0,0,1.27-1,15,15,0,0,0,1-1.7v12.38a13.92,13.92,0,0,0-.88-1.52,3.05,3.05,0,0,0-.95-.95,4.87,4.87,0,0,0-2.36-.53H162v17.88h6.58a2.63,2.63,0,0,0,2-.7,5.68,5.68,0,0,0,1.2-2.16v8.73H154.34a5.85,5.85,0,0,0,.91-1.16,8.07,8.07,0,0,0,.56-1.2,12.65,12.65,0,0,0,.35-3.51v-39.7a12.14,12.14,0,0,0-.35-3.37c-.15-.33-.33-.69-.56-1.09a10,10,0,0,0-.91-1.27h17.35Z"/><path class="cls-1" d="M209,240.17a6,6,0,0,0-1.66-2.88,4.25,4.25,0,0,0-2.88-.94H199.3v15.52H202c.57,0,1.08,0,1.52,0a1.82,1.82,0,0,0,1-.33,2.76,2.76,0,0,0,1.27-1,12.51,12.51,0,0,0,1-1.7v12.38a13.92,13.92,0,0,0-.88-1.52,2.93,2.93,0,0,0-.94-.95,4.94,4.94,0,0,0-2.37-.53H199.3v17.88h6.58a2.6,2.6,0,0,0,2-.7,5.43,5.43,0,0,0,1.2-2.16v8.73H191.68a5.57,5.57,0,0,0,.92-1.16,8,8,0,0,0,.55-1.2,12.19,12.19,0,0,0,.36-3.51v-39.7a11.69,11.69,0,0,0-.36-3.37c-.14-.33-.33-.69-.55-1.09a9.23,9.23,0,0,0-.92-1.27H209Z"/><path class="cls-1" d="M275.67,261.42v11.41c0,.74,0,1.37,0,1.88a5.22,5.22,0,0,0,.18,1.27,1.54,1.54,0,0,0,1.53,1.18c.84,0,1.38-.49,1.61-1.47a10.12,10.12,0,0,0,.36-3.22v-6.08q0-5-1.14-7.19c-.36-1-1.52-2.29-3.47-3.93a30,30,0,0,1-2.31-2,11.51,11.51,0,0,1-1.13-1.24,8.84,8.84,0,0,1-1.19-2.54,10.9,10.9,0,0,1-.42-3.14v-7c0-.88,0-1.67.11-2.38s.13-1.28.18-1.73a8.28,8.28,0,0,1,1.82-3.22,7.93,7.93,0,0,1,5.58-2.11,7.5,7.5,0,0,1,5.8,2.32c1.26,1.29,1.9,3.78,1.9,7.48v10.62l-5.73-5.4V240.6c0-.88,0-1.6-.07-2.16a10.18,10.18,0,0,0-.21-1.41c-.24-1.2-.8-1.79-1.69-1.79a1.65,1.65,0,0,0-1.53,1.25,6.9,6.9,0,0,0-.18,1.38c0,.51,0,1.1,0,1.77v5.29a6.08,6.08,0,0,0,1.25,3.94,11.09,11.09,0,0,1,1.31,1.11c.39.38.78.77,1.16,1.18a10.69,10.69,0,0,1,1.27,1.23c.49.54,1.07,1.15,1.74,1.84a11,11,0,0,1,1.48,1.9,7.68,7.68,0,0,1,.88,2c.09.59.18,1.36.25,2.29s.11,2.07.11,3.43v8.94c0,3.72-.64,6.26-1.9,7.62a7.2,7.2,0,0,1-5.65,2.18,7.81,7.81,0,0,1-5.73-2.18,5.22,5.22,0,0,1-1-1.3,11.8,11.8,0,0,1-.77-1.7l-.18-1.9c-.07-.74-.11-1.6-.11-2.57V257Z"/><path class="cls-1" d="M306.11,281.27a8.1,8.1,0,0,1,.45-.93,4.59,4.59,0,0,0,.37-.78,7,7,0,0,0,.29-2.26V236.13c0-.74,0-1.39,0-1.95a3.67,3.67,0,0,0-.25-1.34c-.09-.24-.23-.54-.41-.91a10.6,10.6,0,0,0-.77-1.31h7.84c-.19.69-.35,1.36-.47,2a10.57,10.57,0,0,0-.18,2v18l3.65-2V234.16a8.78,8.78,0,0,0-.64-3.54h8a9.8,9.8,0,0,0-1.33,2.51,14.2,14.2,0,0,0-.21,3v40.28a15.14,15.14,0,0,0,.21,3,8.57,8.57,0,0,1,.4.86,3.71,3.71,0,0,0,.57,1l.36.65h-8l.28-.65a11.4,11.4,0,0,0,.36-3.32V257l-3.65,2v19.28a7.76,7.76,0,0,0,.51,3.15l.28.5h-8Z"/><path class="cls-1" d="M358.71,277.55a8.09,8.09,0,0,1-1.27,2.9,7.78,7.78,0,0,1-5.72,2.18,8.05,8.05,0,0,1-5.8-2.18,6.65,6.65,0,0,1-1.68-3c-.09-.53-.19-1.16-.28-1.9a19.45,19.45,0,0,1-.15-2.57V239.35A17.13,17.13,0,0,1,344,237c.09-.7.19-1.28.28-1.73a7.72,7.72,0,0,1,1.68-3.22,8.22,8.22,0,0,1,5.8-2.11,7.84,7.84,0,0,1,5.72,2.32,4.76,4.76,0,0,1,1.06,1.59,8.33,8.33,0,0,1,.55,2.31,9.47,9.47,0,0,1,.15,2v34.73A19.25,19.25,0,0,1,358.71,277.55Zm-5.31-39.36a8.92,8.92,0,0,0-.21-1.41c-.24-1-.73-1.54-1.47-1.54a1.72,1.72,0,0,0-1.75,1.39c-.05.41-.1.85-.15,1.34s-.07,1.14-.07,1.95v32.7c0,.83,0,1.49.07,2s.1.9.15,1.24a1.7,1.7,0,0,0,1.75,1.32c.79,0,1.27-.49,1.47-1.47a6.34,6.34,0,0,0,.21-1.27c.05-.56.07-1.25.07-2.09v-32C353.47,239.48,353.45,238.77,353.4,238.19Z"/><path class="cls-1" d="M395.5,233q1.19,2.11,1.18,7.05v12c0,1.77-.06,3.24-.18,4.4A12.54,12.54,0,0,1,396,259a5.54,5.54,0,0,0-.54.73,4.66,4.66,0,0,1-.64.81,4,4,0,0,1-1.43,1,7.3,7.3,0,0,1-2.08.55c-.4,0-.92,0-1.55.08s-1.44.07-2.42.07v14c0,.79,0,1.47.08,2a6.85,6.85,0,0,0,.21,1.36,3.89,3.89,0,0,0,.55,1.1,12.47,12.47,0,0,0,1,1.24h-9.37a5.84,5.84,0,0,0,1.46-2.36,11.51,11.51,0,0,0,.36-3.37V236.35a11.69,11.69,0,0,0-.36-3.37,4.84,4.84,0,0,0-1.46-2.36h10.4Q394.26,230.62,395.5,233Zm-6.44,23.22c1.17,0,1.76-.82,1.76-2.47v-15.1c0-1.57-.59-2.35-1.76-2.35h-1.68V256.2Z"/><polygon class="cls-2" points="331.44 304.22 207.28 304.22 197.88 304.22 73.73 304.22 86.99 320.71 73.73 337.46 197.88 337.46 207.28 337.46 331.44 337.46 318.19 320.97 331.44 304.22"/><path class="cls-1" d="M95.42,320.88c0-.66,0-3.34-.1-3.63-.38-.08-1.21-.18-1.56-.21l0-.31c.22,0,1.81.06,2.42.06s2.26-.06,3.39-.06a10,10,0,0,1,4.14.68,3.88,3.88,0,0,1,2.4,3.55c0,3.09-2.43,6.13-8.06,6.13-.83,0-3.93,0-4.29,0l.06-.31a10,10,0,0,0,1.53-.21c.07-.25.1-2.86.1-4.56Zm1.67,1.3c0,.79,0,3.54.1,4.07a4.3,4.3,0,0,0,1.6.27c2.81,0,5.49-1.65,5.49-4.77a4,4,0,0,0-1.6-3.39,7.61,7.61,0,0,0-4.19-1.08,10.93,10.93,0,0,0-1.3.08c0,.22-.1,3.6-.1,4.24Z"/><path class="cls-1" d="M113.12,325.65a4.63,4.63,0,0,1-1.41-3.55c0-2.9,2.4-5.54,6.44-5.54a6.25,6.25,0,0,1,4.06,1.19,4.54,4.54,0,0,1,1.78,3.63c0,3.6-2.73,5.91-6.34,5.91A6,6,0,0,1,113.12,325.65Zm9.08-3.2c0-3.11-2.16-5.33-4.59-5.33a4.1,4.1,0,0,0-4.21,4.36,5.18,5.18,0,0,0,5,5.21A4.06,4.06,0,0,0,122.2,322.45Z"/><path class="cls-1" d="M129.47,316.79c.83,0,2.2,0,3.35-.1.32.5,3.27,4.19,3.52,4.46s2.71,3.24,3.18,3.63c0-1.62,0-6.77-.31-7.53-.29-.06-1.07-.18-1.48-.21l-.07-.31c.27,0,1.86.06,2.18.06s1.54,0,1.85-.06l-.06.31c-.19,0-.72.15-1.11.21a23.15,23.15,0,0,0-.28,3.11c-.05.68-.16,6.84-.25,7.43-.44-.41-4.5-5.15-4.84-5.53-.21-.22-3-3.62-3.48-4.18,0,.3.13,8,.33,8.52a15.28,15.28,0,0,0,1.59.21l0,.31c-.27,0-1.79-.06-2.17-.06s-1.57,0-2,.06l.05-.31a8,8,0,0,0,1.21-.21c.25-.61.42-8.84.42-9.32a11.87,11.87,0,0,0-1.62-.18Z"/><path class="cls-1" d="M148.2,320.56c0-1.32,0-2.9-.07-3.31-.31-.08-.77-.15-1.16-.21l-.05-.31c.42,0,1.36.06,2.48.06.68,0,1.81,0,2.17-.06l-.07.31c-.39,0-1.06.12-1.52.21,0,.25-.08,2.11-.08,3.37v1.95c0,3.11,1.32,4.17,2.91,4.17a2.88,2.88,0,0,0,2.11-.71c.79-.75,1-2,1-3.8v-1.35c0-.47,0-3.15-.07-3.63-.34-.06-1.22-.18-1.6-.21l-.1-.31c.36,0,1.46.06,2.37.06.76,0,1.54,0,1.79-.06l-.09.31c-.25.06-.64.12-1,.21-.05.22-.08,2.05-.08,2.45v.7c0,.57,0,1.28,0,1.8a5.09,5.09,0,0,1-1.43,4.07,4.38,4.38,0,0,1-3.07,1c-3,0-4.43-1.87-4.43-4.44Z"/><path class="cls-1" d="M167.56,321c0-1.08,0-3.25-.07-3.59-2.35,0-3.4.36-3.8.61a10.82,10.82,0,0,0-.3,1.38l-.33.09c.06-.7.23-2.54.22-3.69l.33.05c0,.2,0,.65.09,1,.24,0,2.76.14,4.74.14,2.13,0,4.66-.1,4.9-.14a9.22,9.22,0,0,0,.2-.91l.37-.06c-.09.34-.42,3.34-.47,3.78l-.34-.08c0-.59.05-1.19,0-1.52a10.68,10.68,0,0,0-3.82-.61c-.05.39-.08,2.54-.08,3.59v.66c0,1.29,0,3.77.08,4.94.27,0,1.61.18,1.89.21l.06.31c-.36,0-2.07-.06-2.88-.06-.66,0-2.42,0-2.84.06l.07-.31c.34,0,1.53-.16,1.88-.21,0-1.14.07-3.66.07-4.94Z"/><path class="cls-1" d="M178.87,328.54c0-.21.23-1.83.23-2.41,0-.38.09-2,.05-2.31l.33.08a10.52,10.52,0,0,0,.11,1.3,2.5,2.5,0,0,0,2.27,1.59,1.92,1.92,0,0,0,2.08-1.84c0-1.19-.92-1.78-1.87-2.39-1.44-.94-2.59-1.76-2.59-3.42,0-1.15.86-2.58,3-2.58a8.36,8.36,0,0,1,2,.26c.1-.35.17-.79.26-1.19l.34,0a28.78,28.78,0,0,0-.35,4l-.34-.15a9.36,9.36,0,0,0-.06-1.11,2.14,2.14,0,0,0-2-1.32c-1.26,0-1.79.8-1.79,1.46,0,1,1,1.47,2.11,2.17s2.45,1.59,2.45,3.44c0,2-1.61,3.19-3.61,3.19a5.25,5.25,0,0,1-2-.36c-.07.27-.22,1-.32,1.52Z"/><path class="cls-1" d="M201.6,320.33l.51,2.18-2.3.74-.4-2.25Z"/><path class="cls-1" d="M226,320a11.85,11.85,0,0,0-.09-1.22,4.08,4.08,0,0,0-3.54-1.7,4.15,4.15,0,0,0-4.35,4.22,5.35,5.35,0,0,0,5.45,5.28,6.94,6.94,0,0,0,3.48-.79l-.21.63a7.81,7.81,0,0,1-4.12.88,8.43,8.43,0,0,1-3.33-.64,5,5,0,0,1-3-4.49,5.2,5.2,0,0,1,2.32-4.39,7.21,7.21,0,0,1,4.37-1.21,13.37,13.37,0,0,1,3.06.38c.09-.19.26-1.13.31-1.31l.34-.07a37.46,37.46,0,0,0-.33,4.53Z"/><path class="cls-1" d="M233.63,325.65a4.63,4.63,0,0,1-1.41-3.55c0-2.9,2.39-5.54,6.44-5.54a6.28,6.28,0,0,1,4.06,1.19,4.54,4.54,0,0,1,1.78,3.63c0,3.6-2.73,5.91-6.34,5.91A6,6,0,0,1,233.63,325.65Zm9.08-3.2c0-3.11-2.16-5.33-4.59-5.33a4.1,4.1,0,0,0-4.21,4.36,5.18,5.18,0,0,0,5,5.21A4.06,4.06,0,0,0,242.71,322.45Z"/><path class="cls-1" d="M251.61,325.65a4.63,4.63,0,0,1-1.41-3.55c0-2.9,2.39-5.54,6.44-5.54a6.28,6.28,0,0,1,4.06,1.19,4.54,4.54,0,0,1,1.78,3.63c0,3.6-2.73,5.91-6.34,5.91A6,6,0,0,1,251.61,325.65Zm9.08-3.2c0-3.11-2.16-5.33-4.59-5.33a4.1,4.1,0,0,0-4.21,4.36,5.18,5.18,0,0,0,5,5.21A4.06,4.06,0,0,0,260.69,322.45Z"/><path class="cls-1" d="M269.76,321.06c0-1.38,0-3.42-.07-3.81-.35-.06-1.22-.18-1.57-.21l0-.31c.29,0,2,.06,2.58.06s2.12,0,2.4-.06L273,317c-.17,0-1.15.15-1.49.21-.06.47-.07,2.74-.07,3.94v.46a50.22,50.22,0,0,0,4.7-4.4,10.81,10.81,0,0,0-1.08-.21l-.06-.31c.61,0,1.66.06,2.23.06.42,0,1.1,0,1.6-.06l-.09.31a8.06,8.06,0,0,0-1,.18,44.94,44.94,0,0,0-4,3.18c.57.91,4.79,6.22,5.55,6.92l-.49.16c-1.15-.44-6.09-5.5-6.5-5.94-.28.21-.73.59-.92.77v.35c0,1.27,0,3.33.07,3.87a9.35,9.35,0,0,0,1.67.28l0,.31c-.28,0-1.83-.06-2.63-.06s-2.08,0-2.5.06l.06-.31a13.73,13.73,0,0,0,1.55-.21c0-.64.07-2.61.07-4.7Z"/><path class="cls-1" d="M287.25,322c0,1.9,0,4.35.07,4.64.37.09,1.25.18,1.54.21l.07.31c-.32,0-1.84-.06-2.75-.06-.5,0-1.85,0-2.29.06l.06-.31c.25,0,1.24-.15,1.55-.21.06-.61.07-3.33.07-4.76V321c0-.48,0-3.22-.07-3.72-.29-.06-1.26-.18-1.54-.21l-.07-.31c.28,0,1.63.06,2.78.06.75,0,2,0,2.26-.06l-.07.31c-.29,0-1,.15-1.54.21-.06.29-.07,2-.07,3.79Z"/><path class="cls-1" d="M296.11,321.35c0-1.32,0-3.65-.1-4.1-.28-.06-1.18-.16-1.53-.21l-.06-.31,1.32,0H297c.47,0,3.92,0,4.32-.1,0-.18.08-.43.11-.69l.34-.06c-.07.31-.26,2.58-.29,3l-.33-.1c0-.11,0-.77,0-1.06-.26-.43-2.52-.62-3.3-.62,0,.21-.1,3-.1,3.9v.3a14.7,14.7,0,0,0,3-.24,3.77,3.77,0,0,0,.14-.63l.31,0c0,.27-.31,2.28-.38,2.75l-.28-.12c0-.31,0-.69,0-1a8.07,8.07,0,0,0-2.86-.33v.3c0,.89.06,4.09.1,4.51a8.34,8.34,0,0,0,3.52-.5c.17-.51.24-1,.33-1.29l.33-.08c-.1.42-.42,2.65-.48,3.38l-.31-.05c0-.4,0-.67,0-.9-.43-.07-3.68-.13-4.61-.13-.5,0-1.65,0-2.23.06l.08-.31a11.71,11.71,0,0,0,1.51-.21c.06-.26.1-3,.1-4.57Z"/><path class="cls-1" d="M308.08,328.54c0-.21.24-1.83.24-2.41,0-.38.08-2,0-2.31l.34.08a10.4,10.4,0,0,0,.1,1.3,2.51,2.51,0,0,0,2.27,1.59,1.92,1.92,0,0,0,2.08-1.84c0-1.19-.92-1.78-1.87-2.39-1.44-.94-2.58-1.76-2.58-3.42,0-1.15.85-2.58,3-2.58a8.36,8.36,0,0,1,2,.26c.1-.35.17-.79.26-1.19l.34,0a28.78,28.78,0,0,0-.35,4l-.34-.15a9.36,9.36,0,0,0-.06-1.11A2.14,2.14,0,0,0,311.6,317c-1.26,0-1.79.8-1.79,1.46,0,1,1,1.47,2.11,2.17s2.45,1.59,2.45,3.44c0,2-1.61,3.19-3.61,3.19a5.25,5.25,0,0,1-2-.36c-.07.27-.22,1-.32,1.52Z"/><rect class="cls-1" x="351.44" y="315.85" width="19.82" height="0.9"/><rect class="cls-1" x="351.44" y="315.85" width="19.82" height="0.9"/><rect class="cls-1" x="351.44" y="324.92" width="19.82" height="0.9"/><rect class="cls-1" x="351.44" y="324.92" width="19.82" height="0.9"/><rect class="cls-1" x="33.91" y="315.85" width="19.82" height="0.9"/><rect class="cls-1" x="33.91" y="315.85" width="19.82" height="0.9"/><rect class="cls-1" x="33.91" y="324.92" width="19.82" height="0.9"/><rect class="cls-1" x="33.91" y="324.92" width="19.82" height="0.9"/><path class="cls-1" d="M52.09,216.1A152.23,152.23,0,0,1,202.59,65.6c82.71-.92,149.6,69.18,150.5,150.5a1.53,1.53,0,0,0,3.05,0A155.34,155.34,0,0,0,202.59,62.55C118.22,61.61,50,133.15,49,216.1a1.53,1.53,0,0,0,3.06,0Z"/><path class="cls-1" d="M91.17,173.73c-1.45-.5-4-1.32-4.57-1.43-.16.29-.61,1.24-.8,1.61l-.36,0,.55-1.44c.18-.54.38-1.07.5-1.42.17-.52,1.47-4.32,1.5-4.8a6.25,6.25,0,0,0-.71-.38l.06-.4c.31.2,2.75,1.26,3.24,1.46l-.24.32c-.11,0-.83-.3-1.16-.4-.57.14-1.63,2.56-1.92,3.41.21.13,3.31,1.26,4.27,1.58l.32.11a17.47,17.47,0,0,0,.88-3.44,5,5,0,0,0-.64-.39l.08-.35,2.88,1.44-.23.27-1.07-.4a9.47,9.47,0,0,0-1.43,3l.32.11c1,.34,4.54,1.47,5,1.58a9.88,9.88,0,0,0,.77-4.07c-.5-.37-1-.62-1.3-.84l0-.4c.43.27,2.77,1.46,3.56,1.8l-.18.32c-.44-.15-.73-.25-1-.32-.24.44-1.52,4-1.87,5-.19.55-.59,1.84-.77,2.48l-.31-.19a15.15,15.15,0,0,0,.34-1.75c-.27-.16-3.23-1.22-5-1.83Z"/><path class="cls-1" d="M102,168.18c-.2-.13-1.84-1.13-2.45-1.4-.4-.18-2-1-2.44-1.15l.25-.32a12.22,12.22,0,0,0,1.42.51,2.91,2.91,0,0,0,2.79-1.66,2.24,2.24,0,0,0-1-3.09c-1.26-.57-2.32.13-3.43.85-1.69,1.08-3.1,1.91-4.87,1.12-1.21-.54-2.34-2.13-1.3-4.44a9.61,9.61,0,0,1,1.22-2c-.33-.28-.76-.57-1.14-.85l.12-.38a33.56,33.56,0,0,0,4.1,2.29L95,158a11.62,11.62,0,0,0-1.22-.47A2.49,2.49,0,0,0,91.45,159a1.84,1.84,0,0,0,.71,2.6c1,.45,2-.36,3.31-1.21s2.86-1.86,4.82-1c2.17,1,2.63,3.25,1.68,5.37a6,6,0,0,1-1.35,2c.26.22.94.71,1.47,1.08Z"/><path class="cls-1" d="M100.23,151.87c-1.1-.63-3.31-1.86-3.67-2-1.37,2.37-1.61,3.65-1.59,4.2a14.62,14.62,0,0,0,1.22,1.1l-.11.39c-.67-.47-2.42-1.72-3.6-2.38l.26-.3c.2.1.67.33,1,.46.18-.21,1.75-2.69,2.9-4.69s2.61-4.76,2.7-5c-.14-.16-.55-.52-.79-.74l.15-.4c.29.28,3.13,2.37,3.55,2.67l-.29.29c-.57-.37-1.17-.73-1.51-.91A12.25,12.25,0,0,0,97.62,148c.37.27,2.51,1.55,3.58,2.16l.66.39c1.31.75,3.83,2.16,5,2.8.2-.26,1.11-1.53,1.3-1.79l.35.12c-.23.34-1.26,2.05-1.73,2.87-.39.66-1.38,2.46-1.6,2.9l-.26-.25c.16-.36.72-1.64.88-2-1.13-.71-3.66-2.2-5-2.95Z"/><path class="cls-1" d="M296.58,151.89c-1.93,1.13-4.44,2.64-4.71,2.85.12.33.85,1.88,1,2.21l-.27.26c-.19-.41-1.34-2.43-1.74-3.12s-1.71-2.84-2-3.23l.34-.12,1.61,2.23c.67-.31,3.05-1.69,4.51-2.54l1-.58c.48-.29,2.76-1.64,3.39-2.09-.4-.61-1.23-1.59-1.67-2.15l.24-.28c.46.47,2.44,2.23,3.87,3.52-.78.36-3.1,1.58-5,2.66Z"/><path class="cls-1" d="M293.49,160.43c2.05.64,6.11,1.7,9.47.1,2.38-1.14,2.89-2.76,2.39-3.81s-1.78-1.65-3.54-.81a2.93,2.93,0,0,0-1.35,4.29l-.46,0c-1.45-1.75-1.92-4.56.57-5.74a4.31,4.31,0,0,1,5.58,2.45,3.7,3.7,0,0,1-1.86,5.33c-2.78,1.33-7,.49-10.36-.93Z"/><path class="cls-1" d="M297.69,170c2,.84,5.91,2.3,9.42,1,2.48-.89,3.15-2.46,2.75-3.56s-1.61-1.81-3.45-1.15a2.93,2.93,0,0,0-1.76,4.14l-.45-.1c-1.28-1.88-1.47-4.72,1.13-5.65a4.3,4.3,0,0,1,5.31,3,3.7,3.7,0,0,1-2.38,5.12c-2.9,1-7-.22-10.23-2Z"/><path class="cls-1" d="M302.25,182.6c-.13-.62-.4-1.8-.64-2.73-.17-.68-.46-1.65-.7-2.45h.38a11,11,0,0,0,.63,1.44c.91.09,4.13.73,6,1.19s4.56,1.1,4.8,1.15c-.61-2.35-1.3-5.27-1.76-5.66a13.29,13.29,0,0,0-1.67,0l-.24-.37a43.29,43.29,0,0,0,4.8-.76l0,.41a9.74,9.74,0,0,0-1,.31,22,22,0,0,0,.8,3.66c.42,1.61.76,2.93.95,3.59-1.06-.14-4.34-.92-6.8-1.27a28.85,28.85,0,0,0-5.45-.4c0,.38.14,1.45.18,1.72Z"/><path class="cls-1" d="M268.21,156a81.6,81.6,0,0,1,12.45,42.33c0,2,3.09,2,3.06,0a84.91,84.91,0,0,0-12.87-43.87c-1-1.67-3.68-.13-2.64,1.54Z"/><path class="cls-1" d="M124.51,198.29a81.54,81.54,0,0,1,13-43.14c1.06-1.67-1.59-3.2-2.64-1.54a84.7,84.7,0,0,0-13.4,44.68c0,2,3,2,3.05,0Z"/><path class="cls-1" d="M247,184.92H151a8.85,8.85,0,0,0,8.85,8.85H238.1a8.85,8.85,0,0,0,8.85-8.85"/><path class="cls-1" d="M237.16,177.28H223.49a17,17,0,0,1-17-17v-7.91a17,17,0,0,1,17-17h13.67a17,17,0,0,1,17,17v7.91a17,17,0,0,1-17,17m-13.67-36.82a11.91,11.91,0,0,0-11.89,11.9v7.91a11.91,11.91,0,0,0,11.89,11.9h13.67a11.92,11.92,0,0,0,11.9-11.9v-7.91a11.92,11.92,0,0,0-11.9-11.9Z"/><path class="cls-1" d="M159,127.71v24.68a40.33,40.33,0,0,0,11.81,28.52l4,4h43.42l4-4A40.3,40.3,0,0,0,234,152.39V127.71Zm10.18,9C165.52,164,174,178.53,174,178.53c-12.4-11.61-9.13-45.76-9.13-45.76h38.74Z"/><path class="cls-1" d="M194.15,120.77s-13.43-10.84-1.83-21.67,5.8-22.29,5.8-22.29,11.27,14.33,1.45,26.56S194.15,120.77,194.15,120.77Z"/><path class="cls-1" d="M209.14,125.66s-13.43-10.84-1.83-21.68,5.8-22.28,5.8-22.28,11.27,14.33,1.45,26.56S209.14,125.66,209.14,125.66Z"/></svg>