<svg id="Слой_1" data-name="Слой 1" xmlns="http://www.w3.org/2000/svg" viewBox="0 0 400 400"><defs><style>.cls-1{fill:#503b2d;}.cls-2{fill:none;stroke:#fff;stroke-miterlimit:10;}.cls-3{fill:#fff;}.cls-4{fill:#010101;}</style></defs><path class="cls-1" d="M191.86,211.4h0c-47.83,0-50.44-46.54-50.46-47l0-.72H244.48l0,.72c0,.47-2.67,46.31-51.52,47Zm-49-46.35c.54,5.84,5.79,45,49,45h1.05c44.21-.63,49.55-39.16,50.1-45Z"/><polygon class="cls-1" points="174.41 208.25 174.41 216.58 213.44 216.58 213.44 206.21 174.41 208.25"/><path class="cls-1" d="M170.09,170.07H142.83c2.36,12.5,11.93,41.17,50.08,40.63,38-.54,47.65-28.37,50.05-40.63h-40c12.11,6.57,5.88,28.7-13.66,31s-32.33-12.8-30.95-22S170.09,170.07,170.09,170.07Z"/><path class="cls-1" d="M188.42,160.1H209s10.54-4.73,13.14-28.25C222.14,131.85,210.72,154.27,188.42,160.1Z"/><path class="cls-1" d="M215.39,160.1l13.32-.93a24.77,24.77,0,0,0-2.25-21.44S226.46,157,215.39,160.1Z"/><path class="cls-1" d="M204.21,146a27.77,27.77,0,0,0,9.55-11.2c-3,4.57-7.4,7.84-14.79,11.72-11.05,5.81-27.5,13.55-27.5,13.55h12.91S192.92,153.41,204.21,146Z"/><path class="cls-1" d="M174.59,125.17c2,17.71,27.19,15.89,25.31,2.1-2.34,4.72-6.69,8.27-14.15,6-7.77-2.4-10.38-9.24-11.24-14.19A28.05,28.05,0,0,0,174.59,125.17Z"/><path class="cls-1" d="M209.05,107.76a23.31,23.31,0,0,0-21.66-4.91c9.09.75,22.61,4.3,28.74,17.44A20.6,20.6,0,0,0,209.05,107.76Z"/><path class="cls-1" d="M241.76,196.18H234.5a11.16,11.16,0,0,1,0-22.31h7.26a11.16,11.16,0,1,1,0,22.31Zm-7.26-20.92a9.77,9.77,0,1,0,0,19.53h7.26a9.77,9.77,0,1,0,0-19.53Z"/><path class="cls-1" d="M82.71,94.34c-.32-.38-.6-.68-.82-.91s-.43-.4-.62-.55a1,1,0,0,0-1.38-.09.81.81,0,0,0-.15,1.11,5.06,5.06,0,0,0,1,1.55l12.06,14.32A4.6,4.6,0,0,0,94.15,111a.82.82,0,0,0,1.15.07,1,1,0,0,0,.12-1.4A5.17,5.17,0,0,0,95,109q-.3-.41-.81-1l-3.6-4.27,1.54-3.21,4.89,5.81q2.1,2.49,2,4a4.55,4.55,0,0,1-1.77,3,5.13,5.13,0,0,1-1.5.89,3.72,3.72,0,0,1-1.69.23,3.46,3.46,0,0,1-1.85-.72c-.21-.17-.48-.4-.79-.68a12.06,12.06,0,0,1-1-1.07L78.14,97.48a11.74,11.74,0,0,1-.86-1.15c-.21-.34-.4-.64-.56-.92a4.56,4.56,0,0,1-.37-1,2.72,2.72,0,0,1-.07-1A4.75,4.75,0,0,1,78,90.57a4.88,4.88,0,0,1,3.34-1.25,3.44,3.44,0,0,1,1.63.67,11.06,11.06,0,0,1,1.9,1.85l3.31,3.93a5.1,5.1,0,0,0-1.67,3Z"/><path class="cls-1" d="M114.91,97.25a4.71,4.71,0,0,1,.27,1.77,4.45,4.45,0,0,1-2.08,2.78,4.63,4.63,0,0,1-3.44.71,3.79,3.79,0,0,1-1.71-.93c-.21-.22-.44-.5-.71-.82a10,10,0,0,1-.85-1.19L96.2,83.48a9,9,0,0,1-.65-1.18c-.17-.37-.3-.67-.39-.92a4.33,4.33,0,0,1-.17-2,4.61,4.61,0,0,1,2.13-2.76,4.46,4.46,0,0,1,3.44-.63,2.57,2.57,0,0,1,1,.45,4.63,4.63,0,0,1,1,.93,5.75,5.75,0,0,1,.67.9l1,1.54,9.56,15.08A11.64,11.64,0,0,1,114.91,97.25ZM100.43,80a3.91,3.91,0,0,0-.53-.61c-.42-.42-.81-.52-1.17-.29a1,1,0,0,0-.41,1.19c.1.21.21.44.34.69a10.24,10.24,0,0,0,.55,1l9.91,15.65c.25.4.47.71.64.93l.44.55a1,1,0,0,0,1.24.1c.38-.24.46-.62.26-1.15a3.26,3.26,0,0,0-.29-.67,9.71,9.71,0,0,0-.6-1L101.11,81C100.86,80.62,100.63,80.28,100.43,80Z"/><path class="cls-1" d="M126,92.39a5.84,5.84,0,0,0-.65-2l-9-20a11.43,11.43,0,0,0-.61-1.22,4.09,4.09,0,0,0-.52-.7,1.61,1.61,0,0,0-.53-.5,6.09,6.09,0,0,0-.85-.43l9.23-4.18,2.3,5.08a3.24,3.24,0,0,0-1.87-1.29,2.72,2.72,0,0,0-1.68.34l-2.52,1.14,3.62,8,1.74-.78.92-.44a3.24,3.24,0,0,0,.58-.38,2.93,2.93,0,0,0,.38-.85,4.64,4.64,0,0,0,.17-1.17l2.89,6.38a2.56,2.56,0,0,0-2.71-.64l-2.49,1.13,4.09,9a11.56,11.56,0,0,0,1,1.87,4.18,4.18,0,0,0,1.45.9L125.82,94A2.47,2.47,0,0,0,126,92.39Z"/><path class="cls-1" d="M146,84.36a5.82,5.82,0,0,0-.34-2.09l-6-21.07a11.35,11.35,0,0,0-.43-1.29,3.61,3.61,0,0,0-.41-.77,1.55,1.55,0,0,0-.45-.58,5.7,5.7,0,0,0-.77-.54l9.74-2.77,1.52,5.36a3.21,3.21,0,0,0-1.66-1.55,2.73,2.73,0,0,0-1.7.08l-2.67.76,2.4,8.46,1.83-.52c.41-.11.73-.21,1-.3a3.11,3.11,0,0,0,.63-.28,2.91,2.91,0,0,0,.5-.79,4.49,4.49,0,0,0,.34-1.14l1.92,6.75a2.58,2.58,0,0,0-2.59-1l-2.64.75,2.72,9.55a10.51,10.51,0,0,0,.69,2,4.26,4.26,0,0,0,1.3,1.1L145.5,86A2.49,2.49,0,0,0,146,84.36Z"/><path class="cls-1" d="M172.77,56.22a3.33,3.33,0,0,0-1.15-1.5,2.37,2.37,0,0,0-1.68-.32l-2.92.39,1.15,8.71,1.53-.2c.32,0,.61-.08.85-.13a1,1,0,0,0,.55-.26,1.51,1.51,0,0,0,.64-.66,10.28,10.28,0,0,0,.44-1l.92,7a6.77,6.77,0,0,0-.6-.79,1.56,1.56,0,0,0-.61-.46,2.6,2.6,0,0,0-1.36-.13l-1.89.25,1.33,10,3.69-.48a1.49,1.49,0,0,0,1-.54,3.23,3.23,0,0,0,.52-1.3l.65,4.9-9.75,1.28a3,3,0,0,0,.43-.72,3.86,3.86,0,0,0,.22-.71,7,7,0,0,0-.06-2l-2.94-22.29a6.59,6.59,0,0,0-.45-1.87l-.39-.57a5.06,5.06,0,0,0-.61-.64l9.74-1.29Z"/><path class="cls-1" d="M196.21,55.44a3.42,3.42,0,0,0-.94-1.63,2.43,2.43,0,0,0-1.63-.55h-2.93L190.66,62h1.54c.32,0,.61,0,.86,0a1,1,0,0,0,.58-.18,1.51,1.51,0,0,0,.72-.57,7.6,7.6,0,0,0,.58-1l0,7a9.41,9.41,0,0,0-.49-.86,1.73,1.73,0,0,0-.54-.54,2.62,2.62,0,0,0-1.33-.31h-1.91l0,10.13,3.72,0a1.5,1.5,0,0,0,1.11-.39,3.21,3.21,0,0,0,.69-1.22l0,4.94-9.83,0a3.33,3.33,0,0,0,.52-.66,3.81,3.81,0,0,0,.32-.68,6.6,6.6,0,0,0,.21-2l.12-22.49a6.61,6.61,0,0,0-.19-1.91,6,6,0,0,0-.31-.62,6.14,6.14,0,0,0-.51-.72l9.83.05Z"/><path class="cls-1" d="M234.58,73.33l-1.79,6.21c-.11.41-.21.75-.27,1a3,3,0,0,0-.1.72.87.87,0,0,0,.65.88.91.91,0,0,0,1.1-.54,5.75,5.75,0,0,0,.7-1.7l.95-3.31a9.26,9.26,0,0,0,.51-4.09,6.72,6.72,0,0,0-1.28-2.69c-.41-.58-.72-1.07-.94-1.46a5.7,5.7,0,0,1-.42-.85,4.78,4.78,0,0,1-.25-1.57,6.18,6.18,0,0,1,.26-1.78l1.09-3.79c.14-.48.29-.91.43-1.28s.28-.68.37-.92a4.59,4.59,0,0,1,1.5-1.46,4.5,4.5,0,0,1,3.37-.28,4.25,4.25,0,0,1,2.79,2.17c.49.9.44,2.36-.14,4.37l-1.66,5.78-2.27-3.83.68-2.36c.13-.48.23-.88.3-1.19a5.6,5.6,0,0,0,.1-.8c.06-.69-.15-1.1-.63-1.24a.94.94,0,0,0-1,.44,4.86,4.86,0,0,0-.31.72l-.3,1-.83,2.88a3.44,3.44,0,0,0,.07,2.34,9.5,9.5,0,0,1,.54.81l.45.82a7.73,7.73,0,0,1,.49.87l.66,1.28a6,6,0,0,1,.51,1.26A4.13,4.13,0,0,1,240,73c0,.34-.11.77-.22,1.29s-.27,1.14-.48,1.88L237.93,81q-.87,3-2.22,3.85a4.09,4.09,0,0,1-3.42.31,4.4,4.4,0,0,1-2.77-2.09,2.57,2.57,0,0,1-.37-.87,6.11,6.11,0,0,1-.16-1c.06-.29.12-.64.2-1.06s.19-.88.35-1.42L232,70Z"/><path class="cls-1" d="M246.8,89.36a3.35,3.35,0,0,1,.45-.37,3.05,3.05,0,0,0,.38-.32,3.66,3.66,0,0,0,.69-1.09l9.84-21.14c.17-.38.32-.72.44-1a2.16,2.16,0,0,0,.19-.75c0-.15,0-.33,0-.57a6,6,0,0,0-.08-.85l4,1.87c-.26.31-.5.61-.71.91a6.51,6.51,0,0,0-.57,1l-4.29,9.23,2.35-.16,3.92-8.41a4.92,4.92,0,0,0,.51-2l4.1,1.91a5.67,5.67,0,0,0-1.28,1,7.76,7.76,0,0,0-.82,1.49l-9.63,20.69a9,9,0,0,0-.61,1.59,4.86,4.86,0,0,1,0,.54,2.65,2.65,0,0,0,.06.65l0,.41L251.7,92l.3-.27a6.63,6.63,0,0,0,1-1.62l5-10.75-2.35.14L251,89.45a4.41,4.41,0,0,0-.5,1.73l0,.33-4.1-1.91Z"/><path class="cls-1" d="M272.88,101.8a4.83,4.83,0,0,1-1.53.94,4.39,4.39,0,0,1-3.36-.84A4.54,4.54,0,0,1,266,99a3.8,3.8,0,0,1,.19-1.94c.12-.28.28-.6.48-1a11.61,11.61,0,0,1,.76-1.24L278.28,79.2a11.22,11.22,0,0,1,.83-1.06c.27-.29.5-.53.69-.71a4.39,4.39,0,0,1,1.82-1,4.69,4.69,0,0,1,3.38.89,4.45,4.45,0,0,1,1.92,2.93,2.65,2.65,0,0,1,0,1.08,4.44,4.44,0,0,1-.48,1.25,6,6,0,0,1-.57,1l-1,1.5L274.63,99.75A11.3,11.3,0,0,1,272.88,101.8Zm10.23-20a4.38,4.38,0,0,0,.36-.73c.22-.55.16-1-.19-1.19a1,1,0,0,0-1.26.09c-.16.17-.32.36-.5.57s-.4.51-.67.89L270.3,96.61a10.92,10.92,0,0,0-.6.94l-.34.62a1,1,0,0,0,.39,1.19c.37.25.75.18,1.16-.21a5.1,5.1,0,0,0,.51-.52c.2-.25.44-.57.71-.95l10.33-14.91C282.73,82.38,283,82.05,283.11,81.76Z"/><path class="cls-1" d="M305.64,97.45a8.59,8.59,0,0,1-2.37,3.28l-4.83,4.76c-.72.71-1.33,1.26-1.85,1.68a7.09,7.09,0,0,1-1.22.84,3.63,3.63,0,0,0-.51.07,2.93,2.93,0,0,1-.58.06,2.26,2.26,0,0,1-1-.18,4.08,4.08,0,0,1-1.05-.62c-.16-.16-.38-.36-.65-.6s-.6-.55-1-.94L285,111.36c-.31.31-.58.59-.78.83a4.61,4.61,0,0,0-.47.63,2.13,2.13,0,0,0-.22.66,7.46,7.46,0,0,0-.11.89l-3.73-3.78a3.26,3.26,0,0,0,1.54-.35,6.62,6.62,0,0,0,1.5-1.19L298.78,93.2A6.25,6.25,0,0,0,300,91.72a2.62,2.62,0,0,0,.37-1.53l4.14,4.2C305.57,95.47,305.94,96.49,305.64,97.45Zm-11.92,6.64c.46.47,1,.37,1.69-.28l6.09-6c.63-.63.72-1.18.25-1.65l-.66-.68-8,7.93Z"/><path class="cls-1" d="M373.19,223.41H28a23.08,23.08,0,0,1-23.2,22.13l-.29,0v43c.36,0,.72-.05,1.09-.05,12.07,0,22,10.3,22.38,22.13H372.48c0-.14,0-.27,0-.4a23.07,23.07,0,0,1,23.05-22.42v-42.2C383.47,245.5,373.58,235.21,373.19,223.41Z"/><path class="cls-2" d="M31.49,306.64a26.84,26.84,0,0,0-23.08-22V249.22A27.27,27.27,0,0,0,31.5,227.33H369.67a26.92,26.92,0,0,0,21.92,21.81v35a27.2,27.2,0,0,0-22.76,22.51Z"/><path class="cls-3" d="M110.83,252.29c0-.85,0-1.54-.07-2.07a9.13,9.13,0,0,0-.21-1.39c-.18-1.07-.74-1.61-1.67-1.61-.76,0-1.22.42-1.41,1.27a8.67,8.67,0,0,0-.41,3.08v31.62a8,8,0,0,0,.41,3.08c.19.89.65,1.34,1.41,1.34.93,0,1.49-.56,1.67-1.68a5.38,5.38,0,0,0,.21-1.27c0-.57.07-1.3.07-2.19V273l5.47-2.47V283.4q0,5.48-1.81,7.29a7.68,7.68,0,0,1-5.61,2,8.71,8.71,0,0,1-2.91-.48,6.33,6.33,0,0,1-2.43-1.54,5.85,5.85,0,0,1-1.61-2.94c-.09-.46-.18-1-.28-1.75a19.87,19.87,0,0,1-.13-2.46V251.36a18.6,18.6,0,0,1,.13-2.41c.1-.67.19-1.27.28-1.8a7.55,7.55,0,0,1,.6-1.69,4.74,4.74,0,0,1,1-1.39,8,8,0,0,1,5.27-1.81,8.2,8.2,0,0,1,5.68,2,5.61,5.61,0,0,1,1.37,2.63,18.09,18.09,0,0,1,.44,4.45v8.7a8.5,8.5,0,0,0-5.47,2.12Z"/><path class="cls-3" d="M150.51,287.85a7.7,7.7,0,0,1-1.21,2.77,7.5,7.5,0,0,1-5.48,2.09,7.72,7.72,0,0,1-5.54-2.09,6.44,6.44,0,0,1-1.61-2.87c-.09-.51-.18-1.11-.27-1.82a18,18,0,0,1-.14-2.46V251.29a15.61,15.61,0,0,1,.14-2.27c.09-.68.18-1.23.27-1.66a7.36,7.36,0,0,1,1.61-3.08,7.84,7.84,0,0,1,5.54-2,7.53,7.53,0,0,1,5.48,2.22,4.39,4.39,0,0,1,1,1.53,7.89,7.89,0,0,1,.53,2.2,9.53,9.53,0,0,1,.14,1.89v33.23A18.27,18.27,0,0,1,150.51,287.85Zm-5.08-37.67a7.51,7.51,0,0,0-.2-1.35q-.34-1.47-1.41-1.47a1.64,1.64,0,0,0-1.67,1.33c-.05.39-.1.82-.14,1.29a18.46,18.46,0,0,0-.07,1.86v31.28A19,19,0,0,0,142,285c0,.47.09.87.14,1.19a1.63,1.63,0,0,0,1.67,1.26c.76,0,1.22-.47,1.41-1.4a5.47,5.47,0,0,0,.2-1.22c0-.53.07-1.2.07-2V252.22C145.5,251.42,145.48,250.74,145.43,250.18Z"/><path class="cls-3" d="M172.2,289.63a10.06,10.06,0,0,0,.41-3.56v-37c0-.94,0-1.7-.1-2.29a6.56,6.56,0,0,0-.31-1.44,2.8,2.8,0,0,0-.46-1.15,10.26,10.26,0,0,0-1-1.25h17.11v9.41c-.53-1.73-1.19-2.83-2-3.28a4.61,4.61,0,0,0-2.8-.65h-4.69v14.85h3.22c.7,0,1.28,0,1.72,0a5.09,5.09,0,0,0,1.15-.17,4.82,4.82,0,0,0,1.18-1.05,7.67,7.67,0,0,0,1.08-1.69v11.84c-1-1.92-2.22-2.87-3.73-2.87h-4.62v16.77a20.27,20.27,0,0,0,.2,3.56,7,7,0,0,0,1.61,2.39h-9.44A4.29,4.29,0,0,0,172.2,289.63Z"/><path class="cls-3" d="M209.85,289.63a10.06,10.06,0,0,0,.41-3.56v-37c0-.94,0-1.7-.1-2.29a6.56,6.56,0,0,0-.31-1.44,2.8,2.8,0,0,0-.46-1.15,10.26,10.26,0,0,0-1-1.25h17.11v9.41c-.53-1.73-1.19-2.83-2-3.28a4.61,4.61,0,0,0-2.8-.65H216v14.85h3.22c.7,0,1.28,0,1.72,0a5.09,5.09,0,0,0,1.15-.17,4.82,4.82,0,0,0,1.18-1.05,7.67,7.67,0,0,0,1.08-1.69v11.84c-1-1.92-2.22-2.87-3.73-2.87H216v16.77a20.27,20.27,0,0,0,.2,3.56,7,7,0,0,0,1.61,2.39h-9.44A4.29,4.29,0,0,0,209.85,289.63Z"/><path class="cls-3" d="M262.63,252.08a5.67,5.67,0,0,0-1.6-2.75,4,4,0,0,0-2.75-.91h-5v14.85h2.6c.55,0,1,0,1.45,0a1.7,1.7,0,0,0,1-.31,2.62,2.62,0,0,0,1.21-1,14,14,0,0,0,1-1.63v11.84a14.34,14.34,0,0,0-.84-1.45,2.91,2.91,0,0,0-.91-.91,4.6,4.6,0,0,0-2.26-.51h-3.21v17.11h6.29a2.52,2.52,0,0,0,1.87-.67,5.37,5.37,0,0,0,1.15-2.07V292H246a5.16,5.16,0,0,0,.88-1.11,7,7,0,0,0,.53-1.15,11.58,11.58,0,0,0,.34-3.35v-38a11.2,11.2,0,0,0-.34-3.22,9.33,9.33,0,0,0-.53-1,8.69,8.69,0,0,0-.88-1.22h16.61Z"/><path class="cls-3" d="M298.36,252.08a5.74,5.74,0,0,0-1.59-2.75,4,4,0,0,0-2.76-.91h-5v14.85h2.6c.55,0,1,0,1.45,0a1.68,1.68,0,0,0,1-.31,2.62,2.62,0,0,0,1.21-1,12.76,12.76,0,0,0,1-1.63v11.84a11.34,11.34,0,0,0-.84-1.45,2.81,2.81,0,0,0-.91-.91,4.56,4.56,0,0,0-2.25-.51h-3.22v17.11h6.3a2.5,2.5,0,0,0,1.86-.67,5.24,5.24,0,0,0,1.15-2.07V292h-16.6a5.43,5.43,0,0,0,.87-1.11,7,7,0,0,0,.53-1.15,11.58,11.58,0,0,0,.34-3.35v-38a11.2,11.2,0,0,0-.34-3.22,9.33,9.33,0,0,0-.53-1,9.43,9.43,0,0,0-.87-1.22h16.6Z"/><path class="cls-3" d="M65.61,271.81a4.38,4.38,0,1,1-4.38-4.38A4.38,4.38,0,0,1,65.61,271.81Z"/><path class="cls-3" d="M352,271.81a4.38,4.38,0,1,1-4.38-4.38A4.38,4.38,0,0,1,352,271.81Z"/><path class="cls-4" d="M85.42,335.87V316.18h2.82v8.43h3.49v-8.43h2.82v19.69H91.73V327.1H88.24v8.77Z"/><path class="cls-4" d="M105.59,335.87V316.18h2.82v19.69Z"/><path class="cls-4" d="M119.29,331.22v-10.4a4.63,4.63,0,0,1,1.49-3.62,5,5,0,0,1,6.47,0,4.63,4.63,0,0,1,1.5,3.62v1h-2.82v-1a2,2,0,0,0-.54-1.48,1.92,1.92,0,0,0-1.37-.51,1.8,1.8,0,0,0-1.33.5,1.9,1.9,0,0,0-.58,1.49v10.4a1.91,1.91,0,0,0,.58,1.5,1.8,1.8,0,0,0,1.33.5,1.92,1.92,0,0,0,1.37-.51,2,2,0,0,0,.54-1.49v-3.7h-2.24V325h5.06v6.19a4.55,4.55,0,0,1-1.5,3.6,4.9,4.9,0,0,1-6.47,0A4.54,4.54,0,0,1,119.29,331.22Z"/><path class="cls-4" d="M139.54,335.87V316.18h2.82v8.43h3.49v-8.43h2.82v19.69h-2.82V327.1h-3.49v8.77Z"/><path class="cls-4" d="M172.9,331.22v-10.4a4.63,4.63,0,0,1,1.5-3.62,5,5,0,0,1,6.47,0,4.63,4.63,0,0,1,1.5,3.62v10.4a4.72,4.72,0,0,1-.42,2l1.74,1.4-1.43,1.72L180.59,335a4.52,4.52,0,0,1-3,1,4.67,4.67,0,0,1-3.23-1.22A4.55,4.55,0,0,1,172.9,331.22Zm2.83-10.4v10.4a1.91,1.91,0,0,0,.58,1.5,1.79,1.79,0,0,0,1.32.5,1.55,1.55,0,0,0,.61-.11l-1.27-1,1.44-1.71,1.13.91V320.82a2,2,0,0,0-.54-1.48,1.89,1.89,0,0,0-1.37-.51,1.79,1.79,0,0,0-1.32.5A1.9,1.9,0,0,0,175.73,320.82Z"/><path class="cls-4" d="M202.29,316.18v15.27A4.49,4.49,0,0,1,201,334.7a4.57,4.57,0,0,1-7.8-3.25V316.18H196v15c0,1.36.58,2.05,1.74,2.05s1.75-.69,1.75-2.05v-15Z"/><path class="cls-4" d="M212,335.87l4.4-19.69h2.35l4.4,19.69H220.3l-.83-4.23h-3.85l-.83,4.23Zm7-6.89-1.38-7.13h-.06L216.12,329Z"/><path class="cls-4" d="M232.8,335.87V316.18h2.82v16.87h5.59v2.82Z"/><path class="cls-4" d="M251.42,335.87V316.18h2.82v19.69Z"/><path class="cls-4" d="M267.14,335.87v-17h-3.27v-2.65h9.35v2.65H270v17Z"/><path class="cls-4" d="M285.4,335.87v-8.33l-3.88-11.36h3l2.27,7.82h.06l2.26-7.82h3l-3.87,11.36v8.33Z"/><path class="cls-4" d="M157.86,350h77.47a1.92,1.92,0,0,0,0-3.84H157.86a1.92,1.92,0,0,0,0,3.84Z"/></svg>