<svg id="svg" version="1.1" xmlns="http://www.w3.org/2000/svg" xmlns:xlink="http://www.w3.org/1999/xlink" width="400" height="400" viewBox="0, 0, 400,400"><g id="svgg"><path id="path0" d="M384.000 25.187 C 384.000 25.401,383.753 25.480,383.452 25.364 C 383.150 25.249,382.620 25.438,382.273 25.784 C 381.926 26.131,381.498 26.369,381.321 26.315 C 380.832 26.163,374.800 29.245,374.800 29.648 C 374.800 29.841,374.665 29.979,374.500 29.953 C 373.518 29.798,372.785 30.053,373.038 30.462 C 373.195 30.716,373.157 30.821,372.954 30.695 C 372.471 30.397,369.503 31.770,369.860 32.127 C 370.010 32.277,369.778 32.400,369.344 32.400 C 368.326 32.400,363.136 35.003,363.476 35.342 C 363.617 35.484,363.253 35.600,362.667 35.600 C 362.080 35.600,361.600 35.780,361.600 36.000 C 361.600 36.220,361.255 36.400,360.833 36.400 C 360.412 36.400,360.007 36.566,359.933 36.770 C 359.860 36.973,359.534 37.198,359.210 37.270 C 358.885 37.341,358.375 37.627,358.077 37.904 C 357.779 38.181,357.342 38.288,357.106 38.142 C 356.851 37.985,356.793 38.064,356.962 38.338 C 357.128 38.608,357.001 38.800,356.657 38.800 C 356.332 38.800,356.007 38.963,355.933 39.162 C 355.860 39.361,355.350 39.586,354.800 39.662 C 354.250 39.738,353.485 40.143,353.100 40.561 C 352.646 41.055,352.400 41.139,352.400 40.800 C 352.400 40.461,352.154 40.545,351.700 41.039 C 351.315 41.457,350.657 41.859,350.238 41.932 C 348.796 42.181,343.192 45.058,343.496 45.393 C 343.663 45.577,343.617 45.624,343.392 45.498 C 342.872 45.203,339.895 46.562,340.260 46.927 C 340.410 47.077,340.164 47.200,339.712 47.200 C 338.678 47.200,336.725 48.191,337.073 48.539 C 337.216 48.683,336.978 48.800,336.544 48.800 C 335.526 48.800,330.336 51.403,330.676 51.742 C 330.817 51.884,330.443 52.000,329.843 52.000 C 329.218 52.000,328.858 52.171,329.000 52.400 C 329.140 52.627,328.804 52.800,328.224 52.800 C 327.661 52.800,327.200 52.980,327.200 53.200 C 327.200 53.420,326.840 53.600,326.400 53.600 C 325.960 53.600,325.600 53.780,325.600 54.000 C 325.600 54.220,325.195 54.403,324.700 54.406 C 323.972 54.411,323.915 54.486,324.400 54.800 C 324.961 55.163,323.853 55.443,322.670 55.237 C 322.489 55.206,322.455 55.365,322.594 55.590 C 322.814 55.946,322.013 56.192,321.100 56.047 C 320.251 55.913,321.720 57.491,332.500 68.292 C 338.935 74.739,344.265 80.208,344.346 80.444 C 344.508 80.922,328.833 96.798,328.198 96.799 C 327.720 96.800,299.352 68.414,299.144 67.727 C 299.040 67.387,298.575 67.451,297.493 67.954 C 296.665 68.339,296.110 68.776,296.260 68.927 C 296.410 69.077,296.068 69.200,295.500 69.200 C 294.932 69.200,294.407 69.366,294.333 69.570 C 294.260 69.773,293.937 69.998,293.616 70.070 C 293.294 70.141,292.675 70.515,292.240 70.900 C 291.516 71.540,290.727 71.786,289.870 71.637 C 289.689 71.606,289.655 71.765,289.794 71.990 C 290.008 72.337,289.538 72.484,288.570 72.374 C 288.443 72.359,287.993 72.747,287.570 73.235 C 287.146 73.723,286.800 73.902,286.800 73.633 C 286.800 73.306,286.589 73.354,286.168 73.775 C 285.820 74.123,285.403 74.325,285.241 74.225 C 285.078 74.125,284.705 74.377,284.411 74.785 C 284.117 75.193,283.657 75.443,283.389 75.341 C 283.122 75.238,282.620 75.438,282.273 75.784 C 281.926 76.131,281.498 76.369,281.321 76.315 C 280.814 76.157,274.800 79.253,274.800 79.671 C 274.800 79.878,274.620 79.936,274.400 79.800 C 272.096 78.376,276.734 83.344,291.400 98.010 C 300.970 107.580,308.800 115.665,308.800 115.976 C 308.800 116.759,293.551 131.991,292.762 131.996 C 292.178 132.000,252.374 92.472,252.066 91.582 C 251.992 91.369,251.722 91.326,251.466 91.486 C 251.210 91.646,250.691 91.825,250.314 91.884 C 248.969 92.093,243.197 95.064,243.496 95.393 C 243.663 95.577,243.617 95.624,243.392 95.498 C 242.872 95.203,239.895 96.562,240.260 96.927 C 240.410 97.077,240.164 97.200,239.712 97.200 C 238.678 97.200,236.725 98.191,237.073 98.539 C 237.216 98.683,236.978 98.800,236.544 98.800 C 235.526 98.800,230.336 101.403,230.676 101.742 C 230.817 101.884,230.443 102.000,229.843 102.000 C 229.218 102.000,228.858 102.171,229.000 102.400 C 229.140 102.627,228.804 102.800,228.224 102.800 C 227.661 102.800,227.200 102.980,227.200 103.200 C 227.200 103.420,226.941 103.600,226.624 103.600 C 226.307 103.600,225.919 103.808,225.762 104.062 C 225.604 104.318,225.650 104.416,225.867 104.282 C 226.321 104.001,272.934 150.492,273.134 151.426 C 273.297 152.182,258.111 167.600,257.204 167.600 C 256.867 167.600,244.807 155.810,230.403 141.400 C 210.754 121.742,203.982 115.200,203.284 115.200 C 202.765 115.200,202.462 115.377,202.600 115.600 C 202.736 115.820,202.494 116.000,202.061 116.000 C 201.136 116.000,198.000 117.602,198.000 118.074 C 198.000 118.253,197.735 118.400,197.412 118.400 C 196.833 118.400,193.990 119.852,193.600 120.346 C 193.490 120.486,193.130 120.653,192.800 120.718 C 191.863 120.903,184.828 124.431,184.573 124.844 C 184.447 125.047,184.177 125.109,183.972 124.983 C 183.768 124.856,183.600 124.973,183.600 125.243 C 183.600 125.513,183.487 125.620,183.349 125.482 C 183.211 125.344,182.266 125.696,181.249 126.264 C 180.232 126.831,179.340 127.259,179.267 127.215 C 179.193 127.170,179.028 127.238,178.900 127.367 C 178.772 127.495,178.877 127.600,179.133 127.600 C 179.390 127.600,179.600 127.807,179.600 128.060 C 179.600 128.312,192.650 141.573,208.600 157.528 C 224.550 173.483,237.600 186.821,237.600 187.168 C 237.599 187.873,222.277 203.200,221.573 203.200 C 221.040 203.200,157.600 139.703,157.600 139.169 C 157.600 138.462,156.138 138.808,153.486 140.142 C 152.019 140.881,150.949 141.630,151.109 141.806 C 151.269 141.983,151.217 142.024,150.992 141.898 C 150.768 141.771,149.868 142.006,148.992 142.420 C 148.117 142.834,147.164 143.179,146.876 143.186 C 146.588 143.194,146.445 143.350,146.559 143.533 C 146.672 143.717,146.506 143.867,146.190 143.867 C 145.373 143.867,142.000 145.654,142.000 146.086 C 142.000 146.285,141.835 146.345,141.632 146.220 C 141.430 146.095,141.021 146.219,140.723 146.496 C 140.425 146.773,139.917 147.059,139.594 147.132 C 139.272 147.205,138.916 147.385,138.804 147.532 C 138.692 147.679,138.330 147.858,138.000 147.930 C 137.670 148.001,137.340 148.226,137.267 148.430 C 137.193 148.633,136.788 148.800,136.367 148.800 C 135.945 148.800,135.600 148.980,135.600 149.200 C 135.600 149.420,135.252 149.600,134.827 149.600 C 134.375 149.600,133.937 149.974,133.773 150.500 C 133.619 150.995,133.296 151.525,133.057 151.678 C 132.802 151.842,146.919 166.280,167.281 186.678 C 186.343 205.775,202.425 221.940,203.019 222.600 C 203.614 223.260,203.875 223.485,203.601 223.100 C 203.199 222.536,203.208 222.266,203.651 221.708 C 204.787 220.278,221.181 204.000,221.484 204.003 C 221.658 204.004,236.277 218.494,253.971 236.203 C 285.060 267.317,287.200 269.340,287.200 267.600 C 287.200 267.160,287.380 266.800,287.600 266.800 C 287.820 266.800,288.000 266.440,288.000 266.000 C 288.000 265.560,288.180 265.200,288.400 265.200 C 288.620 265.200,288.800 264.840,288.800 264.400 C 288.800 263.960,288.980 263.600,289.200 263.600 C 289.420 263.600,289.600 263.361,289.600 263.068 C 289.600 262.775,290.005 261.731,290.500 260.748 C 290.995 259.764,291.659 258.294,291.975 257.480 C 292.291 256.666,292.696 256.000,292.875 256.000 C 293.054 256.000,293.200 255.640,293.200 255.200 C 293.200 254.760,293.380 254.400,293.600 254.400 C 293.820 254.400,294.000 254.040,294.000 253.600 C 294.000 253.160,294.180 252.800,294.400 252.800 C 294.620 252.800,294.800 252.440,294.800 252.000 C 294.800 251.560,294.980 251.200,295.200 251.200 C 295.420 251.200,295.600 250.840,295.600 250.400 C 295.600 249.960,295.780 249.600,296.000 249.600 C 296.220 249.600,296.400 249.240,296.400 248.800 C 296.400 248.360,296.580 248.000,296.800 248.000 C 299.239 248.000,297.311 245.899,267.749 216.345 L 238.297 186.902 247.327 177.851 C 252.294 172.873,256.600 168.800,256.895 168.800 C 257.464 168.800,309.600 220.704,309.600 221.270 C 309.600 221.452,309.780 221.600,310.000 221.600 C 310.220 221.600,310.400 221.240,310.400 220.800 C 310.400 220.360,310.580 220.000,310.800 220.000 C 311.020 220.000,311.200 219.640,311.200 219.200 C 311.200 218.760,311.380 218.400,311.600 218.400 C 311.820 218.400,312.000 218.040,312.000 217.600 C 312.000 217.160,312.180 216.800,312.400 216.800 C 312.620 216.800,312.800 216.440,312.800 216.000 C 312.800 215.560,312.980 215.200,313.200 215.200 C 313.420 215.200,313.600 214.840,313.600 214.400 C 313.600 213.960,313.780 213.600,314.000 213.600 C 314.220 213.600,314.400 213.240,314.400 212.800 C 314.400 212.360,314.580 212.000,314.800 212.000 C 315.020 212.000,315.200 211.640,315.200 211.200 C 315.200 210.760,315.380 210.400,315.600 210.400 C 315.820 210.400,316.000 210.040,316.000 209.600 C 316.000 209.160,316.135 208.799,316.300 208.799 C 316.465 208.798,317.050 207.808,317.600 206.600 C 318.150 205.392,318.735 204.402,318.900 204.401 C 319.065 204.401,319.200 204.040,319.200 203.600 C 319.200 203.160,319.380 202.800,319.600 202.800 C 319.820 202.800,320.000 202.440,320.000 202.000 C 320.000 201.560,320.180 201.200,320.400 201.200 C 320.620 201.200,320.800 200.840,320.800 200.400 C 320.800 199.960,320.980 199.600,321.200 199.600 C 321.420 199.600,321.600 199.330,321.600 199.000 C 321.600 198.670,321.388 198.400,321.129 198.400 C 320.622 198.400,275.020 153.057,274.371 151.908 C 274.046 151.332,275.532 149.674,283.269 141.983 L 292.557 132.750 313.071 153.275 C 333.992 174.208,334.800 174.914,334.800 172.256 C 334.800 171.895,334.980 171.600,335.200 171.600 C 335.420 171.600,335.600 171.240,335.600 170.800 C 335.600 170.360,335.780 170.000,336.000 170.000 C 336.220 170.000,336.400 169.640,336.400 169.200 C 336.400 168.760,336.580 168.400,336.800 168.400 C 337.020 168.400,337.200 168.040,337.200 167.600 C 337.200 167.160,337.380 166.800,337.600 166.800 C 337.820 166.800,338.000 166.440,338.000 166.000 C 338.000 165.560,338.180 165.200,338.400 165.200 C 338.620 165.200,338.800 164.840,338.800 164.400 C 338.800 163.960,338.980 163.600,339.200 163.600 C 339.420 163.600,339.600 163.361,339.600 163.068 C 339.600 162.775,340.005 161.731,340.500 160.748 C 340.995 159.764,341.659 158.294,341.975 157.480 C 342.291 156.666,342.696 156.000,342.875 156.000 C 343.054 156.000,343.200 155.640,343.200 155.200 C 343.200 154.760,343.380 154.400,343.600 154.400 C 343.820 154.400,344.000 154.040,344.000 153.600 C 344.000 153.160,344.159 152.800,344.353 152.800 C 344.548 152.800,344.793 152.350,344.898 151.800 C 345.009 151.217,344.903 150.800,344.643 150.800 C 344.153 150.800,309.600 116.383,309.600 115.894 C 309.600 115.493,327.709 97.604,328.117 97.602 C 328.292 97.601,334.831 104.001,342.649 111.823 C 357.364 126.549,357.845 126.933,358.544 124.497 C 358.748 123.784,359.070 123.200,359.258 123.200 C 359.446 123.200,359.600 122.840,359.600 122.400 C 359.600 121.960,359.780 121.600,360.000 121.600 C 360.220 121.600,360.400 121.240,360.400 120.800 C 360.400 120.360,360.580 120.000,360.800 120.000 C 361.020 120.000,361.200 119.640,361.200 119.200 C 361.200 118.760,361.380 118.400,361.600 118.400 C 361.820 118.400,362.000 118.040,362.000 117.600 C 362.000 117.160,362.180 116.800,362.400 116.800 C 362.620 116.800,362.800 116.440,362.800 116.000 C 362.800 115.560,362.980 115.200,363.200 115.200 C 363.420 115.200,363.600 114.840,363.600 114.400 C 363.600 113.960,363.780 113.600,364.000 113.600 C 364.220 113.600,364.400 113.240,364.400 112.800 C 364.400 112.360,364.580 112.000,364.800 112.000 C 365.020 112.000,365.200 111.640,365.200 111.200 C 365.200 110.760,365.380 110.400,365.600 110.400 C 365.820 110.400,366.000 110.055,366.000 109.633 C 366.000 109.212,366.135 108.807,366.300 108.733 C 367.402 108.243,368.985 103.200,368.037 103.200 C 367.479 103.200,345.139 80.782,345.279 80.362 C 345.463 79.811,396.516 28.800,396.883 28.800 C 397.432 28.800,397.208 28.237,396.207 27.100 C 395.674 26.495,394.970 26.000,394.643 26.000 C 394.315 26.000,393.941 25.828,393.811 25.617 C 393.681 25.407,393.310 25.336,392.987 25.460 C 392.664 25.584,392.400 25.486,392.400 25.243 C 392.400 24.947,391.004 24.800,388.200 24.800 C 385.757 24.800,384.000 24.962,384.000 25.187 M211.950 231.740 C 212.700 232.643,219.035 238.934,220.256 239.987 C 220.885 240.531,219.243 238.776,216.606 236.087 C 212.356 231.754,210.605 230.119,211.950 231.740 M228.830 248.644 C 230.629 250.582,236.515 256.398,237.160 256.875 C 237.512 257.136,235.643 255.155,233.006 252.475 C 230.370 249.794,228.133 247.600,228.037 247.600 C 227.940 247.600,228.297 248.070,228.830 248.644 M244.400 264.148 C 244.400 264.307,244.850 264.886,245.400 265.436 C 245.950 265.986,246.400 266.280,246.400 266.088 C 246.400 265.896,245.950 265.317,245.400 264.800 C 244.850 264.283,244.400 263.990,244.400 264.148 M246.800 266.518 C 246.800 266.919,252.017 272.116,252.218 271.915 C 252.306 271.828,251.122 270.511,249.589 268.989 C 248.055 267.467,246.800 266.355,246.800 266.518 M263.200 282.918 C 263.200 283.319,268.417 288.516,268.618 288.315 C 268.706 288.228,267.522 286.911,265.989 285.389 C 264.455 283.867,263.200 282.755,263.200 282.918 M273.478 292.423 C 273.317 293.037,273.432 293.214,273.927 293.119 C 274.764 292.958,275.076 291.600,274.276 291.600 C 273.956 291.600,273.596 291.970,273.478 292.423 " stroke="none" fill="#fcc44c" fill-rule="evenodd"></path><path id="path1" d="M396.975 28.640 C 396.423 28.870,345.441 79.878,345.279 80.362 C 345.139 80.782,367.479 103.200,368.037 103.200 C 368.236 103.200,368.400 103.470,368.400 103.800 C 368.400 104.130,368.580 104.400,368.800 104.400 C 369.020 104.400,369.200 104.040,369.200 103.600 C 369.200 103.160,369.380 102.800,369.600 102.800 C 369.820 102.800,370.000 102.440,370.000 102.000 C 370.000 101.560,370.180 101.200,370.400 101.200 C 370.620 101.200,370.800 100.840,370.800 100.400 C 370.800 99.960,370.980 99.600,371.200 99.600 C 371.420 99.600,371.600 99.240,371.600 98.800 C 371.600 98.360,371.780 98.000,372.000 98.000 C 372.220 98.000,372.400 97.640,372.400 97.200 C 372.400 96.760,372.580 96.400,372.800 96.400 C 373.020 96.400,373.200 96.161,373.200 95.868 C 373.200 95.575,373.605 94.531,374.100 93.548 C 374.595 92.564,375.259 91.094,375.575 90.280 C 375.891 89.466,376.296 88.800,376.475 88.800 C 376.654 88.800,376.800 88.440,376.800 88.000 C 376.800 87.560,376.980 87.200,377.200 87.200 C 377.420 87.200,377.600 86.840,377.600 86.400 C 377.600 85.960,377.780 85.600,378.000 85.600 C 378.220 85.600,378.400 85.240,378.400 84.800 C 378.400 84.360,378.580 84.000,378.800 84.000 C 379.020 84.000,379.200 83.640,379.200 83.200 C 379.200 82.760,379.380 82.400,379.600 82.400 C 379.820 82.400,380.000 82.040,380.000 81.600 C 380.000 81.160,380.180 80.800,380.400 80.800 C 380.620 80.800,380.800 80.440,380.800 80.000 C 380.800 79.560,380.980 79.200,381.200 79.200 C 381.420 79.200,381.600 78.928,381.600 78.595 C 381.600 78.008,382.360 76.406,382.832 76.000 C 382.960 75.890,383.319 75.215,383.630 74.500 C 383.941 73.785,384.331 73.200,384.498 73.200 C 384.664 73.200,384.800 72.966,384.800 72.680 C 384.800 71.944,385.741 70.007,386.100 70.003 C 386.265 70.001,386.400 69.640,386.400 69.200 C 386.400 68.760,386.580 68.400,386.800 68.400 C 387.020 68.400,387.200 68.040,387.200 67.600 C 387.200 67.160,387.380 66.800,387.600 66.800 C 387.820 66.800,388.000 66.440,388.000 66.000 C 388.000 65.560,388.180 65.200,388.400 65.200 C 388.620 65.200,388.800 64.840,388.800 64.400 C 388.800 63.960,388.980 63.600,389.200 63.600 C 389.420 63.600,389.600 63.361,389.600 63.068 C 389.600 62.775,390.049 61.650,390.598 60.568 C 391.147 59.486,391.597 58.375,391.598 58.100 C 391.599 57.825,391.780 57.600,392.000 57.600 C 392.220 57.600,392.400 57.139,392.400 56.576 C 392.400 55.996,392.573 55.660,392.800 55.800 C 393.020 55.936,393.200 55.677,393.200 55.224 C 393.200 54.771,393.380 54.400,393.600 54.400 C 393.820 54.400,394.000 54.166,394.000 53.880 C 394.000 53.144,394.941 51.207,395.300 51.203 C 395.465 51.201,395.600 50.840,395.600 50.400 C 395.600 49.960,395.780 49.600,396.000 49.600 C 396.220 49.600,396.400 49.240,396.400 48.800 C 396.400 48.360,396.580 48.000,396.800 48.000 C 397.020 48.000,397.200 47.640,397.200 47.200 C 397.200 46.760,397.380 46.400,397.600 46.400 C 397.820 46.400,398.000 46.128,398.000 45.795 C 398.000 45.102,398.813 43.534,399.385 43.124 C 399.871 42.775,400.180 35.501,399.828 32.682 C 399.602 30.877,398.220 28.294,397.553 28.432 C 397.469 28.449,397.209 28.543,396.975 28.640 M318.700 106.598 C 313.695 111.545,309.600 115.730,309.600 115.898 C 309.600 116.395,344.135 150.673,344.900 150.935 C 345.411 151.110,345.600 150.962,345.600 150.387 C 345.600 149.954,345.780 149.600,346.000 149.600 C 346.220 149.600,346.400 149.240,346.400 148.800 C 346.400 148.360,346.580 148.000,346.800 148.000 C 347.020 148.000,347.200 147.640,347.200 147.200 C 347.200 146.760,347.380 146.400,347.600 146.400 C 347.820 146.400,348.000 145.939,348.000 145.376 C 348.000 144.796,348.173 144.460,348.400 144.600 C 348.620 144.736,348.800 144.477,348.800 144.024 C 348.800 143.571,348.980 143.200,349.200 143.200 C 349.420 143.200,349.600 142.840,349.600 142.400 C 349.600 141.960,349.780 141.600,350.000 141.600 C 350.220 141.600,350.400 141.330,350.400 141.000 C 350.400 140.670,350.580 140.400,350.800 140.400 C 351.020 140.400,351.200 140.051,351.200 139.624 C 351.200 139.197,351.380 138.736,351.600 138.600 C 351.820 138.464,352.000 137.993,352.000 137.553 C 352.000 137.113,352.180 136.864,352.400 137.000 C 352.620 137.136,352.800 136.877,352.800 136.424 C 352.800 135.971,352.980 135.600,353.200 135.600 C 353.420 135.600,353.600 135.240,353.600 134.800 C 353.600 134.360,353.780 134.000,354.000 134.000 C 354.220 134.000,354.400 133.640,354.400 133.200 C 354.400 132.760,354.580 132.400,354.800 132.400 C 355.020 132.400,355.200 131.939,355.200 131.376 C 355.200 130.796,355.373 130.460,355.600 130.600 C 355.820 130.736,356.000 130.602,356.000 130.303 C 356.000 129.549,356.935 127.607,357.300 127.603 C 357.465 127.601,357.600 127.240,357.600 126.800 C 357.600 126.360,357.423 126.000,357.208 126.000 C 356.992 126.000,350.430 119.610,342.625 111.800 C 334.821 103.990,328.292 97.601,328.117 97.602 C 327.943 97.603,323.705 101.651,318.700 106.598 M283.269 141.983 C 275.532 149.674,274.046 151.332,274.371 151.908 C 275.934 154.676,321.600 199.220,321.600 197.976 C 321.600 197.743,321.780 197.664,322.000 197.800 C 322.228 197.941,322.400 197.596,322.400 197.000 C 322.400 196.404,322.572 196.059,322.800 196.200 C 323.034 196.345,323.200 195.930,323.200 195.200 C 323.200 194.470,323.366 194.055,323.600 194.200 C 323.820 194.336,324.000 194.077,324.000 193.624 C 324.000 193.171,324.166 192.800,324.368 192.800 C 324.571 192.800,324.855 192.262,324.999 191.605 C 325.143 190.947,325.428 190.306,325.631 190.181 C 325.834 190.055,326.000 189.593,326.000 189.153 C 326.000 188.713,326.180 188.464,326.400 188.600 C 326.620 188.736,326.800 188.477,326.800 188.024 C 326.800 187.571,326.980 187.200,327.200 187.200 C 327.420 187.200,327.603 186.615,327.606 185.900 C 327.611 184.914,327.706 184.745,328.000 185.200 C 328.291 185.651,328.391 185.452,328.400 184.400 C 328.409 183.348,328.509 183.149,328.800 183.600 C 329.114 184.085,329.189 184.028,329.194 183.300 C 329.197 182.805,329.380 182.400,329.600 182.400 C 329.820 182.400,330.000 182.040,330.000 181.600 C 330.000 181.160,330.180 180.800,330.400 180.800 C 330.620 180.800,330.800 180.339,330.800 179.776 C 330.800 179.196,330.973 178.860,331.200 179.000 C 331.428 179.141,331.600 178.796,331.600 178.200 C 331.600 177.604,331.772 177.259,332.000 177.400 C 332.234 177.545,332.413 177.098,332.432 176.324 C 332.449 175.596,332.558 175.238,332.674 175.528 C 332.814 175.876,333.078 175.686,333.450 174.969 C 333.760 174.371,333.921 173.788,333.807 173.674 C 333.693 173.560,333.600 173.545,333.600 173.641 C 333.600 173.738,324.365 164.576,313.078 153.283 L 292.557 132.750 283.269 141.983 M247.249 177.877 L 238.298 186.902 267.749 216.345 C 283.947 232.539,297.200 245.926,297.200 246.094 C 297.200 246.262,297.380 246.400,297.600 246.400 C 297.820 246.400,298.000 245.939,298.000 245.376 C 298.000 244.796,298.173 244.460,298.400 244.600 C 298.620 244.736,298.800 244.477,298.800 244.024 C 298.800 243.571,298.980 243.200,299.200 243.200 C 299.420 243.200,299.600 242.840,299.600 242.400 C 299.600 241.960,299.780 241.600,300.000 241.600 C 300.220 241.600,300.400 241.330,300.400 241.000 C 300.400 240.670,300.580 240.400,300.800 240.400 C 301.020 240.400,301.200 240.051,301.200 239.624 C 301.200 239.197,301.380 238.736,301.600 238.600 C 301.820 238.464,302.000 238.037,302.000 237.652 C 302.000 237.266,302.360 236.564,302.800 236.092 C 303.240 235.620,303.600 234.956,303.600 234.617 C 303.600 234.278,303.780 234.000,304.000 234.000 C 304.220 234.000,304.400 233.640,304.400 233.200 C 304.400 232.760,304.580 232.400,304.800 232.400 C 305.020 232.400,305.200 231.939,305.200 231.376 C 305.200 230.796,305.373 230.460,305.600 230.600 C 305.820 230.736,306.000 230.602,306.000 230.303 C 306.000 229.549,306.935 227.607,307.300 227.603 C 307.465 227.601,307.600 227.251,307.600 226.824 C 307.600 226.397,307.766 225.945,307.969 225.819 C 308.172 225.694,308.457 225.053,308.601 224.395 C 308.745 223.738,309.029 223.200,309.232 223.200 C 309.434 223.200,309.600 222.692,309.600 222.070 C 309.600 220.797,258.028 168.775,256.817 168.826 C 256.478 168.840,252.172 172.913,247.249 177.877 M212.100 213.028 C 207.205 217.967,203.200 222.165,203.200 222.356 C 203.200 222.684,273.119 292.800,273.447 292.800 C 273.531 292.800,273.600 292.530,273.600 292.200 C 273.600 291.870,273.915 291.599,274.300 291.597 C 274.984 291.594,276.000 289.980,276.000 288.897 C 276.000 288.598,276.180 288.464,276.400 288.600 C 276.620 288.736,276.800 288.477,276.800 288.024 C 276.800 287.571,276.980 287.200,277.200 287.200 C 277.420 287.200,277.600 286.739,277.600 286.176 C 277.600 285.596,277.773 285.260,278.000 285.400 C 278.220 285.536,278.400 285.277,278.400 284.824 C 278.400 284.371,278.580 284.000,278.800 284.000 C 279.020 284.000,279.200 283.640,279.200 283.200 C 279.200 282.760,279.380 282.400,279.600 282.400 C 279.820 282.400,280.000 282.040,280.000 281.600 C 280.000 281.160,280.180 280.800,280.400 280.800 C 280.620 280.800,280.800 280.440,280.800 280.000 C 280.800 279.560,280.980 279.200,281.200 279.200 C 281.420 279.200,281.600 278.840,281.600 278.400 C 281.600 277.960,281.780 277.600,282.000 277.600 C 282.220 277.600,282.400 277.240,282.400 276.800 C 282.400 276.360,282.546 276.000,282.725 276.000 C 282.904 276.000,283.298 275.370,283.600 274.600 C 283.902 273.830,284.296 273.200,284.475 273.200 C 284.654 273.200,284.800 272.966,284.800 272.680 C 284.800 271.944,285.741 270.007,286.100 270.003 C 286.265 270.001,286.400 269.698,286.400 269.329 C 286.400 268.613,222.076 203.991,221.400 204.027 C 221.180 204.039,216.995 208.090,212.100 213.028 " stroke="none" fill="#fc8c04" fill-rule="evenodd"></path><path id="path2" d="M319.200 57.126 C 319.200 57.401,316.620 58.835,316.000 58.905 C 315.890 58.917,315.035 59.355,314.100 59.877 C 313.165 60.399,312.397 60.685,312.394 60.513 C 312.391 60.341,312.237 60.437,312.054 60.727 C 311.870 61.016,311.467 61.290,311.157 61.336 C 310.848 61.381,310.151 61.729,309.608 62.109 C 309.066 62.489,308.313 62.800,307.935 62.800 C 307.557 62.800,307.135 62.981,306.998 63.203 C 306.689 63.704,303.637 65.200,302.925 65.200 C 302.636 65.200,302.400 65.380,302.400 65.600 C 302.400 65.820,302.062 66.000,301.649 66.000 C 301.236 66.000,300.676 66.268,300.404 66.596 C 300.132 66.923,299.750 67.093,299.555 66.972 C 299.360 66.851,299.200 67.079,299.200 67.478 C 299.200 68.224,327.466 96.801,328.202 96.799 C 328.835 96.798,344.507 80.920,344.346 80.444 C 343.460 77.834,319.200 55.337,319.200 57.126 M272.421 80.574 C 272.159 80.890,271.417 81.264,270.772 81.406 C 270.128 81.548,269.600 81.829,269.600 82.032 C 269.600 82.234,269.355 82.400,269.056 82.400 C 268.399 82.400,263.455 84.876,263.267 85.300 C 263.193 85.465,262.788 85.600,262.367 85.600 C 261.945 85.600,261.600 85.780,261.600 86.000 C 261.600 86.220,261.229 86.400,260.776 86.400 C 260.323 86.400,260.052 86.561,260.174 86.758 C 260.457 87.216,259.265 87.687,258.702 87.339 C 258.451 87.184,258.394 87.266,258.562 87.538 C 258.743 87.831,258.540 88.000,258.007 88.000 C 257.545 88.000,256.780 88.360,256.308 88.800 C 255.836 89.240,255.134 89.600,254.748 89.600 C 254.363 89.600,253.936 89.780,253.800 90.000 C 253.664 90.220,253.191 90.400,252.749 90.400 C 252.172 90.400,251.981 90.623,252.072 91.188 C 252.237 92.206,291.918 132.001,292.762 131.996 C 293.551 131.991,308.800 116.759,308.800 115.976 C 308.800 115.665,300.970 107.580,291.400 98.010 C 281.830 88.440,274.000 80.473,274.000 80.305 C 274.000 79.786,272.924 79.969,272.421 80.574 M225.800 104.000 C 226.015 104.348,225.204 104.590,224.300 104.447 C 224.135 104.421,224.000 104.580,224.000 104.800 C 224.000 105.020,223.722 105.200,223.383 105.200 C 223.044 105.200,222.380 105.560,221.908 106.000 C 221.436 106.440,220.633 106.800,220.125 106.800 C 219.616 106.800,219.200 106.947,219.200 107.126 C 219.200 107.406,216.760 108.768,216.201 108.801 C 216.094 108.807,215.195 109.265,214.203 109.819 C 213.212 110.373,212.397 110.685,212.394 110.513 C 212.391 110.341,212.237 110.437,212.054 110.727 C 211.870 111.016,211.467 111.290,211.157 111.336 C 210.848 111.381,210.151 111.729,209.608 112.109 C 209.066 112.489,208.313 112.800,207.935 112.800 C 207.557 112.800,207.126 112.996,206.978 113.236 C 206.830 113.476,205.964 114.003,205.054 114.408 C 204.144 114.812,203.583 115.156,203.807 115.172 C 204.031 115.187,215.999 126.990,230.403 141.400 C 244.807 155.810,256.867 167.600,257.204 167.600 C 258.111 167.600,273.297 152.182,273.134 151.426 C 273.023 150.905,226.089 103.600,225.684 103.600 C 225.612 103.600,225.664 103.780,225.800 104.000 M172.555 130.500 C 169.280 132.095,166.540 133.535,166.467 133.700 C 166.393 133.865,165.988 134.000,165.567 134.000 C 165.145 134.000,164.800 134.180,164.800 134.400 C 164.800 134.620,164.440 134.800,164.000 134.800 C 163.560 134.800,163.200 134.980,163.200 135.200 C 163.200 135.420,162.840 135.600,162.400 135.600 C 161.960 135.600,161.600 135.780,161.600 136.000 C 161.600 136.220,161.317 136.400,160.971 136.400 C 160.626 136.400,160.071 136.672,159.739 137.004 C 159.407 137.336,158.970 137.505,158.768 137.380 C 158.565 137.255,158.400 137.343,158.400 137.576 C 158.400 137.809,158.040 138.000,157.600 138.000 C 156.621 138.000,156.608 138.158,157.500 139.240 C 159.312 141.438,221.183 203.200,221.574 203.200 C 222.277 203.200,237.599 187.872,237.600 187.168 C 237.600 186.821,224.550 173.483,208.600 157.528 C 192.650 141.573,179.600 128.312,179.600 128.060 C 179.600 127.217,178.552 127.580,172.555 130.500 M132.900 150.412 C 132.405 150.611,132.000 151.005,132.000 151.288 C 132.000 151.571,147.878 167.641,167.284 187.001 C 186.690 206.360,202.485 222.070,202.384 221.911 C 202.283 221.752,186.545 205.948,167.411 186.790 C 147.612 166.965,132.803 151.837,133.040 151.678 C 133.390 151.446,134.158 149.947,133.887 150.025 C 133.839 150.039,133.395 150.213,132.900 150.412 M207.400 227.600 C 209.150 229.360,210.671 230.800,210.781 230.800 C 210.891 230.800,209.550 229.360,207.800 227.600 C 206.050 225.840,204.529 224.400,204.419 224.400 C 204.309 224.400,205.650 225.840,207.400 227.600 " stroke="none" fill="#fce463" fill-rule="evenodd"></path><path id="path3" d="M130.400 151.514 C 130.400 151.978,128.155 153.221,127.856 152.923 C 127.715 152.782,127.600 152.877,127.600 153.133 C 127.600 153.390,127.229 153.600,126.776 153.600 C 126.323 153.600,126.064 153.780,126.200 154.000 C 126.336 154.220,126.077 154.400,125.624 154.400 C 125.171 154.400,124.800 154.580,124.800 154.800 C 124.800 155.020,124.483 155.200,124.096 155.200 C 123.709 155.200,123.168 155.560,122.893 156.000 C 122.618 156.440,122.125 156.800,121.797 156.800 C 121.468 156.800,121.200 156.980,121.200 157.200 C 121.200 157.420,120.846 157.600,120.414 157.600 C 119.982 157.600,119.428 157.974,119.183 158.431 C 118.919 158.924,118.499 159.170,118.149 159.036 C 117.817 158.908,117.665 158.982,117.803 159.205 C 117.937 159.422,117.678 159.600,117.227 159.600 C 116.776 159.600,116.182 159.960,115.907 160.400 C 115.632 160.840,115.080 161.200,114.680 161.200 C 114.280 161.200,114.064 161.380,114.200 161.600 C 114.336 161.820,114.145 162.000,113.776 162.000 C 113.407 162.000,112.569 162.585,111.913 163.300 C 111.257 164.015,110.844 164.330,110.995 164.000 C 111.147 163.670,110.638 164.058,109.865 164.862 C 109.091 165.667,108.368 166.234,108.257 166.123 C 108.146 166.013,107.820 166.300,107.531 166.761 C 107.243 167.222,106.864 167.600,106.688 167.600 C 106.512 167.600,105.483 168.500,104.400 169.600 C 103.317 170.700,102.265 171.600,102.062 171.600 C 101.600 171.600,96.215 176.798,96.669 176.806 C 96.851 176.809,96.730 176.983,96.400 177.192 C 96.070 177.400,95.800 177.757,95.800 177.985 C 95.800 178.213,95.706 178.355,95.590 178.300 C 95.244 178.135,94.070 179.376,94.266 179.700 C 94.365 179.865,94.186 180.000,93.866 180.000 C 93.266 180.000,92.599 181.095,92.770 181.800 C 92.823 182.020,92.740 182.074,92.586 181.919 C 92.274 181.607,91.200 182.532,91.200 183.112 C 91.200 183.315,90.659 184.047,89.998 184.739 C 89.337 185.431,88.752 186.132,88.698 186.298 C 88.644 186.464,88.452 186.551,88.270 186.490 C 88.089 186.430,88.046 186.550,88.174 186.758 C 88.302 186.966,88.136 187.407,87.804 187.739 C 87.472 188.071,87.200 188.516,87.200 188.729 C 87.200 188.941,86.919 189.222,86.575 189.354 C 86.231 189.486,86.051 189.759,86.176 189.961 C 86.300 190.162,85.862 190.782,85.201 191.338 C 84.540 191.894,84.000 192.540,84.000 192.774 C 84.000 193.008,83.842 193.200,83.649 193.200 C 83.455 193.200,83.073 193.740,82.800 194.400 C 82.527 195.060,82.134 195.600,81.928 195.600 C 81.722 195.600,81.652 195.761,81.774 195.958 C 81.896 196.155,81.726 196.419,81.398 196.546 C 81.069 196.672,80.800 197.051,80.800 197.387 C 80.800 197.724,80.612 198.000,80.382 198.000 C 80.153 198.000,79.994 198.225,80.030 198.500 C 80.159 199.495,79.992 200.043,79.629 199.818 C 79.267 199.594,78.694 200.793,78.585 202.000 C 78.495 203.002,77.936 204.008,77.589 203.793 C 77.198 203.551,75.928 205.961,76.209 206.414 C 76.317 206.589,76.262 206.792,76.088 206.866 C 75.611 207.068,73.200 212.111,73.200 212.907 C 73.200 213.288,73.020 213.600,72.800 213.600 C 72.580 213.600,72.400 213.960,72.400 214.400 C 72.400 214.840,72.258 215.200,72.085 215.200 C 71.912 215.200,71.741 215.589,71.705 216.064 C 71.669 216.539,71.496 217.034,71.320 217.164 C 71.144 217.294,70.937 217.760,70.860 218.200 C 70.783 218.640,70.532 219.117,70.302 219.260 C 70.072 219.402,69.987 219.790,70.114 220.121 C 70.241 220.452,70.093 221.055,69.785 221.461 C 69.477 221.868,69.220 222.594,69.213 223.076 C 69.206 223.558,69.020 224.064,68.800 224.200 C 68.580 224.336,68.400 224.887,68.400 225.424 C 68.400 225.961,68.220 226.400,68.000 226.400 C 67.780 226.400,67.600 227.030,67.600 227.800 C 67.600 228.570,67.401 229.200,67.157 229.200 C 66.914 229.200,66.809 229.448,66.926 229.750 C 67.042 230.053,66.881 230.793,66.568 231.396 C 66.256 231.998,66.000 233.291,66.000 234.269 C 66.000 235.247,65.856 235.958,65.680 235.849 C 65.504 235.741,65.309 236.225,65.247 236.926 C 65.013 239.580,64.942 239.991,64.675 240.259 C 64.524 240.410,64.400 241.223,64.400 242.067 C 64.400 242.910,64.221 243.600,64.001 243.600 C 63.770 243.600,63.621 244.789,63.646 246.436 C 63.670 248.041,63.496 249.464,63.244 249.716 C 63.000 249.960,62.803 250.439,62.806 250.780 C 62.812 251.326,62.858 251.329,63.200 250.800 C 63.433 250.439,63.590 250.390,63.594 250.676 C 63.597 250.938,63.427 251.260,63.215 251.391 C 62.536 251.811,62.756 274.988,63.452 276.383 L 64.035 277.553 78.118 277.677 L 92.200 277.801 93.990 278.801 C 103.766 284.257,102.605 297.554,92.040 301.139 C 89.827 301.890,70.027 301.746,69.002 300.971 C 68.089 300.281,32.594 300.143,31.769 300.827 C 31.532 301.023,30.542 301.232,29.569 301.291 C 28.596 301.350,27.703 301.528,27.584 301.686 C 27.466 301.845,26.791 302.018,26.084 302.072 C 25.378 302.126,24.800 302.312,24.800 302.485 C 24.800 302.658,24.337 302.800,23.771 302.800 C 23.206 302.800,22.471 303.072,22.139 303.404 C 21.807 303.736,21.389 303.917,21.210 303.806 C 21.030 303.695,20.776 303.885,20.645 304.228 C 20.513 304.570,20.204 304.726,19.958 304.574 C 19.712 304.422,19.394 304.486,19.251 304.717 C 19.109 304.947,18.737 305.195,18.424 305.268 C 18.112 305.341,17.454 305.733,16.964 306.141 C 16.473 306.549,15.924 306.909,15.744 306.941 C 15.563 306.973,14.902 307.538,14.274 308.195 C 13.646 308.852,12.898 309.392,12.612 309.395 C 11.840 309.403,7.556 314.005,7.861 314.499 C 8.016 314.749,7.934 314.806,7.661 314.638 C 7.379 314.464,7.045 314.756,6.805 315.386 C 6.589 315.955,6.139 316.525,5.806 316.653 C 5.473 316.781,5.200 317.187,5.200 317.554 C 5.200 317.922,4.840 318.483,4.400 318.800 C 3.960 319.117,3.600 319.697,3.600 320.088 C 3.600 320.480,3.420 320.800,3.200 320.800 C 2.980 320.800,2.800 321.160,2.800 321.600 C 2.800 322.040,2.612 322.400,2.382 322.400 C 2.153 322.400,1.994 322.625,2.030 322.900 C 2.190 324.131,1.965 325.226,1.600 325.000 C 1.377 324.862,1.200 325.169,1.200 325.696 C 1.200 326.215,0.975 326.865,0.700 327.140 C -0.105 327.944,-0.011 347.895,0.800 348.408 C 1.204 348.664,1.235 348.790,0.897 348.794 C 0.526 348.798,0.499 349.010,0.797 349.600 C 1.018 350.040,1.380 350.758,1.600 351.195 C 1.820 351.632,2.004 352.217,2.009 352.495 C 2.014 352.773,2.370 353.450,2.800 354.000 C 3.230 354.550,3.586 355.405,3.591 355.900 C 3.596 356.445,3.846 356.800,4.224 356.800 C 4.567 356.800,4.736 356.980,4.600 357.200 C 4.464 357.420,4.543 357.600,4.776 357.600 C 5.009 357.600,5.200 357.870,5.200 358.200 C 5.200 358.530,5.380 358.800,5.600 358.800 C 5.820 358.800,6.000 359.081,6.000 359.424 C 6.000 359.767,6.180 359.936,6.400 359.800 C 6.620 359.664,6.800 359.857,6.800 360.229 C 6.800 360.602,7.132 361.197,7.537 361.553 C 7.943 361.909,8.492 362.610,8.757 363.111 C 9.023 363.612,9.411 363.917,9.620 363.788 C 9.829 363.658,10.000 363.908,10.000 364.343 C 10.000 364.837,10.452 365.333,11.205 365.666 C 11.867 365.959,12.510 366.517,12.633 366.906 C 12.757 367.294,13.025 367.508,13.229 367.382 C 13.433 367.256,13.600 367.418,13.600 367.743 C 13.600 368.067,14.140 368.572,14.800 368.864 C 15.460 369.156,16.000 369.517,16.000 369.667 C 16.000 369.816,16.632 370.146,17.404 370.401 C 18.176 370.656,18.705 371.030,18.580 371.232 C 18.455 371.435,18.723 371.600,19.176 371.600 C 19.629 371.600,20.000 371.810,20.000 372.067 C 20.000 372.323,20.114 372.420,20.253 372.281 C 20.392 372.142,20.887 372.239,21.353 372.496 C 21.819 372.753,22.516 372.916,22.903 372.856 C 23.289 372.797,23.713 373.029,23.845 373.372 C 23.976 373.715,24.226 373.907,24.401 373.799 C 24.870 373.510,27.218 374.048,27.003 374.396 C 26.654 374.959,30.530 375.200,39.956 375.200 L 49.400 375.200 125.695 298.917 L 201.991 222.634 166.895 187.518 C 147.593 168.205,131.742 152.132,131.671 151.801 C 131.540 151.193,130.400 150.935,130.400 151.514 M389.694 364.584 C 388.434 365.893,388.579 366.238,389.881 365.030 C 390.475 364.479,390.877 363.944,390.775 363.841 C 390.672 363.739,390.186 364.073,389.694 364.584 " stroke="none" fill="#f4fbfb" fill-rule="evenodd"></path><path id="path4" d="M126.698 298.711 C 85.172 340.230,51.197 374.425,51.198 374.700 C 51.200 375.099,82.868 375.200,208.200 375.200 C 312.600 375.200,365.200 375.066,365.200 374.800 C 365.200 374.580,365.571 374.400,366.024 374.400 C 366.477 374.400,366.736 374.580,366.600 374.800 C 366.464 375.020,366.644 375.200,367.000 375.200 C 367.374 375.200,367.531 375.012,367.372 374.754 C 367.178 374.441,367.705 374.362,369.148 374.487 C 370.596 374.613,371.200 374.522,371.200 374.177 C 371.200 373.908,371.817 373.615,372.572 373.527 C 373.327 373.439,373.856 373.510,373.748 373.684 C 373.641 373.858,373.833 374.000,374.176 374.000 C 374.519 374.000,374.755 373.775,374.700 373.500 C 374.639 373.197,375.022 373.005,375.671 373.014 C 376.260 373.021,376.710 372.845,376.671 372.623 C 376.632 372.401,377.005 372.157,377.500 372.082 C 377.995 372.006,378.400 371.777,378.400 371.572 C 378.400 371.367,378.655 371.200,378.967 371.200 C 379.278 371.200,379.615 370.975,379.714 370.700 C 379.859 370.302,380.066 370.301,380.733 370.694 C 381.437 371.109,381.534 371.094,381.344 370.598 C 381.209 370.245,381.417 369.892,381.858 369.724 C 382.266 369.568,382.949 369.116,383.375 368.720 C 383.802 368.324,384.387 368.000,384.675 368.000 C 384.964 368.000,385.200 367.839,385.200 367.643 C 385.200 367.150,386.483 366.699,386.768 367.092 C 386.896 367.267,387.399 367.003,387.886 366.505 C 388.905 365.464,388.626 365.272,387.531 366.262 C 387.120 366.635,386.800 366.728,386.800 366.476 C 386.800 366.230,387.472 365.572,388.293 365.014 C 389.114 364.456,389.641 364.000,389.464 364.000 C 389.287 364.000,389.413 363.730,389.743 363.400 C 390.073 363.070,390.530 362.800,390.759 362.800 C 390.988 362.800,391.062 362.485,390.924 362.100 C 390.786 361.715,390.811 361.525,390.981 361.678 C 391.312 361.977,393.200 359.945,393.200 359.289 C 393.200 359.071,393.574 358.796,394.030 358.676 C 394.626 358.520,394.824 358.197,394.730 357.530 C 394.639 356.876,394.799 356.598,395.272 356.595 C 395.641 356.592,396.091 356.428,396.272 356.231 C 396.459 356.026,396.386 355.995,396.100 356.159 C 395.825 356.318,395.600 356.284,395.600 356.085 C 395.600 355.885,396.005 355.509,396.500 355.249 C 396.995 354.988,397.105 354.857,396.745 354.958 C 396.261 355.093,396.143 354.940,396.292 354.370 C 396.403 353.947,396.832 353.600,397.247 353.600 C 397.662 353.600,398.000 353.320,398.000 352.976 C 398.000 352.633,397.832 352.456,397.628 352.583 C 397.423 352.709,397.141 352.629,397.002 352.404 C 396.863 352.179,397.004 351.897,397.315 351.777 C 397.683 351.636,397.811 351.193,397.682 350.514 C 397.525 349.697,397.615 349.520,398.091 349.703 C 398.574 349.888,398.696 349.617,398.678 348.396 C 398.665 347.549,398.857 346.613,399.104 346.316 C 399.595 345.724,399.680 344.600,399.692 338.600 C 399.703 332.923,399.467 329.871,398.974 329.345 C 398.740 329.095,398.587 328.331,398.634 327.646 C 398.681 326.962,398.558 326.502,398.360 326.625 C 398.162 326.747,398.000 326.517,398.000 326.113 C 398.000 325.709,397.720 324.978,397.377 324.488 C 397.034 323.999,396.853 323.438,396.975 323.241 C 397.096 323.045,396.929 322.782,396.604 322.657 C 396.269 322.528,396.115 322.165,396.250 321.815 C 396.379 321.477,396.298 321.200,396.069 321.200 C 395.839 321.200,395.428 320.581,395.154 319.824 C 394.880 319.067,394.472 318.482,394.246 318.524 C 394.021 318.566,393.825 318.420,393.810 318.200 C 393.755 317.342,392.230 315.257,391.827 315.486 C 391.592 315.619,391.530 315.584,391.689 315.409 C 391.848 315.233,391.532 314.559,390.986 313.911 C 390.441 313.263,390.114 312.540,390.259 312.304 C 390.415 312.052,390.335 311.993,390.065 312.160 C 389.378 312.584,387.560 310.592,387.842 309.722 C 388.021 309.170,387.983 309.129,387.682 309.551 C 387.465 309.857,387.072 309.968,386.802 309.801 C 386.427 309.569,386.424 309.432,386.791 309.206 C 387.131 308.995,387.081 308.840,386.613 308.660 C 386.230 308.514,386.060 308.573,386.203 308.805 C 386.709 309.624,385.528 309.157,384.422 308.100 C 382.432 306.199,380.786 305.200,379.643 305.200 C 379.072 305.200,378.929 304.995,379.084 304.400 C 379.206 303.935,379.096 303.600,378.823 303.600 C 378.564 303.600,378.464 303.780,378.600 304.000 C 378.736 304.220,378.556 304.400,378.200 304.400 C 377.844 304.400,377.664 304.220,377.800 304.000 C 377.936 303.780,377.666 303.600,377.200 303.600 C 376.734 303.600,376.464 303.420,376.600 303.200 C 376.736 302.980,376.672 302.800,376.457 302.800 C 376.242 302.800,375.991 303.025,375.898 303.300 C 375.766 303.693,375.591 303.685,375.083 303.266 C 374.726 302.972,374.235 302.855,373.991 303.006 C 373.747 303.157,373.325 302.977,373.054 302.606 C 372.678 302.093,372.119 301.972,370.699 302.099 C 369.674 302.191,368.917 302.135,369.016 301.975 C 369.439 301.290,365.826 301.231,322.551 301.214 C 280.811 301.198,277.046 301.142,276.604 300.537 C 276.276 300.090,276.034 300.021,275.847 300.324 C 275.514 300.863,273.600 299.333,273.600 298.528 C 273.600 298.238,273.420 298.000,273.200 298.000 C 272.980 298.000,272.800 297.100,272.800 296.000 C 272.800 294.455,272.942 294.000,273.424 294.000 C 273.767 294.000,273.936 293.820,273.800 293.600 C 273.664 293.380,273.248 293.200,272.876 293.200 C 272.504 293.199,256.540 277.449,237.400 258.200 C 218.260 238.950,202.510 223.205,202.400 223.211 C 202.290 223.217,168.224 257.192,126.698 298.711 M65.099 278.234 C 64.935 278.399,64.800 279.234,64.800 280.090 C 64.800 280.947,64.646 281.552,64.458 281.436 C 64.270 281.319,64.201 281.669,64.304 282.212 C 64.408 282.755,64.742 283.200,65.047 283.200 C 65.707 283.200,65.713 283.252,65.201 284.597 C 64.967 285.214,64.957 285.550,65.178 285.414 C 65.400 285.277,65.461 285.797,65.328 286.691 C 65.122 288.081,65.151 288.140,65.693 287.436 C 66.250 286.714,66.278 286.736,66.204 287.836 C 66.066 289.877,66.009 290.053,65.570 289.782 C 65.333 289.635,65.369 289.881,65.650 290.332 C 65.930 290.780,66.348 291.114,66.580 291.073 C 66.816 291.032,66.946 291.507,66.875 292.161 C 66.807 292.800,66.971 293.459,67.241 293.626 C 67.511 293.792,67.709 294.558,67.680 295.327 C 67.648 296.166,67.841 296.807,68.162 296.930 C 68.468 297.048,68.647 297.587,68.581 298.193 C 68.512 298.824,68.694 299.338,69.032 299.468 C 69.345 299.588,69.600 299.936,69.600 300.243 C 69.600 300.977,90.296 301.065,92.440 300.341 C 101.889 297.148,102.710 283.920,93.741 279.387 L 91.400 278.204 78.399 278.070 C 71.248 277.996,65.263 278.070,65.099 278.234 M390.800 312.681 C 390.800 313.143,391.935 314.209,392.158 313.957 C 392.234 313.871,391.960 313.454,391.548 313.030 C 391.137 312.607,390.800 312.449,390.800 312.681 " stroke="none" fill="#e4ecfc" fill-rule="evenodd"></path><path id="path5" d="M131.600 151.592 C 131.600 151.703,147.530 167.728,167.000 187.202 C 186.470 206.677,202.400 222.520,202.400 222.408 C 202.400 222.297,186.470 206.272,167.000 186.798 C 147.530 167.323,131.600 151.480,131.600 151.592 M215.400 236.000 C 218.474 239.080,221.079 241.600,221.189 241.600 C 221.299 241.600,218.874 239.080,215.800 236.000 C 212.726 232.920,210.121 230.400,210.011 230.400 C 209.901 230.400,212.326 232.920,215.400 236.000 M249.800 270.400 C 262.339 282.940,272.687 293.200,272.797 293.200 C 272.907 293.200,262.739 282.940,250.200 270.400 C 237.661 257.860,227.313 247.600,227.203 247.600 C 227.093 247.600,237.261 257.860,249.800 270.400 " stroke="none" fill="#e4e0d4" fill-rule="evenodd"></path><path id="path6" d="M236.200 257.200 C 237.059 258.080,237.852 258.800,237.962 258.800 C 238.072 258.800,237.459 258.080,236.600 257.200 C 235.741 256.320,234.948 255.600,234.838 255.600 C 234.728 255.600,235.341 256.320,236.200 257.200 M248.794 269.700 C 253.806 274.809,254.400 275.381,254.400 275.094 C 254.400 275.036,251.925 272.561,248.900 269.594 L 243.400 264.200 248.794 269.700 M265.194 286.100 C 270.206 291.209,270.800 291.781,270.800 291.494 C 270.800 291.436,268.325 288.961,265.300 285.994 L 259.800 280.600 265.194 286.100 " stroke="none" fill="#e4e4dc" fill-rule="evenodd"></path><path id="path7" d="M125.800 298.846 C 75.133 349.538,49.993 374.957,50.380 375.102 C 50.699 375.222,51.032 375.068,51.121 374.760 C 51.209 374.452,85.141 340.337,126.525 298.949 C 192.524 232.941,202.584 222.783,201.933 222.804 C 201.860 222.807,167.600 257.026,125.800 298.846 M63.680 278.789 C 63.680 281.128,64.718 282.138,64.874 279.953 L 65.000 278.200 78.200 278.200 L 91.400 278.200 93.741 279.385 C 102.710 283.925,101.889 297.148,92.440 300.341 C 90.296 301.065,69.600 300.977,69.600 300.243 C 69.600 299.936,69.330 299.582,69.000 299.455 C 68.150 299.129,68.229 300.382,69.100 301.043 C 70.032 301.751,89.991 301.834,92.040 301.139 C 102.603 297.555,103.766 284.237,93.990 278.805 L 92.200 277.811 77.940 277.605 L 63.679 277.400 63.680 278.789 M64.560 284.467 C 64.616 286.227,65.440 286.358,65.440 284.607 C 65.440 283.813,65.239 283.200,64.980 283.200 C 64.722 283.200,64.538 283.756,64.560 284.467 M65.547 287.756 C 65.235 288.442,65.234 288.923,65.544 289.456 C 66.006 290.253,66.043 290.167,66.203 287.900 C 66.299 286.548,66.116 286.508,65.547 287.756 M66.273 291.060 C 65.874 291.459,65.939 293.200,66.353 293.200 C 66.836 293.200,67.249 291.489,66.860 291.100 C 66.688 290.928,66.424 290.910,66.273 291.060 M66.996 294.900 C 67.179 296.666,67.211 296.717,67.566 295.806 C 67.911 294.923,67.682 293.600,67.185 293.600 C 67.007 293.600,66.923 294.185,66.996 294.900 M272.800 296.000 C 272.800 297.100,272.980 298.000,273.200 298.000 C 273.420 298.000,273.600 298.238,273.600 298.528 C 273.600 299.244,275.513 300.865,275.803 300.395 C 275.931 300.189,275.479 299.520,274.799 298.910 C 273.513 297.756,273.045 295.992,273.683 294.700 C 273.936 294.187,273.864 294.000,273.414 294.000 C 272.944 294.000,272.800 294.469,272.800 296.000 M67.666 297.624 C 67.840 298.814,68.688 299.094,68.603 297.934 C 68.567 297.446,68.311 296.970,68.035 296.878 C 67.707 296.769,67.579 297.029,67.666 297.624 M276.800 300.797 C 276.800 301.019,277.025 301.199,277.300 301.199 C 277.575 301.198,297.420 301.202,321.400 301.207 C 345.380 301.213,365.596 301.213,366.324 301.209 C 367.088 301.204,367.544 301.034,367.404 300.807 C 367.064 300.256,276.800 300.247,276.800 300.797 M368.702 301.466 C 368.979 301.577,369.122 301.802,369.021 301.966 C 368.920 302.130,369.234 302.219,369.719 302.165 C 370.203 302.111,370.825 302.052,371.100 302.033 C 372.471 301.942,371.367 301.204,369.900 301.232 C 368.965 301.249,368.426 301.354,368.702 301.466 M373.060 302.612 C 373.203 302.986,373.575 303.135,374.014 302.996 C 374.409 302.870,374.848 302.955,374.990 303.184 C 375.325 303.726,376.000 303.721,376.000 303.176 C 376.000 302.943,375.820 302.864,375.600 303.000 C 375.380 303.136,375.200 302.967,375.200 302.624 C 375.200 302.199,374.821 302.000,374.013 302.000 C 373.111 302.000,372.882 302.147,373.060 302.612 M379.000 304.800 C 378.864 305.020,379.123 305.200,379.576 305.200 C 380.029 305.200,380.400 305.020,380.400 304.800 C 380.400 304.580,380.141 304.400,379.824 304.400 C 379.507 304.400,379.136 304.580,379.000 304.800 M381.000 305.600 C 381.136 305.820,381.424 306.000,381.640 306.000 C 382.084 306.000,382.752 306.504,384.422 308.100 C 385.055 308.705,385.725 309.200,385.911 309.200 C 386.097 309.200,386.645 309.569,387.130 310.020 C 387.614 310.472,388.216 310.714,388.467 310.559 C 388.738 310.391,388.814 310.453,388.655 310.711 C 388.507 310.950,389.192 311.998,390.176 313.039 C 391.160 314.081,391.855 315.111,391.721 315.328 C 391.584 315.549,391.680 315.598,391.938 315.438 C 392.192 315.281,392.404 315.298,392.409 315.476 C 392.427 316.151,393.982 317.820,393.991 317.175 C 393.996 316.832,393.640 316.164,393.200 315.692 C 392.760 315.220,392.400 314.737,392.400 314.620 C 392.400 314.503,391.833 313.865,391.141 313.203 C 390.448 312.542,390.029 312.000,390.210 312.000 C 390.391 312.000,390.117 311.550,389.600 311.000 C 389.083 310.450,388.496 310.000,388.294 310.000 C 387.639 310.000,384.817 307.814,384.809 307.300 C 384.804 307.025,384.522 306.800,384.183 306.800 C 383.844 306.800,383.180 306.440,382.708 306.000 C 381.827 305.180,380.556 304.882,381.000 305.600 M394.333 317.200 C 394.011 318.036,394.027 318.614,394.368 318.524 C 394.527 318.482,394.880 319.067,395.154 319.824 C 395.667 321.241,396.267 321.660,396.267 320.600 C 396.267 320.270,396.138 320.000,395.980 320.000 C 395.715 320.000,395.527 319.578,394.822 317.400 C 394.617 316.766,394.515 316.725,394.333 317.200 M396.278 321.856 C 395.958 322.175,396.319 322.800,396.824 322.800 C 397.031 322.800,397.200 322.530,397.200 322.200 C 397.200 321.581,396.728 321.405,396.278 321.856 M396.813 323.500 C 396.858 324.564,398.000 325.311,398.000 324.276 C 398.000 323.586,397.785 323.200,397.400 323.200 C 397.070 323.200,396.806 323.335,396.813 323.500 M398.000 326.176 C 398.000 326.493,398.189 326.869,398.419 327.012 C 398.650 327.154,398.809 327.570,398.773 327.935 C 398.659 329.096,398.788 329.600,399.200 329.600 C 399.783 329.600,399.689 328.275,399.044 327.393 C 398.739 326.975,398.578 326.401,398.687 326.117 C 398.796 325.833,398.686 325.600,398.443 325.600 C 398.199 325.600,398.000 325.859,398.000 326.176 M399.452 330.316 C 399.193 330.736,399.447 334.380,399.757 334.691 C 399.891 334.824,400.000 333.823,400.000 332.467 C 400.000 330.103,399.878 329.626,399.452 330.316 M399.556 342.900 C 399.531 343.395,399.546 344.219,399.589 344.732 C 399.631 345.245,399.409 345.965,399.095 346.332 C 398.718 346.773,398.626 347.339,398.822 348.000 C 398.986 348.550,399.152 348.910,399.191 348.800 C 399.678 347.417,400.207 342.000,399.855 342.000 C 399.715 342.000,399.580 342.405,399.556 342.900 M398.100 349.465 C 397.395 349.749,397.475 351.200,398.196 351.200 C 398.586 351.200,398.763 350.856,398.708 350.200 C 398.663 349.650,398.620 349.214,398.613 349.232 C 398.606 349.249,398.375 349.354,398.100 349.465 M397.017 351.972 C 396.744 352.414,397.375 352.892,397.744 352.522 C 398.125 352.142,398.054 351.600,397.624 351.600 C 397.417 351.600,397.144 351.768,397.017 351.972 M396.292 354.370 C 396.162 354.869,396.263 355.074,396.579 354.953 C 396.847 354.850,397.067 354.503,397.067 354.183 C 397.067 353.338,396.528 353.468,396.292 354.370 M395.030 356.424 C 394.452 357.007,394.403 357.200,394.834 357.200 C 395.149 357.200,395.632 356.840,395.907 356.400 C 396.538 355.390,396.042 355.404,395.030 356.424 M393.200 359.242 C 393.200 359.872,391.338 362.005,391.044 361.711 C 390.910 361.577,390.800 361.647,390.800 361.867 C 390.800 362.717,391.287 362.677,392.215 361.749 C 393.709 360.255,394.392 358.800,393.600 358.800 C 393.380 358.800,393.200 358.999,393.200 359.242 M389.724 363.373 C 389.462 363.671,389.357 364.024,389.491 364.157 C 389.624 364.291,389.546 364.400,389.317 364.400 C 389.088 364.400,388.203 365.023,387.350 365.785 C 384.959 367.921,384.856 368.000,384.492 368.000 C 384.305 368.000,383.802 368.324,383.375 368.720 C 382.949 369.116,382.285 369.561,381.900 369.708 C 381.515 369.855,381.200 370.176,381.200 370.421 C 381.200 370.666,381.425 370.762,381.700 370.634 C 381.975 370.505,382.515 370.289,382.900 370.154 C 383.285 370.018,383.600 369.748,383.600 369.553 C 383.600 369.359,383.851 369.200,384.157 369.200 C 384.464 369.200,384.817 368.933,384.942 368.607 C 385.067 368.280,385.430 368.113,385.749 368.236 C 386.105 368.372,386.429 368.139,386.591 367.629 C 386.736 367.173,387.517 366.305,388.327 365.700 C 389.875 364.544,390.766 363.603,390.787 363.100 C 390.807 362.632,390.249 362.775,389.724 363.373 M379.600 370.771 C 379.600 371.007,379.330 371.200,379.000 371.200 C 378.670 371.200,378.400 371.380,378.400 371.600 C 378.400 371.820,378.128 372.000,377.795 372.000 C 377.462 372.000,376.877 372.167,376.495 372.371 C 376.113 372.575,375.474 372.843,375.075 372.968 C 374.670 373.094,374.471 373.392,374.625 373.640 C 374.818 373.953,375.002 373.924,375.244 373.543 C 375.433 373.244,375.591 373.157,375.594 373.349 C 375.597 373.541,375.870 373.474,376.200 373.200 C 376.530 372.926,376.800 372.850,376.800 373.031 C 376.800 373.212,377.016 373.144,377.280 372.880 C 377.544 372.616,378.048 372.400,378.400 372.400 C 379.394 372.400,381.208 371.446,381.063 371.000 C 380.883 370.445,379.600 370.244,379.600 370.771 M372.500 373.489 C 371.785 373.578,371.200 373.871,371.200 374.140 C 371.200 374.867,372.528 374.731,373.388 373.914 C 373.801 373.521,374.063 373.229,373.970 373.264 C 373.876 373.299,373.215 373.401,372.500 373.489 M365.200 374.800 C 365.200 375.020,365.459 375.200,365.776 375.200 C 366.093 375.200,366.464 375.020,366.600 374.800 C 366.736 374.580,366.477 374.400,366.024 374.400 C 365.571 374.400,365.200 374.580,365.200 374.800 M367.403 374.804 C 367.540 375.027,368.168 375.169,368.799 375.121 C 370.290 375.008,369.915 374.400,368.353 374.400 C 367.646 374.400,367.256 374.566,367.403 374.804 " stroke="none" fill="#e7f4fc" fill-rule="evenodd"></path><path id="path8" d="M131.633 152.176 C 133.095 153.721,167.563 188.164,170.683 191.197 C 173.057 193.506,165.281 185.631,153.401 173.697 C 141.522 161.764,131.727 152.000,131.635 152.000 C 131.542 152.000,131.542 152.079,131.633 152.176 M178.409 199.069 C 182.706 203.465,182.071 202.837,186.231 206.798 C 188.194 208.666,186.562 206.911,182.604 202.898 C 178.646 198.884,175.320 195.600,175.213 195.600 C 175.106 195.600,176.544 197.161,178.409 199.069 M194.007 214.663 C 196.313 217.007,198.571 219.302,199.023 219.763 C 199.476 220.223,200.376 221.044,201.023 221.587 C 201.671 222.130,199.502 219.835,196.205 216.487 C 192.908 213.139,190.121 210.400,190.012 210.400 C 189.903 210.400,191.701 212.318,194.007 214.663 " stroke="none" fill="#f4f4ec" fill-rule="evenodd"></path></g></svg>