<svg id="Слой_1" data-name="Слой 1" xmlns="http://www.w3.org/2000/svg" viewBox="0 0 400 400"><defs><style>.cls-1{fill:#3e2c1b;}.cls-2{fill:#c69c6c;}.cls-3{fill:#fff;}.cls-4{fill:#c4ab71;}</style></defs><path class="cls-1" d="M400,200c0,110.46-89.55,200-200,200S0,310.46,0,200,89.54,0,200,0,400,89.55,400,200Z"/><path class="cls-2" d="M200,392.94A192.94,192.94,0,0,1,63.57,63.57,192.94,192.94,0,0,1,336.43,336.43,191.68,191.68,0,0,1,200,392.94Zm0-380.36C96.66,12.58,12.58,96.66,12.58,200S96.66,387.42,200,387.42,387.42,303.35,387.42,200,303.34,12.58,200,12.58Z"/><path class="cls-3" d="M200,368.56A168.8,168.8,0,0,1,37.13,243.46c-.9-3.37-1.69-6.73-2.35-10-.55-2.7-1-5.55-1.48-8.48h84.51v7.42H42.14l.34,1.61c.76,3.47,1.61,6.89,2.54,10.15,19.65,68.87,83.38,117,155,117s135.33-48.1,155-117c.93-3.25,1.78-6.67,2.54-10.15l.34-1.61H282.19V225H366.7c-.44,2.93-.93,5.78-1.48,8.49-.66,3.28-1.46,6.64-2.35,10A168.8,168.8,0,0,1,200,368.56Z"/><path class="cls-3" d="M282.19,175v-7.43h75.67l-.34-1.61c-.76-3.49-1.61-6.9-2.54-10.15-19.65-68.87-83.38-117-155-117S64.67,87,45,155.83c-.93,3.26-1.78,6.68-2.54,10.15l-.34,1.61h75.67V175H33.3c.44-2.94.93-5.79,1.48-8.5.66-3.25,1.45-6.61,2.35-10a168.57,168.57,0,0,1,325.74,0c.89,3.34,1.69,6.71,2.35,10,.55,2.7,1,5.55,1.48,8.49Z"/><path class="cls-2" d="M76.7,123.29l5.19-8,2.35,1.53-1.75,2.7,14.13,9.16-1.68,2.59-14.13-9.16-1.76,2.71Z"/><path class="cls-2" d="M104.29,118.34l-2,2.35L87.32,108l2-2.35,6.42,5.46L98,108.4,91.59,103l2-2.41,15,12.73-2,2.4-6.4-5.45-2.28,2.67Z"/><path class="cls-2" d="M108.45,97.5l3.14-2.86,1.88,2.07-3.14,2.86,3.86,4.26,4-3.58,1.88,2.08L113.79,108,100.6,93.43l6.23-5.65,1.88,2.08-3.94,3.58Z"/><path class="cls-2" d="M130.69,81.4l3.43-2,1.43,2.41-3.43,2,4.15,7-2.65,1.58-10-16.9,7-4.17L132,73.72l-4.37,2.6Z"/><path class="cls-2" d="M138.43,67.36l2.81-1.3,8.23,17.84-2.8,1.29Z"/><path class="cls-2" d="M154.57,66.59,159,80.1l-2.64.87-6.16-18.66,3.69-1.22,6.69,10.19-3.68-11.17,2.61-.87,6.15,18.66-3,1Z"/><path class="cls-2" d="M173.75,64.39l4.18-.78.51,2.75-4.18.78,1.06,5.66,5.24-1,.52,2.76-8.27,1.54-3.61-19.3,8.27-1.55L178,58l-5.24,1Z"/><path class="cls-2" d="M191.12,53.66q4.53-.25,4.83,4.66l.06,1-2.92.17L193,58.3c-.08-1.29-.63-1.9-1.66-1.84s-1.51.73-1.43,2A4.16,4.16,0,0,0,191,61a11.18,11.18,0,0,0,1,1l.87.72.3.24c.48.4.87.74,1.16,1a8.77,8.77,0,0,1,1.05,1.22,6.5,6.5,0,0,1,1.14,3.36c.19,3.29-1.25,5-4.31,5.2s-4.69-1.38-4.88-4.66l-.11-1.9,2.91-.17.12,2.09c.07,1.28.64,1.88,1.71,1.82s1.55-.73,1.48-2a4,4,0,0,0-1.08-2.48,11.15,11.15,0,0,0-1-1l-1.17-1c-.48-.39-.87-.73-1.17-1a9,9,0,0,1-1-1.2,6.52,6.52,0,0,1-1.15-3.38Q186.58,53.93,191.12,53.66Z"/><path class="cls-2" d="M204.24,53.63l9.52.63-.19,2.81-3.21-.21-1.11,16.8-3.08-.21,1.12-16.79-3.23-.22Z"/><path class="cls-2" d="M232.35,62.22c.88-3.17,2.84-4.33,5.84-3.48s4.07,2.85,3.17,6l-2.76,9.83a5.76,5.76,0,0,1-1.32,2.5c0,.29.28.5.73.63l.27.08-.74,2.65-.42-.12a2.69,2.69,0,0,1-2.19-2,6.57,6.57,0,0,1-2.18-.25c-3-.85-4.07-2.85-3.17-6Zm.14,10.86c-.35,1.24,0,2,1,2.3s1.71-.19,2.07-1.44l2.87-10.21c.35-1.23,0-2-1-2.29s-1.72.19-2.06,1.43Z"/><path class="cls-2" d="M254.55,64.67l-6,13.91c-.5,1.17-.27,2,.71,2.39s1.73,0,2.24-1.12l6-13.91,2.68,1.16-5.93,13.73q-1.95,4.53-6.18,2.7t-2.27-6.35l5.93-13.74Z"/><path class="cls-2" d="M267.4,93.6,264.74,92l1.37-3.33-3.24-2-2.29,2.78L258.15,88,271,72.82l3.88,2.33Zm-2.82-9,2.56,1.54L271,76.89Z"/><path class="cls-2" d="M284.94,82l2.42,1.91L276.94,97.16l4,3.15-1.74,2.2-6.41-5.05Z"/><path class="cls-2" d="M297.81,92.93,300,95.08l-13.67,14.11L284.14,107Z"/><path class="cls-2" d="M306.1,101.35l6.12,7.31-2.15,1.81L308,108l-12.9,10.81-2-2.36L306,105.63l-2.08-2.48Z"/><path class="cls-2" d="M308.09,125.49l8.93-10.4,1.75,2.72-6.26,6.84,8.81-2.87,1.6,2.48-13.17,3.83-5.47,3.52L302.62,129Z"/><path class="cls-3" d="M62.35,198.35H64.8V200H62.35v3.33h3.08v1.63H60.56V193.55h4.87v1.63H62.35Z"/><path class="cls-3" d="M73.33,193.43q2.64,0,2.64,2.85v.6H74.28v-.71c0-.74-.31-1.12-.9-1.12s-.9.38-.9,1.12a2.34,2.34,0,0,0,.55,1.47c.15.18.33.38.56.61l.48.44.17.15c.26.25.47.46.63.64a4.51,4.51,0,0,1,.56.74,3.65,3.65,0,0,1,.55,2c0,1.9-.89,2.86-2.66,2.86s-2.67-1-2.67-2.86v-1.1h1.69v1.21q0,1.11.93,1.11c.61,0,.92-.37.92-1.11a2.39,2.39,0,0,0-.54-1.47,7,7,0,0,0-.56-.61l-.65-.59c-.26-.25-.47-.46-.64-.64a4.81,4.81,0,0,1-.55-.73,3.7,3.7,0,0,1-.55-2C70.7,194.38,71.57,193.43,73.33,193.43Z"/><path class="cls-3" d="M80.89,193.55h5.52v1.63H84.55v9.75H82.76v-9.75H80.89Z"/><path class="cls-3" d="M299.73,195a2,2,0,0,0,1.4-.43,2.77,2.77,0,0,0,.57-1h1.19v11.38h-1.78v-8.68h-1.38Z"/><path class="cls-3" d="M314.69,202.1c0,2-.91,3-2.73,3s-2.67-1-2.67-2.86v-.3H311v.41c0,.75.31,1.13.93,1.13s1-.47,1-1.41V200a1.72,1.72,0,0,1-1.67,1c-1.32,0-2-.86-2-2.59v-2.09c0-1.9.91-2.85,2.72-2.85s2.71.95,2.71,2.85Zm-1.78-3.88v-2.05c0-.73-.32-1.1-.93-1.1s-.93.37-.93,1.1v2.05q0,1.11.93,1.11C312.59,199.33,312.91,199,312.91,198.22Z"/><path class="cls-3" d="M325.5,202.1c0,2-.9,3-2.72,3s-2.67-1-2.67-2.86v-.3h1.69v.41c0,.75.31,1.13.93,1.13s1-.47,1-1.41V200a1.69,1.69,0,0,1-1.66,1c-1.32,0-2-.86-2-2.59v-2.09c0-1.9.91-2.85,2.71-2.85s2.71.95,2.71,2.85Zm-1.78-3.88v-2.05c0-.73-.31-1.1-.93-1.1s-.92.37-.92,1.1v2.05c0,.74.3,1.11.92,1.11S323.72,199,323.72,198.22Z"/><path class="cls-3" d="M330.93,196.28c0-1.9.91-2.85,2.71-2.85s2.71.95,2.71,2.85v5.92c0,1.9-.9,2.86-2.71,2.86s-2.71-1-2.71-2.86Zm1.79,6c0,.75.3,1.13.92,1.13s.93-.38.93-1.13v-6.14c0-.74-.31-1.12-.93-1.12s-.92.38-.92,1.12Z"/><path class="cls-4" d="M202.34,171.19c-6.16-24.35-28-39.81-48.83-34.54-.1,0-.18.06-.28.09.57.43,1.16.89,1.75,1.42a31.09,31.09,0,0,1,4.86,5.32c.83,1,1.48,2.25,2.28,3.45s1.32,2.58,2,3.94,1.14,2.85,1.73,4.33.89,3.07,1.36,4.66a73.48,73.48,0,0,1,1.72,9.93c.23,1.7.32,3.43.39,5.18s.24,3.54.17,5.2c-.1,3.36-.21,6.73-.32,10s-.05,6.39.18,9.45a85.22,85.22,0,0,0,1,8.76,53.57,53.57,0,0,0,1.89,7.61,26,26,0,0,0,2.78,5.89,13.44,13.44,0,0,0,2.16,2.44C197.15,218.38,208.36,195,202.34,171.19Z"/><path class="cls-4" d="M169.17,217.37a41.62,41.62,0,0,1-3.08-8,61.48,61.48,0,0,1-1.91-9.23,78,78,0,0,1-.71-10c0-3.33.08-6.72.12-10.1.08-1.72-.07-3.27-.08-4.91s-.07-3.23-.26-4.83-.22-3.21-.46-4.75-.4-3.1-.67-4.6-.63-2.95-.94-4.38-.79-2.78-1.16-4.11A53.81,53.81,0,0,0,157,145.3a32.34,32.34,0,0,0-1.78-3l-.89-1.36-.95-1.22c-.7-.89-1.39-1.67-2.05-2.38C131.88,143.72,121,166.81,127,190.26c6.11,24.1,27.6,39.49,48.22,34.68a13.41,13.41,0,0,1-1.87-1.58A23.67,23.67,0,0,1,169.17,217.37Z"/><path class="cls-4" d="M251.84,230.68c10.44-14.88,8.59-34.18-4.14-43.1l-.17-.11c0,.52.06,1.06,0,1.63a21.63,21.63,0,0,1-.62,5.18c-.17.95-.53,1.87-.81,2.88s-.8,1.94-1.21,3-1,2-1.56,3-1.26,1.94-1.91,2.95a53.88,53.88,0,0,1-4.64,5.63,35,35,0,0,1-2.65,2.66c-.92.84-1.83,1.81-2.77,2.56-1.9,1.52-3.79,3.05-5.66,4.56s-3.53,3-5.1,4.57-3,3.13-4.32,4.7a39.88,39.88,0,0,0-3.28,4.64,19,19,0,0,0-1.91,4.3,9.77,9.77,0,0,0-.32,2.34C223.51,250.13,241.65,245.22,251.84,230.68Z"/><path class="cls-4" d="M210.84,234.31a31,31,0,0,1,2.9-5.44,45.3,45.3,0,0,1,4.17-5.41,55.57,55.57,0,0,1,5.16-5.13l5.59-4.71c1-.76,1.77-1.58,2.66-2.36a34,34,0,0,0,2.52-2.43c.79-.86,1.66-1.63,2.4-2.49s1.5-1.69,2.2-2.54l2-2.58,1.7-2.59a39.51,39.51,0,0,0,2.5-5.07c.29-.82.6-1.61.79-2.39.11-.39.22-.76.33-1.13s.15-.74.22-1.09c.16-.81.25-1.55.33-2.25-12.66-7.64-30.44-2.67-40.49,11.67-10.34,14.73-8.62,33.79,3.76,42.82a10.37,10.37,0,0,1,0-1.77A17.16,17.16,0,0,1,210.84,234.31Z"/><rect class="cls-4" x="207.43" y="145.31" width="57.29" height="2.09" transform="translate(-21.23 250.97) rotate(-53.92)"/><rect class="cls-4" x="208.82" y="133.74" width="25.23" height="2.09" transform="translate(9.73 284.4) rotate(-66.58)"/><rect class="cls-4" x="241.62" y="158.61" width="25.12" height="2.09" transform="translate(-43.62 197.22) rotate(-39.32)"/><polygon class="cls-4" points="203.53 138.76 201.51 138.22 204.6 126.65 206.62 127.19 203.53 138.76"/><rect class="cls-4" x="132.12" y="255.93" width="40.66" height="2.09" transform="translate(-135.36 176.73) rotate(-43.74)"/><rect class="cls-4" x="152.55" y="266.51" width="35.91" height="2.09" transform="translate(-143.88 310.16) rotate(-65.21)"/><rect class="cls-4" x="184.68" y="266.59" width="15.45" height="2.09" transform="translate(-94.71 429.54) rotate(-83.7)"/><rect class="cls-4" x="131.5" y="241.88" width="18.54" height="2.09" transform="translate(-110.23 117.12) rotate(-33.29)"/><rect class="cls-4" x="258.44" y="175.33" width="12.94" height="2.09" transform="translate(-52.49 153.01) rotate(-29.45)"/><rect class="cls-4" x="123.59" y="226.78" width="9.94" height="2.09" transform="translate(-87.07 79.72) rotate(-26.08)"/><rect class="cls-4" x="213.97" y="262.47" width="2.09" height="8.78" transform="translate(-73.27 81.55) rotate(-18.41)"/><path class="cls-3" d="M97.77,297.06l-1.27,1.23a6.52,6.52,0,0,1-4.67,1.88,6.21,6.21,0,0,1-4.62-1.93A7,7,0,0,1,85.06,294a6.4,6.4,0,0,1,2.29-5.31l11.3-11a6.36,6.36,0,0,1,4.69-2,6.55,6.55,0,0,1,4.69,2.14,6.33,6.33,0,0,1,1.9,4.73,6.79,6.79,0,0,1-2.21,4.76l-1.16,1.12-2.85-2.94,1-.95a3.29,3.29,0,0,0,1-2,2.22,2.22,0,0,0-.66-1.91c-1.17-1.21-2.56-1-4.15.51L90.41,291.44q-2.11,2-.37,3.83t3.87-.17l1-1Z"/><path class="cls-3" d="M105.46,305.92l9.36-11.86a6.8,6.8,0,0,1,5-2.79,7.25,7.25,0,0,1,7.39,5.82,6.77,6.77,0,0,1-1.56,5.48l-9.35,11.86a6.62,6.62,0,0,1-4.94,2.76,6.76,6.76,0,0,1-4.79-1.52,6.84,6.84,0,0,1-2.6-4.3A6.72,6.72,0,0,1,105.46,305.92ZM118,296.6l-9.36,11.86a2.81,2.81,0,0,0-.68,2.23,2.61,2.61,0,0,0,1.07,1.76,2.78,2.78,0,0,0,2,.65,2.86,2.86,0,0,0,2-1.2L122.39,300a2.62,2.62,0,0,0-.38-4,2.61,2.61,0,0,0-2-.63A2.76,2.76,0,0,0,118,296.6Z"/><path class="cls-3" d="M123.19,327.19l14.27-24.8,10.59,6.09-1.93,3.35-7-4.05-4.33,7.52,6.13,3.53L139,322.17l-6.13-3.53-6.09,10.59Z"/><path class="cls-3" d="M145.35,338.68l10.05-26.79,11.44,4.3-1.36,3.61-7.6-2.86-3,8.13,6.62,2.49-1.35,3.61-6.62-2.49-4.29,11.44Z"/><path class="cls-3" d="M169.44,346.34l4.93-28.18,12,2.1-.67,3.81-8-1.4-1.45,8.27,7,1.22-.67,3.8-7-1.22L174.19,343l8,1.4-.7,4Z"/><path class="cls-3" d="M194.56,349.36l-.86-28.6,12.21-.36.11,3.85-8.11.25.25,8.39,7.07-.21.12,3.85-7.07.22.25,8.39,8.11-.24.13,4.09Z"/><path class="cls-3" d="M241.9,318.59l.63,1.91-3.9,1.27-.29-.87c-.71-2.19-2-3-3.82-2.39s-2.25,2-1.49,4.37a5.55,5.55,0,0,0,1.09,2.18,3.73,3.73,0,0,0,2.31.73l3.37.21a6.09,6.09,0,0,1,4.22,1.67,11.52,11.52,0,0,1,2.3,4.45q2.6,8-4.12,10.17a6.85,6.85,0,0,1-5.34-.3,6.47,6.47,0,0,1-3.41-4l-.48-1.45,3.9-1.28.4,1.23c.6,1.86,1.83,2.49,3.66,1.89,1.19-.39,1.88-1,2-1.9a7,7,0,0,0-.54-3.07,8.13,8.13,0,0,0-1.1-2.48,3.75,3.75,0,0,0-2.5-.92l-3.16-.23a6.77,6.77,0,0,1-4.26-1.65,9,9,0,0,1-2.26-4,8.38,8.38,0,0,1,0-5.82,6.44,6.44,0,0,1,4.29-3.81,6.67,6.67,0,0,1,5.34.42A6.11,6.11,0,0,1,241.9,318.59Z"/><path class="cls-3" d="M261.14,334.54l-13.55-25.2,3.61-1.94,5.8,10.79,4.46-2.4L255.66,305l3.61-1.94,13.55,25.19-3.61,1.95-6-11.22-4.46,2.4,6,11.21Z"/><path class="cls-3" d="M280.21,315.42,271,303.47a6.78,6.78,0,0,1-1.5-5.49,7.26,7.26,0,0,1,7.44-5.75,6.73,6.73,0,0,1,4.93,2.83L291.08,307a6.61,6.61,0,0,1,1.48,5.46,7.15,7.15,0,0,1-7.44,5.75A6.62,6.62,0,0,1,280.21,315.42Zm-6-14.46,9.24,12a2.8,2.8,0,0,0,2,1.2,2.62,2.62,0,0,0,2-.61,2.73,2.73,0,0,0,1.11-1.8,2.83,2.83,0,0,0-.69-2.18l-9.25-11.95a2.82,2.82,0,0,0-1.93-1.22,2.79,2.79,0,0,0-2,.63,2.55,2.55,0,0,0-1.08,1.75A2.72,2.72,0,0,0,274.21,301Z"/><path class="cls-3" d="M305.23,303.23l-20.78-19.68,4.23-4.46a6.91,6.91,0,0,1,5.08-2.47c1.82,0,3.87,1.1,6.17,3.27a11.16,11.16,0,0,1,3.37,4.8q.92,3.36-1.93,6.36l-1.44,1.52,8.11,7.68Zm-15.16-20,7.06,6.69,1.36-1.43c1-1.09,1.38-2.1,1.05-3a9.18,9.18,0,0,0-2.23-2.73,9.73,9.73,0,0,0-2.79-2.08c-1-.36-2,0-3,1Z"/></svg>