<svg id="Слой_1" data-name="Слой 1" xmlns="http://www.w3.org/2000/svg" viewBox="0 0 400 400"><defs><style>.cls-1{fill:#e8c08a;}.cls-2,.cls-4{fill:none;stroke-width:1.17px;}.cls-2{stroke:#3c3134;stroke-linecap:round;stroke-linejoin:round;}.cls-3{fill:#4c483e;}.cls-4{stroke:#231f20;stroke-miterlimit:10;}.cls-5{fill:#392e32;}.cls-6{fill:#010101;}.cls-7{fill:#503b2d;}.cls-8{fill:#fff;}</style></defs><polygon class="cls-1" points="399.73 268.91 0.27 268.91 20.8 239.64 0.27 210.37 399.73 210.37 381.91 239.64 399.73 268.91"/><polygon class="cls-2" points="11.09 263.29 27.67 239.64 11.09 215.99 389.72 215.99 375.32 239.64 389.72 263.29 11.09 263.29"/><path class="cls-3" d="M242.6,237.76a42.86,42.86,0,1,1-42.86-42.85A42.86,42.86,0,0,1,242.6,237.76Z"/><path class="cls-4" d="M247.42,237.76a47.68,47.68,0,1,1-47.68-47.67A47.68,47.68,0,0,1,247.42,237.76Z"/><path class="cls-5" d="M60.5,249.88c0,.5-.11.82-.34,1a9.83,9.83,0,0,1-3.1.92,19.8,19.8,0,0,1-3.34.28,13.91,13.91,0,0,1-8.62-2.5,8.63,8.63,0,0,1-2.7-3.22,10.71,10.71,0,0,1-1-4.76,10.48,10.48,0,0,1,1.42-5.43A9.21,9.21,0,0,1,46,232.83a11.63,11.63,0,0,1,3.72-1.43,15.86,15.86,0,0,1,1.76-.25c.51,0,1.08-.05,1.71-.05.8,0,1.75.05,2.86.15.86.12,1.48.21,1.88.28l1,.18,1.07.11a.7.7,0,0,1,.31.11.3.3,0,0,1,.05.21l-.05.64c0,.13,0,.27,0,.4,0,.38-.07.8-.08,1.28s0,1.3,0,2.06c0,.38-.1.56-.3.56s-.22-.11-.26-.35l-.08-.51a3.82,3.82,0,0,0-.14-.56,3.59,3.59,0,0,0-.69-1.14,6.31,6.31,0,0,0-2.14-1.36,10,10,0,0,0-3.81-.72c-.47,0-.86,0-1.19.05a10.15,10.15,0,0,0-1.3.19,6.81,6.81,0,0,0-2.81,1.42,6.18,6.18,0,0,0-1.78,2.5,10.72,10.72,0,0,0-.67,4,10.35,10.35,0,0,0,2.53,7.19,8.72,8.72,0,0,0,6.76,2.86h.56a5.28,5.28,0,0,0,.59,0,3.94,3.94,0,0,0,1.12-.26,1,1,0,0,0,.51-1v-4.31q0-.83,0-1.35A1.42,1.42,0,0,0,56,242.21a4.9,4.9,0,0,0-1-.08q-.39,0-.39-.21c0-.18.19-.27.56-.27l4.59.08c.16,0,.43,0,.82,0l1.58,0q.54,0,.54.27c0,.14-.12.21-.34.21a5.26,5.26,0,0,0-.73.08c-.67.12-1,.63-1,1.53q0,.52,0,1.38Z"/><path class="cls-5" d="M70.25,251.08a9.27,9.27,0,0,1-3.34-2.5A9.75,9.75,0,0,1,65,245.21a11,11,0,0,1-.61-3.64A10.79,10.79,0,0,1,65,238a10.14,10.14,0,0,1,1.93-3.39,10,10,0,0,1,3.41-2.54,12.54,12.54,0,0,1,5.1-1,11.12,11.12,0,0,1,7.88,2.7,9.46,9.46,0,0,1,2.91,7.29,10.58,10.58,0,0,1-11.06,11A11.9,11.9,0,0,1,70.25,251.08Zm7.8-.64a5.21,5.21,0,0,0,2-1.15,6.57,6.57,0,0,0,1.71-2.62,13.44,13.44,0,0,0,.69-4.59A10.77,10.77,0,0,0,80.2,235a7.31,7.31,0,0,0-7.88-2.22,5.56,5.56,0,0,0-2.11,1.32,6.59,6.59,0,0,0-1.54,2.56,12.9,12.9,0,0,0-.59,4.12,11,11,0,0,0,2.19,7,7.25,7.25,0,0,0,6,2.91A6,6,0,0,0,78.05,250.44Z"/><path class="cls-5" d="M92.25,251.08a9.36,9.36,0,0,1-3.34-2.5,9.72,9.72,0,0,1-1.9-3.37A11,11,0,0,1,87,238a10.32,10.32,0,0,1,1.93-3.39,9.94,9.94,0,0,1,3.42-2.54,12.47,12.47,0,0,1,5.1-1,11.13,11.13,0,0,1,7.88,2.7,9.49,9.49,0,0,1,2.9,7.29,10.56,10.56,0,0,1-11.06,11A11.9,11.9,0,0,1,92.25,251.08Zm7.8-.64a5.14,5.14,0,0,0,2-1.15,6.57,6.57,0,0,0,1.71-2.62,13.44,13.44,0,0,0,.69-4.59A10.77,10.77,0,0,0,102.2,235a7.31,7.31,0,0,0-7.88-2.22,5.63,5.63,0,0,0-2.11,1.32,6.59,6.59,0,0,0-1.54,2.56,12.9,12.9,0,0,0-.59,4.12,10.89,10.89,0,0,0,2.2,7,7.23,7.23,0,0,0,6,2.91A5.88,5.88,0,0,0,100.05,250.44Z"/><path class="cls-5" d="M112,235.19l0-1.63a1.43,1.43,0,0,0-1.15-1.52,5,5,0,0,0-1-.08c-.31,0-.46-.08-.46-.25s.2-.23.59-.23l4.62.07.48,0,1.65-.05h2.52l1.36.05a21.14,21.14,0,0,1,2.86.32,12.16,12.16,0,0,1,2.75.9,8.83,8.83,0,0,1,2.44,1.77,8.44,8.44,0,0,1,1.78,2.72,10.23,10.23,0,0,1,.8,4.07,11.14,11.14,0,0,1-.87,4.4,10.25,10.25,0,0,1-2,3,9.13,9.13,0,0,1-1.23,1,12.56,12.56,0,0,1-1.83,1,12.75,12.75,0,0,1-2.57.77,16,16,0,0,1-3.32.33c-.42,0-.93,0-1.52-.07l-1.56-.1-1.43-.11c-.5,0-.9,0-1.17,0h-.64l-.89,0-1.84.06c-.36,0-.53-.09-.53-.26s.13-.23.41-.23a4.5,4.5,0,0,0,1-.1q.59-.11.78-1.47c0-.5.09-1.28.11-2.35,0-.43,0-.95,0-1.58Zm3.34,7c0,2.92,0,4.72,0,5.4l.08,1.15a3.32,3.32,0,0,0,.08.53.86.86,0,0,0,.13.34,2,2,0,0,0,1.1.73,7.2,7.2,0,0,0,2.41.34,9.07,9.07,0,0,0,6.14-1.92,6,6,0,0,0,1.76-2.85,12.66,12.66,0,0,0,.49-3.8,10.14,10.14,0,0,0-.86-4.2A7.92,7.92,0,0,0,125,235.4a8.84,8.84,0,0,0-3.93-2.22,10.43,10.43,0,0,0-1.94-.37,15.57,15.57,0,0,0-1.71-.08c-.31,0-.64,0-1,.05a3.24,3.24,0,0,0-.76.13.53.53,0,0,0-.31.53q0,.63,0,2.22Z"/><path class="cls-5" d="M265.24,251.38a11.56,11.56,0,0,1-4.11-2.24,9.57,9.57,0,0,1-2.64-3.82,11.86,11.86,0,0,1-.67-4.07,9.32,9.32,0,0,1,.13-1.57,13.91,13.91,0,0,1,.48-1.9,9.15,9.15,0,0,1,.94-2,9.5,9.5,0,0,1,1.58-1.88,10.2,10.2,0,0,1,3.44-2.08,15.16,15.16,0,0,1,5-.75c.77,0,1.47,0,2.11.08.46,0,1.05.1,1.76.19l.72.11,1.33.26.63.08c.26,0,.39.13.39.32l-.05.46c0,.32-.06.66-.08,1a7.39,7.39,0,0,0,0,.74l0,1.58a3.78,3.78,0,0,1,0,.56c0,.41-.14.61-.33.61s-.26-.19-.26-.59a3.61,3.61,0,0,0-1-2.45q-1.55-1.65-5.42-1.65a7.19,7.19,0,0,0-5,1.65,7,7,0,0,0-1.94,3.15,12.39,12.39,0,0,0-.51,3.76,10.69,10.69,0,0,0,.8,4.17,9.26,9.26,0,0,0,2.06,3,7.83,7.83,0,0,0,5.55,2.37q3.58,0,4.9-1.5a3.65,3.65,0,0,0,.89-1.76c.08-.35.19-.53.36-.53s.23.13.23.4-.06.71-.18,1.55a12.86,12.86,0,0,1-.41,2,1.11,1.11,0,0,1-.69.78,9.17,9.17,0,0,1-2.16.46,22.33,22.33,0,0,1-2.65.16A17.55,17.55,0,0,1,265.24,251.38Z"/><path class="cls-5" d="M284.39,251.08a9.36,9.36,0,0,1-3.34-2.5,9.72,9.72,0,0,1-1.9-3.37,11,11,0,0,1,0-7.19,10.5,10.5,0,0,1,1.93-3.39,9.94,9.94,0,0,1,3.42-2.54,12.51,12.51,0,0,1,5.1-1,11.13,11.13,0,0,1,7.88,2.7,9.46,9.46,0,0,1,2.91,7.29,10.58,10.58,0,0,1-11.06,11A12,12,0,0,1,284.39,251.08Zm7.8-.64a5.14,5.14,0,0,0,2-1.15,6.57,6.57,0,0,0,1.71-2.62,13.44,13.44,0,0,0,.69-4.59,10.72,10.72,0,0,0-2.27-7.11,7,7,0,0,0-5.55-2.59,7,7,0,0,0-2.33.37,5.63,5.63,0,0,0-2.11,1.32,6.59,6.59,0,0,0-1.54,2.56,12.92,12.92,0,0,0-.58,4.12,11,11,0,0,0,2.19,7,7.23,7.23,0,0,0,6,2.91A5.84,5.84,0,0,0,292.19,250.44Z"/><path class="cls-5" d="M307.48,245.73c0,.63,0,1.15,0,1.58,0,1,.06,1.8.11,2.3.08.89.43,1.38,1,1.47a9.6,9.6,0,0,0,1.33.1c.31,0,.46.08.46.23s-.2.26-.59.26l-3.14-.06a.65.65,0,0,1-.22,0l-4.09.08c-.37,0-.56-.09-.56-.26s.13-.23.39-.23a4.5,4.5,0,0,0,1-.1q.58-.11.78-1.47c0-.5.09-1.26.11-2.3,0-.43,0-.95,0-1.58V235.19l-.05-1.63a1.43,1.43,0,0,0-1.15-1.52,5,5,0,0,0-1-.08c-.31,0-.46-.08-.46-.22s.21-.26.61-.26l3.85.07,7.32,0,.38,0a2,2,0,0,0,.45-.08l.11,0,.05,0s.05,0,.05,0a.63.63,0,0,1,.21-.07c.13,0,.2.09.2.25l-.13.75a1.63,1.63,0,0,0-.09.45l-.06,1.07a2,2,0,0,1,0,.35,1.45,1.45,0,0,1,0,.32,3.53,3.53,0,0,1,0,.43c0,.25-.13.37-.27.37s-.25-.14-.27-.43v-.18a1.24,1.24,0,0,0,0-.27,1.49,1.49,0,0,0-.13-.56,1.18,1.18,0,0,0-.56-.54,3.27,3.27,0,0,0-1.2-.26l-4.12-.09c-.15,0-.23.13-.23.38V240q0,.24.18.24l4.07,0a3.2,3.2,0,0,0,.56,0,1.56,1.56,0,0,0,1.15-.47l.15-.19a.25.25,0,0,1,.19-.08c.11,0,.17.08.17.24l-.09.59a.76.76,0,0,0,0,.21l-.11.86-.1,1.94q0,.51-.27.51c-.14,0-.21-.12-.21-.38a2.66,2.66,0,0,0-.16-.82,1.06,1.06,0,0,0-.43-.58,1.86,1.86,0,0,0-.94-.38c-.16,0-.43,0-.82,0l-3.13,0c-.12,0-.18.08-.18.23Z"/><path class="cls-5" d="M324.08,245.73c0,.63,0,1.15,0,1.58,0,1,.05,1.8.1,2.3q.14,1.33,1.05,1.47a9.5,9.5,0,0,0,1.33.1c.3,0,.45.08.45.23s-.19.26-.58.26l-3.15-.06a.68.68,0,0,1-.22,0l-4.08.08c-.38,0-.56-.09-.56-.26s.13-.23.39-.23a4.47,4.47,0,0,0,1-.1c.39-.07.66-.56.79-1.47.05-.5.08-1.26.1-2.3,0-.43,0-.95,0-1.58V235.19l-.06-1.63a1.44,1.44,0,0,0-1.14-1.52,5.15,5.15,0,0,0-1-.08c-.3,0-.45-.08-.45-.22s.2-.26.61-.26l3.85.07,7.32,0,.37,0a2.15,2.15,0,0,0,.46-.08l.1,0,.06,0s0,0,0,0a.57.57,0,0,1,.21-.07c.13,0,.19.09.19.25l-.13.75a3,3,0,0,0-.09.45l0,1.07a2,2,0,0,1,0,.35,2.73,2.73,0,0,1,0,.32,2,2,0,0,1,0,.43c0,.25-.12.37-.26.37s-.26-.14-.27-.43v-.18a1.24,1.24,0,0,0,0-.27,1.71,1.71,0,0,0-.13-.56,1.22,1.22,0,0,0-.56-.54,3.31,3.31,0,0,0-1.2-.26l-4.12-.09c-.16,0-.24.13-.24.38V240q0,.24.18.24l4.07,0a3.32,3.32,0,0,0,.57,0,1.53,1.53,0,0,0,1.14-.47l.16-.19a.22.22,0,0,1,.18-.08c.12,0,.17.08.17.24l-.09.59a.76.76,0,0,0,0,.21l-.1.86-.1,1.94c0,.34-.1.51-.28.51s-.21-.12-.21-.38a2.93,2.93,0,0,0-.15-.82,1.11,1.11,0,0,0-.43-.58,1.93,1.93,0,0,0-.94-.38c-.16,0-.43,0-.83,0l-3.13,0c-.12,0-.18.08-.18.23Z"/><path class="cls-5" d="M337.32,235.19l-.05-1.63a1.44,1.44,0,0,0-1.15-1.52,5,5,0,0,0-1-.08c-.31,0-.46-.08-.46-.25s.2-.23.59-.23l3.84.07h5.54l1.14,0a7.22,7.22,0,0,0,1.15-.16l.11,0,.32-.1c.11,0,.16.09.16.25l-.13,1a7.34,7.34,0,0,0-.08.77l-.1,1.39a1.39,1.39,0,0,1,0,.37.57.57,0,0,1-.08.19.2.2,0,0,1-.18.11c-.16,0-.24-.13-.24-.38a3.22,3.22,0,0,0,0-.43,4.17,4.17,0,0,0-.14-.54,1.36,1.36,0,0,0-.46-.61,3.43,3.43,0,0,0-1.33-.34,5.61,5.61,0,0,0-.71,0l-1.15-.07-1.93,0q-.18,0-.18.27v6.76c0,.2.06.29.18.29H343c.51,0,.94,0,1.28,0a5.34,5.34,0,0,0,.86,0,2,2,0,0,0,1.28-.39c.19-.24.34-.35.43-.35s.18.07.18.21l-.13,1.09c0,.27-.06.56-.08.86l-.1,1.79c0,.34-.09.51-.25.51a.21.21,0,0,1-.24-.24l0-.45a4.6,4.6,0,0,0-.08-.51q-.22-.91-1.5-1l-.72,0c-.3,0-.68,0-1.12,0l-2,0c-.1,0-.15.08-.15.26v6.26c0,.94.23,1.54.61,1.81a5,5,0,0,0,2.59.43h.59l.67-.05a3.51,3.51,0,0,0,1.25-.28,2.42,2.42,0,0,0,1.2-2c0-.27.15-.41.3-.41s.21.16.21.48a12.65,12.65,0,0,1-.34,3c-.13.47-.61.7-1.45.7l-2.62,0-2-.05c-1.14-.06-2.06-.08-2.78-.08h-.63l-.89,0-1.84.06c-.36,0-.54-.09-.54-.26s.14-.23.42-.23a4.57,4.57,0,0,0,1-.1q.58-.11.78-1.47c.05-.5.09-1.28.1-2.35,0-.43,0-.95,0-1.58Z"/><path class="cls-5" d="M354.2,235.19l-.05-1.63A1.44,1.44,0,0,0,353,232a5.1,5.1,0,0,0-1-.08c-.31,0-.46-.08-.46-.25s.2-.23.59-.23l3.84.07h5.54l1.14,0a7.22,7.22,0,0,0,1.15-.16l.11,0,.32-.1c.11,0,.16.09.16.25l-.13,1a7.34,7.34,0,0,0-.08.77l-.1,1.39a1.39,1.39,0,0,1,0,.37.57.57,0,0,1-.08.19.2.2,0,0,1-.19.11c-.15,0-.23-.13-.23-.38a3.22,3.22,0,0,0,0-.43,4.17,4.17,0,0,0-.14-.54,1.36,1.36,0,0,0-.46-.61,3.43,3.43,0,0,0-1.33-.34,5.61,5.61,0,0,0-.71,0l-1.15-.07-1.93,0c-.12,0-.19.09-.19.27v6.76c0,.2.07.29.19.29h2.14c.51,0,.94,0,1.27,0a5.41,5.41,0,0,0,.87,0,2,2,0,0,0,1.27-.39c.2-.24.35-.35.43-.35s.19.07.19.21l-.13,1.09c0,.27-.06.56-.08.86l-.1,1.79c0,.34-.09.51-.25.51a.21.21,0,0,1-.24-.24l0-.45a4.6,4.6,0,0,0-.08-.51q-.22-.91-1.5-1c-.13,0-.36,0-.72,0s-.68,0-1.12,0l-2,0c-.1,0-.16.08-.16.26v6.26c0,.94.24,1.54.62,1.81a5,5,0,0,0,2.59.43h.59l.67-.05a3.51,3.51,0,0,0,1.25-.28,2.42,2.42,0,0,0,1.2-2c0-.27.15-.41.3-.41s.21.16.21.48a12.65,12.65,0,0,1-.34,3c-.13.47-.61.7-1.45.7l-2.62,0-2-.05c-1.14-.06-2.06-.08-2.78-.08h-.63l-.89,0-1.84.06c-.36,0-.54-.09-.54-.26s.14-.23.42-.23a4.57,4.57,0,0,0,1-.1q.58-.11.78-1.47c.05-.5.09-1.28.1-2.35,0-.43,0-.95,0-1.58Z"/><path class="cls-6" d="M271.5,282v.57h-1.18v-.26c0-.66-.27-1-.83-1s-.79.35-.79,1.06a1.61,1.61,0,0,0,.1.69,1.11,1.11,0,0,0,.57.4l.9.36a1.76,1.76,0,0,1,1,.83,3.34,3.34,0,0,1,.23,1.41c0,1.61-.68,2.41-2,2.41a2,2,0,0,1-1.43-.56,1.86,1.86,0,0,1-.58-1.38v-.44h1.18v.37a.74.74,0,0,0,.83.84.76.76,0,0,0,.73-.34,2.16,2.16,0,0,0,.12-.88,2.22,2.22,0,0,0-.08-.78,1,1,0,0,0-.6-.47l-.84-.34a2,2,0,0,1-1-.83,2.56,2.56,0,0,1-.27-1.28,2.37,2.37,0,0,1,.51-1.59,1.84,1.84,0,0,1,1.51-.66,1.93,1.93,0,0,1,1.42.59A1.77,1.77,0,0,1,271.5,282Z"/><path class="cls-6" d="M275.86,288.41v-8.2H277v8.2Z"/><path class="cls-6" d="M281.59,288.41v-8.2h1.14l1.79,4.94v-4.94h1.17v8.2h-1.11l-1.81-4.93v4.93Z"/><path class="cls-6" d="M293.94,286.07v.51a1.86,1.86,0,0,1-.55,1.34,1.78,1.78,0,0,1-1.32.56,2,2,0,0,1-1.3-.4,1.85,1.85,0,0,1-.63-1.53V282a1.83,1.83,0,0,1,.53-1.35,1.87,1.87,0,0,1,1.38-.54,1.81,1.81,0,0,1,1.35.55,1.94,1.94,0,0,1,.54,1.41v.46h-1.18v-.39a.92.92,0,0,0-.2-.61.64.64,0,0,0-.52-.24c-.49,0-.73.31-.73.95v4.2q0,.84.72.84c.49,0,.73-.28.73-.83v-.41Z"/><path class="cls-6" d="M298.35,288.41v-8.2h3.51v1.11h-2.33v2.4h2v1.11h-2v2.41h2.33v1.17Z"/><path class="cls-6" d="M335.31,288.41v-7l-1.17.87v-1.25l1.17-.86h1.18v8.2Z"/><path class="cls-6" d="M341.65,284.27V281.9a1.66,1.66,0,0,1,.53-1.29,1.72,1.72,0,0,1,1.22-.47,1.75,1.75,0,0,1,1.24.48,1.69,1.69,0,0,1,.51,1.28v4.82a1.68,1.68,0,0,1-.51,1.28,1.75,1.75,0,0,1-1.24.48,1.72,1.72,0,0,1-1.22-.47,1.66,1.66,0,0,1-.53-1.29h1.17a.61.61,0,0,0,.16.42.57.57,0,0,0,.42.17.53.53,0,0,0,.41-.17.57.57,0,0,0,.16-.42v-1.11a2.46,2.46,0,0,1-1.08.27,1.12,1.12,0,0,1-1-.53A2,2,0,0,1,341.65,284.27Zm1.17-2.37v2.35a.57.57,0,0,0,.17.42.54.54,0,0,0,.41.17.52.52,0,0,0,.4-.17.54.54,0,0,0,.17-.42V281.9a.54.54,0,0,0-.17-.42.55.55,0,0,0-.4-.16.56.56,0,0,0-.58.58Z"/><path class="cls-6" d="M349.39,284.27V281.9a1.7,1.7,0,0,1,.53-1.29,1.83,1.83,0,0,1,2.46,0,1.69,1.69,0,0,1,.51,1.28v4.82a1.68,1.68,0,0,1-.51,1.28,1.83,1.83,0,0,1-2.46,0,1.7,1.7,0,0,1-.53-1.29h1.17a.57.57,0,0,0,.17.42.53.53,0,0,0,.41.17.57.57,0,0,0,.42-.17.61.61,0,0,0,.16-.42v-1.11a2.53,2.53,0,0,1-1.08.27,1.12,1.12,0,0,1-1-.53A2,2,0,0,1,349.39,284.27Zm1.17-2.37v2.35a.54.54,0,0,0,.18.42.52.52,0,0,0,.4.17.51.51,0,0,0,.4-.17.54.54,0,0,0,.18-.42V281.9a.54.54,0,0,0-.18-.42.54.54,0,0,0-.4-.16.55.55,0,0,0-.4.16A.54.54,0,0,0,350.56,281.9Z"/><path class="cls-6" d="M360.63,280.21v1.11h-2.32v2.21a1.33,1.33,0,0,1,1-.38,1.26,1.26,0,0,1,1,.38,1.45,1.45,0,0,1,.37,1.07v2.12a1.68,1.68,0,0,1-.51,1.28,1.83,1.83,0,0,1-2.46,0,1.7,1.7,0,0,1-.53-1.29v-.35h1.18v.3c0,.42.2.64.6.64s.55-.21.55-.61v-1.93a.56.56,0,0,0-.16-.41.48.48,0,0,0-.39-.18.68.68,0,0,0-.6.45h-1v-4.42Z"/><path class="cls-6" d="M45.15,288.41v-8.2h1.72a2,2,0,0,1,1.61.63,2.12,2.12,0,0,1,.48,1.44v.3a1.91,1.91,0,0,1-.21,1,1.8,1.8,0,0,1-.6.55,1.61,1.61,0,0,1,.81,1.62v.46a2,2,0,0,1-2.2,2.23Zm1.18-7.09v2.25h.53a1,1,0,0,0,.8-.3,1.48,1.48,0,0,0,.19-.85c0-.74-.35-1.1-1-1.1Zm0,3.29v2.63h.51a.9.9,0,0,0,.86-.39,2.33,2.33,0,0,0,.15-1,1.76,1.76,0,0,0-.18-.93,1,1,0,0,0-.82-.31Z"/><path class="cls-6" d="M53.52,288.41v-8.2H57v1.11H54.69v2.4h2v1.11h-2v2.41H57v1.17Z"/><path class="cls-6" d="M65,282v.57H63.86v-.26c0-.66-.27-1-.82-1s-.8.35-.8,1.06a1.61,1.61,0,0,0,.1.69,1.16,1.16,0,0,0,.57.4l.9.36a1.76,1.76,0,0,1,1,.83,3.34,3.34,0,0,1,.23,1.41c0,1.61-.68,2.41-2,2.41a2,2,0,0,1-1.43-.56,1.85,1.85,0,0,1-.57-1.38v-.44h1.17v.37a.74.74,0,0,0,.83.84.76.76,0,0,0,.73-.34,2.16,2.16,0,0,0,.12-.88,2.22,2.22,0,0,0-.08-.78,1,1,0,0,0-.6-.47l-.84-.34a2,2,0,0,1-1-.83,2.56,2.56,0,0,1-.27-1.28,2.37,2.37,0,0,1,.51-1.59,1.85,1.85,0,0,1,1.51-.66,1.93,1.93,0,0,1,1.42.59A1.77,1.77,0,0,1,65,282Z"/><path class="cls-6" d="M70.14,288.41v-7.09H68.78v-1.11h3.9v1.11H71.32v7.09Z"/><path class="cls-6" d="M82.29,288.41v-8.2h1.17v8.2Z"/><path class="cls-6" d="M88,288.41v-8.2h1.14l1.79,4.94v-4.94h1.17v8.2H91l-1.81-4.93v4.93Z"/><path class="cls-6" d="M103,288.41v-7.09h-1.36v-1.11h3.89v1.11h-1.35v7.09Z"/><path class="cls-6" d="M109.44,286.48v-4.34a1.94,1.94,0,0,1,.62-1.5,2.07,2.07,0,0,1,2.7,0,1.94,1.94,0,0,1,.62,1.5v4.34a1.89,1.89,0,0,1-.62,1.49,2,2,0,0,1-2.7,0A1.89,1.89,0,0,1,109.44,286.48Zm1.18-4.34v4.34a.77.77,0,0,0,.24.62.74.74,0,0,0,.55.21.77.77,0,0,0,.57-.22.79.79,0,0,0,.22-.61v-4.34a.74.74,0,0,0-.79-.82.76.76,0,0,0-.79.82Z"/><path class="cls-6" d="M124,280.21l-1.22,8.2h-1.11l-.9-5.32h0l-.89,5.32h-1.11l-1.22-8.2h1.25l.59,5.21h0l.92-5.21h.9l1,5.33h0l.56-5.33Z"/><path class="cls-6" d="M128.11,288.41v-8.2h1.14l1.79,4.94v-4.94h1.18v8.2H131.1l-1.81-4.93v4.93Z"/><path class="cls-7" d="M77,159.13c-.34-.41-.64-.74-.88-1a5.55,5.55,0,0,0-.67-.59,1,1,0,0,0-1.47-.09.86.86,0,0,0-.16,1.19,5.25,5.25,0,0,0,1.06,1.66l12.94,15.37A5.13,5.13,0,0,0,89.32,177a.88.88,0,0,0,1.23.07,1.05,1.05,0,0,0,.13-1.5,4.07,4.07,0,0,0-.42-.7c-.21-.29-.5-.66-.87-1.09l-3.86-4.59,1.65-3.44L92.43,172q2.25,2.66,2.11,4.28a4.86,4.86,0,0,1-1.91,3.28,5.42,5.42,0,0,1-1.61,1,4.07,4.07,0,0,1-1.81.25,3.75,3.75,0,0,1-2-.78c-.23-.18-.52-.43-.85-.73a12.5,12.5,0,0,1-1.07-1.15L72.14,162.49a10.84,10.84,0,0,1-.92-1.23c-.23-.36-.43-.69-.6-1a5,5,0,0,1-.41-1.07,3.1,3.1,0,0,1-.07-1.09,5.07,5.07,0,0,1,1.82-3,5.19,5.19,0,0,1,3.58-1.34,3.63,3.63,0,0,1,1.75.72,11.15,11.15,0,0,1,2,2l3.56,4.22a5.44,5.44,0,0,0-1.79,3.28Z"/><path class="cls-7" d="M111.59,162.25a4.83,4.83,0,0,1,.29,1.9,4.75,4.75,0,0,1-2.23,3,4.89,4.89,0,0,1-3.68.76,4,4,0,0,1-1.84-1c-.22-.24-.48-.54-.77-.88a13.12,13.12,0,0,1-.91-1.28L91.52,147.47a9.7,9.7,0,0,1-.7-1.27c-.18-.39-.32-.72-.42-1a4.58,4.58,0,0,1-.18-2.2,4.94,4.94,0,0,1,2.29-3,4.78,4.78,0,0,1,3.69-.67,2.78,2.78,0,0,1,1.06.48,5.37,5.37,0,0,1,1,1,6.61,6.61,0,0,1,.71,1l1,1.65,10.25,16.18A11.17,11.17,0,0,1,111.59,162.25ZM96.06,143.76a4.1,4.1,0,0,0-.57-.66c-.45-.45-.87-.55-1.25-.31a1,1,0,0,0-.45,1.28l.36.74q.21.41.6,1l10.64,16.79c.27.43.5.77.68,1s.34.43.47.59a1,1,0,0,0,1.33.11c.41-.26.5-.67.28-1.23a3.3,3.3,0,0,0-.3-.73c-.16-.3-.38-.66-.65-1.09L96.79,144.83A12.84,12.84,0,0,0,96.06,143.76Z"/><path class="cls-7" d="M123.57,157a6.4,6.4,0,0,0-.7-2.17l-9.69-21.41a11.81,11.81,0,0,0-.66-1.3,3.64,3.64,0,0,0-.55-.75,1.66,1.66,0,0,0-.57-.54,5.14,5.14,0,0,0-.91-.46l9.9-4.49,2.47,5.45a3.54,3.54,0,0,0-2-1.38,2.91,2.91,0,0,0-1.8.36l-2.71,1.23,3.89,8.6,1.86-.85c.41-.18.74-.34,1-.47a3.07,3.07,0,0,0,.61-.4,2.74,2.74,0,0,0,.41-.91,4.92,4.92,0,0,0,.18-1.27l3.11,6.86a2.77,2.77,0,0,0-2.92-.69l-2.67,1.21,4.39,9.71a13.36,13.36,0,0,0,1,2,4.72,4.72,0,0,0,1.56,1l-5.46,2.47A2.71,2.71,0,0,0,123.57,157Z"/><path class="cls-7" d="M144.92,148.42a6.46,6.46,0,0,0-.37-2.25l-6.42-22.61a13.78,13.78,0,0,0-.46-1.38,4.15,4.15,0,0,0-.44-.83,1.77,1.77,0,0,0-.48-.62,6.62,6.62,0,0,0-.83-.59l10.46-3,1.63,5.76a3.51,3.51,0,0,0-1.78-1.67,2.93,2.93,0,0,0-1.83.09l-2.87.82,2.58,9.07,2-.55,1-.32a4.25,4.25,0,0,0,.67-.31,3.59,3.59,0,0,0,.54-.84,5.15,5.15,0,0,0,.36-1.22l2.06,7.23a2.75,2.75,0,0,0-2.78-1.11l-2.83.81,2.91,10.25a12.29,12.29,0,0,0,.75,2.14,4.42,4.42,0,0,0,1.4,1.18l-5.78,1.64A2.76,2.76,0,0,0,144.92,148.42Z"/><path class="cls-7" d="M173.75,118.2a3.59,3.59,0,0,0-1.23-1.6,2.56,2.56,0,0,0-1.81-.35l-3.12.42,1.23,9.35,1.64-.21c.34,0,.65-.09.91-.15a1,1,0,0,0,.59-.27,1.64,1.64,0,0,0,.68-.72,8.83,8.83,0,0,0,.48-1.1l1,7.46c-.22-.32-.44-.6-.65-.85a1.85,1.85,0,0,0-.65-.49,2.92,2.92,0,0,0-1.47-.14l-2,.27,1.42,10.78,4-.53a1.55,1.55,0,0,0,1.12-.57,3.27,3.27,0,0,0,.55-1.4l.7,5.26-10.46,1.38a3.54,3.54,0,0,0,.46-.78,5.56,5.56,0,0,0,.24-.76,7.69,7.69,0,0,0-.07-2.14l-3.15-23.93a7.17,7.17,0,0,0-.48-2,5.3,5.3,0,0,0-1.07-1.31L173,112.44Z"/><path class="cls-7" d="M198.85,117.38a3.68,3.68,0,0,0-1-1.76,2.6,2.6,0,0,0-1.75-.58L193,115l-.06,9.44h1.66l.92,0a1.06,1.06,0,0,0,.62-.19,1.67,1.67,0,0,0,.78-.62,8,8,0,0,0,.62-1l0,7.53a7.9,7.9,0,0,0-.53-.93,1.86,1.86,0,0,0-.57-.58,2.88,2.88,0,0,0-1.43-.33h-2l-.06,10.87,4,0a1.61,1.61,0,0,0,1.18-.42,3.39,3.39,0,0,0,.74-1.31l0,5.31-10.54-.06a3.74,3.74,0,0,0,.55-.7,3.7,3.7,0,0,0,.34-.73,7.09,7.09,0,0,0,.23-2.13l.13-24.14a7.06,7.06,0,0,0-.2-2,6.06,6.06,0,0,0-.34-.67,4.66,4.66,0,0,0-.55-.77l10.55.06Z"/><path class="cls-7" d="M240.12,136.6l-1.92,6.67c-.12.43-.22.8-.29,1.1a3.09,3.09,0,0,0-.11.78.93.93,0,0,0,.7.94,1,1,0,0,0,1.18-.58,6.09,6.09,0,0,0,.75-1.82l1-3.55a10.13,10.13,0,0,0,.54-4.4,7.14,7.14,0,0,0-1.37-2.88c-.44-.62-.77-1.15-1-1.57a8,8,0,0,1-.45-.91,5.47,5.47,0,0,1-.27-1.68,6.77,6.77,0,0,1,.29-1.91l1.17-4.08c.15-.51.31-1,.47-1.37l.39-1a5.07,5.07,0,0,1,1.61-1.57,4.79,4.79,0,0,1,3.61-.3,4.6,4.6,0,0,1,3,2.33q.78,1.46-.15,4.69l-1.79,6.21-2.43-4.12.72-2.53c.15-.52.26-.94.33-1.28a6.53,6.53,0,0,0,.11-.86c.06-.74-.17-1.18-.68-1.33a1,1,0,0,0-1.11.48,4.24,4.24,0,0,0-.34.77c-.1.3-.2.64-.32,1l-.89,3.09a3.69,3.69,0,0,0,.07,2.51,8.76,8.76,0,0,1,.58.87l.48.88a6.69,6.69,0,0,1,.53.94c.2.39.43.85.71,1.37a6.79,6.79,0,0,1,.54,1.35,4.4,4.4,0,0,1,.17,1.34c0,.37-.12.83-.23,1.38s-.29,1.23-.52,2l-1.5,5.22c-.63,2.17-1.42,3.55-2.39,4.13a4.4,4.4,0,0,1-3.67.33,4.77,4.77,0,0,1-3-2.24,3.07,3.07,0,0,1-.39-.94,7,7,0,0,1-.17-1.12c.06-.32.13-.7.22-1.14a14.33,14.33,0,0,1,.37-1.52l2.68-9.32Z"/><path class="cls-7" d="M253.25,153.82a4.11,4.11,0,0,1,.49-.4,2.69,2.69,0,0,0,.41-.33,4.16,4.16,0,0,0,.73-1.17l10.58-22.69q.29-.6.48-1.08a2.44,2.44,0,0,0,.21-.8c0-.16,0-.36,0-.61a7,7,0,0,0-.08-.92l4.31,2c-.28.34-.54.66-.76,1a6,6,0,0,0-.61,1.05l-4.62,9.89,2.53-.17,4.21-9a5.34,5.34,0,0,0,.55-2.12l4.4,2.05a6.1,6.1,0,0,0-1.38,1,8.55,8.55,0,0,0-.88,1.6l-10.35,22.19a9.42,9.42,0,0,0-.66,1.71,5.6,5.6,0,0,1,0,.58,2.93,2.93,0,0,0,.06.69l0,.45-4.39-2.05.32-.28a7.24,7.24,0,0,0,1.05-1.74l5.37-11.53-2.51.15-4.95,10.62a4.88,4.88,0,0,0-.54,1.86l0,.35-4.39-2Z"/><path class="cls-7" d="M281.19,167.17a5,5,0,0,1-1.64,1,4.71,4.71,0,0,1-3.61-.89,4.89,4.89,0,0,1-2.14-3.1,4,4,0,0,1,.2-2.08c.14-.3.31-.65.52-1a11.27,11.27,0,0,1,.82-1.33L287,142.92a11.74,11.74,0,0,1,.9-1.13c.29-.32.54-.58.74-.77a4.81,4.81,0,0,1,2-1,5,5,0,0,1,3.62,1,4.78,4.78,0,0,1,2.06,3.14,2.91,2.91,0,0,1,0,1.17,4.92,4.92,0,0,1-.52,1.34,6.19,6.19,0,0,1-.61,1L294,149.24,283.07,165A11.82,11.82,0,0,1,281.19,167.17Zm11-21.5a4.5,4.5,0,0,0,.38-.78c.24-.6.17-1-.19-1.28a1.05,1.05,0,0,0-1.36.09c-.17.19-.35.39-.54.62s-.43.54-.71,1L278.43,161.6c-.29.41-.51.75-.66,1l-.35.67a1,1,0,0,0,.41,1.27c.4.27.81.19,1.24-.23a3.24,3.24,0,0,0,.55-.56c.22-.26.47-.6.76-1l11.1-16C291.77,146.34,292,146,292.18,145.67Z"/><path class="cls-7" d="M316.42,162.59a9.38,9.38,0,0,1-2.56,3.51l-5.19,5.11c-.76.75-1.43,1.35-2,1.8a7.74,7.74,0,0,1-1.32.89,4.72,4.72,0,0,0-.54.08,2.7,2.7,0,0,1-.63.07,2.41,2.41,0,0,1-1-.2,4.42,4.42,0,0,1-1.13-.67c-.17-.17-.4-.39-.69-.64s-.65-.59-1.06-1l-6.07,6c-.34.33-.62.63-.84.89a5,5,0,0,0-.5.67,2.19,2.19,0,0,0-.24.71,6.65,6.65,0,0,0-.12,1l-4-4.06a3.4,3.4,0,0,0,1.65-.37,6.93,6.93,0,0,0,1.61-1.28l17.27-17a7.11,7.11,0,0,0,1.3-1.59,3,3,0,0,0,.4-1.64l4.44,4.51C316.34,160.46,316.74,161.55,316.42,162.59Zm-12.81,7.1c.5.51,1.1.41,1.82-.29L312,163c.68-.67.77-1.26.27-1.76l-.71-.73L302.89,169Z"/><path class="cls-8" d="M199.36,267.93h0c-28.27,0-29.81-27.5-29.82-27.78l0-.43h60.93l0,.43c0,.28-1.57,27.37-30.44,27.78Zm-29-27.39c.32,3.45,3.41,26.57,29,26.57H200c26.12-.37,29.28-23.14,29.6-26.57Z"/><polygon class="cls-8" points="189.05 266.06 189.05 270.99 212.11 270.99 212.11 264.86 189.05 266.06"/><path class="cls-8" d="M186.5,243.5H170.39c1.4,7.39,7.05,24.34,29.59,24s28.16-16.77,29.58-24H205.91c7.15,3.89,3.48,17-8.07,18.3s-19.1-7.57-18.29-13S186.5,243.5,186.5,243.5Z"/><path class="cls-8" d="M197.33,237.61h12.16s6.23-2.79,7.76-16.69C217.25,220.92,210.51,234.17,197.33,237.61Z"/><path class="cls-8" d="M213.27,237.61l7.87-.54a14.65,14.65,0,0,0-1.33-12.67S219.81,235.81,213.27,237.61Z"/><path class="cls-8" d="M206.66,229.3a16.36,16.36,0,0,0,5.64-6.62c-1.76,2.71-4.37,4.63-8.74,6.93-6.53,3.43-16.24,8-16.24,8h7.62S200,233.66,206.66,229.3Z"/><path class="cls-8" d="M189.15,217c1.19,10.46,16.08,9.39,15,1.24-1.38,2.79-4,4.88-8.36,3.52-4.59-1.41-6.13-5.45-6.64-8.38A17.64,17.64,0,0,0,189.15,217Z"/><path class="cls-8" d="M209.52,206.69a13.75,13.75,0,0,0-12.79-2.9c5.36.44,13.35,2.54,17,10.31A12.19,12.19,0,0,0,209.52,206.69Z"/><path class="cls-8" d="M228.85,258.93h-4.29a6.59,6.59,0,1,1,0-13.18h4.29a6.59,6.59,0,0,1,0,13.18Zm-4.29-12.36a5.78,5.78,0,0,0,0,11.55h4.29a5.78,5.78,0,0,0,0-11.55Z"/></svg>