<svg id="Слой_1" data-name="Слой 1" xmlns="http://www.w3.org/2000/svg" viewBox="0 0 400 400"><defs><style>.cls-1{fill:#e8c08a;}.cls-2{fill:#daa449;}.cls-3{fill:none;stroke:#e8c08a;stroke-miterlimit:10;stroke-width:2px;}.cls-4{fill:#2d1e14;}.cls-5{fill:#503b2d;}</style></defs><rect class="cls-1" x="312.52" y="173.73" width="71.83" height="1.81"/><rect class="cls-1" x="312.52" y="223.05" width="71.83" height="1.81"/><rect class="cls-1" x="15.65" y="173.73" width="71.83" height="1.81"/><rect class="cls-1" x="15.65" y="223.05" width="71.83" height="1.81"/><path class="cls-2" d="M23.71,196.7c-.07,0-.11,0-.11-.09l-.43-2.43s0-.08-.09-.11a5,5,0,0,0-2-.41,3.12,3.12,0,0,0-1.91.59A2.1,2.1,0,0,0,18.3,196a2.34,2.34,0,0,0,.77,1.78,6.61,6.61,0,0,0,1.69,1l1.41.65a8.08,8.08,0,0,1,2.4,1.54,3.43,3.43,0,0,1,.94,2.44,3.94,3.94,0,0,1-1.67,3.39,6.23,6.23,0,0,1-3.75,1.08,11.94,11.94,0,0,1-2.65-.34,5,5,0,0,1-.77-.23c-.07,0-.11-.07-.11-.11V204c0-.07,0-.1.11-.1h.89c.07,0,.1.05.1.08l.44,2.44s0,0,0,.06l.05.06a4.71,4.71,0,0,0,2.11.38,3.89,3.89,0,0,0,2.24-.62,2.29,2.29,0,0,0,1-2c0-1.19-.79-2.15-2.37-2.89l-1.42-.66a8.22,8.22,0,0,1-2.33-1.5,3.21,3.21,0,0,1-1-2.36,3.82,3.82,0,0,1,.84-2.43A4.36,4.36,0,0,1,19.41,193a5.53,5.53,0,0,1,1.78-.28,11.08,11.08,0,0,1,2.58.31c.24.05.5.12.79.21.07,0,.1,0,.1.1v3.28c0,.07,0,.11-.1.11Z"/><path class="cls-2" d="M35,193c.07,0,.11,0,.11.1v.56a.1.1,0,0,1-.11.11l-1.84.18a.1.1,0,0,0-.11.1v12.46a.1.1,0,0,0,.11.11l1.84.17c.07,0,.11,0,.11.12v.55a.1.1,0,0,1-.11.11H29.14c-.07,0-.1,0-.1-.11v-.55c0-.08,0-.12.1-.12l1.84-.17a.1.1,0,0,0,.11-.11V194.07A.1.1,0,0,0,31,194l-1.84-.18c-.07,0-.1,0-.1-.11v-.56c0-.07,0-.1.1-.1Z"/><path class="cls-2" d="M38.48,193.12c0-.07,0-.1.11-.1H42.4a.13.13,0,0,1,.09,0l8,10.63v-9.53a.1.1,0,0,0-.1-.11l-1.6-.16c-.07,0-.1,0-.1-.12v-.65c0-.07,0-.1.1-.1h4.51c.07,0,.11,0,.11.1v.65c0,.08,0,.12-.11.12l-1.63.16c-.07,0-.1,0-.1.11v13.49c0,.08,0,.11-.13.11h-.41a.24.24,0,0,1-.11-.06l-9.34-12.37v11.11c0,.08,0,.11.09.11l1.58.17a.1.1,0,0,1,.11.11v.65a.1.1,0,0,1-.11.11h-4.5c-.08,0-.12,0-.12-.11v-.65c0-.07,0-.11.12-.11l1.64-.17a.1.1,0,0,0,.11-.11V194.16a.1.1,0,0,0-.11-.11l-1.84-.16c-.07,0-.11,0-.11-.12Z"/><path class="cls-2" d="M65,192.69c.26,0,.56,0,.89.05s.67.08,1,.14.67.1,1,.17l.86.16c.07,0,.11,0,.11.1v3.28a.1.1,0,0,1-.11.11h-.84l-.08,0a.08.08,0,0,1,0-.07l-.43-2.43a.14.14,0,0,0-.08-.11L66.8,194l-.61-.14a4.5,4.5,0,0,0-.64-.11,5,5,0,0,0-.64-.05,6.91,6.91,0,0,0-2.58.45,5.2,5.2,0,0,0-1.9,1.25,5.59,5.59,0,0,0-1.17,2,7.37,7.37,0,0,0-.4,2.5,8.57,8.57,0,0,0,.42,2.7,6.91,6.91,0,0,0,1.21,2.26,5.67,5.67,0,0,0,1.88,1.53,5.41,5.41,0,0,0,2.45.56c.16,0,.35,0,.57,0s.45,0,.67-.06l.67-.11a1.85,1.85,0,0,0,.56-.19.14.14,0,0,0,.08-.12l.43-2.44s0,0,0-.05a.11.11,0,0,1,.08,0h.84c.07,0,.11,0,.11.1v3.27s0,.08-.11.11l-.8.19-.94.18c-.35.05-.71.1-1.11.14a13,13,0,0,1-1.31.06,9.4,9.4,0,0,1-2.23-.26,7.84,7.84,0,0,1-1.91-.75,7.1,7.1,0,0,1-1.57-1.18,6.74,6.74,0,0,1-1.14-1.51,8,8,0,0,1-.73-1.82,8.4,8.4,0,0,1,0-4.3,7.39,7.39,0,0,1,.86-1.89,7.3,7.3,0,0,1,1.31-1.51,8.14,8.14,0,0,1,1.67-1.09,8.24,8.24,0,0,1,2-.67A10.26,10.26,0,0,1,65,192.69Z"/><path class="cls-2" d="M83.38,193c.07,0,.11,0,.11.1v3.4a.1.1,0,0,1-.11.11h-.8c-.07,0-.11,0-.11-.08L82,194.1c0-.06,0-.09-.11-.09H77c-.07,0-.1,0-.1.11v5.35c0,.07,0,.1.1.1h3c.08,0,.12,0,.12-.08l.21-1.76s0-.08.11-.08H81a.1.1,0,0,1,.11.11v4.7a.1.1,0,0,1-.11.11h-.59c-.07,0-.11,0-.11-.09l-.21-1.86q0-.09-.12-.09H77c-.07,0-.1,0-.1.11v5.85c0,.07,0,.11.1.11h5.26c.08,0,.11,0,.11-.09l.44-2.41s0-.08.1-.08h.81c.07,0,.1,0,.1.1v3.36c0,.08,0,.11-.1.11H73a.1.1,0,0,1-.11-.11v-.55c0-.08,0-.12.11-.12l1.84-.17c.07,0,.1,0,.1-.11V194a.12.12,0,0,0-.1-.06L73,193.79a.1.1,0,0,1-.11-.11v-.56c0-.07,0-.1.11-.1Z"/><path class="cls-2" d="M326.78,192.88c.06,0,.08,0,.08.1v13.57c0,.08.05.12.14.13l1.84.15c.06,0,.08,0,.08.1v.58c0,.05,0,.08-.08.08H323c-.06,0-.09,0-.09-.08v-.58a.09.09,0,0,1,.09-.1l1.94-.15a.16.16,0,0,0,.09,0,.11.11,0,0,0,0-.1V194.94c0-.08,0-.12-.1-.12l-2.3.29a.13.13,0,0,1-.08-.08l-.15-.56s0,0,0-.05l0,0,3.64-1.48.11,0Z"/><path class="cls-2" d="M339.5,204.53a9.48,9.48,0,0,0,.73-1.31,9.76,9.76,0,0,0,.67-1.81,4.88,4.88,0,0,1-2.53.7,4.36,4.36,0,0,1-3.26-1.25,4.45,4.45,0,0,1-1.23-3.25,5.23,5.23,0,0,1,.74-2.74,4.49,4.49,0,0,1,2.09-1.8,4.93,4.93,0,0,1,2-.38,4.33,4.33,0,0,1,3.59,1.67,6.08,6.08,0,0,1,1.19,3.85,10.31,10.31,0,0,1-2.5,6.86,8.36,8.36,0,0,1-5.72,2.87c-.09,0-.13,0-.13-.08l-.11-.7s.05-.08.15-.13a7.8,7.8,0,0,0,3.43-1.49A5.16,5.16,0,0,0,339.5,204.53Zm1.57-4.24.17-1.2a9.71,9.71,0,0,0,.08-1.21,5.57,5.57,0,0,0-.39-2,3.86,3.86,0,0,0-1.21-1.69,2,2,0,0,0-1.27-.41,2,2,0,0,0-1.83,1.06,4.55,4.55,0,0,0-.53,2.32,4.35,4.35,0,0,0,.69,2.63,2.68,2.68,0,0,0,2.33,1,4,4,0,0,0,1.57-.3A2.36,2.36,0,0,0,341.07,200.29Z"/><path class="cls-2" d="M351.84,192.69a4.33,4.33,0,0,1,2.8.89,3,3,0,0,1,1.17,2.44c0,1.57-.88,2.8-2.63,3.71a7.53,7.53,0,0,1,2.48,1.75,3.65,3.65,0,0,1,.82,2.39,3.55,3.55,0,0,1-.89,2.4,4.61,4.61,0,0,1-2.18,1.35,6.09,6.09,0,0,1-1.87.28,5.06,5.06,0,0,1-3.17-1,3.23,3.23,0,0,1-1.39-2.69,3.64,3.64,0,0,1,.83-2.41,6.65,6.65,0,0,1,2.29-1.68,6.44,6.44,0,0,1-2-1.57,3.69,3.69,0,0,1,.64-4.92A4.86,4.86,0,0,1,351.84,192.69Zm-.11,14.12a2.23,2.23,0,0,0,2.29-1.57,3.06,3.06,0,0,0,.18-1.08,3.25,3.25,0,0,0-1.82-2.81c-.39-.23-.81-.45-1.25-.66a3.14,3.14,0,0,0-1.48,1.36,3.86,3.86,0,0,0-.52,2,2.53,2.53,0,0,0,1.46,2.54A2.73,2.73,0,0,0,351.73,206.81Zm-.12-13.08a1.77,1.77,0,0,0-1.47.66,2.44,2.44,0,0,0-.53,1.61,2.72,2.72,0,0,0,.64,1.89,6.34,6.34,0,0,0,1.87,1.27h.15a3.15,3.15,0,0,0,1.59-3,2.59,2.59,0,0,0-.6-1.78A2.09,2.09,0,0,0,351.61,193.73Z"/><path class="cls-2" d="M369.09,205.84c.05,0,.08,0,.08.08v1.59a.07.07,0,0,1-.08.08h-8.92l0,0-.33-.54a.19.19,0,0,1,0-.07.08.08,0,0,1,0-.07,30.79,30.79,0,0,0,5-5.34,9.29,9.29,0,0,0,1.1-2.12,6.71,6.71,0,0,0,.49-2.44,3.55,3.55,0,0,0-.68-2.21,2.4,2.4,0,0,0-2-1,3.79,3.79,0,0,0-1.7.39c-.06,0-.1.08-.12.2l-.35,2.19s0,.06-.09.06h-.88c-.06,0-.09,0-.09-.08v-2.89a.2.2,0,0,1,.09-.15,6.45,6.45,0,0,1,1.8-.63,9.31,9.31,0,0,1,2-.19,4.73,4.73,0,0,1,3,.91,3.21,3.21,0,0,1,1.31,2.66,7.26,7.26,0,0,1-.66,2.83,11,11,0,0,1-1.39,2.37,34.39,34.39,0,0,1-4.17,4.38Z"/><path class="cls-3" d="M288.9,231.53A87.51,87.51,0,0,1,201.39,319h0a87.51,87.51,0,0,1-87.5-87.51V168.25a87.51,87.51,0,0,1,87.5-87.5h0a87.51,87.51,0,0,1,87.51,87.5Z"/><path class="cls-4" d="M80.43,62.83,89,70.46l-2.7,3.05-4.23-3.76q-2.48-2.19-3.91-.57a1.83,1.83,0,0,0-.46,2.08A5.84,5.84,0,0,0,79.21,73L93.92,86.06a7.49,7.49,0,0,0,2.47,1.65A2.92,2.92,0,0,0,99.66,84a7,7,0,0,0-1.9-2.29l-6-5.35,1.89-2.13,6.16,5.46q2.94,2.63,2.92,5T100,90.09q-2.82,3.18-5.12,3.35c-1.53.11-3.35-.76-5.44-2.63L74.71,77.72a6.12,6.12,0,0,1-2.29-4.13,5.86,5.86,0,0,1,1.72-4.36,6,6,0,0,1,5.23-2.07l-1.55-1.38Z"/><path class="cls-4" d="M95.17,61.76q-6.24-7.82.79-13.43t13.27,2.2l8.27,10.36q6.21,7.77-.83,13.39t-13.24-2.16Zm3.17-6.47,12.1,15.17a7.92,7.92,0,0,0,1.91,1.89,2.5,2.5,0,0,0,3.4-2.71,7,7,0,0,0-1.38-2.31L102.26,52.16a7.13,7.13,0,0,0-2-1.89A2.47,2.47,0,0,0,96.92,53,7.74,7.74,0,0,0,98.34,55.29Z"/><path class="cls-4" d="M128.5,65.1l-1.43-2.57,1.39-.76L115.64,38.62l-1.38.77-1.43-2.58,13.42-7.42,5.21,9.41-3.56,2-3.79-6.84-3,1.64,5.06,9.14,5.11-2.82,1.93,3.48-5.11,2.82L134,58.72,135.3,58l1.43,2.58Z"/><path class="cls-4" d="M146.88,55.42l-1-2.76,1.49-.54-9.07-24.86-1.48.54-1-2.76,14.41-5.25,3.68,10.11-3.82,1.39-2.68-7.35-3.19,1.17,3.58,9.81,5.48-2,1.36,3.74-5.48,2L153.26,50l1.45-.53,1,2.76Z"/><path class="cls-4" d="M166.52,48.69,166,45.8l1.56-.3-4.9-26-1.56.29-.54-2.88L176,14l2,10.58-4,.76-1.45-7.69-3.77.71,1.93,10.27,5.82-1.1.74,3.91-5.82,1.1,2.23,11.82,3.77-.71-1.65-8.76,4.54-.85,2.19,11.64Z"/><path class="cls-4" d="M188.33,45.06l-.05-2.94,1.58,0-.44-26.46-1.58,0-.05-2.94,15.78-.26.18,10.76-4.07.07-.13-7.82-3.84.06L195.88,26l5.93-.1.07,4L196,30l.2,12,3.84-.07L199.85,33l4.61-.08.2,11.85Z"/><path class="cls-4" d="M223.64,47.08l2.94-11.67,3.86,1-1.23,4.86c-.61,2.43,0,3.87,1.76,4.32s2.78-.7,3.45-3.33a7.5,7.5,0,0,0-1.11-6A45.06,45.06,0,0,1,229.76,30a12,12,0,0,1-.22-7.28,9.6,9.6,0,0,1,2.6-4.8,5.17,5.17,0,0,1,5.08-1.24,4.83,4.83,0,0,1,3.59,3.14l.42-1.67,3.55.9-2.84,11.27-3.55-.89,1-4q1.05-4.21-1.09-4.75c-1.49-.38-2.5.49-3,2.59a6.68,6.68,0,0,0,.26,4.17,29.56,29.56,0,0,0,2.14,3.71,24.7,24.7,0,0,1,2.71,5.21,11.13,11.13,0,0,1-.08,5.86,12.93,12.93,0,0,1-2.79,5.68,5.45,5.45,0,0,1-5.69,1.69,5.19,5.19,0,0,1-3.89-3.26l-.44,1.75Z"/><path class="cls-4" d="M243.34,52.3l1.22-2.68,1.44.66,10.92-24.1-1.44-.66,1.21-2.67,8.57,3.88-1.21,2.68-1.4-.64-4.48,9.89,4.65,2.11,4.48-9.89-1.44-.65,1.21-2.68,8.61,3.91-1.21,2.67L273,33.48,262.1,57.58l1.45.65-1.22,2.68L253.72,57l1.22-2.68,1.44.65,5.23-11.53L257,41.34l-5.23,11.53,1.4.64-1.21,2.68Z"/><path class="cls-4" d="M280.45,45.29q5.76-8.17,13.12-3t1.59,13.35l-7.64,10.83q-5.75,8.13-13.1,2.94t-1.61-13.32Zm7.09,1.24L276.36,62.38a7.81,7.81,0,0,0-1.28,2.37,2.49,2.49,0,0,0,3.54,2.5,7.13,7.13,0,0,0,1.84-2l11.19-15.86A7.06,7.06,0,0,0,292.91,47a2.11,2.11,0,0,0-1-2.29,2.13,2.13,0,0,0-2.53-.18A7.73,7.73,0,0,0,287.54,46.53Z"/><path class="cls-4" d="M286.56,78.14l2.09-2.06,1.11,1.12L308.6,58.62l-1.11-1.12,2.09-2.07,8.48,8.6q3.94,4,.53,7.36l-6,5.88c-1.67,1.65-3.26,2.3-4.75,2q-1.72-.41-4.39-3.1l-1.81-1.84-7.5,7.4,1.08,1.1-2.09,2.06Zm17.15-5.86a5,5,0,0,0,2.48,1.64c.66.1,1.47-.33,2.44-1.28l4.91-4.84a3.49,3.49,0,0,0,1.25-2.17,3.22,3.22,0,0,0-1.16-2.17l-.48-.49Z"/><path class="cls-4" d="M65.81,311.9l2.54-1.47.8,1.37,22.91-13.24-.8-1.37,2.55-1.47,5.29,9.16q1.71,2.94,1.54,4.65-.18,2-3,3.65l-4,2.33a5.16,5.16,0,0,1-4.09.79,7.15,7.15,0,0,1-3.24-2.72c1,2,1.5,3.48,1.4,4.52-.09,1.34-1,2.52-2.8,3.55l-4.51,2.6c-2.34,1.36-4.32,1.59-5.91.7q-1.73-1-4-4.9Zm11.66,7L82,316.27q3-1.72,1.18-4.81l-.32-.55-10.77,6.22a5.85,5.85,0,0,0,2.3,2.49C75.12,319.91,76.14,319.67,77.47,318.9Zm17.76-15.12-10,5.75a4.12,4.12,0,0,0,1.92,1.92,3.35,3.35,0,0,0,2.54-.63l4.77-2.76A2.51,2.51,0,0,0,96,306.15,4.35,4.35,0,0,0,95.23,303.78Z"/><path class="cls-4" d="M82.2,336.73l2.08-2.08,1.12,1.12,18.76-18.66L103,316l2.09-2.07,11.13,11.19-7.63,7.59-2.87-2.89,5.55-5.52-2.71-2.72-7.41,7.37,4.18,4.2L102.54,336l-4.17-4.2-8.53,8.48L92.55,343l6.31-6.29,3.26,3.27-8.4,8.36Z"/><path class="cls-4" d="M102.42,355.33l6.77-9.95,3.29,2.24-2.82,4.15q-2.11,3.11.16,4.66,2.1,1.43,4.39-1.94a7.52,7.52,0,0,0,1-6,47.38,47.38,0,0,1-1.19-7.1,12.1,12.1,0,0,1,2.3-6.91,9.64,9.64,0,0,1,4.1-3.61,5.16,5.16,0,0,1,5.19.57,4.87,4.87,0,0,1,2.3,4.19l1-1.42,3,2.06-6.54,9.61-3-2.06,2.34-3.44c1.63-2.39,1.84-4,.61-4.84s-2.51-.4-3.73,1.4a6.57,6.57,0,0,0-1.2,4,29.13,29.13,0,0,0,.74,4.22,23.84,23.84,0,0,1,.74,5.82,11,11,0,0,1-2.08,5.47,13.09,13.09,0,0,1-4.57,4.39,5.48,5.48,0,0,1-5.93-.38,5.17,5.17,0,0,1-2.53-4.4l-1,1.5Z"/><path class="cls-4" d="M126.6,370.16l1.22-2.67,2.1,1,11-24.05-2.34-1.07L135,351.22l-3.33-1.53,4.85-10.56,17.1,7.85-4.85,10.56L145.43,356l3.63-7.89L146.67,347l-11,24,2.1,1-1.23,2.67Z"/><path class="cls-4" d="M163.55,383.42l.58-2.88,1.55.31,5.18-26-1.55-.31.58-2.88,9.22,1.84-.57,2.89-1.51-.3-5.19,25.94,1.51.3-.58,2.89Z"/><path class="cls-4" d="M198.18,384.34l.94-26.28-1.58-.06.11-2.94,6,.22-.1,2.94-1.58-.06L201,387.54l-7.69-.28-5.18-29.33-1,26.17,1.58.06-.1,2.94-6.06-.22.11-2.94,1.58.06.95-26.44-1.58-.06.11-2.94,9.24.33Z"/><path class="cls-4" d="M231.67,383.52l-.73-2.85,2.24-.57-6.53-25.64-2.49.63,2.14,8.42-3.55.9-2.87-11.27,18.24-4.63L241,359.77l-3.55.91-2.14-8.42-2.54.65,6.52,25.64,2.23-.57.73,2.85Z"/><path class="cls-4" d="M246.41,355.72q-3.9-9.21,4.38-12.72T263,348.69l5.17,12.2q3.89,9.17-4.4,12.68t-12.17-5.65Zm4.79-5.38,7.57,17.87a7.84,7.84,0,0,0,1.34,2.33,2.5,2.5,0,0,0,4-1.69,7.15,7.15,0,0,0-.71-2.6l-7.58-17.87a7,7,0,0,0-1.39-2.35,2.47,2.47,0,0,0-4,1.73A7.94,7.94,0,0,0,251.2,350.34Z"/><path class="cls-4" d="M296.87,355.27,278.59,335.9l11.11,24.17L287,361.91l-21.24-21.65-1.09.73L263,338.55l7.66-5.14,1.64,2.45-1.47,1,11,12-8.11-17.49,4.73-3.17,13.28,14.12-6.94-14.82-1.54,1-1.64-2.44,5.22-3.5,1.64,2.44-1.32.88,12.3,27.64Z"/><path class="cls-4" d="M320.83,328.51,301.23,311l-1.05,1.18-2.19-2,4-4.51,2.19,2-1.05,1.18,21.9,19.61-5.13,5.73-25.87-14.78,19.52,17.47,1.05-1.18,2.19,2-4,4.51-2.19-2,1-1.18-19.71-17.65-1.05,1.18-2.19-2,6.17-6.89Z"/><path class="cls-1" d="M326.12,261.61a115.91,115.91,0,0,1-4.74,31.73c-.83,2.81,3.53,4,4.35,1.2a120,120,0,0,0,4.91-32.93c0-2.92-4.49-2.91-4.52,0Z"/><path class="cls-1" d="M316.75,94.07a114,114,0,0,1,9.37,44.11c0,2.91,4.56,2.91,4.52,0a119.52,119.52,0,0,0-10-46.39c-1.15-2.67-5-.36-3.9,2.28Z"/><path class="cls-1" d="M63.32,261.61a120.36,120.36,0,0,0,4.9,32.93c.83,2.79,5.19,1.61,4.36-1.2a115.91,115.91,0,0,1-4.74-31.73c0-2.91-4.55-2.92-4.52,0Z"/><path class="cls-1" d="M73.31,91.79a119.56,119.56,0,0,0-10,46.39c0,2.91,4.48,2.91,4.52,0a114,114,0,0,1,9.37-44.11c1.14-2.64-2.75-4.95-3.9-2.28Z"/><path class="cls-5" d="M194.85,241.67h0c-53.6,0-56.52-52.14-56.54-52.67l0-.81H253.8l0,.81c0,.52-3,51.89-57.72,52.67Zm-54.94-51.93c.6,6.54,6.48,50.38,54.93,50.38H196c49.53-.7,55.52-43.87,56.13-50.37Z"/><polygon class="cls-5" points="175.3 238.14 175.3 247.48 219.03 247.48 219.03 235.85 175.3 238.14"/><path class="cls-5" d="M170.46,195.36H139.92c2.64,14,13.36,46.14,56.11,45.53,42.57-.61,53.38-31.79,56.08-45.53H207.27c13.56,7.36,6.59,32.16-15.31,34.68s-36.23-14.34-34.68-24.61S170.46,195.36,170.46,195.36Z"/><path class="cls-5" d="M191,184.19h23.06s11.82-5.3,14.72-31.64C228.77,152.55,216,177.67,191,184.19Z"/><path class="cls-5" d="M221.22,184.19l14.92-1a27.75,27.75,0,0,0-2.52-24S233.62,180.76,221.22,184.19Z"/><path class="cls-5" d="M208.69,168.43a31,31,0,0,0,10.69-12.56c-3.33,5.13-8.28,8.79-16.57,13.14-12.38,6.51-30.8,15.18-30.8,15.18h14.46S196,176.7,208.69,168.43Z"/><path class="cls-5" d="M175.49,145.05c2.26,19.85,30.48,17.81,28.37,2.36-2.63,5.29-7.5,9.26-15.86,6.68-8.7-2.68-11.63-10.34-12.59-15.89A32.24,32.24,0,0,0,175.49,145.05Z"/><path class="cls-5" d="M214.11,125.55a26.08,26.08,0,0,0-24.26-5.5c10.18.83,25.33,4.81,32.2,19.54A23.09,23.09,0,0,0,214.11,125.55Z"/><path class="cls-5" d="M250.76,224.62h-8.13a12.5,12.5,0,0,1,0-25h8.13a12.5,12.5,0,0,1,0,25Zm-8.13-23.45a10.95,10.95,0,0,0,0,21.9h8.13a11,11,0,0,0,0-21.9Z"/></svg>