<svg id="Слой_1" data-name="Слой 1" xmlns="http://www.w3.org/2000/svg" viewBox="0 0 400 400"><defs><style>.cls-1{fill:#c69c6c;}.cls-2{fill:#2d1e14;}.cls-3{fill:#e8c08a;}.cls-4{fill:#3c3134;}.cls-5{fill:none;stroke:#514141;stroke-miterlimit:10;stroke-width:1.18px;}.cls-6{fill:#231f20;}</style></defs><path class="cls-1" d="M125.36,195.73a10.51,10.51,0,0,1-2.89,3.1l-.22-.16c-3.92-3.25-4.36-10.85-.52-15.26a9,9,0,0,1,3.48-2.56l.18.22C128.27,185.31,128.11,191.16,125.36,195.73Z"/><path class="cls-1" d="M152.05,258.2a18.75,18.75,0,0,1,3.49,3.24l-.12.24c-2.36,4.14-9.06,4.6-14.4.24a16.08,16.08,0,0,1-3.34-4.18l.16-.2C141.22,254.18,147.25,254.87,152.05,258.2Z"/><path class="cls-1" d="M140.46,248a20.56,20.56,0,0,1,2.67,4l-.17.21c-3.18,3.52-9.83,2.52-14.05-2.93a15.44,15.44,0,0,1-2.45-4.74l.21-.16C130.74,241.75,136.43,243.8,140.46,248Z"/><path class="cls-1" d="M131.32,235.6a13.74,13.74,0,0,1,1.72,4.46l-.21.16c-3.68,2.64-10.25.39-13-5.94a11.53,11.53,0,0,1-1.31-5.18l.24-.11C123.09,227.41,128.41,230.56,131.32,235.6Z"/><path class="cls-1" d="M125.05,221.49a13.3,13.3,0,0,1,.81,4.7l-.24.11c-4.3,1.81-10-1.87-11.52-8.62a12.91,12.91,0,0,1-.09-5.35l.26-.05C118.87,211.7,123.38,215.91,125.05,221.49Z"/><path class="cls-1" d="M122.11,206.35a19,19,0,0,1-.26,4.75l-.25.06c-4.72.84-9.31-4-9.43-10.9a15.82,15.82,0,0,1,1.11-5.24h.26C118.25,195.46,121.6,200.53,122.11,206.35Z"/><path class="cls-1" d="M152.74,257.21A9.73,9.73,0,0,0,157,259l.15-.21c2.29-4,.77-9.43-3-12.54a9.47,9.47,0,0,0-3.52-2l-.19.18C147.13,247.6,147.83,253.78,152.74,257.21Z"/><path class="cls-1" d="M141.35,247.2a9.25,9.25,0,0,0,3.79,2.67l.19-.18c3.13-3.45,2.79-9.05-.2-12.95a10.46,10.46,0,0,0-3.07-2.69l-.23.13C137.94,236.62,137.23,242.85,141.35,247.2Z"/><path class="cls-1" d="M132.36,235a12.19,12.19,0,0,0,3.09,3.45l.22-.13c4-2.82,4.58-8.19,2.66-12.71a16.05,16.05,0,0,0-2.35-3.32l-.25.09C131.24,224,129.39,229.8,132.36,235Z"/><path class="cls-1" d="M126.2,221.13a12.71,12.71,0,0,0,2.37,4l.25-.08c4.37-1.85,6.33-7,5.28-11.8a13.18,13.18,0,0,0-1.52-3.76l-.26,0C127.57,210.11,124.51,215.39,126.2,221.13Z"/><path class="cls-1" d="M123.31,206.25a9.62,9.62,0,0,0,1.42,4.41l.26,0c4.55-.82,7.76-5.44,7.66-10.37a9.59,9.59,0,0,0-.64-4l-.26,0C127.08,195.79,122.82,200.27,123.31,206.25Z"/><path class="cls-1" d="M125.71,179a1.09,1.09,0,0,0,1.25-.78,70.33,70.33,0,0,1,16-26.15,1.11,1.11,0,0,0,.12-1.48,1,1,0,0,0-1.42.21,72.14,72.14,0,0,0-16.4,26.84,1,1,0,0,0,.47,1.36Z"/><path class="cls-1" d="M192.45,270.34a1.11,1.11,0,0,0-1.12-1,69.64,69.64,0,0,1-29.77-7.29,1.07,1.07,0,0,0-1.43.32,1,1,0,0,0,.62,1.3,71.3,71.3,0,0,0,30.55,7.49c.64,0,1.16-.35,1.15-.85Z"/><path class="cls-1" d="M120,183.14c.49.12,1-.31,1.18-.95a74.05,74.05,0,0,1,14.81-29.11,1.06,1.06,0,0,0,.12-1.48,1.13,1.13,0,0,0-1.51.31,75.86,75.86,0,0,0-15.18,29.84c-.17.66.09,1.28.58,1.39Z"/><path class="cls-1" d="M113.77,192.45c.49.05,1-.48,1.07-1.17a78.64,78.64,0,0,1,11.58-32.68,1.2,1.2,0,0,0-.1-1.59c-.42-.27-1.07,0-1.44.61A80.45,80.45,0,0,0,113,191.07c-.12.72.22,1.33.73,1.38Z"/><path class="cls-1" d="M128.84,185.24a1,1,0,0,0,1.15-.81,64.75,64.75,0,0,1,13-25.49,1,1,0,0,0,0-1.37,1,1,0,0,0-1.41.2A66.56,66.56,0,0,0,128.23,184a1,1,0,0,0,.61,1.25Z"/><path class="cls-1" d="M131.85,194.23a1,1,0,0,0,1-.87,60.2,60.2,0,0,1,8.88-25.05,1,1,0,0,0-.26-1.33.9.9,0,0,0-1.28.35,62.36,62.36,0,0,0-9.15,25.81.89.89,0,0,0,.77,1.09Z"/><path class="cls-1" d="M279.39,195.36a8.9,8.9,0,0,1-2.55,3.47l-.23-.15c-4-3.2-5.61-8.85-4.31-14a10.51,10.51,0,0,1,1.83-3.82l.26.09C279.1,182.88,281.78,190,279.39,195.36Z"/><path class="cls-1" d="M246.59,257.21a9.9,9.9,0,0,1-4.31,1.75l-.14-.22c-2.29-4-.77-9.43,3-12.54a9.43,9.43,0,0,1,3.51-2l.19.18C252.19,247.6,251.5,253.78,246.59,257.21Z"/><path class="cls-1" d="M258,247.2a9.31,9.31,0,0,1-3.79,2.67l-.19-.18c-3.13-3.45-2.79-9.05.2-12.95a10.33,10.33,0,0,1,3.07-2.69l.23.13C261.39,236.62,262.1,242.85,258,247.2Z"/><path class="cls-1" d="M267,235a12.16,12.16,0,0,1-3.08,3.45l-.23-.13c-4-2.82-4.58-8.19-2.65-12.71a15.34,15.34,0,0,1,2.35-3.32l.25.09C268.09,224,269.94,229.8,267,235Z"/><path class="cls-1" d="M273.13,221.13a12.55,12.55,0,0,1-2.38,4l-.24-.08c-4.37-1.85-6.33-7-5.28-11.8a12.9,12.9,0,0,1,1.52-3.76l.26,0C271.75,210.11,274.82,215.39,273.13,221.13Z"/><path class="cls-1" d="M276,206.25a9.62,9.62,0,0,1-1.42,4.41l-.26,0c-4.55-.82-7.77-5.44-7.66-10.37a9.59,9.59,0,0,1,.64-4l.26,0C272.25,195.79,276.51,200.27,276,206.25Z"/><path class="cls-1" d="M247.28,258.2a18.46,18.46,0,0,0-3.49,3.25l.12.23c2.36,4.14,9.05,4.6,14.4.24a16.3,16.3,0,0,0,3.34-4.18l-.17-.2C258.11,254.18,252.08,254.87,247.28,258.2Z"/><path class="cls-1" d="M258.86,248a21,21,0,0,0-2.66,4l.17.21c3.18,3.52,9.83,2.52,14.05-2.93a15.19,15.19,0,0,0,2.44-4.74l-.21-.16C268.59,241.75,262.9,243.8,258.86,248Z"/><path class="cls-1" d="M268,235.6a13.52,13.52,0,0,0-1.72,4.46l.21.16c3.67,2.64,10.25.39,13-5.94a11.53,11.53,0,0,0,1.31-5.18l-.24-.11C276.23,227.41,270.92,230.56,268,235.6Z"/><path class="cls-1" d="M274.28,221.49a13.54,13.54,0,0,0-.82,4.7l.24.11c4.31,1.81,10-1.87,11.52-8.62a12.58,12.58,0,0,0,.09-5.35l-.25-.05C280.45,211.7,276,215.91,274.28,221.49Z"/><path class="cls-1" d="M277.22,206.35a18.5,18.5,0,0,0,.26,4.75l.24.06c4.73.84,9.31-4,9.44-10.9a16.07,16.07,0,0,0-1.11-5.24h-.26C281.08,195.46,277.72,200.53,277.22,206.35Z"/><path class="cls-1" d="M273.62,179a1,1,0,0,0,.47-1.36,72.19,72.19,0,0,0-16.4-26.84,1,1,0,0,0-1.42-.21,1.1,1.1,0,0,0,.11,1.48,70.2,70.2,0,0,1,16,26.15,1.1,1.1,0,0,0,1.26.78Z"/><path class="cls-1" d="M206.87,270.34a1,1,0,0,0,1.15.85,71.44,71.44,0,0,0,30.56-7.48,1,1,0,0,0,.62-1.31,1.07,1.07,0,0,0-1.43-.32A69.67,69.67,0,0,1,208,269.37a1.11,1.11,0,0,0-1.13,1Z"/><path class="cls-1" d="M270.59,185.22a1,1,0,0,0,.62-1.26,66.65,66.65,0,0,0-13.36-26.26,1,1,0,0,0-1.41-.2,1,1,0,0,0,0,1.37,64.86,64.86,0,0,1,13,25.54,1,1,0,0,0,1.15.81Z"/><path class="cls-1" d="M267.59,194.22a.88.88,0,0,0,.76-1.08,62.35,62.35,0,0,0-9.16-25.86.93.93,0,0,0-1.29-.37,1,1,0,0,0-.25,1.34,60.5,60.5,0,0,1,8.9,25.09,1,1,0,0,0,1,.88Z"/><path class="cls-1" d="M279.48,183.12a1.08,1.08,0,0,0,.58-1.4,76.06,76.06,0,0,0-15.2-29.88,1.14,1.14,0,0,0-1.51-.31,1,1,0,0,0,.12,1.48,74.26,74.26,0,0,1,14.83,29.15,1.11,1.11,0,0,0,1.18,1Z"/><path class="cls-1" d="M285.65,192.44c.52-.05.86-.67.74-1.38a80.54,80.54,0,0,0-11.85-33.5c-.38-.61-1-.88-1.45-.61a1.19,1.19,0,0,0-.09,1.59,78.87,78.87,0,0,1,11.59,32.73c.11.7.58,1.22,1.06,1.17Z"/><path class="cls-2" d="M132.77,262.9a95.39,95.39,0,1,1,133.79,0h59.67a143.65,143.65,0,1,0-253.13,0Z"/><polygon class="cls-3" points="82.94 348.73 6.52 348.73 18.35 314.62 6.52 281.91 82.94 281.91 82.94 348.73"/><polygon class="cls-4" points="46.75 281.91 44.73 323.46 82.94 348.73 82.94 281.91 46.75 281.91"/><polygon class="cls-3" points="317.06 348.73 393.48 348.73 381.65 314.62 393.48 281.91 317.06 281.91 317.06 348.73"/><polygon class="cls-4" points="353.24 281.91 353.95 322.2 317.06 348.73 317.06 281.91 353.24 281.91"/><rect class="cls-3" x="46.75" y="253.92" width="305.82" height="66.82"/><rect class="cls-5" x="46.75" y="253.92" width="305.82" height="66.82"/><path class="cls-6" d="M107.45,271.6c0-.87,0-1.59-.07-2.15a11.76,11.76,0,0,0-.21-1.44c-.19-1.11-.77-1.67-1.74-1.67a1.43,1.43,0,0,0-1.46,1.32,8.74,8.74,0,0,0-.43,3.2V303.7a8.11,8.11,0,0,0,.43,3.2c.19.92.68,1.38,1.46,1.38,1,0,1.55-.57,1.74-1.74a6.45,6.45,0,0,0,.21-1.31c.05-.59.07-1.35.07-2.28v-9.81l5.69-2.56v13.33c0,3.8-.63,6.32-1.88,7.58a8,8,0,0,1-5.83,2.09,9.07,9.07,0,0,1-3-.49,6.84,6.84,0,0,1-2.53-1.6,6.16,6.16,0,0,1-1.67-3.06c-.09-.48-.19-1.08-.28-1.81a19.29,19.29,0,0,1-.15-2.56V270.64a17.94,17.94,0,0,1,.15-2.5c.09-.7.19-1.32.28-1.87a8.36,8.36,0,0,1,.62-1.76,5.29,5.29,0,0,1,1-1.44,8.34,8.34,0,0,1,5.48-1.88,8.57,8.57,0,0,1,5.9,2.09,6,6,0,0,1,1.42,2.74,18.87,18.87,0,0,1,.46,4.62v9a8.93,8.93,0,0,0-5.69,2.2Z"/><path class="cls-6" d="M148.67,308.53a8.07,8.07,0,0,1-1.26,2.88,7.76,7.76,0,0,1-5.69,2.17,8,8,0,0,1-5.76-2.17,6.62,6.62,0,0,1-1.67-3c-.09-.52-.19-1.15-.28-1.89a19.08,19.08,0,0,1-.15-2.56V270.57a16.83,16.83,0,0,1,.15-2.36c.09-.7.19-1.27.28-1.73a7.75,7.75,0,0,1,1.67-3.2,8.21,8.21,0,0,1,5.76-2.09,7.83,7.83,0,0,1,5.69,2.31,4.58,4.58,0,0,1,1,1.58,7.85,7.85,0,0,1,.55,2.29,9.36,9.36,0,0,1,.15,2v34.51A19,19,0,0,1,148.67,308.53Zm-5.28-39.11a9.31,9.31,0,0,0-.21-1.41c-.24-1-.73-1.53-1.46-1.53a1.72,1.72,0,0,0-1.74,1.39c0,.4-.1.85-.15,1.33s-.07,1.14-.07,1.94v32.49c0,.83,0,1.49.07,2s.1.9.15,1.23a1.69,1.69,0,0,0,1.74,1.31c.78,0,1.27-.48,1.46-1.46a6.22,6.22,0,0,0,.21-1.26c.05-.55.07-1.25.07-2.07V271.53C143.46,270.7,143.44,270,143.39,269.42Z"/><path class="cls-6" d="M171.18,310.38a10.19,10.19,0,0,0,.43-3.7V268.26a22.1,22.1,0,0,0-.1-2.38,6.4,6.4,0,0,0-.33-1.49,2.72,2.72,0,0,0-.47-1.19,10.33,10.33,0,0,0-1.05-1.3h17.77v9.77c-.55-1.8-1.23-2.93-2.06-3.41a4.81,4.81,0,0,0-2.92-.67h-4.87V283h3.34q1.11,0,1.8,0a5.43,5.43,0,0,0,1.19-.18,5.12,5.12,0,0,0,1.22-1.08,8.17,8.17,0,0,0,1.12-1.76v12.3c-1-2-2.3-3-3.87-3h-4.8v17.41a19.28,19.28,0,0,0,.22,3.7,7.22,7.22,0,0,0,1.66,2.49h-9.8A4.36,4.36,0,0,0,171.18,310.38Z"/><path class="cls-6" d="M210.28,310.38a10.19,10.19,0,0,0,.43-3.7V268.26a22.1,22.1,0,0,0-.1-2.38,6.4,6.4,0,0,0-.33-1.49,2.72,2.72,0,0,0-.47-1.19,10.33,10.33,0,0,0-1.05-1.3h17.77v9.77c-.55-1.8-1.23-2.93-2.06-3.41a4.81,4.81,0,0,0-2.92-.67h-4.87V283H220q1.11,0,1.8,0a5.43,5.43,0,0,0,1.19-.18,5.12,5.12,0,0,0,1.22-1.08,8.17,8.17,0,0,0,1.12-1.76v12.3c-1-2-2.3-3-3.87-3h-4.8v17.41a19.28,19.28,0,0,0,.22,3.7,7.22,7.22,0,0,0,1.66,2.49h-9.8A4.36,4.36,0,0,0,210.28,310.38Z"/><path class="cls-6" d="M265.09,271.39a5.94,5.94,0,0,0-1.65-2.86,4.2,4.2,0,0,0-2.86-.94h-5.15V283h2.7c.57,0,1.07,0,1.51,0a1.81,1.81,0,0,0,1-.32,2.68,2.68,0,0,0,1.26-1,14,14,0,0,0,1-1.68v12.3a13.92,13.92,0,0,0-.88-1.52,2.89,2.89,0,0,0-.94-.94,4.82,4.82,0,0,0-2.34-.53h-3.34V307H262a2.62,2.62,0,0,0,1.93-.69,5.52,5.52,0,0,0,1.19-2.15v8.67H247.86a5.73,5.73,0,0,0,.9-1.15,7.57,7.57,0,0,0,.55-1.2,11.91,11.91,0,0,0,.36-3.48V267.59a11.46,11.46,0,0,0-.36-3.34,10.15,10.15,0,0,0-.55-1.09,9.14,9.14,0,0,0-.9-1.26h17.23Z"/><path class="cls-6" d="M302.2,271.39a5.94,5.94,0,0,0-1.65-2.86,4.2,4.2,0,0,0-2.86-.94h-5.16V283h2.71c.56,0,1.07,0,1.51,0a1.78,1.78,0,0,0,1-.32,2.68,2.68,0,0,0,1.26-1,14.05,14.05,0,0,0,1-1.68v12.3a12.47,12.47,0,0,0-.87-1.52,2.89,2.89,0,0,0-.94-.94,4.82,4.82,0,0,0-2.34-.53h-3.35V307h6.55a2.62,2.62,0,0,0,1.93-.69,5.65,5.65,0,0,0,1.19-2.15v8.67H285a5.8,5.8,0,0,0,.91-1.15,6.77,6.77,0,0,0,.55-1.2,11.91,11.91,0,0,0,.36-3.48V267.59a11.46,11.46,0,0,0-.36-3.34,8.58,8.58,0,0,0-.55-1.09,9.29,9.29,0,0,0-.91-1.26H302.2Z"/><path class="cls-6" d="M125,344.22V331.39h2.76a3,3,0,0,1,2.36.9,4.33,4.33,0,0,1,.84,3,5,5,0,0,1-.52,2.58,2.89,2.89,0,0,1-2.67,1.33h-.93v5Zm1.84-11.1v4.36h.88a1.36,1.36,0,0,0,1.32-.59,4.18,4.18,0,0,0,.19-1.57,4.34,4.34,0,0,0-.18-1.55,1.23,1.23,0,0,0-1.26-.65Z"/><path class="cls-6" d="M135.57,344.22V331.39h3c2.16,0,3.25,1.26,3.25,3.77a3.32,3.32,0,0,1-1.59,3.2l2,5.86h-1.94l-1.71-5.48h-1.1v5.48Zm1.84-11.1v4h1a1.34,1.34,0,0,0,1.23-.52,3.19,3.19,0,0,0,.25-1.48,3,3,0,0,0-.27-1.49,1.46,1.46,0,0,0-1.3-.51Z"/><path class="cls-6" d="M146.5,344.22V331.39H152v1.73h-3.64v3.77h3.17v1.73h-3.17v3.76H152v1.84Z"/><path class="cls-6" d="M156.42,344.22V331.39h1.77l2.36,6.79h0l2.34-6.79h1.79v12.83h-1.84v-7.8L161,341.93h-.93l-1.83-5.51v7.8Z"/><path class="cls-6" d="M169.75,344.22V331.39h1.84v12.83Z"/><path class="cls-6" d="M182.57,331.39v9.95a2.91,2.91,0,0,1-.86,2.11,3,3,0,0,1-5.08-2.11v-9.95h1.84v9.77c0,.88.38,1.33,1.13,1.33s1.14-.45,1.14-1.33v-9.77Z"/><path class="cls-6" d="M187.56,344.22V331.39h1.76l2.36,6.79h0l2.34-6.79h1.78v12.83H194v-7.8l-1.84,5.51h-.93l-1.84-5.51v7.8Z"/><path class="cls-6" d="M207.33,341.19v-6.77a3.13,3.13,0,0,1,5.19-2.36,3,3,0,0,1,1,2.36v6.77a3.11,3.11,0,0,1-.27,1.32l1.13.91-.93,1.12-1.08-.88a3.07,3.07,0,0,1-5-2.47Zm1.84-6.77v6.77a1.22,1.22,0,0,0,.38,1,1.14,1.14,0,0,0,.86.33,1,1,0,0,0,.4-.08l-.83-.66.94-1.12.73.59v-6.8a1.23,1.23,0,0,0-.35-1,1.21,1.21,0,0,0-.89-.34,1.14,1.14,0,0,0-.86.33A1.2,1.2,0,0,0,209.17,334.42Z"/><path class="cls-6" d="M224.31,331.39v9.95a3,3,0,1,1-5.94,0v-9.95h1.84v9.77c0,.88.38,1.33,1.13,1.33s1.14-.45,1.14-1.33v-9.77Z"/><path class="cls-6" d="M228.48,344.22l2.86-12.83h1.53l2.86,12.83H233.9l-.55-2.76h-2.5l-.54,2.76Zm4.53-4.49-.9-4.65h0l-.9,4.65Z"/><path class="cls-6" d="M239.89,344.22V331.39h1.84v11h3.63v1.84Z"/><path class="cls-6" d="M249.87,344.22V331.39h1.83v12.83Z"/><path class="cls-6" d="M258,344.22v-11.1h-2.12v-1.73h6.08v1.73h-2.12v11.1Z"/><path class="cls-6" d="M267.7,344.22V338.8l-2.53-7.41h1.95l1.47,5.1h0l1.48-5.1h1.94l-2.52,7.41v5.42Z"/><path class="cls-1" d="M90.12,141l3.74-7.3,2.15,1.1-1.27,2.46,12.89,6.6-1.21,2.36-12.88-6.6-1.27,2.48Z"/><path class="cls-1" d="M113.72,133.79l-1.54,2.15L98.4,126.18,99.93,124l5.91,4.19,1.75-2.46-5.91-4.19,1.56-2.21L117,129.11l-1.57,2.22-5.91-4.19-1.74,2.46Z"/><path class="cls-1" d="M116.24,115.11l2.52-2.65,1.74,1.65L118,116.76l3.59,3.41,3.15-3.33,1.75,1.66-5,5.25-12.25-11.63,5-5.25,1.75,1.67-3.15,3.32Z"/><path class="cls-1" d="M135.63,99.05l2.85-1.91,1.34,2L137,101.06l3.88,5.79-2.2,1.48-9.39-14,5.83-3.9,1.35,2-3.64,2.43Z"/><path class="cls-1" d="M142.44,86.22,144.8,85l7.73,15-2.36,1.21Z"/><path class="cls-1" d="M157,84.73l4.2,11.48-2.25.82-5.8-15.86L156.23,80l6,8.57-3.48-9.5,2.23-.81,5.8,15.86-2.56.94Z"/><path class="cls-1" d="M174.17,82.16l3.57-.75.49,2.35-3.57.75,1,4.84,4.49-.93.49,2.36-7.08,1.48-3.46-16.54,7.08-1.48.5,2.37-4.49.94Z"/><path class="cls-1" d="M189.77,72.58c2.6-.18,4,1.15,4.19,4l.06.9-2.5.17-.08-1.06c-.07-1.1-.55-1.63-1.44-1.57s-1.29.65-1.21,1.75a3.46,3.46,0,0,0,1,2.13,9.37,9.37,0,0,0,.89.85l.76.6a3.08,3.08,0,0,0,.26.2c.41.34.75.63,1,.88a7.49,7.49,0,0,1,.9,1,5.56,5.56,0,0,1,1,2.88q.28,4.23-3.66,4.5c-2.64.18-4.05-1.14-4.25-4l-.1-1.63,2.5-.17.12,1.8c.08,1.1.57,1.61,1.49,1.55s1.32-.64,1.25-1.74a3.5,3.5,0,0,0-.95-2.12,8.5,8.5,0,0,0-.9-.85l-1-.82q-.62-.5-1-.87a8.05,8.05,0,0,1-.89-1,5.48,5.48,0,0,1-1-2.89Q185.87,72.85,189.77,72.58Z"/><path class="cls-1" d="M201.91,72.48l8.18.55-.16,2.41-2.76-.18-1,14.44-2.64-.18,1-14.44-2.78-.19Z"/><path class="cls-1" d="M227.64,80.33q1.25-4,5.09-2.88c2.57.78,3.45,2.52,2.62,5.23l-2.55,8.41a5,5,0,0,1-1.18,2.11c0,.25.23.44.62.56l.23.07-.69,2.26-.35-.1a2.29,2.29,0,0,1-1.85-1.77,5.77,5.77,0,0,1-1.87-.25c-2.57-.78-3.45-2.53-2.62-5.23Zm-.07,9.34c-.32,1.07,0,1.74.84,2s1.48-.13,1.8-1.2l2.66-8.73c.32-1,0-1.72-.84-2s-1.48.13-1.8,1.18Z"/><path class="cls-1" d="M247.45,83.21,241.9,95c-.47,1-.29,1.7.54,2.08s1.48.09,1.95-.9l5.55-11.79,2.27,1.07L246.73,97.1q-1.8,3.83-5.39,2.15c-2.38-1.13-3-3-1.77-5.53l5.48-11.63Z"/><path class="cls-1" d="M258.17,108.85l-2.23-1.47,1.31-2.81-2.71-1.79-2.08,2.3-2-1.35L262,91.13l3.24,2.15ZM256.08,101l2.14,1.42,3.65-7.83Z"/><path class="cls-1" d="M274.34,100.14l2,1.75-9.58,10.86,3.28,2.89-1.6,1.81-5.26-4.64Z"/><path class="cls-1" d="M285.45,110.76l1.78,2-12.54,11.33-1.78-2Z"/><path class="cls-1" d="M292.58,119.12l4.76,6.68-2,1.4-1.61-2.26L282,133.35l-1.54-2.15,11.78-8.41-1.61-2.27Z"/><path class="cls-1" d="M293,140.65l8.47-8.2,1.28,2.47-5.9,5.35,7.77-1.75,1.17,2.24L294.22,143l-5,2.59L288,143.24Z"/><path class="cls-3" d="M161,226.92a2.48,2.48,0,0,0,2.48,2.48h82.44a2.48,2.48,0,0,0,2.47-2.48h0a2.48,2.48,0,0,0-2.47-2.48H163.45a2.48,2.48,0,0,0-2.48,2.48Z"/><path class="cls-3" d="M249.18,182.49h-89c0,.4,0,.8,0,1.22,0,24.35,19.95,44.08,44.54,44.08s44.55-19.73,44.55-44.08C249.21,183.29,249.19,182.89,249.18,182.49Zm-29,37.1c20.37-9.81,23.75-33.05,23.75-33.05C244.31,212.17,220.16,219.59,220.16,219.59Z"/><path class="cls-3" d="M165.14,219.59c3.3,0,7.16-1.17,11.25-4.83l-2.33-2.6c-4.27,3.83-8.66,4.88-13,3.13-6.25-2.5-10.93-10.24-11.38-15.9-.12-1.44,0-4,1.78-5.1,5.29-3.17,10.64,1.56,10.86,1.75l2.35-2.57c-.3-.28-7.48-6.69-15-2.18-2.55,1.53-3.78,4.5-3.47,8.38.54,6.68,5.88,15.78,13.56,18.86A14.77,14.77,0,0,0,165.14,219.59Z"/><path class="cls-3" d="M201.49,139.37a17.81,17.81,0,0,1,1.33,1.37,24.74,24.74,0,0,1,2.93,3.93,14.14,14.14,0,0,1,2.11,6.18,12.05,12.05,0,0,1-1.64,7c-.61,1.06-1.44,2.21-2.15,3.38a33.36,33.36,0,0,0-2,3.64,21.88,21.88,0,0,0-1.37,3.67,12.51,12.51,0,0,0-.5,3.55,8.68,8.68,0,0,0,.48,3,7.88,7.88,0,0,0,1,2.06,7.56,7.56,0,0,0,.91,1.12l.35.36a16.37,16.37,0,0,1-.71-1.76,10.05,10.05,0,0,1-.44-2,9.41,9.41,0,0,1,.12-2.61,15.37,15.37,0,0,1,.9-3,33.22,33.22,0,0,1,1.55-3.2c.63-1.08,1.28-2.2,2-3.29a41.83,41.83,0,0,0,2.26-3.58A14.55,14.55,0,0,0,210.2,155a13.08,13.08,0,0,0,.05-4.41,14.52,14.52,0,0,0-3.27-6.76,18.82,18.82,0,0,0-3.82-3.43A13.07,13.07,0,0,0,201.49,139.37Z"/><path class="cls-3" d="M193.4,143.45s.52.41,1.32,1.19a25.9,25.9,0,0,1,3,3.4,12.06,12.06,0,0,1,2.39,5.5,9,9,0,0,1-1.59,6.23c-.6.95-1.46,1.94-2.21,3a33.15,33.15,0,0,0-2.11,3.24,18.72,18.72,0,0,0-1.5,3.35,10.5,10.5,0,0,0-.62,3.33,6.93,6.93,0,0,0,.48,2.86,6.43,6.43,0,0,0,1.1,1.86,7.19,7.19,0,0,0,.94,1c.23.21.36.31.36.31a12.23,12.23,0,0,1-.77-1.59,7.9,7.9,0,0,1-.48-1.85,7.1,7.1,0,0,1,.12-2.36,11.32,11.32,0,0,1,1-2.67,26.39,26.39,0,0,1,1.64-2.84c.66-.94,1.33-1.93,2.07-2.89a29.18,29.18,0,0,0,2.36-3.2,11.85,11.85,0,0,0,1.62-3.94,10.28,10.28,0,0,0,0-4.21,12.44,12.44,0,0,0-3.62-6,18.31,18.31,0,0,0-3.86-2.83A14.75,14.75,0,0,0,193.4,143.45Z"/><path class="cls-3" d="M209.63,143.45s.51.41,1.32,1.19a26.64,26.64,0,0,1,3,3.4,12.27,12.27,0,0,1,2.39,5.5,9.08,9.08,0,0,1-1.59,6.23c-.61.95-1.47,1.94-2.21,3a31.4,31.4,0,0,0-2.11,3.24,19.51,19.51,0,0,0-1.51,3.35,10.79,10.79,0,0,0-.62,3.33,6.77,6.77,0,0,0,.49,2.86,6.66,6.66,0,0,0,1.09,1.86,7.86,7.86,0,0,0,.94,1l.36.31a14.11,14.11,0,0,1-.77-1.59,8.45,8.45,0,0,1-.47-1.85,6.84,6.84,0,0,1,.12-2.36,11.72,11.72,0,0,1,1-2.67,26.39,26.39,0,0,1,1.64-2.84c.67-.94,1.34-1.93,2.08-2.89a30.54,30.54,0,0,0,2.36-3.2,12.07,12.07,0,0,0,1.62-3.94,10.46,10.46,0,0,0,0-4.21,12.52,12.52,0,0,0-3.62-6,18.83,18.83,0,0,0-3.86-2.83A15.88,15.88,0,0,0,209.63,143.45Z"/><path class="cls-3" d="M92.61,157.08a3.38,3.38,0,1,1-3.38-3.37A3.38,3.38,0,0,1,92.61,157.08Z"/><path class="cls-3" d="M308.29,157.08a3.38,3.38,0,1,1-3.38-3.37A3.38,3.38,0,0,1,308.29,157.08Z"/><path class="cls-6" d="M92.61,287.33A3.38,3.38,0,1,1,89.23,284,3.38,3.38,0,0,1,92.61,287.33Z"/><path class="cls-6" d="M315,287.33a3.38,3.38,0,1,1-3.37-3.37A3.37,3.37,0,0,1,315,287.33Z"/><path class="cls-6" d="M174.28,118.36h2.11v1.39h-2.11v2.87h2.65V124h-4.19v-9.8h4.19v1.4h-2.65Z"/><path class="cls-6" d="M183.73,114.12c1.51,0,2.27.81,2.27,2.46v.51h-1.45v-.61q0-1-.78-1c-.51,0-.77.32-.77,1a2.08,2.08,0,0,0,.47,1.27c.13.15.29.32.49.51l.4.39.15.13c.23.21.41.39.55.54a5.08,5.08,0,0,1,.48.64,3.14,3.14,0,0,1,.47,1.71c0,1.64-.76,2.46-2.29,2.46s-2.3-.82-2.3-2.46v-1h1.46v1c0,.64.26,1,.8,1s.79-.32.79-1a2,2,0,0,0-.47-1.26,5.24,5.24,0,0,0-.48-.52l-.55-.52c-.23-.21-.41-.39-.56-.54a4.66,4.66,0,0,1-.47-.63,3.2,3.2,0,0,1-.48-1.71C181.46,114.93,182.22,114.12,183.73,114.12Z"/><path class="cls-6" d="M190.24,114.22H195v1.4h-1.6V124h-1.54v-8.4h-1.61Z"/><path class="cls-6" d="M201.22,115.46a1.72,1.72,0,0,0,1.21-.37,2.26,2.26,0,0,0,.49-.87h1V124h-1.54v-7.47h-1.19Z"/><path class="cls-6" d="M214.1,121.59c0,1.69-.78,2.54-2.35,2.54s-2.29-.82-2.29-2.46v-.26h1.45v.35c0,.65.27,1,.8,1s.85-.41.85-1.22v-1.79a1.45,1.45,0,0,1-1.42.87c-1.14,0-1.71-.74-1.71-2.23v-1.79c0-1.65.78-2.46,2.33-2.46s2.34.81,2.34,2.46Zm-1.54-3.35v-1.76c0-.63-.26-1-.8-1s-.79.32-.79,1v1.76c0,.64.26,1,.79,1S212.56,118.88,212.56,118.24Z"/><path class="cls-6" d="M223.41,121.59c0,1.69-.78,2.54-2.35,2.54s-2.29-.82-2.29-2.46v-.26h1.46v.35c0,.65.26,1,.79,1s.86-.41.86-1.22v-1.79a1.46,1.46,0,0,1-1.43.87c-1.14,0-1.71-.74-1.71-2.23v-1.79c0-1.65.78-2.46,2.34-2.46s2.33.81,2.33,2.46Zm-1.53-3.35v-1.76c0-.63-.27-1-.8-1s-.8.32-.8,1v1.76c0,.64.26,1,.8,1S221.88,118.88,221.88,118.24Z"/><path class="cls-6" d="M228.08,116.58c0-1.65.78-2.46,2.34-2.46s2.33.81,2.33,2.46v5.09c0,1.64-.77,2.46-2.33,2.46s-2.34-.82-2.34-2.46Zm1.54,5.18c0,.65.27,1,.8,1s.8-.33.8-1v-5.28c0-.64-.27-1-.8-1s-.8.32-.8,1Z"/></svg>