<svg id="Слой_1" data-name="Слой 1" xmlns="http://www.w3.org/2000/svg" viewBox="0 0 400 400"><defs><style>.cls-1{fill:#2d1e14;}.cls-2{fill:#daa449;}.cls-3{fill:#d3bb92;}.cls-4{fill:#503b2d;}</style></defs><path class="cls-1" d="M133.62,301.09a3.48,3.48,0,0,1-3.48,3.48H129v8.12h-2.33V294.14h3.48a3.48,3.48,0,0,1,3.48,3.47Zm-2.31,0v-3.48a1.13,1.13,0,0,0-.34-.82,1.12,1.12,0,0,0-.83-.34H129v5.8h1.15a1.16,1.16,0,0,0,1.17-1.16Z"/><path class="cls-1" d="M145,312.69h-2.42l-2.32-8.12h-.58v8.12h-2.32V294.14h3.48a3.48,3.48,0,0,1,3.48,3.47v3.48a3.28,3.28,0,0,1-1.78,3Zm-3-11.6v-3.48a1.16,1.16,0,0,0-1.16-1.16h-1.16v5.8h1.16a1.09,1.09,0,0,0,.82-.34A1.08,1.08,0,0,0,142,301.09Z"/><path class="cls-1" d="M154.65,312.69h-3.46q-2.52,0-2.52-2.7V296.55a2.14,2.14,0,0,1,2.43-2.41h3.55v2.31H151v5.8h3.66v2.32H151v5.8h3.66Z"/><path class="cls-1" d="M160.81,303v9.65h-2.32V294.14h1.15l3.49,9,3.48-9h1.15v18.55h-2.32V303l-2.31,6.64Z"/><path class="cls-1" d="M174.49,312.69h-2.32V294.14h2.32Z"/><path class="cls-1" d="M186.07,309.39a3.48,3.48,0,1,1-6.95,0V294.14h2.32v15.25a1.15,1.15,0,0,0,.33.83,1.17,1.17,0,0,0,2-.83V294.14h2.31Z"/><path class="cls-1" d="M192.8,303v9.65h-2.32V294.14h1.15l3.49,9,3.48-9h1.15v18.55h-2.32V303l-2.31,6.64Z"/><path class="cls-1" d="M220,312.05l-1.64,1.64-1.17-1.16a3.19,3.19,0,0,1-1.5.34,3.48,3.48,0,0,1-3.48-3.48v-12a3.48,3.48,0,1,1,7,0v12a3.46,3.46,0,0,1-.31,1.49Zm-3.15-2.66v-12a1.09,1.09,0,0,0-.34-.82,1.12,1.12,0,0,0-.82-.33,1.11,1.11,0,0,0-.82.33,1.09,1.09,0,0,0-.34.82v12a1.12,1.12,0,0,0,.34.83,1.08,1.08,0,0,0,.82.34,1.09,1.09,0,0,0,.82-.34A1.12,1.12,0,0,0,216.87,309.39Z"/><path class="cls-1" d="M230.78,309.39a3.48,3.48,0,1,1-6.95,0V294.14h2.32v15.25a1.15,1.15,0,0,0,.33.83,1.17,1.17,0,0,0,2-.83V294.14h2.31Z"/><path class="cls-1" d="M242.84,312.69h-2.36l-.37-2.32h-2.87l-.38,2.32h-2.37l3.28-18.55h1.81Zm-5.24-4.64h2.16l-1.09-6.82Z"/><path class="cls-1" d="M252.34,312.69h-5.8V294.14h2.33v16.23h3.47Z"/><path class="cls-1" d="M257.9,312.69h-2.32V294.14h2.32Z"/><path class="cls-1" d="M269.49,296.45h-2.31v16.24h-2.32V296.45h-2.33v-2.31h7Z"/><path class="cls-1" d="M280.2,294.14l-2.46,11.6v6.95h-2.32v-6.95L273,294.14h2.37l1.25,6.58,1.25-6.58Z"/><path class="cls-2" d="M98.91,135.32h6.18v1.34h-4.67v3.58h4v1.35h-4v3.75h4.67v1.33H98.91Z"/><path class="cls-2" d="M109.68,142.81a3.8,3.8,0,0,0,0,.44c0,1.17.43,2.24,2,2.24a1.72,1.72,0,0,0,1.91-1.78A1.67,1.67,0,0,0,112.3,142l-1.83-.69a2.91,2.91,0,0,1-2.14-3,3,3,0,0,1,3.32-3.12c2.75,0,3.23,1.88,3.23,3.09a2.88,2.88,0,0,1,0,.56l-1.46.05a3.56,3.56,0,0,0,0-.43c0-1-.33-1.92-1.78-1.92a1.58,1.58,0,0,0-1.76,1.74,1.65,1.65,0,0,0,1.27,1.73l1.81.66a3,3,0,0,1,2.17,3c0,1.79-1.17,3.18-3.49,3.18-3,0-3.44-2-3.44-3.41a3,3,0,0,1,0-.56Z"/><path class="cls-2" d="M120.62,136.66h-2.9v-1.34H125v1.34h-2.88v10h-1.51Z"/><path class="cls-2" d="M127.11,144.71h1.8v2h-1.8Z"/><path class="cls-2" d="M268.11,144.47a6.9,6.9,0,0,1,1.66-.15h2.5v1.34h-6.13v-1.12l3.68-4.36a3.6,3.6,0,0,0,.95-2.48c0-1.29-.52-2.26-1.56-2.26s-1.56.86-1.56,2.14a5.42,5.42,0,0,0,.11,1l-1.43.2a4.23,4.23,0,0,1-.16-1.18c0-1.5.72-3.42,3-3.42,2.06,0,3.09,1.54,3.09,3.53a5.41,5.41,0,0,1-1.46,3.47l-1.7,2.12a8,8,0,0,1-1.06,1.09Z"/><path class="cls-2" d="M275.51,140c0-3.67,1.26-5.85,3.62-5.85s3.61,2.18,3.61,5.85-1.26,5.82-3.61,5.82S275.51,143.65,275.51,140Zm5.67,0c0-2.84-.59-4.52-2.05-4.52s-2,1.68-2,4.52.59,4.49,2,4.49S281.18,142.83,281.18,140Z"/><path class="cls-2" d="M287.22,137.34h-1.94v-1.2c1.67,0,2.17-.46,2.17-1.83h1.26v11.35h-1.49Z"/><path class="cls-2" d="M294.5,144.47a6.9,6.9,0,0,1,1.66-.15h2.5v1.34h-6.13v-1.12l3.68-4.36a3.61,3.61,0,0,0,1-2.48c0-1.29-.53-2.26-1.56-2.26s-1.57.86-1.57,2.14a5.21,5.21,0,0,0,.12,1l-1.43.2a4.17,4.17,0,0,1-.17-1.18c0-1.5.73-3.42,3.05-3.42,2.05,0,3.09,1.54,3.09,3.53a5.42,5.42,0,0,1-1.47,3.47l-1.69,2.12a8.57,8.57,0,0,1-1.07,1.09Z"/><path class="cls-3" d="M134.66,155.09H77.37a1.32,1.32,0,1,1,0-2.63h57.29a1.32,1.32,0,1,1,0,2.63Z"/><path class="cls-3" d="M134.66,123.73H94.48a1.32,1.32,0,1,1,0-2.64h40.18a1.32,1.32,0,1,1,0,2.64Z"/><path class="cls-3" d="M320.24,155.09H263a1.32,1.32,0,1,1,0-2.63h57.29a1.32,1.32,0,1,1,0,2.63Z"/><path class="cls-3" d="M303.14,123.73H263a1.32,1.32,0,1,1,0-2.64h40.19a1.32,1.32,0,0,1,0,2.64Z"/><path class="cls-1" d="M300.23,181.29C269.45,206,235,220.42,198.81,220.42S128.16,206,97.39,181.29l-47.69,46c43.9,38.21,95.83,59,149.11,59s105.21-20.78,149.11-59Z"/><polygon class="cls-1" points="357.39 211.26 351.41 174.12 324.55 200.66 352.7 227.85 340.63 268 398.15 225.28 357.39 211.26"/><polygon class="cls-1" points="73.06 200.66 45.8 174.12 33.18 207.98 1.85 225.08 56.99 268 44.91 227.85 73.06 200.66"/><path class="cls-3" d="M86.87,228.53,85.72,230a6.93,6.93,0,0,1-4.65,2.66,6.59,6.59,0,0,1-5.15-1.36A7.54,7.54,0,0,1,73,227.17a6.87,6.87,0,0,1,1.65-5.93L85,208a6.77,6.77,0,0,1,4.65-2.74,6.91,6.91,0,0,1,5.25,1.57,6.76,6.76,0,0,1,2.7,4.71,7.22,7.22,0,0,1-1.64,5.33l-1,1.35-3.44-2.68.89-1.15a3.37,3.37,0,0,0,.79-2.23,2.39,2.39,0,0,0-1-1.92c-1.42-1.1-2.85-.72-4.31,1.14L78.3,223.69q-1.92,2.46.17,4.09c1.43,1.12,2.79.87,4-.75l.92-1.18Z"/><path class="cls-3" d="M96.77,237.1l8.14-13.85a7.25,7.25,0,0,1,4.83-3.66,7.72,7.72,0,0,1,8.62,5.07,7.21,7.21,0,0,1-.85,6l-8.15,13.85a7,7,0,0,1-4.8,3.61,7.59,7.59,0,0,1-8.62-5.06A7,7,0,0,1,96.77,237.1Zm11.9-11.64-8.14,13.85a2.93,2.93,0,0,0-.4,2.44,2.75,2.75,0,0,0,1.38,1.7,2.87,2.87,0,0,0,2.22.39,3,3,0,0,0,1.88-1.54l8.14-13.85a3,3,0,0,0,.44-2.4,2.93,2.93,0,0,0-1.42-1.75,2.81,2.81,0,0,0-2.16-.38A3,3,0,0,0,108.67,225.46Z"/><path class="cls-3" d="M118.85,257.17l11.75-28.06,12,5L141,237.91l-8-3.34-3.56,8.52,6.94,2.9-1.59,3.79-6.94-2.91-5,12Z"/><path class="cls-3" d="M143.78,266.52l7.85-29.39,12.55,3.35-1.06,4-8.34-2.22-2.38,8.91,7.27,1.94-1.06,4-7.27-1.94L148,267.65Z"/><path class="cls-3" d="M169.82,272.4l3.68-30.2,12.9,1.57-.5,4.07-8.57-1-1.08,8.86,7.47.91-.5,4.07-7.46-.91-1.09,8.87,8.57,1-.53,4.33Z"/><path class="cls-3" d="M196.4,274.59l-.54-30.42,13-.23.07,4.1-8.63.15.16,8.93L208,257l.07,4.1-7.52.13.16,8.93,8.63-.15.08,4.35Z"/><path class="cls-3" d="M248.46,243.36l.54,2.07-4.22,1.1-.25-.95q-.93-3.56-3.9-2.77c-1.91.49-2.52,2-1.86,4.54a5.79,5.79,0,0,0,1,2.39,4,4,0,0,0,2.4.91l3.56.44a6.54,6.54,0,0,1,4.38,2,12.18,12.18,0,0,1,2.15,4.87q2.26,8.64-5,10.54a7.31,7.31,0,0,1-5.65-.67,6.85,6.85,0,0,1-3.37-4.44l-.41-1.57,4.21-1.1.35,1.32c.53,2,1.78,2.76,3.77,2.24a2.81,2.81,0,0,0,2.29-1.88,7.71,7.71,0,0,0-.38-3.3,8.62,8.62,0,0,0-1-2.69,3.92,3.92,0,0,0-2.59-1.14l-3.34-.45a7.15,7.15,0,0,1-4.42-2,9.57,9.57,0,0,1-2.15-4.34,9,9,0,0,1,.33-6.18,6.82,6.82,0,0,1,4.8-3.77,7.06,7.06,0,0,1,5.63.77A6.57,6.57,0,0,1,248.46,243.36Z"/><path class="cls-3" d="M268,261.73l-11.92-28,4-1.71,5.11,12,4.95-2.11-5.11-12,4-1.71,11.91,28-4,1.7-5.31-12.46-4.95,2.11L272,260Z"/><path class="cls-3" d="M290.38,243.33l-8.31-13.75a7.19,7.19,0,0,1-.92-6,7.72,7.72,0,0,1,8.56-5.17,7.19,7.19,0,0,1,4.87,3.6l8.31,13.75a7.07,7.07,0,0,1,.89,5.94,7.58,7.58,0,0,1-8.55,5.18A7.08,7.08,0,0,1,290.38,243.33Zm-4.58-16,8.31,13.75a3,3,0,0,0,2,1.51,2.74,2.74,0,0,0,2.15-.4,3,3,0,0,0,1.41-1.77,3,3,0,0,0-.47-2.39l-8.31-13.75a3.05,3.05,0,0,0-1.9-1.53,3,3,0,0,0-2.22.42,2.78,2.78,0,0,0-1.35,1.72A2.94,2.94,0,0,0,285.8,227.33Z"/><path class="cls-3" d="M318.5,233.56l-19-23.78,5.11-4.08a7.31,7.31,0,0,1,5.71-1.85c1.91.27,3.92,1.73,6,4.35a11.89,11.89,0,0,1,2.85,5.55q.46,3.67-3,6.42l-1.73,1.38,7.4,9.29Zm-13-23.3,6.45,8.09,1.64-1.31c1.24-1,1.76-2,1.55-3a9.49,9.49,0,0,0-1.95-3.2,10.27,10.27,0,0,0-2.62-2.6q-1.5-.78-3.3.66Z"/><path class="cls-4" d="M194.53,175.08h0c-38.8,0-40.91-37.75-40.93-38.13l0-.59H237.2l0,.59c0,.37-2.16,37.56-41.78,38.12Zm-39.77-37.6c.43,4.74,4.69,36.47,39.76,36.47h.85c35.86-.51,40.19-31.77,40.64-36.47Z"/><polygon class="cls-4" points="180.37 172.52 180.37 179.28 212.03 179.28 212.03 170.86 180.37 172.52"/><path class="cls-4" d="M176.87,141.55H154.76c1.92,10.14,9.68,33.4,40.62,33s38.64-23,40.59-33H203.51c9.82,5.33,4.77,23.28-11.07,25.11s-26.23-10.38-25.11-17.81S176.87,141.55,176.87,141.55Z"/><path class="cls-4" d="M191.73,133.47h16.69s8.56-3.84,10.66-22.91C219.08,110.56,209.83,128.74,191.73,133.47Z"/><path class="cls-4" d="M213.61,133.47l10.8-.76a20,20,0,0,0-1.82-17.38S222.59,131,213.61,133.47Z"/><path class="cls-4" d="M204.54,122.06a22.52,22.52,0,0,0,7.75-9.09c-2.42,3.71-6,6.36-12,9.51-9,4.71-22.3,11-22.3,11h10.47S195.38,128,204.54,122.06Z"/><path class="cls-4" d="M180.52,105.14c1.62,14.36,22.06,12.89,20.53,1.7-1.9,3.83-5.43,6.71-11.48,4.84-6.3-1.94-8.42-7.49-9.12-11.51A23.14,23.14,0,0,0,180.52,105.14Z"/><path class="cls-4" d="M208.47,91a18.9,18.9,0,0,0-17.57-4c7.37.6,18.34,3.48,23.31,14.14A16.7,16.7,0,0,0,208.47,91Z"/><path class="cls-4" d="M235,162.73h-5.89a9,9,0,1,1,0-18.09H235a9,9,0,1,1,0,18.09Zm-5.89-17a7.93,7.93,0,0,0,0,15.85H235a7.93,7.93,0,0,0,0-15.85Z"/></svg>