<svg id="Слой_1" data-name="Слой 1" xmlns="http://www.w3.org/2000/svg" xmlns:xlink="http://www.w3.org/1999/xlink" viewBox="0 0 400 400"><defs><style>.cls-1{fill:none;}.cls-2{fill:#2d1e14;}.cls-3{fill:#fff;}.cls-4{fill:#c69c6c;}.cls-5{clip-path:url(#clip-path);}.cls-6{fill:#1a1d24;}.cls-7{fill:#231f20;}.cls-8{fill:#fce5cb;}.cls-9{fill:#caac78;}</style><clipPath id="clip-path"><path class="cls-1" d="M62.25,151.46h275.5a146.06,146.06,0,0,0-275.5,0"/></clipPath></defs><path class="cls-2" d="M389.43,200c0,104.63-84.81,189.44-189.43,189.44S10.57,304.63,10.57,200,95.38,10.56,200,10.56,389.43,95.38,389.43,200"/><polygon class="cls-3" points="341.67 99.89 336.63 92.57 352.47 97.86 357.52 105.19 341.67 99.89"/><polygon class="cls-3" points="331.23 86.57 325.5 79.77 341.78 83.5 347.51 90.29 331.23 86.57"/><polygon class="cls-3" points="319.56 74.34 313.2 68.13 329.77 70.26 336.13 76.48 319.56 74.34"/><polygon class="cls-3" points="306.77 63.3 299.83 57.73 316.52 58.24 323.46 63.81 306.77 63.3"/><polygon class="cls-3" points="292.93 53.53 285.48 48.66 302.15 47.55 309.6 52.41 292.93 53.53"/><polygon class="cls-3" points="278.15 45.12 270.26 41.01 286.74 38.27 294.63 42.38 278.15 45.12"/><polygon class="cls-3" points="262.51 38.17 254.26 34.86 270.38 30.5 278.64 33.81 262.51 38.17"/><polygon class="cls-3" points="246.12 32.77 237.57 30.31 253.18 24.35 261.73 26.82 246.12 32.77"/><polygon class="cls-3" points="229.06 29 220.3 27.41 235.23 19.9 243.98 21.5 229.06 29"/><polygon class="cls-3" points="211.42 26.96 202.54 26.27 216.63 17.28 225.5 17.97 211.42 26.96"/><polygon class="cls-3" points="193.31 26.72 184.41 26.95 197.5 16.56 206.39 16.33 193.31 26.72"/><polygon class="cls-3" points="175.45 28.33 166.62 29.46 178.57 17.8 187.39 16.65 175.45 28.33"/><polygon class="cls-3" points="158.16 31.69 149.5 33.72 160.2 20.89 168.86 18.86 158.16 31.69"/><polygon class="cls-3" points="141.54 36.72 133.13 39.62 142.48 25.77 150.89 22.87 141.54 36.72"/><polygon class="cls-3" points="125.69 43.32 117.6 47.03 125.53 32.33 133.61 28.61 125.69 43.32"/><polygon class="cls-3" points="110.67 51.4 102.99 55.89 109.43 40.47 117.1 35.98 110.67 51.4"/><polygon class="cls-3" points="96.59 60.86 89.39 66.09 94.29 50.11 101.49 44.89 96.59 60.86"/><polygon class="cls-3" points="83.53 71.61 76.87 77.51 80.19 61.14 86.86 55.25 83.53 71.61"/><polygon class="cls-3" points="71.58 83.57 65.53 90.09 67.25 73.47 73.31 66.95 71.58 83.57"/><polygon class="cls-3" points="74.61 319.61 80.67 326.13 64.23 323.19 58.17 316.68 74.61 319.61"/><polygon class="cls-3" points="86.86 331.26 93.52 337.16 76.86 335.84 70.2 329.93 86.86 331.26"/><polygon class="cls-3" points="100.19 341.68 107.39 346.9 90.68 347.2 83.48 341.98 100.19 341.68"/><polygon class="cls-3" points="114.51 350.78 122.18 355.27 105.59 357.2 97.91 352.7 114.51 350.78"/><polygon class="cls-3" points="129.73 358.47 137.81 362.19 121.48 365.73 113.4 362.02 129.73 358.47"/><polygon class="cls-3" points="145.75 364.65 154.17 367.54 138.28 372.7 129.86 369.81 145.75 364.65"/><polygon class="cls-3" points="162.49 369.25 171.15 371.28 155.87 378.01 147.21 375.99 162.49 369.25"/><polygon class="cls-3" points="179.85 372.16 188.68 373.31 174.16 381.56 165.34 380.42 179.85 372.16"/><polygon class="cls-3" points="197.75 373.32 206.65 373.55 193.05 383.25 184.16 383.01 197.75 373.32"/><polygon class="cls-3" points="215.85 372.62 224.72 371.94 212.19 382.99 203.32 383.67 215.85 372.62"/><polygon class="cls-3" points="233.44 370.12 242.19 368.54 230.85 380.81 222.1 382.39 233.44 370.12"/><polygon class="cls-3" points="250.4 365.92 258.94 363.45 248.91 376.81 240.36 379.27 250.4 365.92"/><polygon class="cls-3" points="266.64 360.09 274.9 356.78 266.25 371.07 258 374.39 266.64 360.09"/><polygon class="cls-3" points="282.1 352.74 289.98 348.63 282.8 363.71 274.91 367.82 282.1 352.74"/><polygon class="cls-3" points="296.66 343.96 304.1 339.1 298.43 354.81 290.98 359.68 296.66 343.96"/><polygon class="cls-3" points="310.24 333.85 317.18 328.27 313.06 344.46 306.12 350.03 310.24 333.85"/><polygon class="cls-3" points="322.75 322.48 329.12 316.26 326.59 332.77 320.22 338.99 322.75 322.48"/><polygon class="cls-3" points="334.1 309.95 339.84 303.15 338.92 319.83 333.17 326.63 334.1 309.95"/><path class="cls-3" d="M363.2,200A163.2,163.2,0,1,1,200,36.81,163.2,163.2,0,0,1,363.2,200"/><path class="cls-4" d="M196.74,360.13a1.89,1.89,0,1,1,1.93-1.85,1.9,1.9,0,0,1-1.93,1.85Zm11.42-2.06a1.87,1.87,0,0,1,1.75-2,1.89,1.89,0,0,1,.24,3.77H210a1.88,1.88,0,0,1-1.88-1.77m-24.8,1.22h0a1.85,1.85,0,0,1-1.68-2.05,1.91,1.91,0,0,1,2.07-1.7v0a1.87,1.87,0,0,1,1.69,2.05,1.9,1.9,0,0,1-1.89,1.7.65.65,0,0,1-.19,0m38-2.43a1.89,1.89,0,0,1,3.74-.57,1.88,1.88,0,0,1-1.6,2.15.89.89,0,0,1-.27,0,1.91,1.91,0,0,1-1.87-1.61m-51.25.51h0a1.91,1.91,0,1,1,.36,0l-.36,0m64.29-2.83a1.9,1.9,0,0,1,1.42-2.27,1.89,1.89,0,0,1,.87,3.67,1.75,1.75,0,0,1-.44.05,1.89,1.89,0,0,1-1.85-1.45M157,354.33a1.92,1.92,0,1,1,.51.06,2.22,2.22,0,0,1-.51-.06m90.15-3.21a1.89,1.89,0,1,1,2.38,1.21,2.35,2.35,0,0,1-.58.1,1.9,1.9,0,0,1-1.8-1.31m-102.91-.92h0a1.89,1.89,0,1,1,2.42-1.11,1.9,1.9,0,0,1-1.78,1.22,1.84,1.84,0,0,1-.64-.11m115.39-3.55a1.88,1.88,0,1,1,3.47-1.47,1.9,1.9,0,0,1-1,2.47,1.77,1.77,0,0,1-.73.15,1.88,1.88,0,0,1-1.74-1.15M131.9,345h0a1.88,1.88,0,0,1,1.6-3.41h0a1.88,1.88,0,0,1-.8,3.59,1.68,1.68,0,0,1-.8-.19m139.81-3.85a1.89,1.89,0,1,1,2.54.79,1.74,1.74,0,0,1-.86.23,1.91,1.91,0,0,1-1.68-1M120,338.79h0a1.91,1.91,0,0,1-.7-2.59,1.89,1.89,0,0,1,3.28,1.88A1.92,1.92,0,0,1,121,339a2,2,0,0,1-.94-.24m163.24-4.14a1.89,1.89,0,1,1,2.6.56,1.75,1.75,0,0,1-1,.31,1.86,1.86,0,0,1-1.58-.87m-174.57-3.06a1.88,1.88,0,0,1,2.15-3.09,1.89,1.89,0,0,1,.48,2.62,1.92,1.92,0,0,1-1.55.81,1.84,1.84,0,0,1-1.08-.34m185.53-4.39a1.88,1.88,0,1,1,2.64.35,1.81,1.81,0,0,1-1.15.38,1.84,1.84,0,0,1-1.49-.73M98,323.48h0a1.89,1.89,0,1,1,2.67-.25,1.86,1.86,0,0,1-1.46.68,1.84,1.84,0,0,1-1.21-.43m206.53-4.62a1.91,1.91,0,1,1,1.4.62,1.91,1.91,0,0,1-1.4-.62M88,314.52a1.91,1.91,0,0,1,0-2.68,1.89,1.89,0,0,1,2.7,2.64,1.93,1.93,0,0,1-2.68,0m226.06-4.81A1.91,1.91,0,0,1,314,307a1.88,1.88,0,0,1,2.66-.07,1.86,1.86,0,0,1,.1,2.66,1.89,1.89,0,0,1-1.38.61,2,2,0,0,1-1.3-.51m-235.25-5a1.88,1.88,0,0,1,.19-2.65,1.92,1.92,0,0,1,2.68.18h0a1.88,1.88,0,0,1-.19,2.66,1.82,1.82,0,0,1-1.22.47,1.93,1.93,0,0,1-1.44-.66m244-5a1.89,1.89,0,0,1-.3-2.66,1.88,1.88,0,0,1,2.95,2.34,1.89,1.89,0,0,1-2.65.32M70.5,294.25a1.89,1.89,0,1,1,2.64.41A1.84,1.84,0,0,1,72,295a1.89,1.89,0,0,1-1.53-.77m260.31-5.11a1.88,1.88,0,1,1,2.62-.51,2,2,0,0,1-1.58.83,1.8,1.8,0,0,1-1-.32m-267.74-6a1.88,1.88,0,1,1,2.58.62,1.83,1.83,0,0,1-1,.29,1.88,1.88,0,0,1-1.6-.91m274.74-5.21a1.89,1.89,0,1,1,2.56-.73,1.86,1.86,0,0,1-1.64,1,2,2,0,0,1-.92-.23M56.57,271.37a1.91,1.91,0,0,1,.86-2.54,1.86,1.86,0,0,1,2.52.85,1.88,1.88,0,0,1-.84,2.53,1.91,1.91,0,0,1-.84.19,1.94,1.94,0,0,1-1.7-1m287.29-5.27a1.9,1.9,0,0,1-1-2.49,1.89,1.89,0,0,1,3.46,1.53,1.9,1.9,0,0,1-1.74,1.11,1.87,1.87,0,0,1-.76-.15m-292.76-7a1.89,1.89,0,0,1,1.08-2.44,1.89,1.89,0,1,1,.68,3.64,1.9,1.9,0,0,1-1.76-1.2m297.8-5.28a1.9,1.9,0,0,1-1.17-2.41,1.88,1.88,0,0,1,2.4-1.16,1.89,1.89,0,0,1-.62,3.67,2.05,2.05,0,0,1-.61-.1M46.69,246.45a1.88,1.88,0,0,1,3.6-1.07h0a1.88,1.88,0,0,1-1.26,2.34,2.25,2.25,0,0,1-.55.09,1.89,1.89,0,0,1-1.81-1.36m306.17-5.27a1.89,1.89,0,1,1,2.31-1.37,1.9,1.9,0,0,1-1.83,1.44,1.74,1.74,0,0,1-.48-.07M43.35,233.47a1.91,1.91,0,0,1,1.45-2.25,1.94,1.94,0,0,1,2.25,1.48,1.89,1.89,0,0,1-1.46,2.23,1.71,1.71,0,0,1-.39,0,1.89,1.89,0,0,1-1.85-1.49m312.42-5.23a1.88,1.88,0,0,1-1.57-2.16,1.92,1.92,0,0,1,2.19-1.55,1.89,1.89,0,0,1-.32,3.75,1.65,1.65,0,0,1-.3,0m-314.67-8v0a1.89,1.89,0,0,1,3.76-.46v0a1.9,1.9,0,0,1-1.64,2.12H43a1.91,1.91,0,0,1-1.89-1.63m316.46-5.14a1.88,1.88,0,0,1-1.71-2h0a1.87,1.87,0,0,1,2-1.73,1.89,1.89,0,0,1-.18,3.77ZM40,206.9a1.89,1.89,0,1,1,2,1.8h-.07A1.9,1.9,0,0,1,40,206.9M356.38,200h0c0-.06,0-.11,0-.15a1.48,1.48,0,0,1,0-.21,1.89,1.89,0,0,1,1.88-1.89,1.87,1.87,0,0,1,1.89,1.87V200a1.89,1.89,0,1,1-3.77,0m-314.6-4.55a1.89,1.89,0,0,1-1.81-2,1.89,1.89,0,1,1,3.77.14,1.87,1.87,0,0,1-1.88,1.82Zm314-8.89a1.88,1.88,0,1,1,2,1.72h-.17a1.86,1.86,0,0,1-1.87-1.72m-313.1-4.34a1.86,1.86,0,0,1-1.64-2.09,1.88,1.88,0,1,1,3.73.45h0A1.9,1.9,0,0,1,43,182.24a1,1,0,0,1-.24,0m311.44-8.66a1.95,1.95,0,1,1,1.87,1.57,1.9,1.9,0,0,1-1.87-1.57M44.73,169.13a1.89,1.89,0,0,1-1.46-2.23,1.89,1.89,0,0,1,3.7.77,1.9,1.9,0,0,1-1.85,1.5,1.29,1.29,0,0,1-.39,0m306.68-8.36a1.9,1.9,0,0,1,3.67-1,1.91,1.91,0,0,1-1.36,2.3,2,2,0,0,1-.48.06,1.89,1.89,0,0,1-1.83-1.41M47.84,156.26A1.89,1.89,0,1,1,50.2,155a1.91,1.91,0,0,1-1.81,1.33,1.81,1.81,0,0,1-.55-.07m299.78-8h0a1.89,1.89,0,0,1,1.17-2.4,1.88,1.88,0,1,1,1.24,3.54,1.49,1.49,0,0,1-.62.12,1.87,1.87,0,0,1-1.77-1.26M52.05,143.67a1.87,1.87,0,1,1,.68.13,1.82,1.82,0,0,1-.68-.13m290.72-7.59a1.88,1.88,0,1,1,2.49.95,1.73,1.73,0,0,1-.77.17,1.86,1.86,0,0,1-1.72-1.12m-285.49-4.6a1.86,1.86,0,0,1-.85-2.52,1.88,1.88,0,1,1,1.67,2.73,1.85,1.85,0,0,1-.82-.21m279.64-7.09a1.88,1.88,0,1,1,2.55.73,1.92,1.92,0,0,1-.91.23,1.86,1.86,0,0,1-1.64-1m-273.4-4.61a1.88,1.88,0,0,1-.64-2.58,1.89,1.89,0,1,1,3.23,2,1.88,1.88,0,0,1-1.61.91,1.86,1.86,0,0,1-1-.29m266.57-6.58h0a1.87,1.87,0,0,1,.51-2.62,1.89,1.89,0,1,1,2.09,3.15,2,2,0,0,1-1,.32,1.93,1.93,0,0,1-1.59-.85M70.71,108.65a1.89,1.89,0,1,1,2.23-3,1.85,1.85,0,0,1,.41,2.62,1.88,1.88,0,0,1-1.53.8,1.91,1.91,0,0,1-1.11-.38m251.66-6a1.9,1.9,0,0,1,.3-2.65,1.87,1.87,0,0,1,2.64.3h0a1.89,1.89,0,0,1-.3,2.65,2,2,0,0,1-1.19.42,1.9,1.9,0,0,1-1.47-.72M78.82,98.16a1.89,1.89,0,0,1-.2-2.65h0a1.89,1.89,0,1,1,1.43,3.13,1.83,1.83,0,0,1-1.23-.47m235-5.42h0a1.92,1.92,0,0,1,.07-2.68,1.9,1.9,0,0,1,2.68.08v0a1.88,1.88,0,0,1-.07,2.66,1.94,1.94,0,0,1-2.68-.08m-226-4.35a1.89,1.89,0,0,1,2.7-2.65,1.89,1.89,0,0,1-2.7,2.65m216.66-4.8a1.88,1.88,0,1,1,2.66-.15,1.9,1.9,0,0,1-1.41.64,1.86,1.86,0,0,1-1.25-.49M97.5,79.38a1.89,1.89,0,0,1,.25-2.66,1.89,1.89,0,1,1,2.41,2.91,1.88,1.88,0,0,1-2.66-.25m196.81-4.13a1.89,1.89,0,1,1,2.65-.36,1.91,1.91,0,0,1-2.65.36m-186.37-4a1.89,1.89,0,1,1,2.64.47,2,2,0,0,1-1.1.35,1.91,1.91,0,0,1-1.54-.82m175.62-3.45a1.88,1.88,0,0,1-.59-2.61,1.9,1.9,0,1,1,1.59,2.91,1.75,1.75,0,0,1-1-.3M119,64a1.86,1.86,0,0,1,.67-2.56,1.88,1.88,0,1,1,1.89,3.26v0a1.61,1.61,0,0,1-.94.27A1.86,1.86,0,0,1,119,64M272.2,61.25a1.89,1.89,0,1,1,2.55-.8,1.9,1.9,0,0,1-1.69,1,1.82,1.82,0,0,1-.86-.21M130.68,57.66a1.88,1.88,0,1,1,2.51.91,1.92,1.92,0,0,1-.8.17,1.87,1.87,0,0,1-1.71-1.08m129.67-2a1.88,1.88,0,1,1,2.47-1,1.93,1.93,0,0,1-1.75,1.16,1.64,1.64,0,0,1-.72-.16M142.83,52.36a1.87,1.87,0,0,1,1.09-2.43,1.89,1.89,0,1,1,1.32,3.55,2,2,0,0,1-.66.11,1.84,1.84,0,0,1-1.75-1.23m105.24-1.22a1.87,1.87,0,1,1,.56.09,1.53,1.53,0,0,1-.56-.09m-92.71-3a1.89,1.89,0,1,1,2.34,1.32,2.94,2.94,0,0,1-.51,0,1.9,1.9,0,0,1-1.83-1.37m80.08-.45A1.89,1.89,0,0,1,234,45.38a1.89,1.89,0,1,1,1.84,2.32,1.93,1.93,0,0,1-.42-.05m-67.21-2.74a1.89,1.89,0,1,1,3.71-.7,1.91,1.91,0,0,1-1.51,2.21,2.11,2.11,0,0,1-.36,0,1.87,1.87,0,0,1-1.84-1.53m54.34.32a1.88,1.88,0,1,1,.27,0,1.32,1.32,0,0,1-.27,0M181.3,42.82A1.91,1.91,0,0,1,183,40.74a1.89,1.89,0,1,1,.4,3.75h-.21a1.91,1.91,0,0,1-1.87-1.67m28.25,1.09a1.9,1.9,0,0,1-1.77-2,1.88,1.88,0,1,1,1.89,2Zm-15-2.1a1.87,1.87,0,0,1,1.83-1.92,1.89,1.89,0,1,1,.1,3.77h0a1.89,1.89,0,0,1-1.89-1.85"/><g class="cls-5"><rect class="cls-6" x="77.09" y="53.96" width="2.52" height="97.49"/><rect class="cls-6" x="93.19" y="53.96" width="2.51" height="97.49"/><rect class="cls-6" x="109.28" y="53.96" width="2.51" height="97.49"/><rect class="cls-6" x="125.37" y="53.96" width="2.51" height="97.49"/><rect class="cls-6" x="141.47" y="53.96" width="2.52" height="97.49"/><rect class="cls-6" x="157.56" y="53.96" width="2.52" height="97.49"/><rect class="cls-6" x="173.66" y="53.96" width="2.52" height="97.49"/><rect class="cls-6" x="189.75" y="53.96" width="2.52" height="97.49"/><rect class="cls-6" x="205.85" y="53.96" width="2.51" height="97.49"/><rect class="cls-6" x="221.94" y="53.96" width="2.51" height="97.49"/><rect class="cls-6" x="238.04" y="53.96" width="2.51" height="97.49"/><rect class="cls-6" x="254.13" y="53.96" width="2.51" height="97.49"/><rect class="cls-6" x="270.22" y="53.96" width="2.52" height="97.49"/><rect class="cls-6" x="286.32" y="53.96" width="2.51" height="97.49"/><rect class="cls-6" x="302.42" y="53.96" width="2.51" height="97.49"/><rect class="cls-6" x="318.51" y="53.96" width="2.52" height="97.49"/></g><rect class="cls-6" x="62.25" y="151.46" width="275.5" height="5.99"/><rect class="cls-6" x="62.25" y="242.56" width="275.5" height="5.98"/><path class="cls-6" d="M343.89,199.76a7.78,7.78,0,1,1-7.78-7.78,7.78,7.78,0,0,1,7.78,7.78"/><path class="cls-6" d="M71.66,199.76A7.78,7.78,0,1,1,63.88,192a7.78,7.78,0,0,1,7.78,7.78"/><polygon class="cls-4" points="236.63 116.94 199.06 133.24 161.48 116.94 161.48 83.48 236.63 83.48 236.63 116.94"/><path class="cls-3" d="M172.39,95.52H165.3V93h17.25v2.56h-7.12v20.75h-3Z"/><path class="cls-3" d="M192.27,93v9.76h11.27V93h3.05v23.31h-3.05V105.34H192.27v10.93h-3V93Z"/><path class="cls-3" d="M228,105.34H219v8.41h10.1v2.52H216V93h12.59v2.52H219v7.37H228Z"/><path class="cls-2" d="M116.33,295.78h2.11v1.39h-2.11V300H119v1.39h-4.16v-9.74H119v1.4h-2.64Z"/><path class="cls-2" d="M125.74,291.57c1.5,0,2.25.82,2.25,2.44v.52h-1.45v-.61c0-.64-.25-1-.76-1s-.77.32-.77,1a2,2,0,0,0,.47,1.26,5.24,5.24,0,0,0,.48.52l.41.38.14.13c.23.21.41.39.55.54a4.39,4.39,0,0,1,.48.63,3.2,3.2,0,0,1,.47,1.7c0,1.63-.76,2.45-2.29,2.45s-2.28-.82-2.28-2.45v-.94h1.45v1c0,.64.27,1,.79,1s.79-.32.79-1a2,2,0,0,0-.46-1.25,5.22,5.22,0,0,0-.48-.53l-.55-.51a7.17,7.17,0,0,1-.55-.54,5,5,0,0,1-.48-.62,3.23,3.23,0,0,1-.47-1.71C123.48,292.39,124.24,291.57,125.74,291.57Z"/><path class="cls-2" d="M132.21,291.67h4.73v1.4h-1.6v8.34h-1.53v-8.34h-1.6Z"/><path class="cls-2" d="M259.23,292.91a1.66,1.66,0,0,0,1.19-.37,2.14,2.14,0,0,0,.49-.87h1v9.74h-1.53V294h-1.18Z"/><path class="cls-2" d="M272,299c0,1.68-.77,2.53-2.33,2.53s-2.28-.82-2.28-2.45v-.25h1.44v.34c0,.65.27,1,.8,1s.85-.4.85-1.2v-1.79a1.45,1.45,0,0,1-1.42.87c-1.13,0-1.7-.74-1.7-2.22V294c0-1.62.77-2.44,2.32-2.44s2.32.82,2.32,2.44Zm-1.52-3.33v-1.75c0-.63-.27-.95-.8-.95s-.79.32-.79.95v1.75c0,.64.26,1,.79,1S270.51,296.31,270.51,295.67Z"/><path class="cls-2" d="M281.3,299c0,1.68-.78,2.53-2.34,2.53s-2.28-.82-2.28-2.45v-.25h1.45v.34c0,.65.26,1,.79,1s.85-.4.85-1.2v-1.79a1.45,1.45,0,0,1-1.42.87c-1.13,0-1.7-.74-1.7-2.22V294c0-1.62.78-2.44,2.33-2.44s2.32.82,2.32,2.44Zm-1.53-3.33v-1.75c0-.63-.27-.95-.79-.95s-.8.32-.8.95v1.75c0,.64.26,1,.8,1S279.77,296.31,279.77,295.67Z"/><path class="cls-2" d="M285.94,294c0-1.62.78-2.44,2.32-2.44s2.33.82,2.33,2.44v5.07c0,1.63-.78,2.45-2.33,2.45s-2.32-.82-2.32-2.45Zm1.53,5.16c0,.65.27,1,.79,1s.8-.32.8-1v-5.25c0-.64-.26-1-.8-1s-.79.32-.79,1Z"/><path class="cls-7" d="M95.48,182.19c0-1,0-1.76-.07-2.37a12.91,12.91,0,0,0-.24-1.59c-.21-1.23-.85-1.84-1.92-1.84a1.57,1.57,0,0,0-1.61,1.45,9.85,9.85,0,0,0-.47,3.52V217.6a9.19,9.19,0,0,0,.47,3.53c.21,1,.75,1.53,1.61,1.53,1.07,0,1.71-.64,1.92-1.93a7.25,7.25,0,0,0,.24-1.45c0-.65.07-1.49.07-2.51V206l6.28-2.82v14.7q0,6.28-2.08,8.35a8.74,8.74,0,0,1-6.43,2.32,9.86,9.86,0,0,1-3.33-.55,7.37,7.37,0,0,1-2.79-1.77,6.65,6.65,0,0,1-1.84-3.37c-.11-.52-.21-1.19-.32-2a23.3,23.3,0,0,1-.15-2.82V181.13a21.81,21.81,0,0,1,.15-2.76c.11-.77.21-1.46.32-2.06a8.69,8.69,0,0,1,.69-1.95,5.4,5.4,0,0,1,1.15-1.58,9.14,9.14,0,0,1,6-2.08A9.43,9.43,0,0,1,99.68,173a6.6,6.6,0,0,1,1.57,3,20.88,20.88,0,0,1,.51,5.1v10a9.81,9.81,0,0,0-6.28,2.43Z"/><path class="cls-7" d="M141,222.93a9.08,9.08,0,0,1-1.39,3.18,8.58,8.58,0,0,1-6.28,2.39,8.85,8.85,0,0,1-6.35-2.39,7.38,7.38,0,0,1-1.84-3.3c-.11-.57-.21-1.27-.32-2.08a23.3,23.3,0,0,1-.15-2.82V181.05a20.26,20.26,0,0,1,.15-2.6c.11-.78.21-1.41.32-1.91a8.49,8.49,0,0,1,1.84-3.53,9,9,0,0,1,6.35-2.31,8.63,8.63,0,0,1,6.28,2.55,5.19,5.19,0,0,1,1.16,1.74,9,9,0,0,1,.6,2.53,10.39,10.39,0,0,1,.16,2.16v38.07A21.2,21.2,0,0,1,141,222.93Zm-5.82-43.15a9.25,9.25,0,0,0-.24-1.55c-.26-1.12-.8-1.69-1.61-1.69a1.9,1.9,0,0,0-1.92,1.53q-.08.68-.15,1.47a20.64,20.64,0,0,0-.08,2.14v35.84a20.78,20.78,0,0,0,.08,2.17c0,.54.1,1,.15,1.36a1.88,1.88,0,0,0,1.92,1.45c.87,0,1.4-.54,1.61-1.61a6.48,6.48,0,0,0,.24-1.39c.05-.62.08-1.38.08-2.29v-35.1C135.21,181.2,135.18,180.42,135.13,179.78Z"/><path class="cls-7" d="M165.79,225a11.53,11.53,0,0,0,.47-4.08V178.5a23.19,23.19,0,0,0-.12-2.62,6.53,6.53,0,0,0-.35-1.65,3.13,3.13,0,0,0-.53-1.32,11.22,11.22,0,0,0-1.16-1.43h19.61v10.79q-.9-3-2.27-3.77a5.35,5.35,0,0,0-3.22-.74h-5.37v17h3.69c.81,0,1.46,0,2-.05a5.43,5.43,0,0,0,1.32-.19,5.7,5.7,0,0,0,1.35-1.19,9.19,9.19,0,0,0,1.24-1.95V205c-1.13-2.19-2.55-3.29-4.28-3.29h-5.29v19.21a23.14,23.14,0,0,0,.23,4.08,8.19,8.19,0,0,0,1.85,2.74H164.1A4.81,4.81,0,0,0,165.79,225Z"/><path class="cls-7" d="M208.92,225a11.29,11.29,0,0,0,.47-4.08V178.5c0-1.07,0-1.94-.11-2.62a7,7,0,0,0-.36-1.65,3.13,3.13,0,0,0-.53-1.32,11.08,11.08,0,0,0-1.15-1.43h19.6v10.79q-.9-3-2.27-3.77a5.35,5.35,0,0,0-3.22-.74H216v17h3.69c.81,0,1.47,0,2-.05a5.27,5.27,0,0,0,1.31-.19,5.54,5.54,0,0,0,1.36-1.19,9.59,9.59,0,0,0,1.23-1.95V205q-1.68-3.28-4.28-3.29H216v19.21a21.87,21.87,0,0,0,.24,4.08,8,8,0,0,0,1.84,2.74H207.24A4.84,4.84,0,0,0,208.92,225Z"/><path class="cls-7" d="M269.39,182a6.56,6.56,0,0,0-1.82-3.15,4.66,4.66,0,0,0-3.16-1h-5.69v17h3c.63,0,1.19,0,1.67-.05a1.91,1.91,0,0,0,1.12-.35,3,3,0,0,0,1.39-1.11A16.49,16.49,0,0,0,267,191.4V205a17.46,17.46,0,0,0-1-1.66,3.23,3.23,0,0,0-1.05-1,5.13,5.13,0,0,0-2.58-.59h-3.69v19.6h7.22a2.86,2.86,0,0,0,2.13-.76,6.21,6.21,0,0,0,1.32-2.37v9.56h-19a6,6,0,0,0,1-1.27,8.13,8.13,0,0,0,.61-1.31,13.52,13.52,0,0,0,.39-3.85V177.76a13,13,0,0,0-.39-3.69,12.34,12.34,0,0,0-.61-1.19,10.08,10.08,0,0,0-1-1.4h19Z"/><path class="cls-7" d="M310.33,182a6.49,6.49,0,0,0-1.83-3.15,4.66,4.66,0,0,0-3.15-1h-5.69v17h3c.63,0,1.18,0,1.67-.05a1.91,1.91,0,0,0,1.12-.35,3,3,0,0,0,1.39-1.11,16.51,16.51,0,0,0,1.11-1.87V205a14,14,0,0,0-1-1.66,3.11,3.11,0,0,0-1-1,5.15,5.15,0,0,0-2.58-.59h-3.69v19.6h7.22a2.88,2.88,0,0,0,2.13-.76,6.21,6.21,0,0,0,1.32-2.37v9.56h-19a6,6,0,0,0,1-1.27,8.13,8.13,0,0,0,.61-1.31,13.52,13.52,0,0,0,.39-3.85V177.76a13,13,0,0,0-.39-3.69,12.34,12.34,0,0,0-.61-1.19,10.08,10.08,0,0,0-1-1.4h19Z"/><path class="cls-2" d="M229.05,336.61a6,6,0,0,1-6.12-4.19c-.6-2.12.21-4.07,2-4.76,2.12-.83,3.53,0,4.15,1.08a3.12,3.12,0,0,1-.58,3.86.81.81,0,0,1-1-1.27,1.49,1.49,0,0,0,.18-1.78c-.49-.87-1.56-.61-2.15-.38a2.22,2.22,0,0,0-1,2.81c.54,1.88,2.61,3.5,6,2.87a23.56,23.56,0,0,0,15.77-12.19c2.36-4.61,2.75-9.45,1.08-13.27-1.34-3.1-4.9-4-7.81-3.6-2.49.38-5.53,2-5.9,5.27-.32,2.75.5,4.68,2.22,5.28a2.56,2.56,0,0,0,2.89-.59,1.26,1.26,0,0,0,.23-1.05,2.39,2.39,0,0,0-1.15-1.24.81.81,0,0,1,.73-1.44,4,4,0,0,1,2,2.25,2.89,2.89,0,0,1-.43,2.35,4.16,4.16,0,0,1-4.8,1.25c-.92-.32-3.88-1.79-3.3-7,.39-3.46,3.25-6.08,7.28-6.69,3.52-.53,7.85.67,9.54,4.55,1.86,4.27,1.45,9.61-1.12,14.66a25.26,25.26,0,0,1-16.9,13A9.77,9.77,0,0,1,229.05,336.61Z"/><path class="cls-8" d="M233.93,296.59c0,3.55-16.73,6.43-37.37,6.43s-37.37-2.88-37.37-6.43,16.73-6.43,37.37-6.43S233.93,293,233.93,296.59Z"/><path class="cls-2" d="M163.32,299.52c6.2,2.08,18.75,3.5,33.24,3.5s27.05-1.42,33.25-3.5c-6.2-2.07-18.76-3.49-33.25-3.49S169.52,297.45,163.32,299.52Z"/><path class="cls-2" d="M196.56,305c-20.64,0-37.37-2.88-37.37-6.43v6.15a37.37,37.37,0,0,0,74.74,0v-6.15C233.93,302.13,217.2,305,196.56,305Z"/><path class="cls-8" d="M172,304.73v-1.3c-7.87-1.18-12.85-2.91-12.85-4.85v6.15a37.37,37.37,0,0,0,37.37,37.37,37.78,37.78,0,0,0,6.43-.56A37.37,37.37,0,0,1,172,304.73Z"/><path class="cls-9" d="M199.34,251s-.49.45-1.26,1.3A23.3,23.3,0,0,0,195.3,256a13.78,13.78,0,0,0-2,5.87,11.41,11.41,0,0,0,1.56,6.63c.57,1,1.37,2.1,2,3.21a33.29,33.29,0,0,1,1.88,3.44,21.43,21.43,0,0,1,1.29,3.49,11.83,11.83,0,0,1,.47,3.36,7.92,7.92,0,0,1-.45,2.86,7.6,7.6,0,0,1-1,1.94,7.8,7.8,0,0,1-.87,1.06c-.21.23-.33.34-.33.34a14.1,14.1,0,0,0,.68-1.66,9.78,9.78,0,0,0,.41-1.94,8.45,8.45,0,0,0-.12-2.47,13.51,13.51,0,0,0-.84-2.82,29,29,0,0,0-1.48-3c-.59-1-1.21-2.09-1.88-3.12s-1.46-2.12-2.15-3.4a13.84,13.84,0,0,1-1.44-4,12.25,12.25,0,0,1-.05-4.18,13.76,13.76,0,0,1,3.1-6.41,17.82,17.82,0,0,1,3.62-3.25A13.69,13.69,0,0,1,199.34,251Z"/><path class="cls-9" d="M207,254.87s-.48.38-1.25,1.12a23.35,23.35,0,0,0-2.87,3.23,11.24,11.24,0,0,0-2.27,5.2,8.62,8.62,0,0,0,1.51,5.91c.57.89,1.38,1.83,2.09,2.81a31.52,31.52,0,0,1,2,3.07,18.23,18.23,0,0,1,1.42,3.18,9.67,9.67,0,0,1,.59,3.15,6.49,6.49,0,0,1-.45,2.7,6.4,6.4,0,0,1-1,1.77,7.05,7.05,0,0,1-.89.91l-.34.29a13.16,13.16,0,0,0,.72-1.5,7.16,7.16,0,0,0,.45-1.76,6.4,6.4,0,0,0-.11-2.24,11.32,11.32,0,0,0-.92-2.53,26.32,26.32,0,0,0-1.56-2.68c-.63-.9-1.26-1.83-2-2.74a28.71,28.71,0,0,1-2.23-3,11.29,11.29,0,0,1-1.54-3.74,9.86,9.86,0,0,1,0-4,11.83,11.83,0,0,1,3.42-5.74,17.91,17.91,0,0,1,3.66-2.68A13.41,13.41,0,0,1,207,254.87Z"/><path class="cls-9" d="M191.63,254.87s-.48.38-1.25,1.12a23.32,23.32,0,0,0-2.88,3.23,11.34,11.34,0,0,0-2.26,5.2,8.56,8.56,0,0,0,1.5,5.91c.57.89,1.39,1.83,2.1,2.81a29.65,29.65,0,0,1,2,3.07,17.57,17.57,0,0,1,1.43,3.18,9.94,9.94,0,0,1,.59,3.15,6.49,6.49,0,0,1-.46,2.7,6.16,6.16,0,0,1-1,1.77,6.4,6.4,0,0,1-.9.91c-.22.2-.34.29-.34.29a12,12,0,0,0,.73-1.5,7.64,7.64,0,0,0,.45-1.76,6.19,6.19,0,0,0-.12-2.24,11.32,11.32,0,0,0-.92-2.53,28.15,28.15,0,0,0-1.55-2.68c-.64-.9-1.27-1.83-2-2.74a27.39,27.39,0,0,1-2.24-3A11.27,11.27,0,0,1,183,268a9.69,9.69,0,0,1,0-4,11.83,11.83,0,0,1,3.42-5.74,17.93,17.93,0,0,1,3.67-2.68A13.41,13.41,0,0,1,191.63,254.87Z"/></svg>