<svg id="Слой_1" data-name="Слой 1" xmlns="http://www.w3.org/2000/svg" viewBox="0 0 400 400"><defs><style>.cls-1{fill:#2d1e14;}.cls-2{fill:#fff;}.cls-3{fill:#edc17b;}.cls-4{fill:#daa449;}.cls-5{fill:#c69c6c;}</style></defs><path class="cls-1" d="M374.65,200A174.65,174.65,0,1,1,200,25.36,174.64,174.64,0,0,1,374.65,200Z"/><path class="cls-2" d="M200,321.43A121.43,121.43,0,1,1,321.43,200,121.56,121.56,0,0,1,200,321.43Zm0-240.22A118.79,118.79,0,1,0,318.79,200,118.93,118.93,0,0,0,200,81.21Z"/><path class="cls-3" d="M30.67,170.84C44.56,90,115.2,28.19,200,28.19S355.43,90,369.32,170.84h5.75C361.12,86.81,287.93,22.52,200,22.52S38.88,86.81,24.93,170.84Z"/><path class="cls-3" d="M369.61,227.45C356.42,309.19,285.39,371.81,200,371.81S43.57,309.19,30.39,227.45H24.64c13.24,84.87,86.83,150,175.36,150s162.12-65.16,175.35-150Z"/><polygon class="cls-4" points="65.41 182.98 5.79 182.98 15.23 199.34 5.79 215.71 65.41 215.71 74.86 199.34 65.41 182.98"/><path class="cls-1" d="M36.15,201.66H32.51v3.07h4.28v1.68h-6.4V195.59h6.39v1.69H32.51V200h3.64Z"/><path class="cls-1" d="M45.75,203.59a1.44,1.44,0,0,0-.33-1,3.16,3.16,0,0,0-1.15-.72,7.65,7.65,0,0,1-2.53-1.34,2.67,2.67,0,0,1-.85-2.09,2.7,2.7,0,0,1,1-2.17,3.69,3.69,0,0,1,2.5-.84,3.46,3.46,0,0,1,2.51.93,3,3,0,0,1,.94,2.36v0h-2a1.83,1.83,0,0,0-.38-1.2,1.28,1.28,0,0,0-1-.47,1.29,1.29,0,0,0-1,.39,1.35,1.35,0,0,0-.36,1,1.13,1.13,0,0,0,.4.88,5.44,5.44,0,0,0,1.37.77,5.83,5.83,0,0,1,2.32,1.32,3,3,0,0,1,.77,2.16,2.7,2.7,0,0,1-.94,2.2,3.7,3.7,0,0,1-2.49.8,4.19,4.19,0,0,1-2.68-.9,3.07,3.07,0,0,1-1.1-2.6l0,0h2.06a2,2,0,0,0,.42,1.44,1.69,1.69,0,0,0,1.28.45,1.25,1.25,0,0,0,1-.37A1.33,1.33,0,0,0,45.75,203.59Z"/><path class="cls-1" d="M58.6,197.28H56.16v9.13H54.05v-9.13H51.63v-1.69h7Z"/><polygon class="cls-4" points="334.59 215.71 394.21 215.71 384.76 199.35 394.21 182.98 334.59 182.98 325.14 199.35 334.59 215.71"/><path class="cls-1" d="M344.91,206.41H342.8V197.8l-2,0v-1.53l4.12-.74Z"/><path class="cls-1" d="M353.8,204.88a1.26,1.26,0,0,0,1.06-.61,3,3,0,0,0,.42-1.71v-.42a2.05,2.05,0,0,1-.69.66,1.71,1.71,0,0,1-.85.22,2.32,2.32,0,0,1-2-1,4.49,4.49,0,0,1-.73-2.73,4.24,4.24,0,0,1,.9-2.74,2.87,2.87,0,0,1,4.57,0,5.05,5.05,0,0,1,.89,3.2v2.65a4.31,4.31,0,0,1-1,3,3.29,3.29,0,0,1-2.57,1.12,4.22,4.22,0,0,1-1-.12,4.12,4.12,0,0,1-.95-.34l.23-1.58a3.8,3.8,0,0,0,.81.26A4,4,0,0,0,353.8,204.88Zm.34-3.45a1.21,1.21,0,0,0,.66-.18,1.64,1.64,0,0,0,.48-.5v-1.23a4.23,4.23,0,0,0-.29-1.77c-.2-.41-.47-.6-.79-.58h0c-.3,0-.55.19-.75.61a4.34,4.34,0,0,0,0,3.07A.81.81,0,0,0,354.14,201.43Z"/><path class="cls-1" d="M364.43,204.88a1.24,1.24,0,0,0,1.05-.61,3,3,0,0,0,.42-1.71v-.42a1.88,1.88,0,0,1-.69.66,1.67,1.67,0,0,1-.84.22,2.32,2.32,0,0,1-2-1,4.56,4.56,0,0,1-.72-2.73,4.24,4.24,0,0,1,.89-2.74,2.88,2.88,0,0,1,4.58,0,5.12,5.12,0,0,1,.89,3.2v2.65a4.36,4.36,0,0,1-1,3,3.32,3.32,0,0,1-2.57,1.12,4.3,4.3,0,0,1-1-.12,4.12,4.12,0,0,1-.95-.34l.24-1.58a3.63,3.63,0,0,0,.81.26A3.91,3.91,0,0,0,364.43,204.88Zm.34-3.45a1.23,1.23,0,0,0,.66-.18,1.5,1.5,0,0,0,.47-.5v-1.23a4.08,4.08,0,0,0-.29-1.77c-.2-.41-.46-.6-.78-.58h-.05c-.3,0-.54.19-.74.61a3.73,3.73,0,0,0-.29,1.51,3.92,3.92,0,0,0,.26,1.56A.82.82,0,0,0,364.77,201.43Z"/><path class="cls-1" d="M372.53,201.62l.53-6h5.3v1.73h-3.57l-.23,2.55a2.07,2.07,0,0,1,1.3-.55,2.4,2.4,0,0,1,2.08.93,4.41,4.41,0,0,1,.72,2.69,4,4,0,0,1-.82,2.59,2.82,2.82,0,0,1-2.35,1,3.28,3.28,0,0,1-2.23-.83,2.76,2.76,0,0,1-.91-2.25l0,0,2.05-.11a2,2,0,0,0,.29,1.13.92.92,0,0,0,.78.4.84.84,0,0,0,.82-.53,4.06,4.06,0,0,0,0-2.91.88.88,0,0,0-.86-.55.9.9,0,0,0-.67.23,1.27,1.27,0,0,0-.33.63Z"/><path class="cls-3" d="M145.84,248.75a5.58,5.58,0,0,1-1.83,4.49,7.91,7.91,0,0,1-5.22,1.55h-1.65v6.46h-3.86V243.08h5.81a7.79,7.79,0,0,1,5,1.42A5.24,5.24,0,0,1,145.84,248.75Zm-8.7,2.89h1.27a4.17,4.17,0,0,0,2.65-.71,2.44,2.44,0,0,0,.89-2,2.52,2.52,0,0,0-.74-2,3.42,3.42,0,0,0-2.32-.65h-1.75Z"/><path class="cls-3" d="M155.67,254.28v7h-3.86V243.08h5.3q3.7,0,5.48,1.35a5.38,5.38,0,0,1,.9,6.95,5.85,5.85,0,0,1-2.5,2q4.09,6.14,5.35,7.91h-4.28l-4.34-7Zm0-3.13h1.24a4.73,4.73,0,0,0,2.7-.61,2.16,2.16,0,0,0,.87-1.91,2,2,0,0,0-.89-1.84,5.32,5.32,0,0,0-2.75-.55h-1.17Z"/><path class="cls-3" d="M181.64,261.25H171.17V243.08h10.47v3.16H175v4h6.15v3.16H175v4.68h6.62Z"/><path class="cls-3" d="M195.67,261.25,191.29,247h-.11c.16,2.9.24,4.83.24,5.81v8.44H188V243.08h5.25l4.3,13.9h.08l4.56-13.9h5.24v18.17h-3.59v-8.6c0-.4,0-.87,0-1.4s.07-1.94.17-4.22h-.12l-4.68,14.22Z"/><path class="cls-3" d="M214.52,261.25V243.08h3.86v18.17Z"/><path class="cls-3" d="M240.29,243.08v11.76a6.76,6.76,0,0,1-.9,3.53,5.88,5.88,0,0,1-2.61,2.33,9.27,9.27,0,0,1-4,.81,7.71,7.71,0,0,1-5.45-1.8,6.38,6.38,0,0,1-1.94-4.92V243.08h3.85v11.13a4.61,4.61,0,0,0,.84,3.08,4.4,4.4,0,0,0,5.54,0,4.75,4.75,0,0,0,.85-3.11v-11.1Z"/><path class="cls-3" d="M255,261.25,250.61,247h-.12c.16,2.9.24,4.83.24,5.81v8.44h-3.44V243.08h5.24l4.3,13.9h.08l4.56-13.9h5.25v18.17h-3.6v-8.6c0-.4,0-.87,0-1.4s.07-1.94.17-4.22h-.11l-4.69,14.22Z"/><path class="cls-3" d="M187.05,282.16a1.64,1.64,0,0,1,0,.59,1.43,1.43,0,0,1-.21.49l.79.57-.51.5c-.28-.21-.55-.41-.83-.6a1.75,1.75,0,0,1-.32.12l-.36.08a1.79,1.79,0,0,1-1.26-.22,1.46,1.46,0,0,1-.63-1.05l-.18-1.14a1.43,1.43,0,0,1,.29-1.2,1.76,1.76,0,0,1,1.18-.59,1.82,1.82,0,0,1,1.31.24,1.39,1.39,0,0,1,.61,1.06Zm-1.1-1a1,1,0,0,0-.28-.64.7.7,0,0,0-.6-.14.73.73,0,0,0-.54.3,1,1,0,0,0-.08.69c.06.39.11.77.17,1.15a1,1,0,0,0,.29.64.66.66,0,0,0,.58.14.68.68,0,0,0,.52-.3,1,1,0,0,0,.1-.69C186.06,281.89,186,281.51,186,281.13Z"/><path class="cls-3" d="M192.28,279c.06.93.13,1.87.2,2.8a1.24,1.24,0,0,1-.37,1.05,1.91,1.91,0,0,1-1.14.46,1.87,1.87,0,0,1-1.21-.25,1.25,1.25,0,0,1-.55-1c-.1-.94-.2-1.87-.29-2.8l1-.09.27,2.79a.77.77,0,0,0,.23.53.7.7,0,0,0,.53.13.65.65,0,0,0,.5-.21.75.75,0,0,0,.14-.58c-.08-.92-.16-1.86-.24-2.79Z"/><path class="cls-3" d="M196.64,282l-1.27.05c-.08.3-.15.59-.22.89l-.94.05c.37-1.4.76-2.8,1.16-4.19l1,0c.51,1.36,1,2.72,1.49,4.09l-1,0C196.83,282.58,196.73,282.29,196.64,282Zm-1.11-.6.89,0-.49-1.44h0C195.78,280.41,195.65,280.9,195.53,281.4Z"/><path class="cls-3" d="M200.52,282.18l1.75,0c0,.21,0,.43,0,.64-.89,0-1.79,0-2.68,0,0-1.37,0-2.74,0-4.12h1C200.53,279.86,200.52,281,200.52,282.18Z"/><path class="cls-3" d="M205,283l-.93,0c.07-1.38.12-2.75.17-4.12l1,0Z"/><path class="cls-3" d="M210.2,279.84l-1.1-.11c-.1,1.16-.21,2.32-.31,3.47l-.92-.07c.09-1.16.18-2.31.26-3.47l-1.1-.08c0-.22,0-.43,0-.64,1.07.07,2.14.16,3.2.26C210.25,279.41,210.23,279.63,210.2,279.84Z"/><path class="cls-3" d="M213.47,281.34h0l1-1.64,1.05.16c-.6.8-1.18,1.61-1.77,2.43-.06.48-.12,1-.19,1.45l-.93-.12c.07-.5.13-1,.19-1.5-.34-.92-.69-1.84-1.06-2.76l1.06.12C213.09,280.11,213.28,280.72,213.47,281.34Z"/><path class="cls-3" d="M159.53,303.33l.08-.55a104,104,0,0,1,2.39-11.5,110.29,110.29,0,0,0-9.25-6.27l-.47-.29.49-.23a110.74,110.74,0,0,1,10.8-4.42l.2.56a107.78,107.78,0,0,0-10.25,4.16,108.71,108.71,0,0,1,9,6.15l.16.11,0,.2a100,100,0,0,0-2.34,11.07,91.12,91.12,0,0,1,15.23-5.75l.16.56a91.27,91.27,0,0,0-15.64,6Z"/><path class="cls-3" d="M240.47,303.33l-.5-.24a91.27,91.27,0,0,0-15.64-6l.16-.56a91.45,91.45,0,0,1,15.23,5.75,100,100,0,0,0-2.34-11.07l0-.2.15-.11c2.87-2.18,5.9-4.24,9-6.15a106.72,106.72,0,0,0-10.25-4.16l.2-.56a112.06,112.06,0,0,1,10.79,4.42l.49.23-.46.29c-3.2,1.94-6.31,4.05-9.26,6.27a99.58,99.58,0,0,1,2.39,11.5Z"/><path class="cls-3" d="M170.59,295.58l-.07-.31c-.78-3.13-1.54-6.3-2.26-9.42s-1.45-6.34-2.13-9.46l-.06-.27.26-.07a113.52,113.52,0,0,1,68,.21l.31.1-.12.29c-1.24,3-2.47,6-3.67,9s-2.4,6.07-3.52,9l-.1.26-.26-.08a93.78,93.78,0,0,0-56.1.66Zm-3.83-19.06c.66,3,1.35,6.13,2.07,9.2s1.43,6.07,2.18,9.11a94.25,94.25,0,0,1,55.89-.65c1.1-2.87,2.25-5.82,3.43-8.77s2.35-5.82,3.54-8.69a113.16,113.16,0,0,0-67.11-.2Z"/><path class="cls-3" d="M159,304l.19-1.31a104.59,104.59,0,0,1,2.33-11.28c-2.87-2.16-5.89-4.2-9-6.09l-1.11-.67,1.17-.56a111.51,111.51,0,0,1,10.84-4.43l.46,1.31c-3.21,1.12-6.41,2.41-9.53,3.84,2.89,1.8,5.71,3.74,8.39,5.77l.37.28-.12.46a103.41,103.41,0,0,0-2.22,10.27,92,92,0,0,1,14.61-5.44l.38,1.34a90.13,90.13,0,0,0-15.57,5.93Z"/><path class="cls-3" d="M241,304l-1.18-.58a90.44,90.44,0,0,0-15.57-5.93l.38-1.34a92.22,92.22,0,0,1,14.6,5.44A100.59,100.59,0,0,0,237,291.35l-.12-.46.37-.28c2.68-2,5.5-4,8.39-5.77-3.11-1.42-6.31-2.72-9.53-3.84l.46-1.31a111.8,111.8,0,0,1,10.83,4.43l1.18.56-1.11.67c-3.11,1.89-6.14,3.93-9,6.09a102.23,102.23,0,0,1,2.33,11.28Z"/><path class="cls-3" d="M170.31,296.1l-.18-.73c-.78-3.13-1.54-6.31-2.27-9.43s-1.45-6.34-2.12-9.47l-.14-.62.61-.19a114,114,0,0,1,68.26.22l.73.22-.29.71c-1.24,2.95-2.47,6-3.66,9s-2.4,6.07-3.52,9l-.23.6-.63-.18a93.17,93.17,0,0,0-55.85.66Zm-3.08-19.3c.64,2.92,1.3,5.89,2,8.83s1.37,5.79,2.08,8.68a94.71,94.71,0,0,1,55.35-.62c1.06-2.77,2.17-5.6,3.3-8.43s2.24-5.55,3.38-8.29a112.71,112.71,0,0,0-66.1-.17Z"/><path class="cls-5" d="M79.66,293.66a5.72,5.72,0,0,1,.51-.59,13.75,13.75,0,0,1,1.24-.92l2.44-1.65q2-1.35.89-2.95l-.57-.84L77.85,291l-1.65-2.44L91.72,278l2.5,3.69q2.44,3.62-1.12,6l-1.23.83q-2.39,1.62-4.23.53c.29,1.39-.45,2.68-2.2,3.87l-2.39,1.62a6.22,6.22,0,0,0-1.71,1.54ZM91.15,282l-4.77,3.24.65,1q1,1.47,2.64.36l1.53-1c1.07-.73,1.32-1.5.76-2.33Z"/><path class="cls-5" d="M97.09,298.45l2.67,3.06-2,1.76-2.66-3.06L91,303.83l3.34,3.82-2,1.77L87,303.37,101.12,291l5.29,6.05-2,1.77L101,295Z"/><path class="cls-5" d="M110.84,301.64l6.75,6.11-1.8,2-2.28-2.07-10.8,11.92-2.18-2,10.8-11.91L109,303.62Z"/><path class="cls-5" d="M117,330.77a4.64,4.64,0,0,1,.28-.74,14.46,14.46,0,0,1,.83-1.29l1.7-2.4c.92-1.31.86-2.33-.19-3.08l-.84-.59-4.41,6.24-2.4-1.7,10.83-15.32,3.63,2.57q3.57,2.52,1.07,6.05l-.85,1.21c-1.11,1.57-2.37,2.24-3.78,2,.76,1.19.52,2.65-.7,4.39l-1.67,2.36a6.42,6.42,0,0,0-1.06,2Zm6.65-15-3.33,4.7.94.67c1,.69,1.83.49,2.6-.6l1.07-1.5c.74-1.06.71-1.88-.11-2.46Z"/><path class="cls-5" d="M133.8,324.62q2.22-4.15,6.17-2t1.72,6.26l-4.6,8.61q-2.21,4.16-6.16,2t-1.73-6.26Zm-2.09,10.16c-.58,1.09-.43,1.88.48,2.36s1.64.18,2.22-.92l4.77-8.93c.58-1.08.42-1.86-.48-2.35s-1.64-.18-2.22.91Z"/><path class="cls-5" d="M163.74,332.55c2.8.83,3.78,2.62,3,5.38l-.19.64c-.55,1.85-1.52,2.88-2.9,3.08q1.86,1.46,1,4.48l-.43,1.47q-1.26,4.26-5.55,3l-4.44-1.32,5.32-18ZM159.37,342l-1.63,5.52,1.62.48c1,.29,1.64-.16,2-1.34l.46-1.56c.43-1.46,0-2.36-1.17-2.72Zm2.17-7.32-1.41,4.75,1.11.33c1.14.33,1.89-.13,2.26-1.39l.3-1q.55-1.85-.9-2.28Z"/><path class="cls-5" d="M178.15,354.92a5.25,5.25,0,0,1-.08-.79c0-.34.08-.85.18-1.53l.48-2.91q.38-2.35-1.53-2.67l-1-.17L175,354.4l-2.9-.47,3-18.52,4.39.71q4.31.7,3.62,5l-.24,1.46q-.47,2.85-2.52,3.45,1.81,1.11,1.3,4.25l-.47,2.86a6.16,6.16,0,0,0-.05,2.29Zm-.61-16.4-.92,5.7,1.14.19c1.16.19,1.86-.37,2.07-1.68l.29-1.82c.21-1.27-.18-2-1.17-2.15Z"/><path class="cls-5" d="M199.83,356.6l-3-.1-.39-3.42-3.61-.13-.63,3.39-2.7-.1,3.66-18.64,4.31.15Zm-6.51-6.18,2.85.1L195.08,341Z"/><path class="cls-5" d="M210.18,342.57l1.23,13.52-2.64.25-1.7-18.68,3.69-.34,4,10.92-1-11.2,2.62-.23,1.7,18.68-3,.27Z"/><path class="cls-5" d="M223.66,335.66l4.54-1q4.29-1,5.3,3.58l2.07,9.25c.67,3-.43,4.84-3.28,5.48l-4.55,1Zm3.45,2L230,350.7l1.62-.36c1-.21,1.34-.91,1.07-2.1l-2.12-9.52c-.26-1.19-.89-1.67-1.86-1.45Z"/><path class="cls-5" d="M248.5,328.32l4.25-1.92c2.67-1.2,4.64-.4,5.92,2.43l3.9,8.64c1.27,2.81.57,4.83-2.1,6l-4.24,1.91Zm3.79,1.23,5.52,12.21,1.51-.68c.91-.42,1.12-1.17.62-2.28l-4-8.89c-.5-1.11-1.21-1.45-2.12-1Z"/><path class="cls-5" d="M269.67,326.45l3.47-2.11,1.39,2.28-3.46,2.11,2.85,4.69,4.35-2.64,1.39,2.29-6.86,4.18-9.75-16,6.86-4.18,1.39,2.29L267,322Z"/><path class="cls-5" d="M278.78,310.33c2.27-1.79,4.38-1.44,6.32,1l.62.79-2.19,1.72-.74-.93c-.75-1-1.52-1.15-2.3-.54s-.78,1.4,0,2.37a4,4,0,0,0,2.22,1.36,11.09,11.09,0,0,0,1.34.2l1.07.09.37,0a13.71,13.71,0,0,1,1.47.17,7.42,7.42,0,0,1,1.48.39,6,6,0,0,1,2.73,2q2.91,3.71-.55,6.42t-6.36-1L283.12,323l2.18-1.72,1.24,1.58c.76.95,1.54,1.12,2.34.49s.82-1.42.06-2.38a3.87,3.87,0,0,0-2.19-1.35,11.07,11.07,0,0,0-1.36-.22l-1.44-.12c-.59-.05-1.08-.1-1.48-.17a8.17,8.17,0,0,1-1.46-.38,6.11,6.11,0,0,1-2.74-2Q275.36,313,278.78,310.33Z"/><path class="cls-5" d="M287.6,303l2.12-2,13,13.51-2.12,2Z"/><path class="cls-5" d="M304.19,297.53l2.67-3.16,4.55,3.85q3.6,3,.76,6.39t-6.43.32l-7.46-6.3c-2.4-2-2.65-4.16-.76-6.39s4-2.35,6.44-.32l1.39,1.18-1.8,2.12L302,293.93c-.94-.8-1.74-.8-2.4,0s-.52,1.57.42,2.37l7.74,6.53c.93.79,1.72.79,2.38,0s.52-1.56-.41-2.35l-2.64-2.23-.87,1Z"/><path class="cls-5" d="M310.57,283.89l11.4,7.39-1.45,2.22-15.74-10.2,2-3.11,11.07,3.58-9.43-6.12,1.43-2.21,15.75,10.21L324,288.2Z"/><path class="cls-5" d="M73.63,123.34,79,115l2.45,1.58-1.81,2.8,14.64,9.46-1.73,2.68-14.64-9.45-1.82,2.8Z"/><path class="cls-5" d="M102.16,118.19l-2.06,2.44L84.57,107.49l2.06-2.43,6.66,5.63,2.35-2.77L89,102.28l2.1-2.49,15.53,13.14-2.1,2.49-6.65-5.62-2.35,2.77Z"/><path class="cls-5" d="M106.42,96.6l3.25-3,2,2.14-3.25,3,4,4.41,4.08-3.72,2,2.15L112,107.45l-13.7-15,6.44-5.87,2,2.15-4.07,3.72Z"/><path class="cls-5" d="M129.36,79.92l3.54-2.12,1.5,2.5-3.55,2.11,4.31,7.21-2.74,1.64L122,73.8l7.25-4.34,1.5,2.5-4.52,2.69Z"/><path class="cls-5" d="M137.39,65.32l2.9-1.34,8.57,18.45L146,83.77Z"/><path class="cls-5" d="M154,64.51l4.65,14-2.74.91-6.42-19.3,3.81-1.26,6.95,10.52-3.84-11.56,2.7-.9,6.43,19.3-3.12,1Z"/><path class="cls-5" d="M173.89,62.19l4.32-.82.54,2.84-4.32.82,1.12,5.85,5.42-1,.54,2.86L173,74.34l-3.8-20,8.56-1.62.54,2.85-5.42,1Z"/><path class="cls-5" d="M191.83,51c3.13-.19,4.81,1.41,5,4.81l.07,1.08-3,.18-.08-1.27c-.07-1.33-.65-2-1.72-1.9s-1.56.76-1.47,2.09a4.25,4.25,0,0,0,1.13,2.58,13.78,13.78,0,0,0,1.07,1l.9.74c.12.1.23.19.32.25a14.6,14.6,0,0,1,1.2,1.07,7.59,7.59,0,0,1,1.08,1.25,6.62,6.62,0,0,1,1.2,3.48q.31,5.1-4.45,5.39T188,67l-.12-2,3-.19L191,67c.08,1.32.68,2,1.78,1.88s1.6-.76,1.52-2.09a4.19,4.19,0,0,0-1.12-2.55,12,12,0,0,0-1.07-1l-1.21-1c-.51-.41-.91-.77-1.22-1.07a9.73,9.73,0,0,1-1.07-1.24,6.68,6.68,0,0,1-1.2-3.49C187.23,53,188.7,51.21,191.83,51Z"/><path class="cls-5" d="M205.42,51l9.86.62-.18,2.9-3.33-.21-1.1,17.4-3.19-.2,1.1-17.4-3.34-.21Z"/><path class="cls-5" d="M234.51,59.75q1.37-4.92,6-3.62t3.3,6.22L241,72.55a6.06,6.06,0,0,1-1.35,2.58c0,.3.28.52.76.65l.27.08-.76,2.75-.43-.12a2.78,2.78,0,0,1-2.28-2.08,6.7,6.7,0,0,1-2.25-.24q-4.68-1.31-3.31-6.23ZM234.69,71c-.36,1.3,0,2.09,1.06,2.39s1.78-.21,2.14-1.5l2.94-10.58c.36-1.28,0-2.07-1.06-2.37s-1.78.2-2.13,1.48Z"/><path class="cls-5" d="M257.48,62.21l-6.17,14.42c-.53,1.22-.28,2,.74,2.48s1.78,0,2.31-1.18l6.17-14.42,2.78,1.19-6.1,14.24q-2,4.69-6.39,2.82t-2.37-6.57L254.54,61Z"/><path class="cls-5" d="M270.87,92.11l-2.76-1.65L269.52,87l-3.36-2-2.37,2.88-2.52-1.51,13.22-15.8,4,2.4Zm-2.95-9.28,2.65,1.59,3.95-9.62Z"/><path class="cls-5" d="M289,80l2.51,2L280.73,95.73,284.87,99l-1.79,2.28-6.66-5.2Z"/><path class="cls-5" d="M302.32,91.27l2.3,2.21-14.1,14.67-2.3-2.21Z"/><path class="cls-5" d="M310.93,100l6.37,7.55-2.22,1.87-2.15-2.55-13.32,11.26-2.06-2.44,13.32-11.25-2.16-2.56Z"/><path class="cls-5" d="M313.08,125l9.21-10.8,1.83,2.81-6.46,7.1,9.11-3,1.67,2.55-13.62,4-5.65,3.67-1.74-2.68Z"/><path class="cls-4" d="M258.81,120.3a29.69,29.69,0,0,0-2.21-2.55c-15.83-15.84-47.27-10.06-70.23,12.89-18.36,18.36-25.68,42.12-19.78,59a2.59,2.59,0,0,0,4.85,0,47.94,47.94,0,0,1,10.22-16.48c8.31-9,19.84-14.46,31.44-17.34l8.32-2.11c2.76-.58,5.26-1.82,7.94-2.63a57.72,57.72,0,0,0,14.4-8.09C250.91,137.42,260.5,122.76,258.81,120.3Zm-33.6,27.45-.06,0-.08,0c-1.89.58-3.8,1.45-5.91,2.14s-4.15,1-6.21,1.58c-4.08,1-8.1,1.89-12,3.22a71.37,71.37,0,0,0-11.44,4.76A65.51,65.51,0,0,0,179,166.3c5.56-6.4,13.1-11,21-14.1a102.12,102.12,0,0,1,12.2-3.68l6-1.57c1.86-.56,3.77-1.39,5.86-2a64,64,0,0,0,14.61-7.74,53,53,0,0,0,6.1-5.65c1.94-2,3.73-4.23,5.5-6.45a57.32,57.32,0,0,1-4.52,7.25,39.15,39.15,0,0,1-5.77,6.47A52.24,52.24,0,0,1,225.21,147.75Z"/><path class="cls-4" d="M263.08,127.85a2.33,2.33,0,0,0-4.4.2A40.8,40.8,0,0,1,247,146.7c-4.39,4.33-9.85,7.24-15.3,9.86l-4.22,1.64a31.36,31.36,0,0,1-4.3,1.42l-8.54,2.32a66.73,66.73,0,0,0-8,2.33l-3.92,1.44c-1.3.47-2.48,1.22-3.76,1.77a55.39,55.39,0,0,0-13.74,9.16A54.25,54.25,0,0,0,171.62,196a3.55,3.55,0,0,0,.69,3.65c.37.42.76.84,1.16,1.24,15.84,15.84,47.28,10.06,70.24-12.89C262.48,169.21,269.72,144.79,263.08,127.85Zm-53.86,77.08c-9.8,2.64-20.88,2.68-29.78-2.08,9.73,2.21,19.43.64,28.31-2.59a82.66,82.66,0,0,0,24.34-14.45A92.66,92.66,0,0,0,251,164.55a74.26,74.26,0,0,0,10.87-26.73c.87,10-1.94,20.19-6.61,29.18a77,77,0,0,1-19.12,23.64A71.09,71.09,0,0,1,209.22,204.93Z"/><path class="cls-4" d="M184.69,207.27s5.6,2.54,2.76,7.75c-3.18,5.82-6.24,14.41.83,17.44,4.88,2.09,13.08-4,7.87-13.11-5.51-9.61-2.89-11.35-2.89-11.35Z"/><path class="cls-4" d="M206.92,210.27s-7.85,12.36,0,12.48S206.92,210.27,206.92,210.27Z"/><path class="cls-4" d="M161.2,181.67a80.33,80.33,0,0,1,10-37.41,52.43,52.43,0,0,0-6-10.79,48.17,48.17,0,0,0-5.2-5.62c-1.88-1.78-3.88-3.43-5.93-5.06a53,53,0,0,1,6.67,4.16,36.31,36.31,0,0,1,5.95,5.3,41.87,41.87,0,0,1,6.15,9.18c.9-1.49,1.85-3,2.84-4.39a43.8,43.8,0,0,0-5.15-8.24c-5.12-6.58-18.61-15.4-20.87-13.84a26.49,26.49,0,0,0-2.35,2c-14.56,14.56-9.25,43.48,11.87,64.6.68.69,1.39,1.33,2.09,2C161.21,182.94,161.19,182.31,161.2,181.67Z"/><path class="cls-4" d="M173.9,125.86a37.59,37.59,0,0,1,5.11,6.65,84.18,84.18,0,0,1,10.47-10.89,68.11,68.11,0,0,0-23.75-9.48c9.17-.8,18.57,1.79,26.84,6.08.23.11.44.24.66.36.87-.67,1.74-1.33,2.64-2-13.69-7.78-28.24-9.92-39.32-5.59a2.15,2.15,0,0,0,.19,4A37.62,37.62,0,0,1,173.9,125.86Z"/></svg>