<svg id="Слой_1" data-name="Слой 1" xmlns="http://www.w3.org/2000/svg" viewBox="0 0 1417.32 1417.32"><defs><style>.cls-1{fill:#245480;}.cls-1,.cls-2,.cls-3{fill-rule:evenodd;}.cls-2{fill:#e94739;}.cls-3{fill:#d2bcbb;}</style></defs><path id="path1" class="cls-1" d="M870.23,140.38c-.79,3-2.82,11.08-4.51,17.86S862,173,861.23,176l-1.43,5.45-19.47-17.54c-10.71-9.64-20.06-17.17-20.78-16.72-1.29.8,10.1,61,11.88,62.81,2.86,2.86,2.27-3.66-2.49-27.45-2.91-14.58-5.29-27-5.29-27.65s8.32,6.37,18.5,15.55c21.73,19.61,19.65,20.22,26.43-7.7,2.73-11.26,5.33-20.46,5.77-20.44s4.66,6.29,9.38,13.91c10.14,16.4,13.29,20.49,14.69,19.1,1.22-1.21-22.52-39.09-25-39.92-1-.33-2.33,1.81-3.16,5M658.86,254.56c-2.72,2.72-4.93,6.28-4.93,7.92s-3.91,19.17-8.7,38.95-8.7,36.42-8.7,37-1.91.35-4.25-.46c-3.49-1.23-8.21-.35-27.19,5.06-12.63,3.6-51,14.44-85.22,24.09-65.72,18.54-68.12,19.41-72.94,26.64C437,408.65,386.1,496.59,383.88,502.68s-2.67,11.68-2.67,33.69v26.39l3.93,3.09c4.78,3.76,8.83,3,17.06-3.1l5.84-4.36,13.06,13.72c31.85,33.49,112.8,116,120.1,122.36l8,7,.13,9.06.11,9.07h-4.91c-7.26,0-10.38,3.5-17.42,19.58l-6.35,14.51-41.15.74c-51.48.91-49.16,0-68,26.62-9,12.67-11.53,15.38-14.6,15.4-12.73.1-30.23,11.35-32.65,21-.93,3.68-1,3.71-16,3.71-9.08,0-15.07.58-15.07,1.45s134.66,1.45,401.1,1.45,401.1-.48,401.1-1.45-16.43-1.51-46.06-1.6c-29.87-.11-43.84-.6-39.75-1.4,18-3.54,26-19,16.79-32.56-2-3-3.42-6.71-3-8.18.91-3.5-1.12-4.68-3.37-2s-7.27.32-7.27-3.66c0-3-2.12-3.84-3.61-1.42-1.31,2.13-8-2.72-8-5.79a2.17,2.17,0,0,0-2.43-2.37c-3.94.33-10.23-11.65-14.37-27.36-16.49-62.61-80.34-83.71-123.3-40.73-58.55,58.57,4.7,147,83.2,116.3,16.59-6.49,30.3-8.37,33.11-4.53a3.77,3.77,0,0,0,4.24,1.68c3.34-1.28,7.94,1.58,7.94,4.94,0,3,2.13,3.84,3.63,1.39,1.25-2,6.53,1,6.53,3.69,0,1.85-17.36,2.12-134.55,2.12H770.7l-3.45-6.5c-5.48-10.34-14-15.77-28.26-17.9-6.35-.95-6.87-1.45-17.93-16.91-6.72-9.4-13.93-17.71-17.62-20.3l-6.24-4.39-45-.73-45-.72-6.35-14.51c-7.05-16.08-10.16-19.58-17.42-19.58h-4.92V698.16l31.62-29.51c46.72-43.62,47.46-45.9,21.06-65.41l-12.28-9.08-42.68-61.65c-23.47-33.91-42.84-62.27-43-63s25.42-13.26,56.93-27.8C622,427,649,413.61,651.08,411.56c3.18-3.17,5.66-11.87,17.92-62.86,7.82-32.55,14.49-59.45,14.82-59.79s32.54,9.3,71.61,21.4,72,22,73.24,22c4.7,0,1.94-2.88-4.65-4.85-70.59-21.15-159.84-49.76-162.35-52.05A13,13,0,0,1,665.46,254c4.4-1.82,9.58-.39,99.66,27.5,66.67,20.65,95.46,29,96.53,27.89s-3.39-3.06-15-6.66c-189.23-58.87-179.6-56.4-187.82-48.18m7,4.58c-4.07,2.85-4.39,10.75-.58,14.2a10,10,0,0,0,13.31-.5c8.12-8.12-3.24-20.35-12.73-13.7M1069,278.81c-9,10.45-15.86,19.5-15.19,20.1s9.21,4.23,19,8.07c21.32,8.38,21.2,8,3.91,13.07-17.47,5.16-17.57,2.47,1,26.85,8.8,11.52,16.92,22.24,18,23.8,1.29,1.81,2.53,2.34,3.41,1.45s-3.65-8-12.47-19.52c-7.62-10-15.09-19.87-16.61-22l-2.75-3.85,16.8-5.29c20.41-6.43,20.44-6.35-5.87-16.73-17.19-6.78-19.38-8-17.81-10,1-1.28,7.5-8.95,14.49-17.06,11.73-13.63,14.5-17.89,11.58-17.89-.62,0-8.51,8.56-17.54,19M676.86,265.86c.8,6.88-8.57,9-10.67,2.43-1.24-3.93,2-7.28,6.47-6.76,2.85.33,3.86,1.37,4.2,4.33m-6.53,17.95c10.32,3.35,10,2.34,5.43,20.95-2.28,9.18-7.88,32.21-12.44,51.2s-8.57,34.24-8.9,33.91-3.13-10.17-6.21-21.87-6.38-22.2-7.33-23.35c-1.59-1.9,3.37-25.74,13.21-63.52l1.43-5.48,3.64,2.86c2,1.57,7,4,11.17,5.3M632.71,342.4a11.73,11.73,0,0,1,5.34,4.56c3.34,6.25,14.49,52.07,13.56,55.76-2.2,8.75-14.59,12.28-21.47,6.12-5.45-4.89-17.87-53.1-15.29-59.33,3.15-7.59,9.71-10.21,17.86-7.11m-11.89,6.33c-3.94,4.19-4,8.82-.26,12.6,6.25,6.24,16,2,16-6.92,0-8.35-9.85-11.91-15.7-5.68M603.7,360.87c.53,6.93.46,13-.16,13.6-.81.74-82.58,24.22-119.7,34.38-2.14.58-2.54-.32-2.54-5.68,0-6.49-2.49-11.51-7.91-15.94-2.85-2.33-2.78-2.43,2.86-4,3.18-.88,31.89-9,63.8-18.14s59.07-16.61,60.36-16.69c1.89-.12,2.5,2.17,3.29,12.45m28.41-9c3.87,4.67-1.84,10.92-7.3,8-2.69-1.44-3.83-7.12-1.83-9.12,1.73-1.73,7.34-1,9.13,1.13m-15,31.75,1.74,6.83-4.57,2.38c-14.86,7.71-104.9,48.33-107.13,48.33-1.47,0-12.27,4.89-24,10.88s-21.41,10.88-21.55,10.88c-.61,0,17.1-47.28,18.09-48.28C481.07,413.21,612.06,376,614,376.42c.76.19,2.16,3.41,3.12,7.16M468.92,389.5c4.62,1.93,9.45,8.42,9.5,12.74,0,1-5,15.82-11.15,32.84l-11.18,31L423,482.6c-18.2,9.1-33.08,16.06-33.06,15.46s13.94-24.59,31-53.32c35.19-59.42,35.94-60.28,48-55.24m165.81.95c-4.44,2.58-5.91,6.93-4,11.65,3,7.19,13.89,7.58,17.06.61,3.84-8.41-5.21-16.86-13.11-12.26m-178.09,5.7c-5.44,5.43-1.39,16,6.15,16,3.16,0,9.81-6.21,9.81-9.16,0-7.65-10.59-12.16-16-6.79M643.48,395c4.65,4.64-.25,11.4-6.28,8.65a5.39,5.39,0,0,1,2.22-10.39,6.61,6.61,0,0,1,4.06,1.74m-24.92,15.29c1,7,1.41,13.07.85,13.54-1,.8-81.71,38.1-86.26,39.85-1.59.6-2.38-.75-3.12-5.35s-2.46-7.57-6.58-11.49l-5.6-5.33L566.67,419c26.85-12.39,49.08-22.27,49.41-22s1.44,6.28,2.48,13.26m-151-11.15c2.24,3.62-.75,8.82-4.8,8.35s-5.69-3.69-4.12-7.79c.93-2.42,7.52-2.83,8.92-.56m53.77,51.27c5.39,5.39,6.57,13,3,19.34-2.21,4-129.87,94.67-133.27,94.67-6.46,0-7.2-3.26-6.72-29.9.57-31.47-5.91-25.29,63.56-60.6,63.36-32.21,64.38-32.53,73.4-23.51m-21.18,5.22c-2.23,2.23-2.94,4.5-2.62,8.28,1.1,12.9,17.75,13.63,20.94.93,2.29-9.11-11.5-16-18.32-9.21m11.28,2.26c5.57,3.89,3.44,12.25-3.12,12.25-6.95,0-10.05-6.82-5.26-11.61,3.49-3.49,4.23-3.55,8.38-.64m55.45,67.4c20.34,29.47,38,55.07,39.17,56.88l2.17,3.29-4.08-2.62c-6.83-4.41-24.2-2-24.2,3.38,0,4.29-5.52-2.91-36.07-47.05C504.3,482,507.22,488,516,482a69.92,69.92,0,0,0,9.62-7.62c1.42-1.55,3-2.81,3.43-2.78s17.52,24.18,37.86,53.65M538,537.22c17.78,25.73,33.59,48.54,35.14,50.68l2.83,3.89-17.24,26.93c-9.48,14.81-17.58,26.94-18,26.94-1,0-102.6-104.75-103.24-106.38-.43-1.11,65-48.58,67.22-48.76.53,0,15.51,21,33.28,46.7m-140.2-9.85c-4.36,4.35-4.55,9.3-.56,14.37,6,7.56,18.75,2.89,18.75-6.85,0-5-5.93-11.09-10.88-11.09-2.06,0-5.36,1.6-7.31,3.57M411,531.58c2.56,3.91,1.64,7.58-2.45,9.78-6.16,3.29-13.12-6.49-8.14-11.46,2.85-2.86,8.17-2,10.59,1.68M536.44,648c1.43,2.59.8,4.38-4.24,12.33-3.24,5.12-5.91,10.18-5.92,11.24s-.51,1.72-1.12,1.45c-1.57-.69-113.49-115.36-113.49-116.28,0-.43,4.74-4.13,10.52-8.23L432.71,541l51,52c28.07,28.58,51.79,53.32,52.71,55m59.71-58.16c21.6,10.86,46,33.1,46.14,42.15,0,2.1-73.47,70.71-77.45,72.29-6,2.36-35.67-21.6-35.67-28.77,0-2.65,39.87-67.42,52.5-85.29,3.47-4.91,5.35-5,14.48-.38m262.34,5.05c-6.34,12.41-9.38,34-5.75,40.79,2.48,4.64,4.08,1.81,2.63-4.63-1.65-7.36.18-18.18,5.22-30.78,5.17-12.9,3.68-16.71-2.1-5.38m20.64,17.09c-4.78,10.83-3.17,24.87,5.4,47.38,4.08,10.71,4.15.72.08-10.82-4.89-13.88-5.67-26-2.21-34.25,3.91-9.34.8-11.54-3.27-2.31m-263,6c-7.17,5.8-2.56,19,6.62,19,5.47,0,10.92-5.35,10.92-10.73a10.65,10.65,0,0,0-17.54-8.31m13.29,4.72c2.53,4.73-.4,10-5.59,10-4.85,0-7.57-2.34-7.57-6.53,0-6.71,10-9.33,13.16-3.44m-73.6,51.28c-5.85,4.09-5.43,12.94.84,17.76s16.08-.88,16.08-9.07a10.57,10.57,0,0,0-16.92-8.69m11.12,3.66c4.9,4.9,2.52,11.6-4.11,11.6-7.6,0-10.37-8-4.27-12.24,4.15-2.91,4.89-2.85,8.38.64m401.63,2.11c27.16,7.23,43.79,24.92,51.57,54.86,2,7.73,4.89,16.47,6.4,19.41l2.75,5.35-10.12,21.35L1009,802l-6.72.69c-3.7.38-12.93,3.17-20.51,6.2-35.64,14.25-71.13,3.39-89.11-27.28L889,775.27l6.75-21.65c8.18-26.29,5.79-23.28,25.17-31.75s24.65-7.51,16.72,2.89c-2.21,2.9-3.46,5.81-2.77,6.46,2.06,1.94,55.52,16.6,56.6,15.52,1.79-1.79-.5-2.67-25.88-10-29.5-8.49-27-7-22.31-13.24l3.82-5-5.48-4.24c-3-2.34-11.29-8.4-18.38-13.46-12-8.59-12.7-9.35-10.16-11.26,14-10.47,37.52-14.66,55.49-9.87m-47.82,24,12.18,8.7-11.46,5.07c-23.1,10.22-20.7,7.62-27.88,30.4s-8.69,23.34-10,3.95c-1.3-18.9,4.49-36.84,16.35-50.69,6.62-7.74,6.32-7.77,20.82,2.57M572.83,727c4.48,4.79,12.92,21.18,12.92,25.08,0,2.07-3.45,2.33-30.41,2.33H524.93l5-11.57c8.87-20.72,8.26-20.24,25.91-20.29,12.52-.05,12.94.07,17,4.45m65,33.89c10.21,5.17,35.89,32.2,33.18,34.91-.38.39-60.25.53-133,.33l-132.34-.37,8.25-11.61c20.52-28.87,9.51-26.5,124.38-26.68l92.53-.16,7,3.58m397.53,8.3c.24,5.2-15.3,33.09-18.42,33.09-2,0-3.32-.56-3.05-1.24,10-25.79,21-42.09,21.47-31.85m7.95,4.89,3.45,2.26-7.33,15.81-7.34,15.8-4-2.09-4-2.08,7.46-16c4.11-8.79,7.67-16,7.92-16a24.43,24.43,0,0,1,3.9,2.26m11.32,7c2.48,1.88-10,32.89-13.17,32.74-6.32-.29-6.1-3.8,1.17-19.33,7.56-16.16,7.9-16.53,12-13.41m11.2,17.34c0,8.82-6.81,16.9-14.32,16.9-5.64,0-5.76.92,2.3-16.23l6.8-14.46,2.59,3.38c1.66,2.16,2.62,5.92,2.63,10.41m6.15,9.62c-4,9.17-4.37,14.37-.61,9.8,1.36-1.64,9-18.11,9-19.38,0-3.91-4.91,1.7-8.39,9.58m-388.41,1.65c5.22,4.87,9.48,9.44,9.48,10.15s-69.47,1.28-163.23,1.28H366.63l2.08-4a37.56,37.56,0,0,1,6.2-7.91c9.2-8.72,1.18-8.3,156.75-8.36l142.47-.06,9.48,8.88M408.41,997l-6.89,1.43V1091h16v-24.43c0-28,.41-29,12.21-30.32,5.81-.66,7-.26,10.93,3.69l4.43,4.42V1091h16.28l-.56-25c-.86-37.93-13.44-51.43-38.26-41.06l-5,2.1v-15.88c0-8.73-.48-15.81-1.08-15.71s-4.19.82-8,1.61m-368.86,3.14C17,1010,20.26,1035.05,45.87,1049.1c28,15.35,20.4,38.91-8.32,25.89-7.24-3.29-6.95-3.42-10.45,4.4-7.72,17.23,37.46,17.37,49.06.16,9.52-14.16,1.41-31.47-19.76-42.16-24.73-12.48-16.85-34.69,8.26-23.29l6.22,2.83L72.4,1013c3.11-8.07,2.41-11-3.08-12.89-6.75-2.35-24.28-2.3-29.77.09m444.22.56c-3.27,3.62-3.13,9.43.31,12.54,7.05,6.37,17.76-2.1,13.13-10.4-2.8-5-9.81-6.15-13.44-2.14m-125.41,7.62c-5.94,2.64-6.16,3-6.16,9.33,0,6-.29,6.58-3.63,6.58s-3.63.58-3.63,5.8.37,5.81,3.63,5.81h3.63l0,17c.07,33.08,6.33,41.61,28.54,38.84l7.69-1v-14.23l-4,1.52c-12.73,4.84-16.34-.66-16.34-24.89v-17.31H387v-11.61H368.15v-9.43c0-10.57-.24-10.73-9.79-6.48m594.76-.36c-6.07,2.33-6.16,2.48-6.16,9.32,0,6.45-.27,6.95-3.63,6.95s-3.63.58-3.63,5.8.37,5.81,3.63,5.81H947l0,17.77c.06,32.7,6.2,40.9,28.54,38.11l7.69-1v-14.23l-4,1.52c-12.73,4.84-16.34-.66-16.34-24.89v-17.31h18.86v-11.61H962.91v-9.43c0-10.49-.1-10.57-9.79-6.84M631.3,1022.88c-2.47,2.48-3.62,2.72-6.95,1.46-26.06-9.92-49.4,19.37-31.45,39.46l4.11,4.6-4.18,3.91c-11.08,10.34-3.77,18,17.23,18,11.3,0,16.54.56,18.26,2,9.64,8-10.19,14.87-24.28,8.42L596,1097l-4.43,5.35-4.42,5.34,3.12,2.55c24.16,19.75,70.5-4.74,50.76-26.82l-4.24-4.74-15.61-.05c-10.39,0-15.79-.61-16.16-1.72-.87-2.63,4.07-4.44,12.07-4.43,18,0,29.36-16.06,23.36-33-2-5.61-1.94-5.91,1.49-8.5l3.56-2.68-4.83-4.14c-5.84-5-5.65-5-9.33-1.29m747.08,0c-2.48,2.48-3.63,2.72-7,1.46-26.26-10-49.27,19.2-31.29,39.67l4.3,4.89-3.61,2.37c-13.78,9-2.76,20.73,18,19.17,10-.76,13-.5,15.66,1.34,11.38,8-8.75,15.62-23.42,8.91L1343,1097l-4.43,5.35-4.43,5.34,3.12,2.55c24.17,19.75,70.51-4.74,50.77-26.82l-4.24-4.74-15.61-.05q-15.6-.06-16.16-1.72c-.88-2.63,4.07-4.44,12.06-4.43,18,0,29.24-15.62,23.46-32.57-2.07-6.08-2-6.32,1.42-8.92l3.54-2.67-4.83-4.14c-5.85-5-5.65-5-9.33-1.29m-1270.72,2.69c-26.76,12.15-23.29,58.78,4.87,65.4,23.32,5.47,40.89-9.2,40.92-34.16,0-25.59-23.26-41.47-45.79-31.24m78.39.18c-5.08,2.59-5.94,2.67-7.36.73-.94-1.28-3.85-2.21-6.9-2.21h-5.28V1091h16v-25.22c0-28.19.67-29.9,11.62-29.9,10.08,0,11.59,4,11.59,31.12v24h14.51v-49.11l3.82-3c4.92-3.87,12.67-3.91,16.49-.1,2.67,2.67,2.9,4.83,2.9,27.56V1091h16v-25.74c0-28.25-1.05-32.76-9-38.59-6.11-4.47-18.31-4.93-26.45-1l-6.61,3.2-6.26-3c-7.95-3.85-17.56-3.88-25-.1m108.33-1.27c-23.21,6.69-29.59,45.32-10.09,61.1,14.64,11.86,48.58,7.25,42.69-5.8l-2.59-5.75-5.26,2.69c-12,6.12-27.23.69-30.08-10.74l-1-4H312c26.52,0,25.73.31,25.67-9.91-.12-20.28-21.45-33.88-43.28-27.6m245-.69a41.82,41.82,0,0,0-6.06,3.62c-3.82,2.67-3.9,2.66-4.82-.21-.72-2.28-2.18-2.93-6.63-2.93h-5.7V1091h14.5v-23.09c0-29.05,1.38-32,14.84-32,11.52,0,14.16,6.52,14.17,35.18V1091h14.5l0-25c0-27.58-1.35-32.53-10.51-39.33-4.06-3-19.5-4.83-24.28-2.86m272,1.76c-28.92,13.26-25.81,59.19,4.44,65.47,10.16,2.1,32.55-1.48,32.55-5.21,0-5.34-7.33-12.7-9.37-9.4-5.36,8.66-31.24-.45-31.24-11V1062h47.54l.74-4.71c3.72-23.57-22.24-42-44.66-31.73m80.54-1.11a23.83,23.83,0,0,0-6.05,3.66c-2.22,2-2.61,1.93-4.07-.81-1.22-2.28-3-3-7.37-3h-5.75V1091h16v-49.36l4.72-2.88c16.68-10.18,22.84-2.56,22.84,28.24v24h16.19l-.48-25.74c-.45-24.24-.68-26.09-4-31.37-5.76-9.25-21.14-13.8-32-9.45m265.08,1.2c-4.48,2.46-5.44,2.61-5.44.81s-1.86-2.18-8-2.18h-8V1091h15.76l.46-24.06.46-24.07,4.27-3.66c3.69-3.18,5.2-3.56,11.25-2.85,6.7.8,15.83-8.07,12.11-11.77-2.51-2.52-17.69-1.82-22.91,1.05m47.49-.11c-15,6.81-22.12,26.39-16.47,45.27,10,33.31,58.37,26.27,61.66-9,2.67-28.6-20.75-47.42-45.19-36.31m82-1.66a37.25,37.25,0,0,0-6.05,3.54c-3.83,2.67-3.9,2.66-4.82-.21-.72-2.28-2.19-2.93-6.63-2.93h-5.71V1091h14.51v-23.09c0-26,.2-27,5.91-29.91,6.24-3.23,13.59-2.68,18.31,1.38l4.07,3.5.51,24.06L1307,1091h14.39l-.45-26.59-.46-26.6-4.17-5.47c-6.19-8.1-20.28-12.1-29.92-8.47m-813.8,6.2c0,5.48.24,5.81,4.35,5.81h4.35V1091h16v-66.73H472.6v5.8m218.1,3.2c1.9,5,7.61,20.42,12.69,34.21,11.7,31.73,11.54,31.7,23.67,4.33,4.85-11,9.15-19.92,9.55-19.91s4.67,9,9.49,19.92c12.76,29,11,30.86,35.81-37l3.85-10.52H770.38l-7,19.59c-3.86,10.78-7.44,19.1-8,18.5s-4.4-9.42-8.62-19.59c-10.39-25.07-11.16-25-21.63,1.13-4.31,10.77-8.08,19.34-8.38,19s-3.35-9-6.79-19.24L703.73,1025l-8.23-.44-8.24-.43,3.44,9.14m337.49-7.77c0,2.25,23.44,64.76,24.83,66.19,2.75,2.85,5.93-1.65,13.82-19.55,4.41-10,8.5-18.64,9.1-19.27s5.07,7.86,9.93,18.86c12.45,28.12,11.64,28.47,26.46-11.48l12.68-34.16c.5-1.31-1.48-1.82-7.1-1.82h-7.79l-6.2,17.77c-3.41,9.78-6.72,18.61-7.35,19.63-.73,1.19-4.06-5.08-9.22-17.41-10.86-25.91-11.72-25.94-22-.79-4.17,10.16-7.9,18.79-8.28,19.17s-3.59-8.08-7.11-18.83l-6.38-19.54h-7.68c-4.23,0-7.68.55-7.68,1.23M130.6,1037.88c9.49,7.21,8.4,34.6-1.58,39.95-18.55,9.93-32.84-22.07-17.28-38.69,3.54-3.77,14.57-4.51,18.86-1.26m186.89,2.24c8.49,8.49,6.46,10.26-11.71,10.26-17,0-17.43-.2-13.79-7.25,4.52-8.73,18.17-10.35,25.5-3m305.87-.42c5,6.35,2.48,18-4.36,20.15-12.86,4.08-22.44-11.33-13.33-21.43,3.76-4.17,14-3.43,17.69,1.28M833.72,1038c3.25,1.68,7.34,8.29,7.34,11.86,0,.29-7.51.51-16.68.51s-16.68-.36-16.68-.79c0-10.1,15.52-17,26-11.58m394.31,1.13c15.7,16.76-.43,50.43-18.2,38-14.7-10.3-8.4-41.25,8.39-41.25,5.13,0,7.49.78,9.81,3.26m142.41.56c6.48,8.25,1.26,20.84-8.65,20.84-11.1,0-16.58-13.48-9-22.12,3.67-4.18,13.93-3.44,17.64,1.28M96.88,1207.78c0,22.65,1.36,26.83,8.71,26.83a2.57,2.57,0,0,0,2.9-2.9c0-1.59-.91-2.9-2-2.9-3.23,0-3.78-3.43-3.78-23.32,0-17.78-.15-18.75-2.91-18.75s-2.9,1-2.9,21m-35.94,3.07c.39,21.94.54,23,3.3,23,2.55,0,3-1.11,3.33-9,.33-6.83.9-8.81,2.39-8.24,7.51,2.88,19.67-6.27,19.67-14.79,0-8.82-4.94-12.51-17.91-13.34l-11.18-.72.4,23m407.83-20.49a3.88,3.88,0,0,0,.49,3.78c2,2,6.46-.1,5.93-2.85-.61-3.19-5.29-3.87-6.42-.93m439.55,0a3.85,3.85,0,0,0,.48,3.78c2,2,6.46-.1,5.93-2.85-.61-3.19-5.29-3.87-6.41-.93m-639.17,2.35a6.19,6.19,0,0,0-2.54,5c0,2.2-.84,3.56-2.18,3.56s-2.17.67-2.17,1.5,1,1.86,2.17,2.33c1.66.63,2.18,3.34,2.18,11.36,0,13.5,3.23,18.57,11.39,17.89,3.69-.31,5.41-1.22,5.76-3,.39-2.1-.19-2.42-3.05-1.71-6,1.51-8.3-2.4-8.3-13.93V1205.6h4.35q4.35,0,4.35-2.17c0-1.44-1.43-2.18-4.26-2.18-3.81,0-4.31-.54-4.71-5-.39-4.28-.81-4.78-3-3.55m507.72,0a6.19,6.19,0,0,0-2.54,5c0,2.2-.84,3.56-2.18,3.56-1.19,0-2.17.67-2.17,1.5s1,1.86,2.17,2.33c1.66.63,2.18,3.34,2.18,11.36,0,13.5,3.23,18.57,11.4,17.89,3.69-.31,5.4-1.22,5.75-3,.4-2.1-.19-2.42-3-1.71-6,1.51-8.31-2.4-8.31-13.93V1205.6h4.35q4.37,0,4.36-2.17c0-1.44-1.44-2.18-4.27-2.18-3.8,0-4.31-.54-4.71-5-.39-4.28-.81-4.78-3-3.55m293,0a6.19,6.19,0,0,0-2.54,5c0,2.2-.84,3.56-2.18,3.56s-2.17.67-2.17,1.5,1,1.86,2.17,2.33c1.69.64,2.18,3.44,2.18,12.28,0,9.62.47,11.93,3,14.43,3.6,3.61,13.7,3.54,13.7-.08,0-1.26-1.06-2-2.52-1.75-6.4,1.07-8.36-2.09-8.36-13.53V1205.6h4.35c2.9,0,4.36-.72,4.36-2.17s-1.44-2.18-4.27-2.18c-3.81,0-4.31-.54-4.71-5-.39-4.28-.81-4.78-3-3.55m271.27,0a6.19,6.19,0,0,0-2.54,5c0,2.2-.84,3.56-2.18,3.56s-2.17.67-2.17,1.5,1,1.86,2.17,2.33c1.68.64,2.18,3.44,2.18,12.28,0,9.62.47,11.93,3,14.43,3.6,3.61,13.7,3.54,13.7-.08,0-1.26-1.06-2-2.52-1.75-6.4,1.07-8.36-2.09-8.36-13.53V1205.6h4.35q4.35,0,4.35-2.17c0-1.44-1.43-2.18-4.26-2.18-3.81,0-4.31-.54-4.71-5-.39-4.28-.81-4.78-3-3.55M80.93,1196.9c5.5,5.5.14,14.5-8.64,14.5H67.87V1194H73a11.55,11.55,0,0,1,8,2.9m339.45,2.85c0,1.24-1.68,1.47-5.67.8-6.27-1.06-13.63,1.77-15.19,5.84-1.88,4.88-.89,11.83,2.05,14.5,2.57,2.32,2.66,2.83.72,3.92-7,3.9-.69,9.65,9.5,8.67,5.64-.54,7.27-.19,8,1.7,2.1,5.47-8.27,9-15.31,5.27-1.91-1-3.14-.85-4.36.62-3.59,4.34,10.12,7.84,17.93,4.58,12.93-5.4,9.57-16.84-5-16.84-10.13,0-11.54-2.29-2.26-3.68s13.05-5.9,12.1-14.29c-.4-3.57-.13-7.08.6-7.81s.43-2.07-.91-3.18c-1.7-1.41-2.24-1.43-2.24-.1m-295.93,1c-13.15,5.19-14.93,25.47-2.78,31.75,7.21,3.73,21,1.07,18.12-3.51-.65-1-2.15-1.06-4.82,0-7.2,2.74-14.88-1.5-14.88-8.21,0-3.44.29-3.52,11.61-3.52h11.6v-4.83c0-8-10.9-14.76-18.85-11.63m30.18.64c-6.38,2.44-3.61,5.42,4.21,4.54,5.37-.61,7.06-.24,8.63,1.91,3,4.15,2.39,5-3.75,5-7.5,0-14.61,5.71-14.61,11.74,0,8.35,9.76,12.9,16.93,7.88,2.71-1.91,3.27-1.91,4.85,0,5.28,6.36,6.12,1.41,3.47-20.54-1.15-9.57-10-14.28-19.73-10.54m32.19.28c-7.58,3.82-5.36,12,4.62,17.12,4.1,2.1,5.54,3.73,5.54,6.33,0,4.18-4.33,6-8.68,3.7-3.35-1.78-5.83-.86-5.83,2.18,0,2.64,9.45,4.42,14.32,2.71,10.11-3.56,8.69-13.59-2.74-19.42-8.13-4.15-6.14-12,2.2-8.61,4.42,1.78,5.08,1.6,5.08-1.36,0-4.35-8.18-5.84-14.51-2.65m31-.45c-20.44,8.26-7.09,39.06,13.77,31.79,6.9-2.41,3.57-6-3.54-3.79-6.23,1.91-12.7-2-13.43-8.17l-.46-3.84h12.43c11.56,0,12.43-.21,12.43-3,0-10-11.33-17-21.2-13m82.17,1c-2.47,1.73-3.66,2-4.07.72-2.52-7.55-4.68-.63-4.68,15,0,21.35,3.71,24.94,4.57,4.41.56-13.66,2.55-17.28,9.53-17.39,2.62,0,4.16-1,4.48-2.61.65-3.37-5.08-3.42-9.83-.09m69.83-1c-5.45,2.29-3,5.13,3.93,4.56,6.25-.5,10.33,1.48,10.33,5,0,1.28-1.68,2-4.71,2-6.4,0-13.54,4.62-14.78,9.54-2.16,8.63,9.19,15.49,17.07,10.33,2.69-1.76,3.47-1.78,5-.1,2.8,3,6.67,2.58,5.26-.55-.63-1.4-1.52-7.9-2-14.46-1.08-15.61-8.22-21.4-20.16-16.35m66.2.12c-6.38,2.44-3.61,5.42,4.22,4.54,5.36-.61,7.05-.24,8.62,1.91,3,4.15,2.39,5-3.74,5-7.51,0-14.62,5.71-14.62,11.74,0,8.35,9.76,12.9,16.93,7.88,2.71-1.91,3.27-1.91,4.85,0,5.28,6.36,6.12,1.41,3.48-20.54-1.16-9.57-10-14.28-19.74-10.54m56.91.86c-2.48,1.73-3.66,2-4.07.72-2.53-7.57-4.69-.62-4.69,15.07,0,15.2.24,16.74,2.54,16.3,2.13-.4,2.66-2.6,3.27-13.48.67-12.07,1-13.14,4.34-14.81,7.06-3.51,9.37.08,9.85,15.32.38,12.05.68,13.24,3.27,13.24,4.84,0,4.24-26.29-.72-31.25-4.16-4.16-8.89-4.54-13.79-1.11m52.73-1.1c-11.68,5-12.59,26.6-1.33,31.73,9.37,4.27,18.42,0,21.1-10,3.9-14.47-7.48-27-19.77-21.78m37.21,1.1c-2.48,1.73-3.66,2-4.07.72-.32-.94-1.85-1.72-3.4-1.72-4,0-3.61,32.3.37,33.06,2,.39,2.47-1.38,2.9-12.08.55-13.21,4.08-19.53,9.71-17.37,2,.78,4.52-1.4,4.57-4,0-2-6.55-1.12-10.08,1.36m46.37-1.45a10.87,10.87,0,0,0-4,3.07c-1.64,2.06-1.82,2-1.82-.17,0-1.48-1.14-2.45-2.9-2.45-2.73,0-2.9,1-2.9,16.68s.17,16.68,2.9,16.68,2.9-1,2.9-11.67c0-13.12,3.58-19.48,10-17.8,2.4.63,3.06.14,3.06-2.27,0-3.07-2.48-3.77-7.25-2.07m21,.32c-12,5.24-13.94,24-3.19,30.74,7,4.41,22.35,2.13,19.26-2.87-.65-1-2.15-1.06-4.82,0-7.17,2.73-14.88-1.5-14.88-8.15,0-3.34.44-3.48,12-3.89l12-.42-.45-4.35c-.86-8.41-11.86-14.51-19.86-11m35.81-.07c-1.05.67-3.49.91-5.44.54l-3.53-.68v23.38c0,22.41.12,23.38,2.9,23.38,2.51,0,2.9-1,2.9-7.16v-7.17l5,.83c13.39,2.17,21.72-10.67,16.55-25.49-2.4-6.9-12.8-11.2-18.43-7.63m33.1.52c-14.14,7.32-9,33,6.61,33,18.44,0,20.29-31.51,2-34.18a16.75,16.75,0,0,0-8.62,1.14m38,.49c-1.81,1.26-3.23,1.58-3.23.72s-1.3-1.53-2.9-1.53c-2.73,0-2.9,1-2.9,16.79,0,15.2.24,16.74,2.54,16.3,2.11-.4,2.66-2.58,3.26-13.1.79-13.69,1.75-15.62,8.11-16.1,2.66-.21,4.37-1.24,4.67-2.83.63-3.25-5.06-3.41-9.55-.25m63.74-.79c-5.44,2.29-3,5.13,3.94,4.56,6.25-.5,10.33,1.48,10.33,5,0,1.28-1.68,2-4.71,2-6.4,0-13.54,4.62-14.78,9.54-2.16,8.63,9.19,15.49,17.07,10.33,2.68-1.76,3.47-1.78,5-.1,2.8,3,6.67,2.58,5.26-.55-.63-1.4-1.52-7.9-2-14.46-1.08-15.61-8.22-21.4-20.17-16.35m39,1c-2.48,1.73-3.66,2-4.07.72-2.53-7.57-4.69-.62-4.69,15.07,0,15.2.24,16.74,2.55,16.3,2.15-.41,2.6-2.46,3-13.76.41-13.17.45-13.3,4.57-14.73,8-2.78,10.24.71,10.24,15.79,0,12,.22,13,2.9,13,4.9,0,4.34-26.25-.66-31.25-4.16-4.16-8.89-4.54-13.79-1.11m65.59-.28c-6.64,4.77-1.84,15.63,8.33,18.86,3.88,1.23,3.93,7.46.06,8.69a8.48,8.48,0,0,1-5.7-.63c-4.19-2.24-6-1.88-6,1.22s2.71,4.5,9.22,4.5c14.51,0,15.35-13.77,1.3-20.89-8.14-4.12-5-10.92,3.67-7.88,3,1.07,6.4-1.89,4.43-3.86-2.12-2.12-12.42-2.12-15.36,0m26.11,0c-6.36,4.57-4.38,11.29,5.08,17.21,8.92,5.59,6.71,14.58-2.39,9.71-4.19-2.24-6-1.88-6,1.22s2.71,4.5,9.22,4.5c14.51,0,15.36-13.77,1.3-20.89-8.14-4.12-5-10.92,3.67-7.88,3,1.07,6.41-1.89,4.43-3.86-2.12-2.12-12.42-2.12-15.36,0m66.51-.41c-12.42,6.63-12.44,26.51,0,31.64,6.92,2.86,19.2-.16,16.75-4.13-.58-.94-2.64-.9-6,.13-6.25,1.92-12.74-2-13.47-8.09-.45-3.78-.45-3.78,11.6-4.21l12.06-.42-.31-4.26c-.63-8.71-12.62-14.92-20.58-10.66m78.92-.08c-13.49,7.42-9.59,33.13,5,33.13,10.07,0,16-6.45,16-17.4,0-13.22-10.84-21.33-21-15.73m50,.19c-7.58,3.82-5.36,12,4.62,17.12,4.1,2.1,5.54,3.73,5.54,6.33,0,4.18-4.33,6-8.68,3.7-3.3-1.77-5.83-.87-5.83,2.09,0,4.16,12.65,4.95,17.43,1.08,6.4-5.19,3.82-12.77-6.09-17.82-7.94-4.05-5.72-11.77,2.44-8.49,4.42,1.78,5.08,1.6,5.08-1.36,0-4.35-8.18-5.84-14.51-2.65m68.25-.5c-1.16.74-3.93,1-6.16.53l-4.06-.81v23.39c0,22.42.12,23.39,2.9,23.39,2.51,0,2.9-1,2.9-7.16v-7.17l5.06.83c10.67,1.73,18.15-5.21,18.15-16.82,0-12.54-10.39-21.49-18.79-16.18m35-.12c-1.05.67-3.5.91-5.44.54l-3.53-.68v23.38c0,22.41.12,23.38,2.9,23.38,2.5,0,2.9-1,2.9-7.07v-7.08l6.32.71c15,1.69,23.1-19.77,11.43-30.2-4.71-4.21-10.71-5.43-14.58-3m33.82,0c-15.08,6.53-10.41,33.51,5.8,33.51,18.5,0,20.45-31.7,2.1-34.11-2.75-.36-6.31-.09-7.9.6m37.32,1c-1.82,1.26-3.23,1.58-3.23.72s-1.31-1.53-2.9-1.53c-2.74,0-2.9,1-2.9,16.79,0,15.2.23,16.74,2.54,16.3,2.11-.4,2.66-2.58,3.26-13.1.79-13.69,1.75-15.62,8.1-16.1,2.66-.21,4.38-1.24,4.68-2.83.63-3.25-5.06-3.41-9.55-.25m-1006.23,8.79c2,5.28,4.57,11.89,5.74,14.68,3.55,8.5,2.83,13.42-2.23,15.33-5.35,2-6.36,7.6-1.08,6,7.63-2.28,9.2-4.68,16.53-25.18,7-19.59,7.18-20.46,4.21-20.46-2.62,0-3.74,2-7.15,12.45-2.24,6.84-4.26,12.22-4.51,12s-2.53-5.86-5.06-12.44c-3.51-9.13-5.25-12-7.33-12-2.58,0-2.54.51.88,9.6m148.57-7.42a2.16,2.16,0,0,0,2.13,2.17c1.69,0,2.2,2.88,2.53,14.13.36,12.1.79,14.19,3,14.61s2.54-1.1,2.54-16.3v-16.79H469c-3.54,0-5.08.65-5.08,2.18m439.55,0a2.15,2.15,0,0,0,2.12,2.17c1.69,0,2.21,2.88,2.54,14.13.36,12.1.78,14.19,3,14.61s2.53-1.1,2.53-16.3v-16.79h-5.08c-3.54,0-5.07.65-5.07,2.18M976,1215c0,18.13,6.45,24.77,16.94,17.43,2.72-1.91,3.17-1.91,3.9,0,3,7.88,5.27,1.7,5.27-14.53,0-15.71-.17-16.68-2.9-16.68s-2.9,1-2.9,12.29c0,14.22-3.36,19-10.94,15.51-3.41-1.56-3.57-2.22-3.57-14.72,0-12.11-.21-13.08-2.9-13.08s-2.9,1-2.9,13.78m194.38-.26c0,18.37,5.44,23.86,17.48,17.63,3.84-2,4.28-2,4.28,0a2.2,2.2,0,0,0,2.18,2.21c1.81,0,2.18-2.82,2.18-16.68,0-13.65-.39-16.68-2.12-16.68s-2.21,2.62-2.54,11.82c-.85,23.66-15.65,24.86-15.65,1.26,0-12.11-.22-13.08-2.9-13.08s-2.91,1-2.91,13.52m-1033.59-5.85c1.14,1.62,1.73,3.5,1.32,4.17-1.26,2-18,1.48-18-.6.09-7.47,12.1-10,16.64-3.57m95.65.54c1.46,3.82-.53,4.84-9.41,4.84-9.2,0-11-1.82-6.07-6.11s13.59-3.63,15.48,1.27m182.78-3c4.8,4.79,2,13.68-4.24,13.68-4.16,0-6.53-2.71-6.53-7.44,0-4.23,3.29-8.52,6.53-8.52a7.67,7.67,0,0,1,4.24,2.28m141.55.62c6.4,6.41,2.4,23.21-5.53,23.21-8.56,0-12.45-15.53-5.59-22.37,4.49-4.49,7.25-4.7,11.12-.84m105.31.74c5,5,3.37,6.51-6.76,6.51-10.5,0-12.07-4.82-2.77-8.54,5.17-2.06,5.52-2,9.53,2m36.16,1.21c6.54,9.34-1.33,23-11.74,20.38-5.14-1.29-5.47-21.7-.4-23.58,4.52-1.67,9.68-.31,12.14,3.2m32.8-2.08c4.81,3.9,4.92,16,.2,20.69-6.64,6.64-16.26-2-14.24-12.78,1.78-9.45,7.89-12.89,14-7.91m300.79,2c3.06,4.36,1.53,5.38-8,5.38-9.19,0-11-1.82-6.07-6.11,5.18-4.52,10.65-4.24,14.12.73m78.72-.79c3.57,4.68,1.62,17.86-3.12,21-9.32,6.22-17.84-13.84-9.45-22.23,3.43-3.43,9.46-2.84,12.57,1.21m115.72.87c7,10-2.51,25.09-12.46,19.76-4.43-2.37-4.16-21.3.33-23s9.67-.31,12.13,3.2m36.57,1c5.31,10.45-1.83,21.89-12,19.33-5.21-1.31-5.47-21.71-.31-23.62,4.67-1.72,10.29.23,12.35,4.29m32.5-3.13c7.21,5.84,3.25,23.34-5.28,23.34s-12.49-17.5-5.28-23.34c1.89-1.52,4.26-2.77,5.28-2.77s3.4,1.25,5.28,2.77m-1125.89,14.6c0,5.39-5.49,9.5-10.87,8.15-7.75-1.94-2.67-12.46,6-12.46,4.42,0,4.86.39,4.86,4.31m214.42,1.1c-.52,6.18-6.3,9.7-11,6.71-6-3.76-1.1-12.12,7-12.12,4.25,0,4.43.24,4,5.41m67-1.1c0,5.39-5.48,9.5-10.87,8.15-7.75-1.94-2.67-12.46,6-12.46,4.41,0,4.85.39,4.85,4.31m384.14,1.1c-.51,6.18-6.3,9.7-11,6.71-6-3.76-1.11-12.12,7-12.12,4.24,0,4.42.24,4,5.41"/><path id="path2" class="cls-2" d="M897.06,232.59c-2.47,2.21-8.21,14.76-17.76,38.8-7.77,19.55-15.14,36.38-16.39,37.4-6,4.93-28.95,20.87-29.39,20.42-.28-.29-2,.9-3.9,2.64s-20.46,15.09-41.31,29.65c-51.67,36.09-101.12,70.54-122,85-30.74,21.28-32.64,22.94-32.64,28.45,0,7.73-.63,7.4,63.83,33.64,13.16,5.36,34.7,14.17,47.87,19.57,32.78,13.45,84.33,34.58,113.15,46.38,30,12.29,81.2,33.33,115.32,47.39,58.42,24.07,55.24,23,59.48,20.21,5-3.25,6.32-7.32,4.88-14.54-.65-3.24-5.14-27.44-10-53.77-12-65.31-21.84-118.21-31.24-168.47-4.34-23.24-7.9-43.38-7.9-44.76s6.61-18.91,14.68-39c19.88-49.43,22.33-43.28-24.83-62.35C894,225,902.46,227.75,897.06,232.59"/><path id="path8" class="cls-3" d="M1262.36,1056.19c0,18,.21,25.29.47,16.32s.25-23.67,0-32.64-.47-1.64-.47,16.32m-127.65,2.17c0,18.35.21,25.66.46,16.24s.25-24.43,0-33.37-.46-1.22-.46,17.13m34.64,155.22c0,4.79.28,6.57.6,4a38.27,38.27,0,0,0,0-8.7c-.33-2.18-.6,0-.59,4.74"/></svg>